<?xml version="1.0" encoding="UTF-8" standalone="no"?>
<!-- Created with Inkscape (http://www.inkscape.org/) -->

<svg
   xmlns:dc="http://purl.org/dc/elements/1.1/"
   xmlns:cc="http://creativecommons.org/ns#"
   xmlns:rdf="http://www.w3.org/1999/02/22-rdf-syntax-ns#"
   xmlns:svg="http://www.w3.org/2000/svg"
   xmlns="http://www.w3.org/2000/svg"
   xmlns:sodipodi="http://sodipodi.sourceforge.net/DTD/sodipodi-0.dtd"
   xmlns:inkscape="http://www.inkscape.org/namespaces/inkscape"
   width="587.73767"
   height="461.52341"
   id="svg2"
   version="1.1"
   inkscape:version="0.48.4 r9939"
   sodipodi:docname="IHI.svg">
  <defs
     id="defs4" />
  <sodipodi:namedview
     id="base"
     pagecolor="#ffffff"
     bordercolor="#666666"
     borderopacity="1.0"
     inkscape:pageopacity="0.0"
     inkscape:pageshadow="2"
     inkscape:zoom="0.49497475"
     inkscape:cx="257.12249"
     inkscape:cy="216.0549"
     inkscape:document-units="px"
     inkscape:current-layer="layer1"
     showgrid="false"
     inkscape:object-paths="true"
     inkscape:snap-smooth-nodes="true"
     inkscape:snap-midpoints="true"
     inkscape:object-nodes="true"
     inkscape:window-width="1366"
     inkscape:window-height="716"
     inkscape:window-x="0"
     inkscape:window-y="0"
     inkscape:window-maximized="1"
     fit-margin-top="0"
     fit-margin-left="0"
     fit-margin-right="0"
     fit-margin-bottom="0" />
  <metadata
     id="metadata7">
    <rdf:RDF>
      <cc:Work
         rdf:about="">
        <dc:format>image/svg+xml</dc:format>
        <dc:type
           rdf:resource="http://purl.org/dc/dcmitype/StillImage" />
        <dc:title></dc:title>
      </cc:Work>
    </rdf:RDF>
  </metadata>
  <g
     inkscape:label="Layer 1"
     inkscape:groupmode="layer"
     id="layer1"
     transform="translate(-78.082597,-34.939543)">
    <path
       style="fill:#5d6c53;fill-opacity:1;stroke:none"
       d="M 351.99382,461.3154 215.03821,494.93857 78.082597,461.3154 l 0,-392.752687 136.955613,-33.62317 136.95561,33.62317 z"
       id="path4145"
       inkscape:connector-curvature="0"
       sodipodi:nodetypes="ccccccc" />
    <path
       style="font-size:medium;font-style:normal;font-variant:normal;font-weight:normal;font-stretch:normal;text-indent:0;text-align:start;text-decoration:none;line-height:normal;letter-spacing:normal;word-spacing:normal;text-transform:none;direction:ltr;block-progression:tb;writing-mode:lr-tb;text-anchor:start;baseline-shift:baseline;color:#000000;fill:#ffffff;fill-opacity:1;stroke:none;stroke-width:4.4000001;marker:none;visibility:visible;display:inline;overflow:visible;enable-background:accumulate;font-family:Sans;-inkscape-font-specification:Sans"
       d="m 206.31015,63.577764 -12.00076,2.863814 -60.82212,14.864612 -0.13619,19.774 17.86479,-4.363927 0,87.551127 -17.86479,-4.36392 0,19.774 60.95848,14.86459 12.00078,2.86383 0,-12.13714 0,-55.23086 8.72784,0 8.72784,0 0,55.23086 0,12.13714 12.00077,-2.86383 60.82213,-14.86459 0,-19.774 -17.72843,4.36392 0,-87.551127 17.72843,4.363927 0,-19.774 -60.82213,-14.864612 -12.00077,-2.863814 0,12.137147 0,55.230839 -8.72784,0 -8.72784,0 0,-55.230839 0,-12.137147 z m -19.2285,24.410675 0,105.006781 -16.63744,-4.09116 0,-96.824456 16.63744,-4.091165 z m 55.9127,0 16.63744,4.091165 0,96.824456 -16.63744,4.09116 0,-105.006781 z"
       id="path4053"
       inkscape:connector-curvature="0" />
    <g
       style="font-size:61.09486389px;font-style:normal;font-weight:normal;line-height:125%;letter-spacing:0px;word-spacing:0px;fill:#ffffff;fill-opacity:1;stroke:none;font-family:Sans"
       id="text4147">
      <path
         d="m 158.04852,237.06056 7.23626,0 0,50.16802 -7.23626,0 0,-50.16802"
         style="font-size:52.36702347px;font-variant:normal;font-weight:bold;font-stretch:normal;text-align:center;line-height:145.99999189%;text-anchor:middle;fill:#ffffff;font-family:Gobold;-inkscape-font-specification:Gobold Bold"
         id="path3381" />
      <path
         d="m 172.03522,242.89048 7.23626,0 6.85272,25.72326 0,-25.72326 6.6993,0 0,44.3381 -7.23627,0 -6.59702,-24.90502 0,24.90502 -6.95499,0 0,-44.3381"
         style="font-size:52.36702347px;font-variant:normal;font-weight:bold;font-stretch:normal;text-align:center;line-height:145.99999189%;text-anchor:middle;fill:#ffffff;font-family:Gobold;-inkscape-font-specification:Gobold Bold"
         id="path3383" />
      <path
         d="m 218.18877,242.89048 0,6.29018 -6.776,0 0,38.04792 -7.23627,0 0,-38.04792 -6.776,0 0,-6.29018 20.78827,0"
         style="font-size:52.36702347px;font-variant:normal;font-weight:bold;font-stretch:normal;text-align:center;line-height:145.99999189%;text-anchor:middle;fill:#ffffff;font-family:Gobold;-inkscape-font-specification:Gobold Bold"
         id="path3385" />
      <path
         d="m 242.94038,271.50313 2.35242,15.72545 -7.31297,0 -1.40634,-9.4097 -7.38968,0 -1.43191,9.4097 -7.28741,0 2.35243,-15.67431 5.11396,-28.66379 9.9211,0 5.0884,28.61265 m -7.31298,0 -2.76154,-18.46142 -2.76154,18.46142 5.52308,0"
         style="font-size:52.36702347px;font-variant:normal;font-weight:bold;font-stretch:normal;text-align:center;line-height:145.99999189%;text-anchor:middle;fill:#ffffff;font-family:Gobold;-inkscape-font-specification:Gobold Bold"
         id="path3387" />
      <path
         d="m 249.66524,242.89048 10.53477,0 c 6.42653,5e-5 9.6398,3.11104 9.63983,9.33299 l 0,6.64816 c -3e-5,3.90368 -1.90072,6.47771 -5.70208,7.72209 l 8.13121,20.63486 -7.92665,0 -6.52031,-19.50979 -0.92051,0.12785 0,19.38194 -7.23626,0 0,-44.3381 m 7.23626,6.29018 0,12.70821 1.66204,0 c 1.00573,2e-5 1.69612,-0.0596 2.07116,-0.17899 1.31257,-0.46023 1.96886,-1.40631 1.96887,-2.83825 l 0,-6.64816 c -10e-6,-2.0285 -1.04837,-3.04277 -3.14509,-3.04281 l -2.55698,0"
         style="font-size:52.36702347px;font-variant:normal;font-weight:bold;font-stretch:normal;text-align:center;line-height:145.99999189%;text-anchor:middle;fill:#ffffff;font-family:Gobold;-inkscape-font-specification:Gobold Bold"
         id="path3389" />
      <path
         d="m 150.81225,313.51641 7.23627,0 0,21.50423 6.31575,0 0,-21.50423 7.23626,0 0,50.16802 -7.23626,0 0,-21.50424 -6.31575,0 0,21.50424 -7.23627,0 0,-50.16802"
         style="font-size:52.36702347px;font-variant:normal;font-weight:bold;font-stretch:normal;text-align:center;line-height:145.99999189%;text-anchor:middle;fill:#ffffff;font-family:Gobold;-inkscape-font-specification:Gobold Bold"
         id="path3391" />
      <path
         d="m 178.22312,319.34633 18.76826,0 0,6.29018 -11.532,0 0,12.70821 9.9211,0 0,6.34132 -9.9211,0 0,12.68264 11.532,0 0,6.31575 -18.76826,0 0,-44.3381"
         style="font-size:52.36702347px;font-variant:normal;font-weight:bold;font-stretch:normal;text-align:center;line-height:145.99999189%;text-anchor:middle;fill:#ffffff;font-family:Gobold;-inkscape-font-specification:Gobold Bold"
         id="path3393" />
      <path
         d="m 222.53565,347.95898 2.35242,15.72545 -7.31297,0 -1.40634,-9.4097 -7.38969,0 -1.43191,9.4097 -7.2874,0 2.35242,-15.67431 5.11397,-28.66379 9.9211,0 5.0884,28.61265 m -7.31298,0 -2.76154,-18.46142 -2.76154,18.46142 5.52308,0"
         style="font-size:52.36702347px;font-variant:normal;font-weight:bold;font-stretch:normal;text-align:center;line-height:145.99999189%;text-anchor:middle;fill:#ffffff;font-family:Gobold;-inkscape-font-specification:Gobold Bold"
         id="path3395" />
      <path
         d="m 244.34672,363.68443 -9.9211,0 -5.11397,-28.66379 -2.35242,-15.67431 7.31297,0 5.0884,34.1613 5.11396,-34.1613 7.31298,0 -2.35243,15.72545 -5.08839,28.61265"
         style="font-size:52.36702347px;font-variant:normal;font-weight:bold;font-stretch:normal;text-align:center;line-height:145.99999189%;text-anchor:middle;fill:#ffffff;font-family:Gobold;-inkscape-font-specification:Gobold Bold"
         id="path3397" />
      <path
         d="m 261.52965,319.34633 4.93497,17.28521 4.93498,-17.28521 7.67095,0 -8.77045,25.13515 -0.20456,0.56254 0,18.64041 -7.23626,0 0,-18.64041 -0.23013,-0.56254 -8.77046,-25.13515 7.67096,0"
         style="font-size:52.36702347px;font-variant:normal;font-weight:bold;font-stretch:normal;text-align:center;line-height:145.99999189%;text-anchor:middle;fill:#ffffff;font-family:Gobold;-inkscape-font-specification:Gobold Bold"
         id="path3399" />
      <path
         d="m 99.084477,389.97226 7.236263,0 0,50.16802 -7.236263,0 0,-50.16802"
         style="font-size:52.36702347px;font-variant:normal;font-weight:bold;font-stretch:normal;text-align:center;line-height:145.99999189%;text-anchor:middle;fill:#ffffff;font-family:Gobold;-inkscape-font-specification:Gobold Bold"
         id="path3401" />
      <path
         d="m 113.07118,395.80218 7.23626,0 6.85272,25.72326 0,-25.72326 6.69929,0 0,44.3381 -7.23626,0 -6.59702,-24.90502 0,24.90502 -6.95499,0 0,-44.3381"
         style="font-size:52.36702347px;font-variant:normal;font-weight:bold;font-stretch:normal;text-align:center;line-height:145.99999189%;text-anchor:middle;fill:#ffffff;font-family:Gobold;-inkscape-font-specification:Gobold Bold"
         id="path3403" />
      <path
         d="m 140.48204,395.80218 11.14845,0 c 6.42653,5e-5 9.6398,3.11104 9.63983,9.33299 l 0,25.69769 c -3e-5,6.1879 -3.36672,9.29037 -10.10009,9.30742 l -10.68819,0 0,-44.3381 m 7.23627,6.29018 0,31.73217 3.17065,0 c 2.09672,0 3.14508,-0.99722 3.14509,-2.99167 l 0,-25.69769 c -1e-5,-2.0285 -1.04837,-3.04277 -3.14509,-3.04281 l -3.17065,0"
         style="font-size:52.36702347px;font-variant:normal;font-weight:bold;font-stretch:normal;text-align:center;line-height:145.99999189%;text-anchor:middle;fill:#ffffff;font-family:Gobold;-inkscape-font-specification:Gobold Bold"
         id="path3405" />
      <path
         d="m 187.91409,431.62552 c -3e-5,6.20495 -3.469,9.31594 -10.40693,9.33299 -6.9209,0 -10.38135,-3.11099 -10.38135,-9.33299 l 0,-35.74663 7.23626,0 0,35.74663 c -10e-6,1.99446 1.04836,2.99168 3.14509,2.99167 2.11376,1e-5 3.17065,-0.99721 3.17066,-2.99167 l 0,-35.74663 7.23627,0 0,35.74663"
         style="font-size:52.36702347px;font-variant:normal;font-weight:bold;font-stretch:normal;text-align:center;line-height:145.99999189%;text-anchor:middle;fill:#ffffff;font-family:Gobold;-inkscape-font-specification:Gobold Bold"
         id="path3407" />
      <path
         d="m 193.76958,404.49593 c 0,-6.20491 3.46044,-9.30738 10.38135,-9.30742 6.93793,4e-5 10.4069,3.10251 10.40693,9.30742 l 0,5.95777 -7.23627,0 0,-5.95777 c -10e-6,-1.99441 -1.04838,-2.99164 -3.14509,-2.99168 l -0.0511,0 c -2.07969,4e-5 -3.11953,0.99727 -3.11952,2.99168 l 0,4.01446 c -1e-5,1.97743 2.25866,4.39804 6.77601,7.26183 4.51732,2.8468 6.77598,6.26463 6.77601,10.25351 l 0,5.59979 c -3e-5,6.222 -3.46048,9.33299 -10.38136,9.33299 -6.93795,-0.017 -10.40692,-3.12804 -10.40692,-9.33299 l 0,-5.95777 7.23626,0 0,5.95777 c -1e-5,1.99446 1.05688,2.99168 3.17066,2.99167 2.09671,1e-5 3.14508,-0.99721 3.14509,-2.99167 l 0,-5.06283 c -10e-6,-2.14785 -2.25868,-4.65369 -6.776,-7.51753 -4.51735,-2.84675 -6.77601,-6.3072 -6.77601,-10.38135 l 0,-4.16788"
         style="font-size:52.36702347px;font-variant:normal;font-weight:bold;font-stretch:normal;text-align:center;line-height:145.99999189%;text-anchor:middle;fill:#ffffff;font-family:Gobold;-inkscape-font-specification:Gobold Bold"
         id="path3409" />
      <path
         d="m 239.41174,395.80218 0,6.29018 -6.77601,0 0,38.04792 -7.23626,0 0,-38.04792 -6.77601,0 0,-6.29018 20.78828,0"
         style="font-size:52.36702347px;font-variant:normal;font-weight:bold;font-stretch:normal;text-align:center;line-height:145.99999189%;text-anchor:middle;fill:#ffffff;font-family:Gobold;-inkscape-font-specification:Gobold Bold"
         id="path3411" />
      <path
         d="m 243.98873,395.80218 10.53477,0 c 6.42654,5e-5 9.63981,3.11104 9.63983,9.33299 l 0,6.64816 c -2e-5,3.90368 -1.90071,6.47771 -5.70207,7.72209 l 8.13121,20.63486 -7.92665,0 -6.52031,-19.50979 -0.92051,0.12785 0,19.38194 -7.23627,0 0,-44.3381 m 7.23627,6.29018 0,12.70821 1.66204,0 c 1.00573,2e-5 1.69611,-0.0596 2.07115,-0.17899 1.31257,-0.46023 1.96886,-1.40631 1.96888,-2.83825 l 0,-6.64816 c -2e-5,-2.0285 -1.04838,-3.04277 -3.14509,-3.04281 l -2.55698,0"
         style="font-size:52.36702347px;font-variant:normal;font-weight:bold;font-stretch:normal;text-align:center;line-height:145.99999189%;text-anchor:middle;fill:#ffffff;font-family:Gobold;-inkscape-font-specification:Gobold Bold"
         id="path3413" />
      <path
         d="m 270.8115,395.80218 7.23626,0 0,44.3381 -7.23626,0 0,-44.3381"
         style="font-size:52.36702347px;font-variant:normal;font-weight:bold;font-stretch:normal;text-align:center;line-height:145.99999189%;text-anchor:middle;fill:#ffffff;font-family:Gobold;-inkscape-font-specification:Gobold Bold"
         id="path3415" />
      <path
         d="m 284.7982,395.80218 18.76826,0 0,6.29018 -11.532,0 0,12.70821 9.9211,0 0,6.34132 -9.9211,0 0,12.68264 11.532,0 0,6.31575 -18.76826,0 0,-44.3381"
         style="font-size:52.36702347px;font-variant:normal;font-weight:bold;font-stretch:normal;text-align:center;line-height:145.99999189%;text-anchor:middle;fill:#ffffff;font-family:Gobold;-inkscape-font-specification:Gobold Bold"
         id="path3417" />
      <path
         d="m 308.42472,404.49593 c 0,-6.20491 3.46045,-9.30738 10.38136,-9.30742 6.93793,4e-5 10.4069,3.10251 10.40692,9.30742 l 0,5.95777 -7.23626,0 0,-5.95777 c -2e-5,-1.99441 -1.04838,-2.99164 -3.14509,-2.99168 l -0.0511,0 c -2.07969,4e-5 -3.11953,0.99727 -3.11952,2.99168 l 0,4.01446 c -1e-5,1.97743 2.25865,4.39804 6.776,7.26183 4.51732,2.8468 6.77599,6.26463 6.77601,10.25351 l 0,5.59979 c -2e-5,6.222 -3.46047,9.33299 -10.38135,9.33299 -6.93796,-0.017 -10.40693,-3.12804 -10.40693,-9.33299 l 0,-5.95777 7.23627,0 0,5.95777 c -1e-5,1.99446 1.05687,2.99168 3.17066,2.99167 2.09671,1e-5 3.14507,-0.99721 3.14509,-2.99167 l 0,-5.06283 c -2e-5,-2.14785 -2.25869,-4.65369 -6.77601,-7.51753 -4.51734,-2.84675 -6.77601,-6.3072 -6.77601,-10.38135 l 0,-4.16788"
         style="font-size:52.36702347px;font-variant:normal;font-weight:bold;font-stretch:normal;text-align:center;line-height:145.99999189%;text-anchor:middle;fill:#ffffff;font-family:Gobold;-inkscape-font-specification:Gobold Bold"
         id="path3419" />
    </g>
    <text
       xml:space="preserve"
       style="font-size:14px;font-style:normal;font-weight:normal;line-height:125%;letter-spacing:0px;word-spacing:0px;fill:#000000;fill-opacity:1;stroke:none;font-family:Sans"
       x="253.04321"
       y="400.30872"
       id="text4151"
       sodipodi:linespacing="125%"><tspan
         sodipodi:role="line"
         id="tspan4153"
         x="253.04321"
         y="400.30872" /><tspan
         sodipodi:role="line"
         id="tspan4155"
         x="253.04321"
         y="417.80872" /></text>
    <text
       xml:space="preserve"
       style="font-size:14px;font-style:normal;font-weight:normal;line-height:125%;letter-spacing:0px;word-spacing:0px;fill:#000000;fill-opacity:1;stroke:none;font-family:Sans"
       x="278.80209"
       y="385.6615"
       id="text4159"
       sodipodi:linespacing="125%"><tspan
         sodipodi:role="line"
         id="tspan4161"
         x="278.80209"
         y="385.6615" /><tspan
         sodipodi:role="line"
         id="tspan4163"
         x="278.80209"
         y="403.1615" /></text>
    <path
       style="font-size:medium;font-style:normal;font-variant:normal;font-weight:normal;font-stretch:normal;text-indent:0;text-align:start;text-decoration:none;line-height:normal;letter-spacing:normal;word-spacing:normal;text-transform:none;direction:ltr;block-progression:tb;writing-mode:lr-tb;text-anchor:start;baseline-shift:baseline;color:#000000;fill:#676c53;fill-opacity:1;stroke:none;stroke-width:4.4000001;marker:none;visibility:visible;display:inline;overflow:visible;enable-background:accumulate;font-family:Sans;-inkscape-font-specification:Sans"
       d="m 538.20099,37.556837 -16.96441,4.04831 -85.97878,21.01278 -0.19252,27.95273 25.25386,-6.16889 0,123.763203 -25.25386,-6.1689 0,27.95274 86.17155,21.01275 16.96443,4.04834 0,-17.1572 0,-78.07492 12.33777,0 12.33777,0 0,78.07492 0,17.1572 16.96441,-4.04834 85.97881,-21.01275 0,-27.95274 -25.06109,6.1689 0,-123.763203 25.06109,6.16889 0,-27.95273 -85.97881,-21.01278 -16.96441,-4.04831 0,17.15719 0,78.074903 -12.33777,0 -12.33777,0 0,-78.074903 0,-17.15719 z m -27.18162,34.50718 0,148.438693 -23.51886,-5.78331 0,-136.872063 23.51886,-5.78332 z m 79.0388,0 23.51886,5.78332 0,136.872063 -23.51886,5.78331 0,-148.438693 z"
       id="path4053-0"
       inkscape:connector-curvature="0" />
    <g
       style="font-size:33.01038742px;font-style:normal;font-weight:normal;line-height:125%;letter-spacing:0px;word-spacing:0px;fill:#000000;fill-opacity:1;stroke:none;font-family:Sans"
       id="text3005">
      <path
         d="m 485.45832,167.13651 -9.56358,0 0,-41.59309 9.56358,0 0,41.59309"
         style="font-size:56.58923721px;font-variant:normal;font-weight:bold;font-stretch:normal;font-family:The Bold Font;-inkscape-font-specification:The Bold Font Bold"
         id="path3422" />
      <path
         d="m 515.08455,125.60001 9.56359,0 0,41.5365 -10.35583,0 -13.58142,-24.2202 0,24.2202 -9.56358,0 0,-41.42333 10.41242,0 13.52482,24.16361 0,-24.27678"
         style="font-size:56.58923721px;font-variant:normal;font-weight:bold;font-stretch:normal;font-family:The Bold Font;-inkscape-font-specification:The Bold Font Bold"
         id="path3424" />
      <path
         d="m 553.76595,125.43024 0,9.62017 -7.97908,0 0,32.0861 -9.56358,0 0,-32.0861 -7.9225,0 0,-9.62017 25.46516,0"
         style="font-size:56.58923721px;font-variant:normal;font-weight:bold;font-stretch:normal;font-family:The Bold Font;-inkscape-font-specification:The Bold Font Bold"
         id="path3426" />
      <path
         d="m 581.56188,167.13651 -1.64109,-5.03645 -13.07211,0 -1.69768,5.03645 -10.12948,0 14.14731,-41.5365 9.05428,0 13.41165,41.5365 -10.07288,0 m -11.43103,-14.60003 6.73412,0 -3.28218,-10.07288 -3.45194,10.07288"
         style="font-size:56.58923721px;font-variant:normal;font-weight:bold;font-stretch:normal;font-family:The Bold Font;-inkscape-font-specification:The Bold Font Bold"
         id="path3428" />
      <path
         d="m 607.05179,156.38455 c -0.49046,0.0755 -0.9809,0.13205 -1.47132,0.16977 -0.49046,0.0377 -0.99976,0.0755 -1.52791,0.11318 l 0,10.46901 -9.56358,0 0,-41.42333 9.56358,0 c 2.37673,0.0378 4.60257,0.47162 6.67753,1.30156 2.07492,0.83001 3.88577,1.94293 5.43257,3.33876 1.58447,1.3959 2.81057,3.01813 3.6783,4.86668 0.90539,1.84861 1.35811,3.82923 1.35814,5.94187 -3e-5,2.22586 -0.47161,4.3008 -1.41473,6.22481 -0.94318,1.88633 -2.2636,3.52741 -3.96125,4.92326 l 9.16746,14.82639 -11.26126,0 -6.67753,-10.75196 m -2.99923,-9.33722 c 1.01859,-0.0377 1.98061,-0.20748 2.88605,-0.50931 0.94314,-0.33951 1.75425,-0.77336 2.43334,-1.30155 0.71678,-0.52814 1.2638,-1.13176 1.64108,-1.81086 0.41497,-0.71677 0.62247,-1.47129 0.62249,-2.26356 -2e-5,-0.79223 -0.20752,-1.52789 -0.62249,-2.20699 -0.37728,-0.67904 -0.9243,-1.28265 -1.64108,-1.81085 -0.67909,-0.52814 -1.4902,-0.94312 -2.43334,-1.24496 -0.90544,-0.33951 -1.86746,-0.52814 -2.88605,-0.5659 l 0,11.71398"
         style="font-size:56.58923721px;font-variant:normal;font-weight:bold;font-stretch:normal;font-family:The Bold Font;-inkscape-font-specification:The Bold Font Bold"
         id="path3430" />
    </g>
    <path
       style="font-size:medium;font-style:normal;font-variant:normal;font-weight:normal;font-stretch:normal;text-indent:0;text-align:start;text-decoration:none;line-height:normal;letter-spacing:normal;word-spacing:normal;text-transform:none;direction:ltr;block-progression:tb;writing-mode:lr-tb;text-anchor:start;baseline-shift:baseline;color:#000000;fill:#676c53;fill-opacity:1;stroke:none;stroke-width:4.4000001;marker:none;visibility:visible;display:inline;overflow:visible;enable-background:accumulate;font-family:Sans;-inkscape-font-specification:Sans"
       d="m 538.20126,279.0099 -16.96441,4.04831 -85.97878,21.01278 -0.19252,27.95273 25.25386,-6.16889 0,123.7632 -25.25386,-6.1689 0,27.95274 86.17155,21.01275 16.96443,4.04834 0,-17.1572 0,-78.07492 12.33777,0 12.33777,0 0,78.07492 0,17.1572 16.96441,-4.04834 85.97881,-21.01275 0,-27.95274 -25.06109,6.1689 0,-123.7632 25.06109,6.16889 0,-27.95273 -85.97881,-21.01278 -16.96441,-4.04831 0,17.15719 0,78.07491 -12.33777,0 -12.33777,0 0,-78.07491 0,-17.15719 z m -27.18162,34.50718 0,148.43869 -23.51886,-5.78331 0,-136.87206 23.51886,-5.78332 z m 79.0388,0 23.51886,5.78332 0,136.87206 -23.51886,5.78331 0,-148.43869 z"
       id="path4053-0-7"
       inkscape:connector-curvature="0" />
  </g>
</svg>
