<?xml version="1.0" encoding="UTF-8" standalone="no"?>
<!-- Created with Inkscape (http://www.inkscape.org/) -->

<svg
   xmlns:dc="http://purl.org/dc/elements/1.1/"
   xmlns:cc="http://creativecommons.org/ns#"
   xmlns:rdf="http://www.w3.org/1999/02/22-rdf-syntax-ns#"
   xmlns:svg="http://www.w3.org/2000/svg"
   xmlns="http://www.w3.org/2000/svg"
   xmlns:sodipodi="http://sodipodi.sourceforge.net/DTD/sodipodi-0.dtd"
   xmlns:inkscape="http://www.inkscape.org/namespaces/inkscape"
   width="65.124115mm"
   height="61.370087mm"
   viewBox="0 0 230.75474 217.45306"
   id="svg4179"
   version="1.1"
   inkscape:version="0.91 r13725"
   sodipodi:docname="Logo_INI.svg">
  <defs
     id="defs4181" />
  <sodipodi:namedview
     id="base"
     pagecolor="#ffffff"
     bordercolor="#666666"
     borderopacity="1.0"
     inkscape:pageopacity="0.0"
     inkscape:pageshadow="2"
     inkscape:zoom="0.35"
     inkscape:cx="-59.62263"
     inkscape:cy="588.72653"
     inkscape:document-units="in"
     inkscape:current-layer="layer1"
     showgrid="false"
     fit-margin-top="0"
     fit-margin-left="0"
     fit-margin-right="0"
     fit-margin-bottom="0"
     inkscape:window-width="1366"
     inkscape:window-height="706"
     inkscape:window-x="-8"
     inkscape:window-y="-8"
     inkscape:window-maximized="1" />
  <metadata
     id="metadata4184">
    <rdf:RDF>
      <cc:Work
         rdf:about="">
        <dc:format>image/svg+xml</dc:format>
        <dc:type
           rdf:resource="http://purl.org/dc/dcmitype/StillImage" />
        <dc:title></dc:title>
      </cc:Work>
    </rdf:RDF>
  </metadata>
  <g
     inkscape:label="Layer 1"
     inkscape:groupmode="layer"
     id="layer1"
     transform="translate(-13.194059,-675.06425)">
    <path
       style="color:#000000;font-style:normal;font-variant:normal;font-weight:normal;font-stretch:normal;font-size:medium;line-height:normal;font-family:Sans;-inkscape-font-specification:Sans;text-indent:0;text-align:start;text-decoration:none;text-decoration-line:none;letter-spacing:normal;word-spacing:normal;text-transform:none;direction:ltr;block-progression:tb;writing-mode:lr-tb;baseline-shift:baseline;text-anchor:start;display:inline;overflow:visible;visibility:visible;fill:#676c53;fill-opacity:1;stroke:none;stroke-width:4.4000001;marker:none;enable-background:accumulate"
       d="m 116.32977,675.06425 -16.964411,4.04831 -85.97878,21.01278 -0.19252,27.95273 25.25386,-6.16889 0,123.7632 -25.25386,-6.1689 0,27.95274 86.17155,21.01275 16.964431,4.04834 0,-17.1572 0,-78.07492 12.33777,0 12.33777,0 0,78.07492 0,17.1572 16.96441,-4.04834 85.97881,-21.01275 0,-27.95274 -25.06109,6.1689 0,-123.7632 25.06109,6.16889 0,-27.95273 -85.97881,-21.01278 -16.96441,-4.04831 0,17.15719 0,78.07491 -12.33777,0 -12.33777,0 0,-78.07491 0,-17.15719 z m -27.181621,34.50718 0,148.43869 -23.51886,-5.78331 0,-136.87206 23.51886,-5.78332 z m 79.038801,0 23.51886,5.78332 0,136.87206 -23.51886,5.78331 0,-148.43869 z"
       id="path4053-0-7"
       inkscape:connector-curvature="0" />
  </g>
</svg>
