<?xml version="1.0" encoding="UTF-8" standalone="no"?>
<!-- Created with Inkscape (http://www.inkscape.org/) -->

<svg
   xmlns:dc="http://purl.org/dc/elements/1.1/"
   xmlns:cc="http://creativecommons.org/ns#"
   xmlns:rdf="http://www.w3.org/1999/02/22-rdf-syntax-ns#"
   xmlns:svg="http://www.w3.org/2000/svg"
   xmlns="http://www.w3.org/2000/svg"
   xmlns:sodipodi="http://sodipodi.sourceforge.net/DTD/sodipodi-0.dtd"
   xmlns:inkscape="http://www.inkscape.org/namespaces/inkscape"
   width="9550.5322"
   height="9000"
   viewBox="0 0 9550.5324 9000"
   id="svg4179"
   version="1.1"
   inkscape:version="0.91 r13725"
   sodipodi:docname="Logo_IHI_export.svg"
   inkscape:export-filename="C:\Users\sgmustadio\Documents\GitHub\Intar\Mechanical\Logo\Logo_IHI_export.png"
   inkscape:export-xdpi="90"
   inkscape:export-ydpi="90">
  <sodipodi:namedview
     id="base"
     pagecolor="#ffffff"
     bordercolor="#666666"
     borderopacity="1.0"
     inkscape:pageopacity="0.0"
     inkscape:pageshadow="2"
     inkscape:zoom="0.021875"
     inkscape:cx="3137.7344"
     inkscape:cy="4364.0461"
     inkscape:document-units="in"
     inkscape:current-layer="layer1"
     showgrid="true"
     fit-margin-top="0"
     fit-margin-left="0"
     fit-margin-right="0"
     fit-margin-bottom="0"
     inkscape:window-width="1366"
     inkscape:window-height="706"
     inkscape:window-x="-8"
     inkscape:window-y="-8"
     inkscape:window-maximized="1"
     units="px">
    <inkscape:grid
       type="xygrid"
       id="grid4140"
       units="px"
       spacingx="10"
       spacingy="10"
       originx="3.4000001e-005"
       originy="-3.1943947e-006" />
  </sodipodi:namedview>
  <defs
     id="defs4181" />
  <metadata
     id="metadata4184">
    <rdf:RDF>
      <cc:Work
         rdf:about="">
        <dc:format>image/svg+xml</dc:format>
        <dc:type
           rdf:resource="http://purl.org/dc/dcmitype/StillImage" />
        <dc:title></dc:title>
      </cc:Work>
    </rdf:RDF>
  </metadata>
  <g
     inkscape:label="Layer 1"
     inkscape:groupmode="layer"
     id="layer1"
     transform="translate(-13.194025,8107.4827)">
    <path
       style="color:#000000;font-style:normal;font-variant:normal;font-weight:normal;font-stretch:normal;font-size:medium;line-height:normal;font-family:Sans;-inkscape-font-specification:Sans;text-indent:0;text-align:start;text-decoration:none;text-decoration-line:none;letter-spacing:normal;word-spacing:normal;text-transform:none;direction:ltr;block-progression:tb;writing-mode:lr-tb;baseline-shift:baseline;text-anchor:start;display:inline;overflow:visible;visibility:visible;fill:#676c53;fill-opacity:1;stroke:none;stroke-width:4.4000001;marker:none;enable-background:accumulate"
       d="m 4281.8112,-8107.4749 0.031,-0.01 -0.031,0 0,0.01 z"
       id="path4171" />
    <path
       style="color:#000000;font-style:normal;font-variant:normal;font-weight:normal;font-stretch:normal;font-size:medium;line-height:normal;font-family:Sans;-inkscape-font-specification:Sans;text-indent:0;text-align:start;text-decoration:none;text-decoration-line:none;letter-spacing:normal;word-spacing:normal;text-transform:none;direction:ltr;block-progression:tb;writing-mode:lr-tb;baseline-shift:baseline;text-anchor:start;display:inline;overflow:visible;visibility:visible;fill:#676c53;fill-opacity:1;stroke:none;stroke-width:4.4000001;marker:none;enable-background:accumulate"
       d="m 2813.194,538.0583 0.8555,0.209 9.6914,2.3633 9.6914,2.3633 9.6933,2.3632 9.6914,2.3633 9.6915,2.3633 9.6914,2.3633 9.6933,2.3633 9.6914,2.3632 9.6895,2.3633 9.6933,2.3633 9.6914,2.3633 9.6914,2.3633 9.6915,2.3633 9.6933,2.3632 9.6914,2.3633 9.6914,2.3633 9.6914,2.3633 9.6914,2.3633 9.6914,2.3632 9.6915,2.3633 9.6914,2.3633 9.6914,2.3633 9.6933,2.3633 9.6914,2.3633 9.6914,2.3632 9.6895,2.3633 9.6933,2.3633 9.6915,2.3633 9.6914,2.3633 9.6914,2.3632 9.6914,2.3633 9.6914,2.3633 9.6914,2.3633 9.6914,2.3633 9.6914,2.3632 9.6914,2.3633 9.6934,2.3633 9.6894,2.3633 9.6914,2.3633 9.6895,2.3632 9.6933,2.3633 9.6914,2.3633 9.6915,2.3633 9.6914,2.3633 9.6914,2.3633 9.6914,2.3632 9.6914,2.3633 9.6914,2.3633 9.6933,2.3633 9.6895,2.3613 9.6914,2.3633 9.6914,2.3633 9.6914,2.3633 9.6914,2.3632 9.6914,2.3633 9.6934,2.3633 9.6894,2.3633 9.6914,2.3633 9.6914,2.3632 9.6934,2.3633 9.6895,2.3633 9.6933,2.3633 9.6914,2.3633 9.6934,2.3632 9.6914,2.3633 9.6914,2.3633 9.6934,2.3652 9.6894,2.3614 9.6914,2.3633 9.6914,2.3632 9.6914,2.3633 9.6914,2.3633 9.6934,2.3633 9.6914,2.3633 9.6914,2.3632 9.6895,2.3633 9.6914,2.3633 9.6914,2.3633 9.6914,2.3633 9.6191,2.2949 9.6192,2.2969 9.6172,2.2949 9.6191,2.2949 9.6172,2.2949 9.6191,2.295 9.6172,2.2949 9.6172,2.2949 9.6191,2.2949 9.6172,2.2969 9.6192,2.2949 9.6171,2.2949 9.6192,2.295 9.6172,2.2949 9.6191,2.2949 9.6172,2.2969 9.6172,2.2949 9.6191,2.2949 9.6192,2.2949 9.6172,2.295 9.6191,2.2949 9.6172,2.2969 9.6191,2.2949 9.6192,2.2949 9.6172,2.2949 9.6171,2.2949 9.6192,2.295 9.6172,2.2949 9.6191,2.2969 9.6172,2.2949 9.6191,2.2949 9.6172,2.2949 9.6192,2.295 9.6191,2.2968 9.6172,2.2949 9.6191,2.295 9.6192,2.2949 9.6172,2.2949 9.6191,2.2969 9.6192,2.2949 9.6171,2.2949 9.6192,2.295 9.6172,2.2949 9.6172,2.2949 9.6191,2.2969 9.6191,2.2949 9.6172,2.2949 9.6192,2.2949 9.6171,2.295 9.6192,2.2968 9.6191,2.295 9.6172,2.2949 9.6172,2.2949 9.6191,2.2949 9.6172,2.2949 9.6192,2.295 9.6191,2.2968 9.6192,2.295 9.6171,2.2949 9.6172,2.2949 9.6172,2.2949 9.6192,2.295 9.6171,2.2968 9.6192,2.295 9.6172,2.2949 9.6191,2.2949 9.6172,2.2949 9.6191,2.2949 9.6172,2.295 9.6172,2.2968 9.6192,2.295 9.6191,2.2949 9.6172,2.2949 0,-9.8633 0,-9.8633 0,-9.8632 0,-9.8633 0,-9.8614 0,-9.8632 0,-9.8633 0,-9.8633 0,-9.8633 0,-9.8613 0,-9.8633 0,-9.8633 0,-9.8633 0,-9.8632 0,-9.8614 0,-9.8632 0,-9.8614 0,-9.8632 0,-9.8614 0,-9.8633 0,-9.8632 0,-9.8633 0,-9.8614 0,-9.8632 0,-9.8633 0,-9.8633 0,-9.8613 0,-9.8633 0,-9.8613 0,-9.8633 0,-9.8633 0,-9.8613 0,-9.8614 0,-9.8632 0,-9.8633 0,-9.8633 0,-9.8633 0,-9.8613 0,-9.8633 0,-9.8613 0,-9.8633 0,-9.8633 0,-9.8633 0,-9.8632 0,-9.8633 0,-9.8613 0,-9.8633 0,-9.8633 0,-9.8613 0,-9.8633 0,-9.8613 0,-9.8633 0,-9.8633 0,-9.8633 0,-9.8613 0,-9.8633 0,-9.8613 0,-9.8633 0,-9.8652 0,-9.8614 0,-9.8633 0,-9.8613 0,-9.8633 0,-9.8632 0,-9.8633 0,-9.8614 0,-9.8632 0,-9.8633 0,-9.8633 0,-9.8633 0,-9.8613 0,-9.8633 0,-9.9726 0,-9.9727 0,-9.9727 0,-9.9746 0,-9.9726 0,-9.9746 0,-9.9727 0,-9.9746 0,-9.9727 0,-9.9726 0,-9.9727 0,-9.9746 0,-9.9726 0,-9.9746 0,-9.9727 0,-9.9727 0,-9.9726 0,-9.9727 0,-9.9746 0,-9.9726 0,-9.9727 0,-9.9746 0,-9.9727 0,-9.9746 0,-9.9726 0,-9.9727 0,-9.9746 0,-9.9726 0,-9.9727 0,-9.9746 0,-9.9727 0,-9.9746 0,-9.9726 0,-9.9727 0,-9.9726 0,-9.9746 0,-9.9727 0,-9.9746 0,-9.9727 0,-9.9726 0,-9.9746 0,-9.9727 0,-9.9727 0,-9.9746 0,-9.9726 0,-9.9727 0,-9.9746 0,-9.9726 0,-9.9727 0,-9.9746 0,-9.9727 0,-9.9746 0,-9.9746 0,-9.9726 0,-9.9727 0,-9.9726 0,-9.9747 0,-9.9726 0,-9.9746 0,-9.9727 0,-9.9726 0,-9.9746 0,-9.9727 0,-9.9746 0,-9.9727 0,-9.9746 0,-9.9726 0,-9.9746 0,-9.9746 0,-9.9727 0,-9.9746 0,-9.9727 0,-9.9726 0,-9.9727 0,-9.9726 0,-9.9747 0,-9.9726 0,-9.9707 0,-9.9746 0,-9.9727 0,-9.9726 0,-9.9746 0,-9.9727 0,-9.9727 0,-9.9746 0,-9.9726 0,-9.9746 0,-9.9727 0,-9.9726 0,-9.9727 0,-9.9746 0,-9.9727 0,-9.9746 0,-9.9746 0,-9.9726 0,-9.9727 0,-9.9746 0,-9.9727 0,-9.9726 0,-9.9746 0,-9.9727 0,-9.9746 0,-9.9726 0,-9.9727 0,-9.9746 0,-9.9727 0,-9.9746 0,-9.9726 0,-9.9727 0,-9.9746 0,-9.9746 0,-9.9727 0,-9.9746 0,-9.9726 0,-9.9727 0,-9.9746 0,-9.9727 0,-9.9726 0,-9.9727 0,-9.9746 0,-9.9726 0,-9.9727 0,-9.9746 0,-9.9727 0,-9.9746 0,-9.9746 0,-9.9726 0,-9.9727 0,-9.9746 0,-9.9726 0,-9.9727 0,-9.9746 0,-9.9727 0,-9.9726 0,-9.9727 0,-9.9746 0,-9.9707 0,-9.9746 0,-9.9727 0,-9.9726 0,-9.9727 0,-9.9746 0,-9.9726 0,-9.9727 0,-9.9727 0,-9.9726 0,-9.9746 0,-9.9727 0,-9.9746 0,-9.9726 0,-9.9747 0,-9.9726 0,-9.9746 0,-9.9727 0,-9.9726 0,-9.9727 0,-9.9726 0,-9.9746 0,-9.9727 0,-9.9727 0,-9.9726 0,-9.9746 0,-9.9727 0,-9.9726 0,-9.9727 0,-9.9746 0,-9.9727 0,-9.9726 0,-9.9746 0,-9.9727 0,-9.9746 0,-9.9726 0,-9.9747 0,-9.9726 0,-9.9746 0,-9.9727 0,-9.9746 0,-9.9726 0,-9.9727 0,-9.9746 0,-9.9727 0,-9.9726 0,-9.9727 0,-9.9726 0,-9.9746 0,-9.9727 0,-9.9727 0,-9.9726 0,-9.9746 0,-9.9727 0,-9.9746 0,-9.9726 0,-9.9727 0,-9.9746 0,-9.9746 0,-9.9727 0,-9.9726 0,-9.9727 0,-9.9746 0,-9.9727 0,-9.9726 0,-9.9746 0,-9.9727 0,-9.9746 0,-9.9746 0,-9.9727 0,-9.9726 0,-9.9746 0,-9.9707 0,-9.9746 0,-9.9746 0,-9.9727 0,-9.9727 0,-9.9746 0,-9.9726 0,-9.9727 0,-9.9726 0,-9.9746 0,-9.9727 0,-9.9727 0,-9.9726 0,-9.9727 0,-9.9726 0,-9.9746 0,-9.9727 0,-9.9726 0,-9.9747 0,-9.9746 0,-9.9746 0,-9.9726 0,-9.9727 0,-9.9726 0,-9.9746 0,-9.9727 0,-9.9727 0,-9.9746 0,-9.9726 0,-9.9746 0,-9.9727 0,-9.9727 0,-9.9726 0,-9.9746 0,-9.9746 0,-9.9727 0,-9.9726 0,-9.9727 0,-9.9746 0,-9.9727 0,-9.9726 0,-9.9746 0,-9.9727 0,-9.9726 0,-9.9746 0,-9.9747 0,-9.9726 0,-9.9727 0,-9.9746 0,-9.9726 0,-9.9746 0,-9.9727 0,-9.9727 0,-9.9726 0,-9.9746 0,-9.9746 0,-9.9746 0,-9.9707 0,-9.9747 0,-9.9726 0,-9.9746 0,-9.9727 0,-9.9726 0,-9.9727 0,-9.9746 0,-9.9727 0,-9.9746 0,-9.9726 0,-9.9727 0,-9.9746 0,-9.9746 0,-9.9726 0,-9.9727 0,-9.9727 0,-9.9746 0,-9.9746 0,-9.9726 0,-9.9727 0,-9.9727 0,-9.9726 0,-9.9746 0,-9.9727 0,-9.9746 0,-9.9726 0,-9.9746 0,-9.9727 0,-9.9727 0,-9.9746 0,-9.9726 0,-9.9727 0,-9.9746 0,-9.9726 0,-9.9727 0,-9.9727 0,-9.9726 0,-9.9746 0,-9.9727 0,-9.9726 0,-9.9746 0,-9.9747 0,-9.9726 0,-9.9727 0,-9.9726 0,-9.9746 0,-9.9727 0,-9.9746 0,-9.9746 0,-9.9727 0,-9.9726 0,-9.9727 0,-9.9746 0,-9.9746 0,-9.9727 0,-9.9726 0,-9.9746 0,-9.9727 9.8203,0 9.8184,0 9.8203,0 9.8203,0 9.8203,0 9.8184,0 9.8203,0 9.8203,0 9.8203,0 9.8203,0 9.8184,0 9.8183,0 9.8203,0 9.8204,0 9.8203,0 9.8203,0 9.8203,0 9.8203,0 9.8203,0 9.8203,0 9.8184,0 9.8203,0 9.8203,0 9.8203,0 9.8184,0 9.8203,0 9.8203,0 9.8203,0 9.8203,0 9.8203,0 9.8204,0 9.8203,0 9.8203,0 9.8183,0 9.8223,0 9.8184,0 9.8222,0 9.8184,0 9.8203,0 9.8184,0 9.8203,0 9.8183,0 9.8203,0 9.8204,0 9.8203,0 9.8222,0 9.8184,0 9.8203,0 9.8203,0 9.8223,0 9.8183,0 9.8184,0 9.8223,0 9.8183,0 9.8203,0 9.8204,0 9.8183,0 9.8203,0 9.8203,0 9.8204,0 9.8203,0 9.8183,0 9.8203,0 9.8184,0 9.8203,0 9.8203,0 9.8184,0 9.8203,0 9.8203,0 9.8223,0 9.8203,0 9.8183,0 9.8204,0 9.8203,0 9.8203,0 9.8203,0 9.8184,0 9.8203,0 9.8203,0 9.8203,0 9.8183,0 9.8204,0 9.8222,0 9.8203,0 9.8204,0 9.8183,0 9.8203,0 9.8203,0 9.8204,0 9.8203,0 9.8183,0 9.8203,0 9.8184,0 9.8203,0 9.8203,0 9.8203,0 9.8203,0 9.8204,0 9.8203,0 9.8203,0 9.8203,0 9.8203,0 9.8203,0 9.8184,0 0,9.9746 0,9.9727 0,9.9726 0,9.9727 0,9.9746 0,9.9727 0,9.9746 0,9.9726 0,9.9746 0,9.9727 0,9.9727 0,9.9726 0,9.9746 0,9.9727 0,9.9726 0,9.9727 0,9.9726 0,9.9747 0,9.9726 0,9.9746 0,9.9727 0,9.9726 0,9.9727 0,9.9746 0,9.9746 0,9.9727 0,9.9726 0,9.9746 0,9.9727 0,9.9746 0,9.9727 0,9.9726 0,9.9727 0,9.9726 0,9.9727 0,9.9746 0,9.9746 0,9.9727 0,9.9726 0,9.9746 0,9.9727 0,9.9746 0,9.9726 0,9.9727 0,9.9746 0,9.9727 0,9.9726 0,9.9746 0,9.9727 0,9.9746 0,9.9726 0,9.9747 0,9.9726 0,9.9727 0,9.9746 0,9.9726 0,9.9727 0,9.9746 0,9.9727 0,9.9746 0,9.9726 0,9.9727 0,9.9746 0,9.9726 0,9.9727 0,9.9746 0,9.9727 0,9.9746 0,9.9746 0,9.9726 0,9.9747 0,9.9746 0,9.9726 0,9.9727 0,9.9726 0,9.9727 0,9.9726 0,9.9727 0,9.9746 0,9.9727 0,9.9726 0,9.9727 0,9.9746 0,9.9726 0,9.9727 0,9.9746 0,9.9727 0,9.9726 0,9.9727 0,9.9746 0,9.9726 0,9.9747 0,9.9746 0,9.9726 0,9.9727 0,9.9746 0,9.9726 0,9.9746 0,9.9727 0,9.9727 0,9.9746 0,9.9726 0,9.9746 0,9.9727 0,9.9746 0,9.9727 0,9.9726 0,9.9746 0,9.9727 0,9.9726 0,9.9746 0,9.9747 0,9.9726 0,9.9746 0,9.9727 0,9.9726 0,9.9727 0,9.9726 0,9.9747 0,9.9726 0,9.9727 0,9.9746 0,9.9746 0,9.9726 0,9.9727 0,9.9746 0,9.9746 0,9.9727 0,9.9746 0,9.9726 0,9.9727 0,9.9727 0,9.9746 0,9.9726 0,9.9727 0,9.9726 0,9.9727 0,9.9746 0,9.9727 0,9.9726 0,9.9707 0,9.9746 0,9.9727 0,9.9746 0,9.9726 0,9.9727 0,9.9727 0,9.9746 0,9.9726 0,9.9746 0,9.9727 0,9.9746 0,9.9727 0,9.9726 0,9.9746 0,9.9727 0,9.9726 0,9.9727 0,9.9726 0,9.9747 0,9.9726 0,9.9727 0,9.9746 0,9.9726 0,9.9727 0,9.9726 0,9.9747 0,9.9726 0,9.9746 0,9.9727 0,9.9746 0,9.9726 0,9.9727 0,9.9746 0,9.9746 0,9.9707 0,9.9746 0,9.9727 0,9.9726 0,9.9747 0,9.9726 0,9.9727 0,9.9746 0,9.9726 0,9.9727 0,9.9726 0,9.9727 0,9.9746 0,9.9727 0,9.9746 0,9.9746 0,9.9726 0,9.9727 0,9.9746 0,9.9727 0,9.9726 0,9.9727 0,9.9746 0,9.9726 0,9.9746 0,9.9727 0,9.9727 0,9.9746 0,9.9726 0,9.9746 0,9.9727 0,9.9746 0,9.9727 0,9.9726 0,9.9746 0,9.9727 0,9.9726 0,9.9746 0,9.9727 0,9.9727 0,9.9726 0,9.9746 0,9.9727 0,9.9726 0,9.9746 0,9.9727 0,9.9727 0,9.9726 0,9.9727 0,9.9746 0,9.9726 0,9.9746 0,9.9747 0,9.9726 0,9.9727 0,9.9746 0,9.9726 0,9.9727 0,9.9746 0,9.9727 0,9.9726 0,9.9746 0,9.9727 0,9.9746 0,9.9726 0,9.9727 0,9.9746 0,9.9727 0,9.9726 0,9.9746 0,9.9727 0,9.9726 0,9.9746 0,9.9727 0,9.9727 0,9.9726 0,9.9746 0,9.9727 0,9.9746 0,9.9727 0,9.9746 0,9.9726 0,9.9727 0,9.9746 0,9.9746 0,9.9726 0,9.9727 0,9.9746 0,9.9727 0,9.9746 0,9.9726 0,9.9746 0,9.9727 0,9.9727 0,9.9726 0,9.9727 0,9.9746 0,9.9746 0,9.9726 0,9.9727 0,9.9727 0,9.9746 0,9.9746 0,9.9746 0,9.9726 0,9.9727 0,9.9727 0,9.9746 0,9.9726 0,9.9746 0,9.9727 0,9.9726 0,9.9707 0,9.9747 0,9.9746 0,9.9746 0,9.9726 0,9.9727 0,9.9726 0,9.9746 0,9.9727 0,9.9727 0,9.9746 0,9.9726 0,9.9727 0,9.9726 0,9.9747 0,9.9726 0,9.9727 0,9.9726 0,9.9746 0,9.9746 0,9.9727 0,9.9746 0,9.9727 0,9.9726 0,9.9727 0,9.9746 0,9.9746 0,9.9726 0,9.9747 0,9.9726 0,9.9727 0,9.9726 0,9.9746 0,9.9727 0,9.9726 0,9.9747 0,9.9726 0,9.8633 0,9.8633 0,9.8633 0,9.8632 0,9.8633 0,9.8633 0,9.8613 0,9.8633 0,9.8633 0,9.8633 0,9.8633 0,9.8632 0,9.8614 0,9.8632 0,9.8633 0,9.8614 0,9.8632 0,9.8614 0,9.8632 0,9.8614 0,9.8633 0,9.8632 0,9.8633 0,9.8613 0,9.8633 0,9.8633 0,9.8633 0,9.8633 0,9.8613 0,9.8633 0,9.8613 0,9.8633 0,9.8613 0,9.8633 0,9.8633 0,9.8633 0,9.8613 0,9.8633 0,9.8613 0,9.8633 0,9.8633 0,9.8613 0,9.8652 0,9.8614 0,9.8632 0,9.8633 0,9.8613 0,9.8633 0,9.8633 0,9.8613 0,9.8633 0,9.8633 0,9.8613 0,9.8633 0,9.8633 0,9.8613 0,9.8633 0,9.8633 0,9.8633 0,9.8613 0,9.8633 0,9.8632 0,9.8633 0,9.8633 0,9.8633 0,9.8613 0,9.8613 0,9.8633 0,9.8633 0,9.8633 0,9.8613 0,9.8633 9.6191,-2.2949 9.6192,-2.2969 9.6171,-2.2949 9.6192,-2.2949 9.6172,-2.295 9.6191,-2.2949 9.6172,-2.2949 9.6172,-2.2949 9.6191,-2.2949 9.6172,-2.2969 9.6192,-2.2949 9.6191,-2.295 9.6172,-2.2949 9.6191,-2.2949 9.6172,-2.2949 9.6172,-2.2969 9.6191,-2.2949 9.6172,-2.295 9.6192,-2.2949 9.6172,-2.2949 9.6191,-2.2949 9.6191,-2.2969 9.6192,-2.2949 9.6172,-2.2949 9.6172,-2.295 9.6171,-2.2949 9.6192,-2.2949 9.6172,-2.2949 9.6191,-2.2969 9.6192,-2.2949 9.6171,-2.2949 9.6172,-2.295 9.6192,-2.2949 9.6191,-2.2969 9.6191,-2.2949 9.6172,-2.2949 9.6192,-2.2949 9.6172,-2.295 9.6191,-2.2968 9.6191,-2.2949 9.6192,-2.295 9.6172,-2.2949 9.6172,-2.2949 9.6191,-2.2949 9.6172,-2.2969 9.6191,-2.2949 9.6192,-2.295 9.6172,-2.2949 9.6171,-2.2949 9.6192,-2.2969 9.6191,-2.2949 9.6172,-2.2949 9.6192,-2.2949 9.6171,-2.295 9.6172,-2.2949 9.6192,-2.2949 9.6191,-2.2969 9.6192,-2.2949 9.6171,-2.2949 9.6172,-2.2949 9.6192,-2.295 9.6172,-2.2949 9.6171,-2.2949 9.6192,-2.2969 9.6172,-2.2949 9.6191,-2.2949 9.6172,-2.2949 9.6191,-2.295 9.6172,-2.2949 9.6172,-2.2969 9.6192,-2.2949 9.6191,-2.2949 9.6172,-2.2949 9.6973,-2.3692 9.6953,-2.3711 9.6953,-2.3691 9.6972,-2.3691 9.6954,-2.3692 9.6953,-2.3711 9.6972,-2.3691 9.6953,-2.3692 9.6973,-2.3711 9.6953,-2.3691 9.6953,-2.3691 9.6973,-2.3692 9.6973,-2.3711 9.6953,-2.3691 9.6972,-2.3692 9.6973,-2.3711 9.6953,-2.3691 9.6973,-2.3691 9.6953,-2.3692 9.6973,-2.3711 9.6953,-2.3691 9.6972,-2.3691 9.6954,-2.3711 9.6953,-2.3692 9.6972,-2.3691 9.6953,-2.3692 9.6954,-2.3711 9.6953,-2.3691 9.6972,-2.3691 9.6953,-2.3692 9.6954,-2.3711 9.6953,-2.3691 9.6972,-2.3692 9.6954,-2.3691 9.6972,-2.3711 9.6973,-2.3691 9.6953,-2.3692 9.6953,-2.3711 9.6973,-2.3691 9.6972,-2.3691 9.6954,-2.3692 9.6972,-2.3711 9.6973,-2.3691 9.6953,-2.3692 9.6953,-2.3711 9.6953,-2.3691 9.6973,-2.3691 9.6953,-2.3692 9.6973,-2.3711 9.6953,-2.3691 9.6953,-2.3691 9.6973,-2.3692 9.6972,-2.3711 9.6953,-2.3691 9.6973,-2.3692 9.6953,-2.3711 9.6973,-2.3691 9.6953,-2.3691 9.6953,-2.3711 9.6973,-2.3692 9.6972,-2.3691 9.6953,-2.3692 9.6973,-2.3711 9.6973,-2.3691 9.6953,-2.3711 9.6973,-2.3691 9.6972,-2.3692 9.6953,-2.3691 9.6973,-2.3711 9.6973,-2.3691 9.6953,-2.3711 9.6953,-2.3692 9.6973,-2.3691 9.6972,-2.3692 9.6953,-2.371 9.6973,-2.3692 9.6953,-2.3691 9.6973,-2.3711 9.6953,-2.3692 9.6953,-2.3691 9.6973,-2.3691 9.6953,-2.3711 9.6972,-2.3692 3.1895,-0.7793 0,-1157.8652 -9.2051,2.2617 -9.6387,2.3711 -9.6367,2.3691 -9.6367,2.3692 -9.6387,2.3711 -9.6367,2.3691 -9.6386,2.3711 -9.6368,2.3692 -9.6367,2.3691 -9.6367,2.3711 -9.6387,2.3691 -9.6367,2.3692 -9.6387,2.3711 -9.6367,2.3691 -9.6367,2.3691 -9.6387,2.3711 -9.6367,2.3692 -9.6387,2.3711 -9.6367,2.3691 -9.6387,2.3691 -9.6386,2.3711 -9.6368,2.3692 -9.6367,2.3711 -9.6367,2.3691 -9.6387,2.3692 -9.6386,2.3711 -9.6367,2.3691 -9.6368,2.3711 -9.6386,2.3691 -9.6368,2.3692 -9.6386,2.3711 -9.6387,2.3691 -9.6367,2.3711 -9.6387,2.3691 -9.6387,2.3711 -9.6386,2.3692 -9.6368,2.3711 -9.6386,2.3691 -9.6387,2.3711 -9.6367,2.3691 0,-9.9882 0,-9.9903 0,-9.9902 0,-9.9883 0,-9.9902 0,-9.9903 0,-9.9882 0,-9.9903 0,-9.9883 0,-9.9882 0,-9.9903 0,-9.9902 0,-9.9883 0,-9.9902 0,-9.9903 0,-9.9882 0,-9.9903 0,-9.9902 0,-9.9902 0,-9.9883 0,-9.9903 0,-9.9882 0,-9.9903 0,-9.9902 0,-9.9902 0,-9.9903 0,-9.9883 0,-9.9902 0,-9.9883 0,-9.9902 0,-9.9902 0,-9.9903 0,-9.9883 0,-9.9902 0,-9.9883 0,-9.9902 0,-9.9902 0,-9.9903 0,-9.9883 0,-9.9902 0,-9.9902 0,-9.9903 0,-9.9882 0,-9.9883 0,-9.9903 0,-9.9902 0,-9.9902 0,-9.9903 0,-9.9902 0,-9.9883 0,-9.9902 0,-9.9902 0,-9.9883 0,-9.9903 0,-9.9882 0,-9.9903 0,-9.9902 0,-9.9883 0,-9.9902 0,-9.9883 0,-9.9902 0,-9.9903 0,-9.9883 0,-9.9882 0,-9.9903 0,-9.9883 0,-9.9902 0,-9.9883 0,-9.9902 0,-9.9902 0,-9.9903 0,-9.9883 0,-9.9902 0,-9.9883 0,-9.9902 0,-9.9883 0,-9.9902 0,-9.9903 0,-9.9882 0,-9.9903 0,-9.9902 0,-9.9883 0,-9.9883 0,-9.9902 0,-9.9883 0,-9.9902 0,-9.9902 0,-9.9903 0,-9.9902 0,-9.9903 0,-9.9902 0,-9.9902 0,-9.9883 0,-9.9902 0,-9.9883 0,-9.9903 0,-9.9902 0,-9.9883 0,-9.9902 0,-9.9883 0,-9.9902 0,-9.9883 0,-9.9902 0,-9.9903 0,-9.9883 0,-9.9902 0,-9.9883 0,-9.9902 0,-9.9902 0,-9.9883 0,-9.9902 0,-9.9883 0,-9.9903 0,-9.9882 0,-9.9903 0,-9.9883 0,-9.9922 0,-9.9882 0,-9.9903 0,-9.9882 0,-9.9903 0,-9.9902 0,-9.9883 0,-9.9922 0,-9.9883 0,-9.9902 0,-9.9883 0,-9.9902 0,-9.9903 0,-9.9882 0,-9.9903 0,-9.9902 0,-9.9902 0,-9.9883 0,-9.9902 0,-9.9903 0,-9.9902 0,-9.9903 0,-9.9902 0,-9.9883 0,-9.9902 0,-9.9902 0,-9.9903 0,-9.9883 0,-9.9902 0,-9.9902 0,-9.9903 0,-9.9882 0,-9.9903 0,-9.9902 0,-9.9902 0,-9.9883 0,-9.9903 0,-9.9902 0,-9.9902 0,-9.9883 0,-9.9902 0,-9.9903 0,-9.9883 0,-9.9902 0,-9.9902 0,-9.9903 0,-9.9902 0,-9.9883 0,-9.9902 0,-9.9883 0,-9.9922 0,-9.9883 0,-9.9902 0,-9.9902 0,-9.9883 0,-9.9883 0,-9.9902 0,-9.9903 0,-9.9882 0,-9.9883 0,-9.9903 0,-9.9902 0,-9.9902 0,-9.9903 0,-9.9902 0,-9.9883 0,-9.9902 0,-9.9902 0,-9.9883 0,-9.9903 0,-9.9882 0,-9.9903 0,-9.9902 0,-9.9902 0,-9.9903 0,-9.9883 0,-9.9902 0,-9.9902 0,-9.9903 0,-9.9882 0,-9.9903 0,-9.9902 0,-9.9883 0,-9.9902 0,-9.9903 0,-9.9902 0,-9.9883 0,-9.9902 0,-9.9902 0,-9.9903 0,-9.9883 0,-9.9902 0,-9.9883 0,-9.9902 0,-9.9902 0,-9.9883 0,-9.9903 0,-9.9882 0,-9.9903 0,-9.9902 0,-9.9883 0,-9.9902 0,-9.9903 0,-9.9902 0,-9.9902 0,-9.9903 0,-9.9882 0,-9.9903 0,-9.9902 0,-9.9903 0,-9.9882 0,-9.9903 0,-9.9902 0,-9.9883 0,-9.9902 0,-9.9902 0,-9.9883 0,-9.9903 0,-9.9902 0,-9.9883 0,-9.9902 0,-9.9883 0,-9.9902 0,-9.9883 0,-9.9902 0,-9.9883 0,-9.9903 0,-9.9902 0,-9.9883 0,-9.9902 0,-9.9902 0,-9.9903 0,-9.9883 0,-9.9902 0,-9.9902 0,-9.9903 0,-9.9882 0,-9.9903 0,-9.9883 0,-9.9882 0,-9.9903 0,-9.9883 0,-9.9921 0,-9.9883 0,-9.9883 0,-9.9902 0,-9.9903 0,-9.9902 0,-9.9883 0,-9.9902 0,-9.9883 0,-9.9922 0,-9.9883 0,-9.9902 0,-9.9902 0,-9.9883 0,-9.9903 0,-9.9902 0,-9.9902 0,-9.9883 0,-9.9902 0,-9.9903 0,-9.9883 0,-9.9902 0,-9.9902 0,-9.9883 0,-9.9902 0,-9.9903 0,-9.9902 0,-9.9883 0,-9.9902 0,-9.9883 0,-9.9902 0,-9.9903 0,-9.9883 0,-9.9902 0,-9.9902 0,-9.9903 0,-9.9882 0,-9.9903 0,-9.9922 0,-9.9883 0,-9.9902 0,-9.9902 0,-9.9903 0,-9.9882 0,-9.9922 0,-9.9883 0,-9.9902 0,-9.9903 0,-9.9883 0,-9.9902 0,-9.9902 0,-9.9922 0,-9.9902 0,-9.9883 0,-9.9903 0,-9.9882 0,-9.9903 0,-9.9902 0,-9.9902 0,-9.9883 0,-9.9903 0,-9.9882 0,-9.9903 0,-9.9883 0,-9.9902 0,-9.9902 0,-9.9883 0,-9.9902 0,-9.9903 0,-9.9883 0,-9.9882 0,-9.9903 0,-9.9902 0,-9.9883 0,-9.9902 0,-9.9883 0,-9.9902 0,-9.9883 0,-9.9903 0,-9.9882 0,-9.9903 0,-9.9882 0,-9.9903 0,-9.9883 0,-9.9902 0,-9.9902 0,-9.9883 0,-9.9903 0,-9.9902 0,-9.9902 0,-9.9883 0,-9.9902 0,-9.9903 0,-9.9902 0,-9.9902 0,-9.9903 0,-9.9883 0,-9.9902 0,-9.9922 0,-9.9883 0,-9.9902 0,-9.9902 0,-9.9883 0,-9.9902 0,-9.9883 0,-9.9883 0,-9.9902 0,-9.9883 0,-9.9903 0,-9.9882 0,-9.9903 0,-9.9883 0,-9.9902 0,-9.9902 0,-9.9883 0,-9.9902 0,-9.9903 0,-9.9882 0,-9.9903 0,-9.9902 0,-9.9883 0,-9.9902 0,-9.9883 0,-9.9903 0,-9.9882 0,-9.9903 0,-9.9902 0,-9.9902 0,-9.9883 0,-9.9902 0,-9.9903 0,-9.9902 0,-9.9883 0,-9.9902 0,-9.9903 0,-9.9883 0,-9.9902 0,-9.9902 0,-9.9883 0,-9.9902 0,-9.9883 0,-9.9902 0,-9.9903 0,-9.9883 0,-9.9902 0,-9.9883 0,-9.9902 0,-9.9903 0,-9.9882 0,-9.9883 0,-9.9902 0,-9.9903 0,-9.9902 0,-9.9902 0,-9.9883 0,-9.9903 0,-9.9882 0,-9.9903 0,-9.9902 0,-9.9903 0,-9.9882 0,-9.9903 0,-9.9902 0,-9.9883 0,-9.9902 0,-9.9902 0,-9.9883 0,-9.9903 0,-9.9902 0,-9.9902 0,-9.9903 0,-9.9883 0,-9.9902 0,-9.9883 0,-9.9902 0,-9.9883 0,-9.9902 0,-9.9883 0,-9.9902 0,-9.9903 0,-9.9902 0,-9.9902 0,-9.9883 0,-9.9903 0,-9.9882 0,-9.9903 0,-9.9902 0,-9.9902 0,-9.9903 0,-9.9882 0,-9.9922 0,-9.9883 0,-9.9903 0,-9.9882 0,-9.9903 0,-9.9902 0,-9.9883 0,-9.9902 0,-9.9883 0,-9.9902 0,-9.9883 0,-9.9902 0,-9.9883 0,-9.9903 0,-9.9902 0,-9.9902 0,-9.9883 0,-9.9903 0,-9.9902 0,-9.9883 0,-9.9902 0,-9.9883 0,-9.9902 0,-9.9902 0,-9.9903 0,-9.9883 0,-9.9902 0,-9.9902 0,-9.9883 0,-9.9883 0,-9.9902 0,-9.9903 0,-9.9902 0,-9.9902 0,-9.9883 0,-9.9902 0,-9.9883 0,-9.9903 0,-9.9882 0,-9.9903 0,-9.9902 0,-9.9883 0,-9.9902 0,-9.9903 0,-9.9882 0,-9.9903 0,-9.9902 0,-9.9883 0,-9.9902 0,-9.9903 0,-9.9882 0,-9.9903 0,-9.9883 0,-9.9902 0,-9.9902 0,-9.9922 0,-9.9883 0,-9.9902 0,-9.9883 0,-9.9883 0,-9.9883 0,-9.9902 0,-9.9902 0,-9.9883 0,-9.9903 0,-9.9902 0,-9.9902 0,-9.9903 0,-9.9882 0,-9.9903 0,-9.9883 0,-9.9902 0,-9.9902 0,-9.9903 0,-9.9902 0,-9.9902 0,-9.9903 0,-9.9883 0,-9.9902 0,-9.9902 0,-9.9903 0,-9.9902 0,-9.9902 0,-9.9883 0,-9.9902 0,-9.9903 0,-9.9902 0,-9.9883 0,-9.9902 0,-9.9883 0,-9.9902 0,-9.9903 0,-9.9883 0,-9.9882 0,-9.9883 0,-9.9902 0,-9.9903 0,-9.9902 0,-9.9903 0,-9.9882 0,-9.9903 0,-9.9883 0,-9.9902 0,-9.9902 0,-9.9903 0,-9.9882 0,-9.9903 0,-9.9882 0,-9.9903 0,-9.9902 0,-9.9903 0,-9.9902 0,-9.9902 0,-9.9883 0,-9.9902 0,-9.9883 0,-9.9903 0,-9.9902 0,-9.9902 0,-9.9903 0,-9.9882 0,-9.9903 0,-9.9902 0,-9.9902 0,-9.9883 0,-9.9903 0,-9.9882 0,-9.9903 0,-9.9883 0,-9.9902 0,-9.9902 0,-9.9903 0,-9.9902 0,-9.9902 0,-9.9903 0,-9.9882 0,-9.9903 0,-9.9883 0,-9.9882 0,-9.9903 0,-9.9902 0,-9.9902 0,-9.9903 0,-9.9902 0,-9.9883 0,-9.9902 0,-9.9883 0,-9.9883 0,-9.9902 0,-9.9903 0,-9.9902 0,-9.9902 0,-9.9903 0,-9.9902 0,-9.9902 0,-9.9903 0,-9.9882 0,-9.9903 0,-9.9902 0,-9.9902 0,-9.9883 0,-9.9903 0,-9.9882 0,-9.9903 0,-9.9883 0,-9.9882 0,-9.9903 9.6367,2.3711 9.6387,2.3692 9.6367,2.3691 9.6387,2.3691 9.6367,2.3711 9.6387,2.3692 9.6367,2.3691 9.6367,2.3692 9.6367,2.371 9.6387,2.3692 9.6367,2.3691 9.6387,2.3711 9.6386,2.3692 9.6368,2.3691 9.6367,2.3711 9.6367,2.3691 9.6387,2.3692 9.6367,2.3691 9.6387,2.3711 9.6367,2.3692 9.6387,2.3691 9.6367,2.3691 9.6367,2.3711 9.6387,2.3692 9.6367,2.3691 9.6387,2.3711 9.6386,2.3691 9.6367,2.3692 9.6387,2.3711 9.6367,2.3691 9.6387,2.3692 9.6387,2.3711 9.6387,2.3691 9.6367,2.3691 9.6386,2.3711 9.6368,2.3692 9.6386,2.3691 9.6367,2.3692 9.6387,2.371 9.2051,2.2637 0,-1157.875 -3.1914,-0.7793 -9.6953,-2.3691 -9.6973,-2.3711 -9.6953,-2.3691 -9.6973,-2.3692 -9.6953,-2.3711 -9.6972,-2.3691 -9.6973,-2.3692 -9.6953,-2.3711 -9.6973,-2.3691 -9.6953,-2.3691 -9.6973,-2.3711 -9.6953,-2.3692 -9.6972,-2.3691 -9.6954,-2.3711 -9.6972,-2.3691 -9.6973,-2.3692 -9.6953,-2.3711 -9.6973,-2.3691 -9.6953,-2.3692 -9.6953,-2.3711 -9.6973,-2.3691 -9.6972,-2.3691 -9.6953,-2.3711 -9.6953,-2.3692 -9.6973,-2.3691 -9.6953,-2.3692 -9.6973,-2.371 -9.6973,-2.3692 -9.6953,-2.3711 -9.6972,-2.3691 -9.6973,-2.3692 -9.6953,-2.3711 -9.6973,-2.3691 -9.6953,-2.3691 -9.6973,-2.3711 -9.6953,-2.3692 -9.6953,-2.3691 -9.6972,-2.3692 -9.6954,-2.371 -9.6972,-2.3692 -9.6953,-2.3691 -9.6973,-2.3711 -9.6973,-2.3692 -9.6953,-2.3711 -9.6953,-2.3691 -9.6973,-2.3691 -9.6953,-2.3692 -9.6953,-2.3711 -9.6972,-2.3691 -9.6954,-2.3692 -9.6953,-2.3691 -9.6972,-2.3711 -9.6954,-2.3691 -9.6972,-2.3692 -9.6973,-2.3711 -9.6953,-2.3691 -9.6953,-2.3691 -9.6953,-2.3711 -9.6973,-2.3692 -9.6953,-2.3691 -9.6953,-2.3692 -9.6973,-2.3711 -9.6972,-2.3691 -9.6954,-2.3691 -9.6953,-2.3711 -9.6953,-2.3692 -9.6972,-2.3691 -9.6973,-2.3711 -9.6953,-2.3691 -9.6973,-2.3692 -9.6953,-2.3691 -9.6973,-2.3711 -9.6953,-2.3692 -9.6972,-2.3711 -9.6954,-2.3691 -9.6972,-2.3691 -9.6953,-2.3692 -9.6973,-2.3711 -9.6953,-2.3691 -9.6953,-2.3692 -9.6973,-2.371 -9.6953,-2.3692 -9.6953,-2.3691 -9.6192,-2.2949 -9.6191,-2.2969 -9.6172,-2.2949 -9.6191,-2.295 -9.6172,-2.2949 -9.6192,-2.2949 -9.6171,-2.2949 -9.6172,-2.295 -9.6192,-2.2949 -9.6172,-2.2949 -9.6191,-2.2949 -9.6172,-2.2949 -9.6191,-2.295 -9.6192,-2.2949 -9.6172,-2.2969 -9.6171,-2.2949 -9.6172,-2.2949 -9.6192,-2.2949 -9.6191,-2.2949 -9.6172,-2.295 -9.6191,-2.2949 -9.6172,-2.2949 -9.6192,-2.2949 -9.6191,-2.295 -9.6172,-2.2968 -9.6172,-2.295 -9.6191,-2.2949 -9.6172,-2.2949 -9.6191,-2.2949 -9.6172,-2.2949 -9.6192,-2.295 -9.6172,-2.2949 -9.6191,-2.2949 -9.6191,-2.2949 -9.6172,-2.295 -9.6192,-2.2968 -9.6191,-2.295 -9.6172,-2.2949 -9.6191,-2.2949 -9.6192,-2.2949 -9.6172,-2.2949 -9.6191,-2.295 -9.6172,-2.2949 -9.6172,-2.2949 -9.6191,-2.2969 -9.6192,-2.2949 -9.6172,-2.2949 -9.6191,-2.2949 -9.6172,-2.295 -9.6191,-2.2949 -9.6192,-2.2949 -9.6172,-2.2949 -9.6191,-2.295 -9.6172,-2.2949 -9.6172,-2.2949 -9.6191,-2.2969 -9.6192,-2.2949 -9.6191,-2.2949 -9.6172,-2.2949 -9.6172,-2.295 -9.6191,-2.2949 -9.6172,-2.2949 -9.6172,-2.2949 -9.6191,-2.2949 -9.6172,-2.295 -9.6191,-2.2968 -9.6172,-2.295 -9.6192,-2.2949 -9.6172,-2.2949 -9.6172,-2.2949 -9.6191,-2.295 -9.6191,-2.2949 -9.6172,-2.2949 0,9.8633 0,9.8633 0,9.8613 0,9.8633 0,9.8633 0,9.8632 0,9.8614 0,9.8632 0,9.8633 0,9.8633 0,9.8633 0,9.8613 0,9.8633 0,9.8633 0,9.8613 0,9.8633 0,9.8613 0,9.8613 0,9.8633 0,9.8614 0,9.8632 0,9.8633 0,9.8613 0,9.8633 0,9.8633 0,9.8633 0,9.8613 0,9.8633 0,9.8613 0,9.8633 0,9.8633 0,9.8613 0,9.8613 0,9.8633 0,9.8633 0,9.8633 0,9.8613 0,9.8633 0,9.8613 0,9.8614 0,9.8632 0,9.8633 0,9.8633 0,9.8633 0,9.8633 0,9.8613 0,9.8613 0,9.8633 0,9.8633 0,9.8613 0,9.8633 0,9.8613 0,9.8633 0,9.8633 0,9.8613 0,9.8633 0,9.8613 0,9.8633 0,9.8633 0,9.8633 0,9.8613 0,9.8633 0,9.8633 0,9.8632 0,9.8633 0,9.8613 0,9.8614 0,9.8633 0,9.8632 0,9.8633 0,9.8613 0,9.8614 0,9.9746 0,9.9726 0,9.9727 0,9.9746 0,9.9727 0,9.9746 0,9.9726 0,9.9746 0,9.9727 0,9.9746 0,9.9707 0,9.9746 0,9.9727 0,9.9746 0,9.9726 0,9.9727 0,9.9726 0,9.9727 0,9.9746 0,9.9746 0,9.9727 0,9.9726 0,9.9727 0,9.9746 0,9.9727 0,9.9746 0,9.9726 0,9.9746 0,9.9727 0,9.9726 0,9.9746 0,9.9727 0,9.9727 0,9.9726 0,9.9727 0,9.9746 0,9.9746 0,9.9727 0,9.9726 0,9.9746 0,9.9727 0,9.9746 0,9.9726 0,9.9746 0,9.9727 0,9.9727 0,9.9746 0,9.9726 0,9.9727 0,9.9746 0,9.9726 0,9.9747 0,9.9746 0,9.9726 0,9.9727 0,9.9726 0,9.9746 0,9.9727 0,9.9746 0,9.9727 0,9.9726 0,9.9727 0,9.9746 0,9.9746 0,9.9727 0,9.9746 0,9.9726 0,9.9746 0,9.9746 0,9.9727 0,9.9746 0,9.9727 0,9.9726 0,9.9727 0,9.9726 0,9.9746 0,9.9727 0,9.9726 0,9.9727 0,9.9727 0,9.9726 0,9.9746 0,9.9727 0,9.9746 0,9.9727 0,9.9726 0,9.9746 0,9.9727 0,9.9726 0,9.9746 0,9.9727 0,9.9746 0,9.9746 0,9.9727 0,9.9726 0,9.9746 0,9.9727 0,9.9746 0,9.9727 0,9.9726 0,9.9746 0,9.9727 0,9.9746 0,9.9726 0,9.9747 0,9.9726 0,9.9727 0,9.9746 0,9.9726 0,9.9746 0,9.9727 0,9.9746 0,9.9727 0,9.9746 0,9.9726 0,9.9727 0,9.9746 0,9.9727 0,9.9726 0,9.9746 0,9.9727 0,9.9726 0,9.9746 0,9.9727 0,9.9746 0,9.9727 0,9.9746 0,9.9726 0,9.9746 0,9.9727 0,9.9726 0,9.9747 0,9.9726 0,9.9727 0,9.9726 0,9.9746 0,9.9727 0,9.9726 0,9.9727 0,9.9727 0,9.9726 0,9.9746 0,9.9727 0,9.9726 0,9.9746 0,9.9727 0,9.9727 0,9.9746 0,9.9726 0,9.9746 0,9.9727 0,9.9726 0,9.9747 0,9.9726 0,9.9746 0,9.9727 0,9.9726 0,9.9727 0,9.9726 0,9.9747 0,9.9726 0,9.9727 0,9.9746 0,9.9726 0,9.9727 0,9.9726 0,9.9747 0,9.9726 0,9.9746 0,9.9727 0,9.9746 0,9.9726 0,9.9727 0,9.9746 0,9.9746 0,9.9727 0,9.9726 0,9.9727 0,9.9746 0,9.9727 0,9.9726 0,9.9727 0,9.9746 0,9.9726 0,9.9727 0,9.9746 0,9.9727 0,9.9726 0,9.9746 0,9.9727 0,9.9746 0,9.9726 0,9.9727 0,9.9746 0,9.9746 0,9.9727 0,9.9726 0,9.9727 0,9.9746 0,9.9726 0,9.9727 0,9.9746 0,9.9727 0,9.9746 0,9.9746 0,9.9726 0,9.9727 0,9.9746 0,9.9727 0,9.9726 0,9.9746 0,9.9727 0,9.9746 0,9.9727 0,9.9726 0,9.9727 0,9.9726 0,9.9746 0,9.9727 0,9.9726 0,9.9727 0,9.9746 0,9.9727 0,9.9726 0,9.9746 0,9.9727 0,9.9746 0,9.9746 0,9.9727 0,9.9726 0,9.9746 0,9.9727 0,9.9726 0,9.9747 0,9.9726 0,9.9727 0,9.9746 0,9.9726 0,9.9746 0,9.9727 0,9.9727 0,9.9746 0,9.9726 0,9.9746 0,9.9727 0,9.9726 0,9.9727 0,9.9746 0,9.9727 0,9.9746 0,9.9726 0,9.9727 0,9.9746 0,9.9746 0,9.9727 0,9.9726 0,9.9746 0,9.9727 0,9.9746 0,9.9726 0,9.9727 0,9.9746 0,9.9727 0,9.9746 0,9.9746 0,9.9726 0,9.9727 0,9.9727 0,9.9746 0,9.9726 0,9.9727 0,9.9746 0,9.9726 0,9.9727 0,9.9746 0,9.9727 0,9.9746 0,9.9746 0,9.9726 0,9.9746 0,9.9727 0,9.9727 0,9.9726 0,9.9746 0,9.9746 0,9.9707 0,9.9727 0,9.9727 0,9.9746 0,9.9746 0,9.9746 0,9.9726 0,9.9727 0,9.9726 0,9.9747 0,9.9726 0,9.9727 0,9.9746 0,9.9726 0,9.9746 0,9.9727 0,9.9727 0,9.9726 0,9.9746 0,9.9727 0,9.9726 0,9.9746 0,9.9747 0,9.9726 0,9.9727 0,9.9726 0,9.9746 0,9.9727 0,9.9746 0,9.9727 0,9.9746 0,9.9726 0,9.9727 0,9.9746 0,9.9746 0,9.9727 0,9.9726 0,9.9746 0,9.9727 -9.8203,0 -9.8184,0 -9.8203,0 -9.8203,0 -9.8203,0 -9.8184,0 -9.8203,0 -9.8203,0 -9.8203,0 -9.8203,0 -9.8184,0 -9.8184,0 -9.8203,0 -9.8203,0 -9.8203,0 -9.8203,0 -9.8203,0 -9.8203,0 -9.8203,0 -9.8204,0 -9.8183,0 -9.8203,0 -9.8203,0 -9.8204,0 -9.8183,0 -9.8203,0 -9.8203,0 -9.8204,0 -9.8203,0 -9.8203,0 -9.8203,0 -9.8203,0 -9.8203,0 -9.8184,0 -9.8222,0 -9.8184,0 -9.8223,0 -9.8183,0 -9.8203,0 -9.8184,0 -9.8203,0 -9.8184,0 -9.8203,0 -9.8203,0 -9.8203,0 -9.8223,0 -9.8183,0 -9.8203,0 -9.8204,0 -9.8222,0 -9.8184,0 -9.8203,0 -9.8203,0 -9.8184,0 -9.8203,0 -9.8203,0 -9.8184,0 -9.8203,0 -9.8203,0 -9.8203,0 -9.8203,0 -9.8184,0 -9.8203,0 -9.8183,0 -9.8203,0 -9.8204,0 -9.8183,0 -9.8203,0 -9.8203,0 -9.8223,0 -9.8203,0 -9.8184,0 -9.8203,0 -9.8203,0 -9.8203,0 -9.8203,0 -9.8184,0 -9.8203,0 -9.8203,0 -9.8203,0 -9.8184,0 -9.8203,0 -9.8223,0 -9.8203,0 -9.8203,0 -9.8183,0 -9.8204,0 -9.8203,0 -9.8203,0 -9.8203,0 -9.8184,0 -9.8203,0 -9.8183,0 -9.8203,0 -9.8204,0 -9.8203,0 -9.8203,0 -9.8203,0 -9.8203,0 -9.8203,0 -9.8203,0 -9.8203,0 -9.8204,0 -9.8183,0 0,-9.9746 0,-9.9727 0,-9.9726 0,-9.9747 0,-9.9726 0,-9.9727 0,-9.9746 0,-9.9726 0,-9.9746 0,-9.9727 0,-9.9727 0,-9.9726 0,-9.9746 0,-9.9727 0,-9.9726 0,-9.9746 0,-9.9707 0,-9.9747 0,-9.9726 0,-9.9746 0,-9.9727 0,-9.9746 0,-9.9726 0,-9.9727 0,-9.9746 0,-9.9727 0,-9.9746 0,-9.9726 0,-9.9727 0,-9.9746 0,-9.9727 0,-9.9746 0,-9.9726 0,-9.9727 0,-9.9726 0,-9.9746 0,-9.9727 0,-9.9746 0,-9.9727 0,-9.9726 0,-9.9746 0,-9.9727 0,-9.9726 0,-9.9747 0,-9.9726 0,-9.9746 0,-9.9727 0,-9.9726 0,-9.9746 0,-9.9727 0,-9.9746 0,-9.9727 0,-9.9746 0,-9.9726 0,-9.9727 0,-9.9746 0,-9.9726 0,-9.9747 0,-9.9726 0,-9.9746 0,-9.9727 0,-9.9726 0,-9.9746 0,-9.9727 0,-9.9746 0,-9.9727 0,-9.9726 0,-9.9746 0,-9.9746 0,-9.9746 0,-9.9727 0,-9.9746 0,-9.9727 0,-9.9726 0,-9.9727 0,-9.9726 0,-9.9727 0,-9.9727 0,-9.9746 0,-9.9726 0,-9.9727 0,-9.9726 0,-9.9746 0,-9.9727 0,-9.9727 0,-9.9746 0,-9.9726 0,-9.9746 0,-9.9727 0,-9.9726 0,-9.9747 0,-9.9726 0,-9.9746 0,-9.9746 0,-9.9727 0,-9.9726 0,-9.9746 0,-9.9727 0,-9.9727 0,-9.9746 0,-9.9726 0,-9.9746 0,-9.9727 0,-9.9746 0,-9.9727 0,-9.9746 0,-9.9726 0,-9.9746 0,-9.9727 0,-9.9726 0,-9.9747 0,-9.9746 0,-9.9726 0,-9.9727 0,-9.9746 0,-9.9726 0,-9.9727 0,-9.9727 0,-9.9746 0,-9.9726 0,-9.9727 0,-9.9746 0,-9.9746 0,-9.9727 0,-9.9726 0,-9.9746 0,-9.9746 0,-9.9727 0,-9.9746 0,-9.9726 0,-9.9727 0,-9.9727 0,-9.9746 0,-9.9726 0,-9.9727 0,-9.9726 0,-9.9727 0,-9.9746 0,-9.9727 0,-9.9726 0,-9.9727 0,-9.9726 0,-9.9727 0,-9.9746 0,-9.9726 0,-9.9727 0,-9.9746 0,-9.9727 0,-9.9746 0,-9.9726 0,-9.9727 0,-9.9746 0,-9.9746 0,-9.9727 0,-9.9726 0,-9.9727 0,-9.9726 0,-9.9746 0,-9.9727 0,-9.9727 0,-9.9746 0,-9.9726 0,-9.9727 0,-9.9726 0,-9.9727 0,-9.9746 0,-9.9727 0,-9.9746 0,-9.9726 0,-9.9727 0,-9.9746 0,-9.9746 0,-9.9727 0,-9.9726 0,-9.9746 0,-9.9727 0,-9.9746 0,-9.9726 0,-9.9727 0,-9.9746 0,-9.9727 0,-9.9726 0,-9.9727 0,-9.9746 0,-9.9726 0,-9.9727 0,-9.9727 0,-9.9746 0,-9.9726 0,-9.9746 0,-9.9746 0,-9.9727 0,-9.9727 0,-9.9746 0,-9.9726 0,-9.9746 0,-9.9727 0,-9.9726 0,-9.9727 0,-9.9746 0,-9.9727 0,-9.9726 0,-9.9746 0,-9.9746 0,-9.9727 0,-9.9746 0,-9.9727 0,-9.9726 0,-9.9727 0,-9.9746 0,-9.9746 0,-9.9726 0,-9.9727 0,-9.9727 0,-9.9746 0,-9.9726 0,-9.9727 0,-9.9746 0,-9.9726 0,-9.9727 0,-9.9727 0,-9.9726 0,-9.9727 0,-9.9746 0,-9.9726 0,-9.9727 0,-9.9746 0,-9.9746 0,-9.9746 0,-9.9727 0,-9.9726 0,-9.9727 0,-9.9746 0,-9.9727 0,-9.9746 0,-9.9726 0,-9.9727 0,-9.9746 0,-9.9726 0,-9.9747 0,-9.9726 0,-9.9727 0,-9.9746 0,-9.9726 0,-9.9746 0,-9.9727 0,-9.9727 0,-9.9746 0,-9.9726 0,-9.9727 0,-9.9726 0,-9.9746 0,-9.9727 0,-9.9746 0,-9.9727 0,-9.9746 0,-9.9726 0,-9.9727 0,-9.9746 0,-9.9746 0,-9.9727 0,-9.9726 0,-9.9746 0,-9.9746 0,-9.9727 0,-9.9726 0,-9.9747 0,-9.9726 0,-9.9727 0,-9.9726 0,-9.9746 0,-9.9727 0,-9.9746 0,-9.9727 0,-9.9726 0,-9.9746 0,-9.9727 0,-9.9746 0,-9.9746 0,-9.9727 0,-9.9726 0,-9.9727 0,-9.9746 0,-9.9746 0,-9.9726 0,-9.9727 0,-9.9727 0,-9.9726 0,-9.9746 0,-9.9727 0,-9.9746 0,-9.9726 0,-9.9747 0,-9.9726 0,-9.9727 0,-9.9746 0,-9.9726 0,-9.9727 0,-9.9746 0,-9.9726 0,-9.9727 0,-9.9727 0,-9.9746 0,-9.9726 0,-9.9727 0,-9.9746 0,-9.9726 0,-9.9747 0,-9.9746 0,-9.9726 0,-9.9727 0,-9.9726 0,-9.9746 0,-9.9747 0,-9.9726 0,-9.9746 0,-9.9727 0,-9.9726 0,-9.9746 0,-9.9727 0,-9.9727 0,-9.9726 0,-9.9746 0,-9.9746 0,-9.8614 0,-9.8632 0,-9.8633 0,-9.8633 0,-9.8613 0,-9.8633 0,-9.8633 0,-9.8633 0,-9.8633 0,-9.8613 0,-9.8633 0,-9.8632 0,-9.8614 0,-9.8633 0,-9.8632 0,-9.8614 0,-9.8632 0,-9.8614 0,-9.8633 0,-9.8613 0,-9.8633 0,-9.8632 0,-9.8614 0,-9.8633 0,-9.8632 0,-9.8614 0,-9.8632 0,-9.8633 0,-9.8614 0,-9.8613 0,-9.8633 0,-9.8613 0,-9.8633 0,-9.8613 0,-9.8633 0,-9.8633 0,-9.8632 0,-9.8614 0,-9.8633 0,-9.8613 0,-9.8633 0,-9.8613 0,-9.8652 0,-9.8614 0,-9.8632 0,-9.8633 0,-9.8613 0,-9.8633 0,-9.8614 0,-9.8632 0,-9.8614 0,-9.8632 0,-9.8633 0,-9.8633 0,-9.8613 0,-9.8614 0,-9.8632 0,-9.8633 0,-9.8633 0,-9.8613 0,-9.8633 0,-9.8633 0,-9.8613 0,-9.8633 0,-9.8633 0,-9.8613 0,-9.8633 0,-9.8613 0,-9.8633 0,-9.8633 0,-9.8613 0,-9.8555 -9.5879,2.2871 -9.6191,2.2949 -9.6172,2.295 -9.6192,2.2968 -9.6172,2.295 -9.6191,2.2949 -9.6172,2.2949 -9.6172,2.2949 -9.6172,2.295 -9.6191,2.2949 -9.6191,2.2949 -9.6172,2.2949 -9.6192,2.2949 -9.6172,2.295 -9.6171,2.2949 -9.6192,2.2949 -9.6172,2.2949 -9.6172,2.2969 -9.6191,2.2949 -9.6191,2.2949 -9.6172,2.295 -9.6192,2.2949 -9.6191,2.2949 -9.6192,2.2949 -9.6171,2.295 -9.6172,2.2949 -9.6172,2.2949 -9.6192,2.2949 -9.6171,2.2969 -9.6192,2.2949 -9.6172,2.2949 -9.6191,2.295 -9.6192,2.2949 -9.6191,2.2949 -9.6172,2.2949 -9.6191,2.2949 -9.6172,2.2969 -9.6192,2.2949 -9.6191,2.295 -9.6191,2.2949 -9.6172,2.2949 -9.6172,2.2949 -9.6191,2.295 -9.6172,2.2949 -9.6192,2.2949 -9.6191,2.2969 -9.6172,2.2949 -9.6191,2.2949 -9.6172,2.2949 -9.6192,2.295 -9.6172,2.2949 -9.6191,2.2949 -9.6172,2.2949 -9.6191,2.295 -9.6172,2.2949 -9.6192,2.2968 -9.6191,2.295 -9.6191,2.2949 -9.6172,2.2949 -9.6172,2.2949 -9.6172,2.295 -9.6191,2.2949 -9.6172,2.2949 -9.6192,2.2949 -9.6172,2.2949 -9.6191,2.295 -9.6172,2.2949 -9.6191,2.2969 -9.6172,2.2949 -9.6172,2.2949 -9.6191,2.2949 -9.6172,2.295 -9.6192,2.2949 -9.6953,2.3691 -9.6972,2.3711 -9.6954,2.3691 -9.6953,2.3692 -9.6972,2.3691 -9.6953,2.3711 -9.6954,2.3692 -9.6972,2.3691 -9.6973,2.3711 -9.6953,2.3691 -9.6953,2.3692 -9.6953,2.3691 -9.6973,2.3711 -9.6973,2.3692 -9.6953,2.3691 -9.6972,2.3711 -9.6973,2.3691 -9.6953,2.3711 -9.6973,2.3692 -9.6972,2.3691 -9.6954,2.3711 -9.6953,2.3691 -9.6953,2.3692 -9.6953,2.3691 -9.6973,2.3711 -9.6953,2.3692 -9.6972,2.3691 -9.6954,2.3691 -9.6953,2.3711 -9.6953,2.3692 -9.6972,2.3691 -9.6954,2.3711 -9.6972,2.3691 -9.6953,2.3692 -9.6973,2.3711 -9.6953,2.3691 -9.6973,2.3692 -9.6953,2.3691 -9.6953,2.3711 -9.6973,2.3691 -9.6972,2.3711 -9.6973,2.3692 -9.6953,2.3691 -9.6953,2.3692 -9.6973,2.371 -9.6953,2.3692 -9.6953,2.3691 -9.6973,2.3711 -9.6953,2.3692 -9.6953,2.3691 -9.6953,2.3691 -9.6973,2.3711 -9.6973,2.3692 -9.6972,2.3691 -9.6953,2.3711 -9.6973,2.3692 -9.6953,2.3691 -9.6953,2.3711 -9.6973,2.3691 -9.6953,2.3692 -9.6973,2.3711 -9.6972,2.3691 -9.6953,2.3691 -9.6973,2.3711 -9.6973,2.3692 -9.6972,2.3711 -9.6954,2.3691 -9.6972,2.3692 -9.6953,2.371 -9.6973,2.3692 -9.6973,2.3691 -9.6953,2.3711 -9.6953,2.3692 -9.6973,2.3691 -9.6953,2.3711 -9.6972,2.3691 -9.6953,2.3692 -9.6973,2.3711 -9.6973,2.3691 -0.5156,0.127 0,1157.8203 6.3301,-1.5567 9.6367,-2.3691 9.6387,-2.3711 9.6367,-2.3691 9.6387,-2.3692 9.6367,-2.3711 9.6367,-2.3691 9.6367,-2.3692 9.6387,-2.3691 9.6367,-2.3711 9.6367,-2.3691 9.6387,-2.3692 9.6387,-2.3691 9.6386,-2.3711 9.6368,-2.3691 9.6367,-2.3692 9.6386,-2.3711 9.6368,-2.3691 9.6367,-2.3692 9.6387,-2.3691 9.6367,-2.3711 9.6387,-2.3691 9.6386,-2.3692 9.6367,-2.3711 9.6368,-2.3691 9.6386,-2.3692 9.6367,-2.3711 9.6387,-2.3691 9.6387,-2.3691 9.6387,-2.3711 9.6367,-2.3692 9.6387,-2.3691 9.6386,-2.3711 9.6367,-2.3691 9.6387,-2.3711 9.6367,-2.3692 0,9.9883 0,9.9902 0,9.9903 0,9.9883 0,9.9902 0,9.9902 0,9.9883 0,9.9902 0,9.9883 0,9.9903 0,9.9882 0,9.9903 0,9.9883 0,9.9902 0,9.9902 0,9.9883 0,9.9922 0,9.9883 0,9.9902 0,9.9883 0,9.9902 0,9.9903 0,9.9882 0,9.9903 0,9.9902 0,9.9902 0,9.9883 0,9.9903 0,9.9882 0,9.9903 0,9.9902 0,9.9902 0,9.9883 0,9.9903 0,9.9882 0,9.9903 0,9.9902 0,9.9902 0,9.9883 0,9.9903 0,9.9902 0,9.9902 0,9.9883 0,9.9902 0,9.9883 0,9.9903 0,9.9902 0,9.9902 0,9.9903 0,9.9882 0,9.9903 0,9.9902 0,9.9883 0,9.9902 0,9.9883 0,9.9902 0,9.9903 0,9.9883 0,9.9902 0,9.9902 0,9.9883 0,9.9902 0,9.9883 0,9.9883 0,9.9902 0,9.9883 0,9.9903 0,9.9882 0,9.9903 0,9.9902 0,9.9902 0,9.9883 0,9.9903 0,9.9882 0,9.9903 0,9.9882 0,9.9903 0,9.9902 0,9.9883 0,9.9902 0,9.9903 0,9.9883 0,9.9882 0,9.9903 0,9.9882 0,9.9903 0,9.9902 0,9.9902 0,9.9903 0,9.9902 0,9.9903 0,9.9902 0,9.9902 0,9.9883 0,9.9902 0,9.9883 0,9.9903 0,9.9902 0,9.9883 0,9.9882 0,9.9903 0,9.9883 0,9.9902 0,9.9902 0,9.9883 0,9.9903 0,9.9882 0,9.9903 0,9.9902 0,9.9902 0,9.9883 0,9.9902 0,9.9883 0,9.9883 0,9.9902 0,9.9903 0,9.9902 0,9.9903 0,9.9882 0,9.9883 0,9.9902 0,9.9903 0,9.9883 0,9.9921 0,9.9883 0,9.9903 0,9.9902 0,9.9883 0,9.9902 0,9.9903 0,9.9882 0,9.9903 0,9.9902 0,9.9883 0,9.9902 0,9.9902 0,9.9903 0,9.9902 0,9.9903 0,9.9902 0,9.9883 0,9.9902 0,9.9902 0,9.9883 0,9.9903 0,9.9902 0,9.9902 0,9.9883 0,9.9902 0,9.9903 0,9.9902 0,9.9883 0,9.9902 0,9.9903 0,9.9902 0,9.9883 0,9.9902 0,9.9902 0,9.9903 0,9.9902 0,9.9902 0,9.9883 0,9.9903 0,9.9882 0,9.9903 0,9.9902 0,9.9902 0,9.9883 0,9.9903 0,9.9902 0,9.9883 0,9.9883 0,9.9902 0,9.9902 0,9.9883 0,9.9902 0,9.9883 0,9.9922 0,9.9883 0,9.9902 0,9.9903 0,9.9882 0,9.9903 0,9.9902 0,9.9883 0,9.9902 0,9.9883 0,9.9902 0,9.9903 0,9.9902 0,9.9902 0,9.9883 0,9.9903 0,9.9902 0,9.9902 0,9.9883 0,9.9902 0,9.9903 0,9.9902 0,9.9902 0,9.9883 0,9.9903 0,9.9882 0,9.9903 0,9.9902 0,9.9902 0,9.9883 0,9.9903 0,9.9882 0,9.9903 0,9.9902 0,9.9883 0,9.9902 0,9.9883 0,9.9902 0,9.9903 0,9.9902 0,9.9883 0,9.9922 0,9.9883 0,9.9902 0,9.9902 0,9.9883 0,9.9902 0,9.9903 0,9.9902 0,9.9883 0,9.9902 0,9.9903 0,9.9882 0,9.9903 0,9.9902 0,9.9883 0,9.9902 0,9.9903 0,9.9882 0,9.9903 0,9.9883 0,9.9902 0,9.9902 0,9.9883 0,9.9883 0,9.9902 0,9.9903 0,9.9882 0,9.9922 0,9.9883 0,9.9902 0,9.9883 0,9.9903 0,9.9902 0,9.9902 0,9.9883 0,9.9902 0,9.9883 0,9.9903 0,9.9882 0,9.9903 0,9.9902 0,9.9883 0,9.9902 0,9.9903 0,9.9882 0,9.9903 0,9.9883 0,9.9902 0,9.9902 0,9.9903 0,9.9882 0,9.9903 0,9.9902 0,9.9883 0,9.9922 0,9.9883 0,9.9902 0,9.9883 0,9.9902 0,9.9902 0,9.9883 0,9.9922 0,9.9883 0,9.9883 0,9.9902 0,9.9902 0,9.9903 0,9.9883 0,9.9902 0,9.9883 0,9.9922 0,9.9882 0,9.9903 0,9.9883 0,9.9902 0,9.9902 0,9.9903 0,9.9902 0,9.9902 0,9.9883 0,9.9903 0,9.9902 0,9.9902 0,9.9903 0,9.9902 0,9.9883 0,9.9902 0,9.9902 0,9.9883 0,9.9903 0,9.9921 0,9.9903 0,9.9902 0,9.9902 0,9.9883 0,9.9903 0,9.9902 0,9.9883 0,9.9902 0,9.9902 0,9.9883 0,9.9883 0,9.9902 0,9.9903 0,9.9883 0,9.9902 0,9.9883 0,9.9902 0,9.9902 0,9.9883 0,9.9883 0,9.9902 0,9.9903 0,9.9883 0,9.9902 0,9.9883 0,9.9902 0,9.9883 0,9.9902 0,9.9903 0,9.9882 0,9.9883 0,9.9902 0,9.9883 0,9.9903 0,9.9902 0,9.9883 0,9.9902 0,9.9903 0,9.9902 0,9.9883 0,9.9922 0,9.9882 0,9.9903 0,9.9902 0,9.9902 0,9.9903 0,9.9902 0,9.9902 0,9.9903 0,9.9883 0,9.9902 0,9.9883 0,9.9902 0,9.9883 0,9.9902 0,9.9883 0,9.9883 0,9.9902 0,9.9883 0,9.9902 0,9.9903 0,9.9883 0,9.9902 0,9.9902 0,9.9903 0,9.9882 0,9.9903 0,9.9882 0,9.9903 0,9.9883 0,9.9902 0,9.9883 0,9.9902 0,9.9903 0,9.9882 0,9.9903 0,9.9902 0,9.9902 0,9.9903 0,9.9882 0,9.9903 0,9.9902 0,9.9883 0,9.9902 0,9.9903 0,9.9883 0,9.9902 0,9.9883 0,9.9902 0,9.9883 0,9.9902 0,9.9902 0,9.9883 0,9.9903 0,9.9882 0,9.9903 0,9.9902 0,9.9883 0,9.9883 0,9.9902 0,9.9902 0,9.9903 0,9.9902 0,9.9883 0,9.9902 0,9.9883 0,9.9902 0,9.9903 0,9.9902 0,9.9883 0,9.9902 0,9.9903 0,9.9882 0,9.9903 0,9.9902 0,9.9902 0,9.9883 0,9.9903 0,9.9902 0,9.9902 0,9.9903 0,9.9883 0,9.9882 0,9.9903 0,9.9902 0,9.9883 0,9.9902 0,9.9883 0,9.9902 0,9.9903 0,9.9902 0,9.9883 0,9.9902 0,9.9903 0,9.9882 0,9.9903 0,9.9902 0,9.9902 0,9.9903 0,9.9902 0,9.9883 0,9.9902 0,9.9883 0,9.9902 0,9.9903 0,9.9883 0,9.9902 0,9.9883 0,9.9902 0,9.9883 0,9.9902 0,9.9883 0,9.9902 0,9.9903 0,9.9902 0,9.9883 0,9.9902 0,9.9903 0,9.9902 0,9.9883 0,9.9882 0,9.9903 0,9.9902 0,9.9902 0,9.9883 0,9.9903 0,9.9902 0,9.9883 0,9.9902 0,9.9883 0,9.9902 0,9.9903 0,9.9902 0,9.9883 0,9.9902 0,9.9883 0,9.9902 0,9.9883 0,9.9902 0,9.9903 0,9.9902 0,9.9883 0,9.9902 0,9.9883 0,9.9922 0,9.9883 0,9.9883 0,9.9902 0,9.9902 0,9.9883 0,9.9902 0,9.9883 0,9.9903 0,9.9902 0,9.9922 0,9.9883 0,9.9902 0,9.9883 0,9.9883 0,9.9882 0,9.9903 0,9.9902 0,9.9883 0,9.9902 0,9.9903 0,9.9902 0,9.9902 0,9.9883 0,9.9902 0,9.9883 0,9.9903 0,9.9902 0,9.9902 0,9.9903 0,9.9902 0,9.9902 0,9.9903 0,9.9902 0,9.9883 0,9.9902 0,9.9903 0,9.9902 0,9.9883 0,9.9902 0,9.9902 0,9.9903 0,9.9883 0,9.9902 0,9.9883 0,9.9902 0,9.9902 0,9.9883 0,9.9883 0,9.9902 0,9.9883 0,9.9902 0,9.9903 0,9.9902 0,9.9883 0,9.9902 0,9.9883 0,9.9903 0,9.9902 0,9.9902 0,9.9883 0,9.9902 0,9.9903 0,9.9902 0,9.9883 0,9.9902 0,9.9903 0,9.9902 0,9.9883 0,9.9902 0,9.9883 0,9.9902 0,9.9903 0,9.9902 0,9.9902 0,9.9883 0,9.9902 0,9.9903 0,9.9902 0,9.9883 0,9.9902 0,9.9883 0,9.9902 0,9.9903 0,9.9883 0,9.9902 0,9.9902 0,9.9903 0,9.9902 0,9.9902 0,9.9883 0,9.9902 0,9.9883 0,9.9883 0,9.9902 0,9.9903 0,9.9902 0,9.9902 0,9.9903 0,9.9883 0,9.9902 0,9.9883 0,9.9902 0,9.9883 0,9.9902 0,9.9903 0,9.9902 0,9.9902 0,9.9903 0,9.9902 0,9.9902 0,9.9883 0,9.9902 0,9.9903 0,9.9902 0,9.9883 0,9.9902 0,9.9883 0,9.9902 0,9.9883 0,9.9883 0,9.9902 -9.6367,-2.3711 -9.6367,-2.3691 -9.6387,-2.3691 -9.6367,-2.3711 -9.6387,-2.3692 -9.6367,-2.3691 -9.6387,-2.3711 -9.6367,-2.3691 -9.6367,-2.3692 -9.6367,-2.3711 -9.6387,-2.3691 -9.6387,-2.3711 -9.6386,-2.3692 -9.6367,-2.371 -9.6368,-2.3692 -9.6367,-2.3691 -9.6367,-2.3711 -9.6387,-2.3692 -9.6367,-2.3691 -9.6387,-2.3711 -9.6367,-2.3691 -9.6387,-2.3711 -9.6367,-2.3692 -9.6367,-2.3691 -9.6387,-2.3711 -9.6386,-2.3691 -9.6368,-2.3711 -9.6386,-2.3692 -9.6387,-2.3691 -9.6367,-2.3711 -9.6387,-2.3692 -9.6367,-2.371 -9.6387,-2.3692 -9.6386,-2.3711 -9.6368,-2.3691 -6.332,-1.5567 0,1158.2383 z"
       id="path4179" />
    <path
       style="color:#000000;font-style:normal;font-variant:normal;font-weight:normal;font-stretch:normal;font-size:medium;line-height:normal;font-family:Sans;-inkscape-font-specification:Sans;text-indent:0;text-align:start;text-decoration:none;text-decoration-line:none;letter-spacing:normal;word-spacing:normal;text-transform:none;direction:ltr;block-progression:tb;writing-mode:lr-tb;baseline-shift:baseline;text-anchor:start;display:inline;overflow:visible;visibility:visible;fill:#676c53;fill-opacity:1;stroke:none;stroke-width:4.4000001;marker:none;enable-background:accumulate"
       d="m 2813.194,538.0583 0,-1158.2383 -3.3066,-0.8125 -9.6368,-2.3711 -9.6386,-2.3691 -9.6368,-2.3711 -9.6386,-2.3691 -9.6367,-2.3692 -9.6368,-2.3711 -9.6386,-2.3691 -9.6367,-2.3692 -9.6387,-2.371 -9.6367,-2.3692 -9.6368,-2.3711 -9.6386,-2.3691 -9.6368,-2.3711 -9.6386,-2.3692 -9.6367,-2.3691 -9.6368,-2.3711 -9.6386,-2.3691 -9.6367,-2.3692 -9.6387,-2.3711 -9.6387,-2.3691 -9.6387,-2.3711 -9.6367,-2.3691 -9.6387,-2.3711 -9.6386,-2.3692 -9.6367,-2.3711 -9.6387,-2.3691 -9.6367,-2.3691 -9.6387,-2.3711 -9.6367,-2.3692 -9.6387,-2.3711 -9.6367,-2.3691 -9.6387,-2.3692 -9.6367,-2.3711 -9.6367,-2.3691 -9.6367,-2.3691 -9.6387,-2.3711 -9.6367,-2.3692 -9.6368,-2.3711 -9.6367,-2.3691 -9.6386,-2.3691 -9.6368,-2.3711 -9.6386,-2.3692 -9.6387,-2.3711 -9.6367,-2.3691 -9.6387,-2.3691 -9.6387,-2.3711 -9.6367,-2.3692 -9.6367,-2.3691 -9.6367,-2.3711 -9.6387,-2.3692 -9.6387,-2.3711 -9.6367,-2.3691 -9.6367,-2.3691 -9.6387,-2.3711 -9.6367,-2.3692 -9.6387,-2.3711 -9.6386,-2.3691 -9.6368,-2.3711 -9.6386,-2.3691 -9.6368,-2.3692 -9.6406,-2.3711 -9.6367,-2.3691 -9.6387,-2.3711 -9.6386,-2.3691 -9.6368,-2.3711 0,-9.9903 0,-9.9922 0,-9.9902 0,-9.9902 0,-9.9903 0,-9.9902 0,-9.9922 0,-9.9902 0,-9.9903 0,-9.9921 0,-9.9922 0,-9.9903 0,-9.9902 0,-9.9922 0,-9.9902 0,-9.9922 0,-9.9902 0,-9.9903 0,-9.9902 0,-9.9902 0,-9.9903 0,-9.9902 0,-9.9922 0,-9.9902 0,-9.9922 0,-9.9903 0,-9.9902 0,-9.9922 0,-9.9922 0,-9.9902 0,-9.9902 0,-9.9903 0,-9.9922 0,-9.9902 0,-9.9922 0,-9.9902 0,-9.9903 0,-9.9921 0,-9.9903 0,-9.9922 0,-9.9902 0,-9.9922 0,-9.9902 0,-9.9883 0,-9.9922 0,-9.9902 0,-9.9922 0,-9.9902 0,-9.9903 0,-9.9922 0,-9.9902 0,-9.9902 0,-9.9903 0,-9.9922 0,-9.9921 0,-9.9922 0,-9.9903 0,-9.9921 0,-9.9903 0,-9.9922 0,-9.9902 0,-9.9922 0,-9.9902 0,-9.9903 0,-9.9922 0,-9.9902 0,-9.9902 0,-9.9903 0,-9.9921 0,-9.9903 0,-9.9922 0,-9.9902 0,-9.9922 0,-9.9902 0,-9.9903 0,-9.9921 0,-9.9922 0,-9.9922 0,-9.9903 0,-9.9902 0,-9.9902 0,-9.9903 0,-9.9921 0,-9.9903 0,-9.9902 0,-9.9922 0,-9.9922 0,-9.9902 0,-9.9903 0,-9.9921 0,-9.9903 0,-9.9922 0,-9.9902 0,-9.9902 0,-9.9922 0,-9.9903 0,-9.9921 0,-9.9903 0,-9.9922 0,-9.9921 0,-9.9903 0,-9.9902 0,-9.9903 0,-9.9921 0,-9.9903 0,-9.9922 0,-9.9902 0,-9.9922 0,-9.9902 0,-9.9922 0,-9.9922 0,-9.9902 0,-9.9903 0,-9.9921 0,-9.9903 0,-9.9902 0,-9.9922 0,-9.9902 0,-9.9903 0,-9.9922 0,-9.9902 0,-9.9902 0,-9.9903 0,-9.9922 0,-9.9902 0,-9.9902 0,-9.9922 0,-9.9902 0,-9.9922 0,-9.9903 0,-9.9902 0,-9.9902 0,-9.9922 0,-9.9903 0,-9.9921 0,-9.9903 0,-9.9922 0,-9.9902 0,-9.9922 0,-9.9902 0,-9.9922 0,-9.9902 0,-9.9903 0,-9.9902 0,-9.9922 0,-9.9902 0,-9.9903 0,-9.9922 0,-9.9902 0,-9.9922 0,-9.9902 0,-9.9902 0,-9.9903 0,-9.9922 0,-9.9922 0,-9.9902 0,-9.9902 0,-9.9903 0,-9.9902 0,-9.9902 0,-9.9922 0,-9.9922 0,-9.9902 0,-9.9922 0,-9.9903 0,-9.9921 0,-9.9903 0,-9.9902 0,-9.9902 0,-9.9903 0,-9.9902 0,-9.9903 0,-9.9921 0,-9.9903 0,-9.9902 0,-9.9922 0,-9.9902 0,-9.9922 0,-9.9903 0,-9.9902 0,-9.9902 0,-9.9903 0,-9.9921 0,-9.9903 0,-9.9902 0,-9.9922 0,-9.9902 0,-9.9903 0,-9.9922 0,-9.9882 0,-9.9922 0,-9.9903 0,-9.9921 0,-9.9903 0,-9.9902 0,-9.9902 0,-9.9903 0,-9.9922 0,-9.9922 0,-9.9902 0,-9.9902 0,-9.9922 0,-9.9903 0,-9.9902 0,-9.9922 0,-9.9922 0,-9.9902 0,-9.9902 0,-9.9903 0,-9.9902 0,-9.9922 0,-9.9922 0,-9.9902 0,-9.9902 0,-9.9922 0,-9.9903 0,-9.9902 0,-9.9922 0,-9.9902 0,-9.9903 0,-9.9902 0,-9.9922 0,-9.9902 0,-9.9902 0,-9.9922 0,-9.9903 0,-9.9902 0,-9.9922 0,-9.9902 0,-9.9903 0,-9.9921 0,-9.9903 0,-9.9902 0,-9.9922 0,-9.9902 0,-9.9903 0,-9.9902 0,-9.9922 0,-9.9902 0,-9.9922 0,-9.9902 0,-9.9922 0,-9.9903 0,-9.9902 0,-9.9922 0,-9.9922 0,-9.9922 0,-9.9902 0,-9.9922 0,-9.9902 0,-9.9922 0,-9.9902 0,-9.9922 0,-9.9903 0,-9.9902 0,-9.9922 0,-9.9902 0,-9.9903 0,-9.9902 0,-9.9922 0,-9.9922 0,-9.9902 0,-9.9922 0,-9.9902 0,-9.9922 0,-9.9902 0,-9.9903 0,-9.9922 0,-9.9902 0,-9.9902 0,-9.9903 0,-9.9922 0,-9.9921 0,-9.9903 0,-9.9902 0,-9.9922 0,-9.9902 0,-9.9903 0,-9.9902 0,-9.9902 0,-9.9922 0,-9.9922 0,-9.9902 0,-9.9903 0,-9.9902 0,-9.9922 0,-9.9902 0,-9.9922 0,-9.9903 0,-9.9902 0,-9.9902 0,-9.9922 0,-9.9902 0,-9.9903 0,-9.9902 0,-9.9922 0,-9.9922 0,-9.9902 0,-9.9922 0,-9.9903 0,-9.9902 0,-9.9922 0,-9.9902 0,-9.9902 0,-9.9903 0,-9.9902 0,-9.9922 0,-9.9902 0,-9.9922 0,-9.9903 0,-9.9921 0,-9.9903 0,-9.9902 0,-9.9902 0,-9.9922 0,-9.9903 0,-9.9902 0,-9.9922 0,-9.9902 0,-9.9922 0,-9.9902 0,-9.9922 0,-9.9903 0,-9.9902 0,-9.9922 0,-9.9902 0,-9.9903 0,-9.9921 0,-9.9903 0,-9.9922 0,-9.9902 0,-9.9922 0,-9.9902 0,-9.9922 0,-9.9902 0,-9.9903 0,-9.9922 0,-9.9902 0,-9.9922 0,-9.9902 0,-9.9922 0,-9.9902 0,-9.9922 0,-9.9903 0,-9.9922 0,-9.9902 0,-9.9902 0,-9.9922 0,-9.9902 0,-9.9922 0,-9.9903 0,-9.9902 0,-9.9922 0,-9.9902 0,-9.9922 0,-9.9902 0,-9.9922 0,-9.9903 0,-9.9922 0,-9.9902 0,-9.9902 0,-9.9922 0,-9.9902 0,-9.9903 0,-9.9902 0,-9.9922 0,-9.9902 0,-9.9922 0,-9.9922 0,-9.9883 0,-9.9922 0,-9.9902 0,-9.9922 0,-9.9902 0,-9.9922 0,-9.9903 0,-9.9902 0,-9.9922 0,-9.9922 0,-9.9902 0,-9.9902 0,-9.9922 0,-9.9922 0,-9.9902 0,-9.9903 0,-9.9902 0,-9.9902 0,-9.9922 0,-9.9903 0,-9.9922 0,-9.9902 0,-9.9922 0,-9.9902 0,-9.9922 0,-9.9902 0,-9.9922 0,-9.9922 0,-9.9902 0,-9.9903 0,-9.9902 0,-9.9922 0,-9.9902 0,-9.9903 0,-9.9922 0,-9.9921 0,-9.9922 0,-9.9903 0,-9.9902 0,-9.9922 0,-9.9883 0,-9.9922 0,-9.9921 0,-9.9903 0,-9.9902 0,-9.9902 0,-9.9922 0,-9.9903 0,-9.9902 0,-9.9922 0,-9.9902 0,-9.9903 0,-9.9902 0,-9.9922 0,-9.9902 0,-9.9903 0,-9.9921 0,-9.9903 0,-9.9922 0,-9.9921 0,-9.9922 0,-9.9903 0,-9.9902 0,-9.9902 0,-9.9922 0,-9.9903 0,-9.9902 0,-9.9902 0,-9.9922 0,-9.9903 0,-9.9921 0,-9.9922 0,-9.9922 0,-9.9902 0,-9.9922 0,-9.9903 0,-9.9922 0,-9.9921 0,-9.9903 0,-9.9922 0,-9.9902 0,-9.9902 0,-9.9922 0,-9.9903 0,-9.9921 0,-9.9903 0,-9.9922 0,-9.9922 0,-9.9902 0,-9.9902 0,-9.9903 0,-9.9902 0,-9.9922 0,-9.9902 0,-9.9922 0,-9.9902 0,-9.9903 0,-9.9922 0,-9.9921 0,-9.9903 0,-9.9902 0,-9.9902 0,-9.9922 0,-9.9903 0,-9.9922 0,-9.9921 0,-9.9922 0,-9.9922 0,-9.9903 0,-9.9902 0,-9.9902 0,-9.9922 0,-9.9922 0,-9.9902 0,-9.9922 0,-9.9903 0,-9.9921 0,-9.9903 0,-9.9922 0,-9.9902 0,-9.9902 0,-9.9903 0,-9.9922 0,-9.9902 0,-9.9902 0,-9.9922 0,-9.9902 0,-9.9903 0,-9.9922 0,-9.9922 0,-9.9902 0,-9.9922 0,-9.9902 0,-9.9922 0,-9.9902 0,-9.9903 0,-9.9922 0,-9.9902 0,-9.9922 0,-9.9902 0,-9.9922 0,-9.9922 0,-9.9922 0,-9.9902 0,-9.9922 0,-9.9902 0,-9.9903 0,-9.9921 0,-9.9922 0,-9.9903 0,-9.9902 0,-9.9902 0,-9.9922 0,-9.9903 0,-9.9902 0,-9.9922 0,-9.9922 0,-9.9902 0,-9.9922 0,-9.9902 0,-9.9903 0,-9.9921 0,-9.9922 0,-9.9903 0,-9.9922 0,-9.9921 0,-9.9903 0,-9.9883 0,-9.9922 0,-9.9902 0,-9.9902 0,-9.9903 0,-9.9902 0,-9.9922 0,-9.9922 0,-9.9902 0,-9.9902 0,-9.9922 0,-9.9903 0,-9.9902 0,-9.9902 0,-9.9903 0,-9.9921 0,-9.9903 0,-9.9922 0,-9.9902 0,-9.9922 0,-9.9902 0,-9.9922 0,-9.9902 0,-9.9922 0,-9.9903 0,-9.9902 0,-9.9922 0,-9.9883 0,-9.9922 0,-9.9902 0,-9.9902 9.6387,-2.3711 9.6367,-2.3692 9.6367,-2.3691 9.6387,-2.3711 9.6367,-2.3691 9.6387,-2.3692 9.6367,-2.3691 9.6368,-2.3711 9.6367,-2.3691 9.6386,-2.3692 9.6387,-2.3711 9.6367,-2.3691 9.6387,-2.3692 9.6367,-2.3711 9.6367,-2.3691 9.6387,-2.3691 9.6367,-2.3692 9.6368,-2.3691 9.6386,-2.3711 9.6367,-2.3692 9.6387,-2.3691 9.6367,-2.3711 9.6367,-2.3691 9.6387,-2.3692 9.6367,-2.3711 9.6387,-2.3691 9.6387,-2.3691 9.6367,-2.3692 9.6387,-2.3711 9.6367,-2.3691 9.6387,-2.3692 9.6386,-2.3711 9.6387,-2.3691 9.6367,-2.3711 9.6387,-2.3691 9.6367,-2.3692 9.6387,-2.3691 9.6367,-2.3711 9.6387,-2.3691 9.6367,-2.3692 9.6387,-2.3711 9.6367,-2.3691 9.6367,-2.3692 9.6367,-2.3691 9.6387,-2.3711 9.6367,-2.3691 9.6387,-2.3692 9.6367,-2.3711 9.6387,-2.3691 9.6367,-2.3692 9.6387,-2.3691 9.6367,-2.3711 9.6367,-2.3691 9.6387,-2.3692 9.6387,-2.3711 9.6386,-2.3691 9.6367,-2.3691 9.6387,-2.3711 9.6367,-2.3692 9.6387,-2.3691 9.6387,-2.3711 9.6367,-2.3692 9.6387,-2.3691 9.6367,-2.3711 9.6387,-2.3691 3.3066,-0.8125 0,-1157.8203 -9.1797,2.2422 -9.6953,2.3691 -9.6953,2.3711 -9.6973,2.3691 -9.6972,2.3692 -9.6954,2.3711 -9.6953,2.3691 -9.6953,2.3691 -9.6972,2.3692 -9.6954,2.3711 -9.6972,2.3691 -9.6953,2.3692 -9.6973,2.3711 -9.6953,2.3691 -9.6953,2.3691 -9.6973,2.3711 -9.6973,2.3692 -9.6953,2.3691 -9.6972,2.3711 -9.6953,2.3691 -9.6973,2.3692 -9.6953,2.3711 -9.6973,2.3691 -9.6953,2.3692 -9.6973,2.3711 -9.6953,2.3691 -9.6972,2.3691 -9.6954,2.3711 -9.6972,2.3692 -9.6953,2.3691 -9.6973,2.3711 -9.6953,2.3691 -9.6953,2.3692 -9.6973,2.3691 -9.6953,2.3711 -9.6973,2.3692 -9.6953,2.3691 -9.6973,2.3711 -9.6953,2.3691 -9.6953,2.3692 -9.6972,2.3711 -9.6973,2.3691 -9.6953,2.3691 -9.6973,2.3711 -9.6953,2.3692 -9.6973,2.3691 -9.6972,2.3711 -9.6953,2.3692 -9.6954,2.3691 -9.6953,2.3691 -9.6972,2.3711 -9.6953,2.3692 -9.6954,2.3691 -9.6972,2.3711 -9.6973,2.3691 -9.6953,2.3692 -9.6953,2.3691 -9.6953,2.3711 -9.6973,2.3692 -9.6953,2.3691 -9.6973,2.3711 -9.6972,2.3691 -9.6954,2.3692 -9.6953,2.3711 -9.6972,2.3691 -9.6973,2.3692 -9.6953,2.371 -9.6953,2.3692 -9.6973,2.3691 -9.6953,2.3692 -9.6953,2.3711 -9.6973,2.3691 -9.6953,2.3691 -9.6953,2.3711 -9.6973,2.3692 -9.6972,2.3691 -9.6953,2.3711 -9.6954,2.3692 -9.6953,2.3691 -9.6972,2.3711 -9.6953,2.3691 -9.6973,2.3692 -9.6953,2.3691 -9.6973,2.3711 -9.6973,2.3691 -9.6953,2.3692 -9.6972,2.3711 -9.6953,2.3691 -9.6954,2.3692 -9.6972,2.3711 -9.6953,2.3691 -9.6953,2.3691 -9.6973,2.3711 -9.6953,2.3692 -9.6953,2.3691 -9.6954,2.3692 -9.6972,2.371 -9.6953,2.3692 -9.6973,2.3691 -9.6953,2.3711 -9.6973,2.3692 -9.6953,2.3691 -9.6973,2.3691 -9.6953,2.3711 -9.6972,2.3692 -9.6953,2.3691 -9.6973,2.3711 -9.6973,2.3692 -9.6953,2.371 -9.6973,2.3692 -9.6953,2.3691 -9.6953,2.3692 -9.6972,2.3711 -9.6954,2.3691 -9.6953,2.3691 -9.6972,2.3692 -9.6953,2.3711 -9.6954,2.3691 -9.6972,2.3692 -9.6973,2.3711 -9.6973,2.3691 -9.6953,2.3691 -9.6953,2.3711 -9.6972,2.3692 -9.6954,2.3691 -9.6953,2.3711 -9.6972,2.3691 -9.6973,2.3692 -9.6953,2.3711 -9.6973,2.3691 -9.6953,2.3692 -9.6973,2.3711 -9.6953,2.3691 -9.6953,2.3691 -9.6973,2.3711 -9.6972,2.3692 -9.6953,2.3691 -9.6973,2.3711 -9.6953,2.3691 -9.6953,2.3692 -9.6953,2.3691 -9.6973,2.3711 -9.6953,2.3692 -9.6973,2.3691 -9.6972,2.3711 -9.6954,2.3691 -9.6972,2.3692 -9.6973,2.3711 -9.6953,2.3691 -9.6953,2.3691 -9.6953,2.3692 -9.6973,2.3711 -9.6953,2.3691 -9.6973,2.3692 -9.6953,2.3711 -9.6972,2.3691 -9.6954,2.3691 -9.6972,2.3711 -9.6953,2.3692 -9.6973,2.3691 -9.6953,2.3711 -9.6973,2.3691 -9.6953,2.3692 -9.6953,2.3711 -9.6953,2.3691 -9.6973,2.3692 -9.6953,2.3691 -9.6973,2.3711 -9.6953,2.3691 -9.6953,2.3692 -9.6972,2.3711 -9.6954,2.3691 -9.6953,2.3692 -9.6953,2.3691 -9.6973,2.3711 -9.6972,2.3691 -9.6953,2.3692 -9.6973,2.3711 -9.6953,2.3691 -9.6953,2.3691 -9.6953,2.3692 -9.6953,2.3711 -9.6973,2.3691 -9.6973,2.3692 -9.6972,2.3711 -9.6953,2.3691 -9.6973,2.3691 -9.6953,2.3711 -9.69728,2.3692 -9.69727,2.3711 -9.6953,2.3691 -9.69726,2.3691 -9.69533,2.3692 -9.6953,2.3711 -9.69726,2.3691 -9.69533,2.3692 -9.69725,2.3711 -9.69532,2.3691 -9.69532,2.3691 -9.69725,2.3711 -9.69533,2.3692 -9.69726,2.3691 -9.69727,2.3711 -9.6953,2.3691 -9.69532,2.3692 -9.69727,2.3691 -9.69725,2.3711 -9.69533,2.3692 -9.6953,2.3691 -9.69726,2.3711 -9.69533,2.3691 -9.69726,2.3692 -9.6953,2.3711 -9.69728,2.3691 -9.69727,2.3692 -9.69726,2.371 -9.6953,2.3692 -9.69533,2.3691 -9.69726,2.3711 -9.6953,2.3692 -9.69728,2.3691 -9.6953,2.3711 -9.69727,2.3691 -9.69532,2.3692 -9.69727,2.3711 -9.69726,2.3691 -9.6953,2.3692 -9.69533,2.371 -9.69725,2.3692 -9.69532,2.3691 -9.69532,2.3711 -9.69725,2.3692 -9.69727,2.3691 -9.69726,2.3711 -9.69533,2.3691 -9.69725,2.3692 -9.69532,2.3711 -9.69727,2.3691 -9.69531,2.3692 -9.69727,2.371 -9.6953,2.3692 -9.69727,2.3691 -9.69531,2.3711 -9.69531,2.3692 -9.69727,2.3691 -9.69727,2.3691 -9.69532,2.3711 -9.69725,2.3692 -9.69727,2.3711 -9.69531,2.3691 -9.69531,2.3692 -9.69531,2.3691 -9.69532,2.3711 -9.69727,2.3691 -9.69531,2.3692 -9.69727,2.3691 -9.69531,2.3711 -9.69727,2.3691 -9.6953,2.3692 -9.69727,2.3711 -9.69531,2.3691 -9.69531,2.3692 -9.69727,2.3711 -9.69532,2.3691 -9.69531,2.3691 -9.69727,2.3692 -9.69726,2.3711 -9.69531,2.3691 -9.69531,2.3691 -9.69726,2.3711 -9.69533,2.3692 -9.69531,2.3691 -9.69726,2.3711 -9.69531,2.3692 -9.69726,2.3691 -9.69533,2.3711 -9.69726,2.3691 -9.6953,2.3692 -9.69727,2.3711 -9.69727,2.3691 -9.695313,2.3691 -9.695312,2.3711 -9.697266,2.3692 -9.695312,2.3691 -9.697266,2.3692 -9.695312,2.3711 -9.695313,2.3691 -9.695312,2.3691 -0.07031,9.9746 -0.06836,9.9727 -0.06836,9.9746 -0.07031,9.9727 -0.06836,9.9726 -0.06836,9.9746 -0.07031,9.9727 -0.06836,9.9746 -0.07031,9.9707 -0.06836,9.9727 -0.06836,9.9746 -0.07031,9.9726 -0.06836,9.9746 -0.06836,9.9727 -0.07031,9.9726 -0.06836,9.9727 -0.06836,9.9746 -0.07031,9.9727 -0.06836,9.9726 -0.06836,9.9746 -0.07031,9.9727 -0.06836,9.9746 -0.07031,9.9727 -0.06836,9.9726 -0.06836,9.9727 -0.07031,9.9726 -0.06836,9.9746 -0.06836,9.9727 -0.07031,9.9746 -0.06836,9.9727 -0.06836,9.9726 -0.07031,9.9746 -0.06836,9.9727 -0.07031,9.9726 -0.06836,9.9727 -0.06836,9.9726 -0.07031,9.9747 -0.06836,9.9726 -0.06836,9.9727 -0.07031,9.9746 -0.06836,9.9726 -0.06836,9.9727 -0.07031,9.9726 -0.06836,9.9747 -0.06836,9.9726 -0.07031,9.9746 -0.06836,9.9727 -0.07031,9.9726 -0.06836,9.9727 -0.06836,9.9726 -0.07031,9.9727 -0.06836,9.9746 -0.06836,9.9727 -0.07031,9.9746 -0.06836,9.9746 -0.06836,9.9726 -0.07031,9.9727 -0.06836,9.9746 -0.06836,9.9727 -0.07031,9.9726 -0.06836,9.9727 -0.07031,9.9726 -0.06836,9.9746 -0.06836,9.9727 -0.07031,9.9746 -0.06836,9.9727 -0.06836,9.9726 -0.07031,9.9727 -0.06836,9.9746 -0.06836,9.9726 -0.07031,9.9747 -0.06836,9.9726 -0.07031,9.9727 -0.06836,9.9746 -0.06836,9.9726 -0.07031,9.9746 -0.06836,9.9727 -0.06836,9.9746 -0.07031,9.9727 -0.06836,9.9746 -0.06836,9.9726 -0.07031,9.9746 -0.06836,9.9727 -0.06836,9.9746 -0.07031,9.9727 -0.06836,9.9746 -0.07031,9.9726 -0.06836,9.9727 -0.06836,9.9726 -0.07031,9.9746 -0.06836,9.9727 -0.06836,9.9746 -0.07031,9.9727 -0.06836,9.9746 -0.06836,9.9746 -0.07031,9.9726 -0.06836,9.9746 -0.07031,9.9727 -0.06836,9.9707 -0.06836,9.9746 -0.07031,9.9746 -0.06836,9.9727 -0.06836,9.9726 -0.07031,9.9747 -0.06836,9.9746 -0.06836,9.9726 -0.07031,9.9727 -0.06836,9.9726 -0.06836,9.9727 -0.07031,9.9726 -0.06836,9.9727 -0.07031,9.9727 -0.06836,9.9746 -0.06836,9.9746 -0.07031,9.9726 -0.06836,9.9727 9.677734,-2.3633 9.677735,-2.3633 9.679687,-2.3652 9.677735,-2.3633 9.677734,-2.3652 9.679687,-2.3633 9.675782,-2.3633 9.677734,-2.3652 9.677737,-2.3633 9.67773,-2.3633 9.67774,-2.3652 9.67774,-2.3633 9.67772,-2.3652 9.67773,-2.3633 9.67774,-2.3633 9.67773,-2.3652 9.67969,-2.3633 9.67578,-2.3633 9.6797,-2.3652 9.67773,-2.3633 9.67774,-2.3652 9.67773,-2.3633 9.67774,-2.3633 9.67773,-2.3652 9.67774,-2.3633 9.67772,-2.3653 9.67773,-2.3632 9.67969,-2.3633 9.67775,-2.3653 9.67773,-2.3632 9.67969,-2.3653 9.67773,-2.3633 9.67773,-2.3632 9.67773,-2.3653 9.67775,-2.3633 9.67772,-2.3632 9.67773,-2.3653 9.67775,-2.3632 9.67969,-2.3653 9.67773,-2.3633 9.67773,-2.3632 9.67773,-2.3653 9.67773,-2.3633 9.67775,-2.3652 9.67773,-2.3633 9.67773,-2.3633 9.67579,-2.3652 9.67969,-2.3633 9.67772,-2.3652 9.67773,-2.3633 9.67969,-2.3633 9.67775,-2.3652 9.67773,-2.3633 9.67773,-2.3652 9.67773,-2.3633 9.6797,-2.3633 9.67773,-2.3652 9.67577,-2.3633 9.67775,-2.3633 9.67773,-2.3652 9.67774,-2.3633 9.67772,-2.3633 9.67773,-2.3652 9.67774,-2.3633 9.67773,-2.3652 9.6797,-2.3633 9.67773,-2.3633 9.67773,-2.3652 9.67773,-2.3633 9.67774,-2.3633 9.67773,-2.3652 9.67578,-2.3633 9.6797,-2.3652 9.67774,-2.3633 9.67772,-2.3633 9.67773,-2.3652 9.67774,-2.3633 9.67773,-2.3633 9.67775,-2.3652 9.67577,-2.3633 9.67773,-2.3633 9.67775,-2.3652 9.67773,-2.3633 9.67774,-2.3633 9.67773,-2.3652 9.67773,-2.3633 9.67773,-2.3633 9.67773,-2.3652 9.67774,-2.3633 9.67773,-2.3652 9.67775,-2.3633 9.67967,-2.3633 9.67774,-2.3652 9.67773,-2.3633 9.67775,-2.3652 9.67773,-2.3633 9.67774,-2.3633 9.67773,-2.3652 9.67773,-2.3633 9.67773,-2.3633 9.6797,-2.3652 9.67777,-2.3633 9.6777,-2.3653 9.6777,-2.3632 9.6777,-2.3633 9.6778,-2.3653 9.6777,-2.3632 9.6777,-2.3653 0,9.9844 0,9.9844 0,9.9863 0,9.9844 0,9.9844 0,9.9863 0,9.9863 0,9.9844 0,9.9844 0,9.9843 0,9.9844 0,9.9863 0,9.9844 0,9.9863 0,9.9844 0,9.9864 0,9.9843 0,9.9844 0,9.9863 0,9.9844 0,9.9844 0,9.9844 0,9.9863 0,9.9863 0,9.9863 0,9.9844 0,9.9844 0,9.9844 0,9.9843 0,9.9864 0,9.9843 0,9.9864 0,9.9863 0,9.9844 0,9.9843 0,9.9864 0,9.9843 0,9.9864 0,9.9844 0,9.9843 0,9.9864 0,9.9843 0,9.9844 0,9.9863 0,9.9844 0,9.9863 0,9.9844 0,9.9844 0,9.9844 0,9.9863 0,9.9844 0,9.9863 0,9.9863 0,9.9844 0,9.9844 0,9.9843 0,9.9864 0,9.9844 0,9.9843 0,9.9844 0,9.9863 0,9.9844 0,9.9863 0,9.9844 0,9.9863 0,9.9825 0,9.9863 0,9.9863 0,9.9844 0,9.9824 0,9.9863 0,9.9844 0,9.9844 0,9.9844 0,9.9863 0,9.9863 0,9.9844 0,9.9844 0,9.9843 0,9.9844 0,9.9863 0,9.9864 0,9.9844 0,9.9843 0,9.9844 0,9.9863 0,9.9844 0,9.9863 0,9.9844 0,9.9863 0,9.9864 0,9.9843 0,9.9864 0,9.9843 0,9.9844 0,9.9844 0,9.9863 0,9.9863 0,9.9844 0,9.9844 0,9.9863 0,9.9844 0,9.9863 0,9.9844 0,9.9863 0,9.9844 0,9.9844 0,9.9844 0,9.9863 0,9.9824 0,9.9863 0,9.9844 0,9.9844 0,9.9844 0,9.9843 0,9.9864 0,9.9843 0,9.9844 0,9.9863 0,9.9844 0,9.9863 0,9.9844 0,9.9863 0,9.9844 0,9.9864 0,9.9843 0,9.9864 0,9.9843 0,9.9844 0,9.9844 0,9.9844 0,9.9863 0,9.9844 0,9.9843 0,9.9844 0,9.9844 0,9.9863 0,9.9844 0,9.9844 0,9.9863 0,9.9863 0,9.9863 0,9.9844 0,9.9863 0,9.9825 0,9.9863 0,9.9844 0,9.9843 0,9.9844 0,9.9864 0,9.9843 0,9.9844 0,9.9863 0,9.9844 0,9.9863 0,9.9844 0,9.9844 0,9.9863 0,9.9844 0,9.9863 0,9.9844 0,9.9844 0,9.9863 0,9.9844 0,9.9843 0,9.9864 0,9.9843 0,9.9844 0,9.9844 0,9.9863 0,9.9844 0,9.9863 0,9.9844 0,9.9844 0,9.9863 0,9.9844 0,9.9844 0,9.9843 0,9.9844 0,9.9844 0,9.9863 0,9.9844 0,9.9863 0,9.9844 0,9.9844 0,9.9863 0,9.9844 0,9.9863 0,9.9863 0,9.9844 0,9.9844 0,9.9843 0,9.9864 0,9.9863 0,9.9844 0,9.9843 0,9.9864 0,9.9844 0,9.9843 0,9.9844 0,9.9863 0,9.9844 0,9.9863 0,9.9844 0,9.9863 0,9.9864 0,9.9843 0,9.9864 0,9.9843 0,9.9844 0,9.9863 0,9.9864 0,9.9843 0,9.9844 0,9.9844 0,9.9863 0,9.9844 0,9.9844 0,9.9844 0,9.9843 0,9.9864 0,9.9843 0,9.9864 0,9.9843 0,9.9844 0,9.9844 0,9.9844 0,9.9863 0,9.9844 0,9.9843 0,9.9844 0,9.9863 0,9.9844 0,9.9844 0,9.9844 0,9.9843 0,9.9864 0,9.9843 0,9.9864 0,9.9843 0,9.9864 0,9.9863 0,9.9863 0,9.9844 0,9.9844 0,9.9863 0,9.9844 0,9.9844 0,9.9843 0,9.9844 0,9.9844 0,9.9863 0,9.9844 0,9.9844 0,9.9863 0,9.9863 0,9.9844 0,9.9863 0,9.9844 0,9.9863 0,9.9844 0,9.9844 0,9.9843 0,9.9844 0,9.9864 0,9.9863 0,9.9844 0,9.9843 0,9.9844 0,9.9844 0,9.9844 0,9.9843 0,9.9864 0,9.9843 0,9.9864 0,9.9843 0,9.9844 0,9.9863 0,9.9844 0,9.9844 0,9.9844 0,9.9863 0,9.9844 0,9.9863 0,9.9844 0,9.9843 0,9.9844 0,9.9844 0,9.9863 0,9.9844 0,9.9844 0,9.9863 0,9.9863 0,9.9825 0,9.9863 0,9.9844 0,9.9843 0,9.9844 0,9.9863 0,9.9844 0,9.9863 0,9.9844 0,9.9844 0,9.9863 0,9.9844 0,9.9844 0,9.9863 0,9.9863 0,9.9844 0,9.9863 0,9.9844 0,9.9863 0,9.9844 0,9.9844 0,9.9844 0,9.9863 0,9.9844 0,9.9843 0,9.9864 0,9.9843 0,9.9844 0,9.9863 0,9.9844 0,9.9844 0,9.9863 0,9.9844 0,9.9844 0,9.9843 0,9.9864 0,9.9843 0,9.9844 0,9.9863 0,9.9844 0,9.9864 0,9.9843 0,9.9844 0,9.9844 0,9.9843 0,9.9844 0,9.9844 0,9.9863 0,9.9864 0,9.9843 0,9.9864 0,9.9843 0,9.9864 0,9.9843 0,9.9844 0,9.9863 0,9.9844 0,9.9844 0,9.9844 0,9.9863 0,9.9844 0,9.9863 0,9.9844 0,9.9843 0,9.9844 0,9.9844 0,9.9863 0,9.9844 0,9.9844 0,9.9843 0,9.9864 0,9.9844 0,9.9863 0,9.9844 0,9.9843 0,9.9844 0,9.9863 0,9.9844 0,9.9844 0,9.9844 0,9.9863 0,9.9844 0,9.9863 0,9.9844 0,9.9843 0,9.9844 0,9.9844 0,9.9863 0,9.9844 0,9.9863 0,9.9844 0,9.9844 0,9.9843 0,9.9864 0,9.9843 0,9.9864 0,9.9863 0,9.9844 0,9.9863 0,9.9844 0,9.9844 0,9.9843 0,9.9864 0,9.9863 0,9.9844 0,9.9843 0,9.9864 0,9.9843 0,9.9864 0,9.9843 0,9.9844 0,9.9844 0,9.9863 0,9.9844 0,9.9863 0,9.9844 0,9.9844 0,9.9844 0,9.9863 0,9.9844 0,9.9843 0,9.9864 0,9.9843 0,9.9844 0,9.9844 0,9.9863 0,9.9844 0,9.9844 0,9.9843 0,9.9844 0,9.9863 0,9.9844 0,9.9863 0,9.9844 0,9.9844 0,9.9863 0,9.9844 0,9.9844 0,9.9843 0,9.9864 0,9.9844 0,9.9863 0,9.9863 0,9.9844 0,9.9844 0,9.9843 0,9.9864 0,9.9843 0,9.9864 0,9.9863 0,9.9844 0,9.9843 0,9.9844 0,9.9863 0,9.9844 0,9.9863 0,9.9844 0,9.9844 0,9.9863 0,9.9844 0,9.9863 0,9.9844 0,9.9863 0,9.9864 0,9.9843 0,9.9864 0,9.9843 0,9.9844 0,9.9844 0,9.9844 0,9.9863 0,9.9863 0,9.9844 0,9.9844 0,9.9863 0,9.9844 0,9.9843 0,9.9864 0,9.9843 0,9.9844 0,9.9844 0,9.9863 0,9.9844 0,9.9863 0,9.9844 0,9.9863 0,9.9844 0,9.9844 0,9.9863 0,9.9844 0,9.9844 0,9.9863 0,9.9824 0,9.9863 0,9.9864 0,9.9843 0,9.9864 0,9.9843 0,9.9844 0,9.9864 0,9.9843 0,9.9864 0,9.9843 0,9.9844 0,9.9863 0,9.9844 0,9.9844 0,9.9844 0,9.9863 0,9.9844 0,9.9843 0,9.9844 0,9.9863 0,9.9844 0,9.9844 0,9.9863 0,9.9844 0,9.9844 0,9.9843 0,9.9864 -9.6757,-2.3653 -9.6797,-2.3632 -9.6778,-2.3653 -9.6777,-2.3633 -9.6797,-2.3632 -9.6777,-2.3653 -9.67774,-2.3633 -9.67773,-2.3652 -9.67773,-2.3633 -9.67773,-2.3633 -9.67773,-2.3652 -9.67774,-2.3633 -9.67773,-2.3633 -9.67775,-2.3652 -9.67773,-2.3633 -9.67774,-2.3632 -9.67773,-2.3653 -9.67772,-2.3633 -9.67774,-2.3652 -9.67773,-2.3633 -9.67775,-2.3633 -9.67968,-2.3652 -9.67773,-2.3633 -9.67773,-2.3652 -9.67774,-2.3633 -9.67773,-2.3633 -9.67775,-2.3652 -9.67773,-2.3633 -9.67968,-2.3652 -9.67773,-2.3633 -9.67775,-2.3633 -9.67968,-2.3652 -9.67579,-2.3633 -9.67773,-2.3652 -9.67773,-2.3633 -9.67773,-2.3633 -9.67773,-2.3652 -9.6797,-2.3633 -9.67774,-2.3652 -9.67773,-2.3633 -9.67772,-2.3633 -9.67774,-2.3652 -9.6797,-2.3633 -9.67773,-2.3653 -9.67773,-2.3632 -9.67579,-2.3633 -9.67773,-2.3633 -9.67773,-2.3652 -9.67968,-2.3633 -9.67775,-2.3653 -9.67773,-2.3632 -9.67968,-2.3653 -9.67773,-2.3633 -9.67775,-2.3632 -9.67773,-2.3653 -9.67774,-2.3633 -9.67773,-2.3652 -9.67773,-2.3633 -9.67773,-2.3632 -9.67773,-2.3653 -9.67775,-2.3633 -9.67577,-2.3632 -9.67969,-2.3653 -9.67773,-2.3633 -9.67775,-2.3632 -9.67773,-2.3653 -9.67772,-2.3633 -9.67775,-2.3652 -9.67773,-2.3633 -9.67773,-2.3633 -9.67773,-2.3652 -9.67775,-2.3633 -9.67773,-2.3632 -9.67773,-2.3653 -9.67773,-2.3633 -9.67969,-2.3652 -9.67773,-2.3633 -9.67775,-2.3633 -9.67577,-2.3652 -9.67773,-2.3633 -9.67775,-2.3633 -9.67578,-2.3632 -9.67967,-2.3653 -9.67774,-2.3633 -9.67773,-2.3652 -9.67774,-2.3633 -9.67578,-2.3633 -9.67773,-2.3652 -9.67774,-2.3633 -9.67969,-2.3633 -9.67774,-2.3652 -9.67773,-2.3633 -9.67969,-2.3652 -9.67578,-2.3633 -9.67969,-2.3652 -9.67772,-2.3633 -9.67774,-2.3633 -9.67774,-2.3652 -9.67773,-2.3633 -9.677737,-2.3633 -9.677734,-2.3652 -9.679688,-2.3633 -9.675781,-2.3633 -9.677734,-2.3652 -9.677735,-2.3633 -9.677734,-2.3652 -9.679688,-2.3633 -9.677734,-2.3633 0,9.9727 0,9.9726 0,9.9746 0,9.9727 0,9.9746 0,9.9727 0,9.9746 0,9.9726 0,9.9727 0,9.9726 0,9.9746 0,9.9727 0,9.9746 0,9.9727 0,9.9726 0,9.9727 0,9.9746 0,9.9726 0,9.9747 0,9.9726 0,9.9727 0,9.9746 0,9.9726 0,9.9727 0,9.9726 0,9.9747 0,9.9746 0,9.9726 0,9.9727 0,9.9746 0,9.9726 0,9.9727 0,9.9746 0,9.9727 0,9.9726 0,9.9727 0,9.9746 0,9.9726 0,9.9727 0,9.9746 0,9.9727 0,9.9746 0,9.9726 0,9.9727 0,9.9746 0,9.9727 0,9.9746 0,9.9726 0,9.9727 0,9.9726 0,9.9727 0,9.9726 0,9.9747 0,9.9746 0,9.9726 0,9.9746 0,9.9727 0,9.9746 0,9.9726 0,9.9727 0,9.9727 0,9.9726 0,9.9746 0,9.9727 0,9.9746 0,9.9727 0,9.9726 0,9.9746 0,9.9727 0,9.9746 0,9.9726 0,9.9727 0,9.9746 0,9.9727 0,9.9746 0,9.9726 0,9.9746 0,9.9746 0,9.9727 0,9.9746 0,9.9727 0,9.9746 0,9.9726 0,9.9746 0,9.9727 0,9.9746 0,9.9727 0,9.9726 0,9.9746 0,9.9727 0,9.9746 0,9.9726 0,9.9747 0,9.9726 0,9.9746 0,9.9746 0,9.9727 0,9.9726 0,9.9727 0,9.9746 0,9.9727 0,9.9746 0,9.9726 0,9.9746 0,9.9747 0,9.9726 0,9.9727 0,9.9726 0,9.9727 0,9.9726 0,9.9727 0,9.9746 0,9.9746 0,9.9727 0,9.9726 0,9.9746 9.691406,2.3633 9.691406,2.3633 9.69336,2.3633 9.691406,2.3633 9.691406,2.3632 9.691407,2.3633 9.691406,2.3633 9.691406,2.3633 9.691402,2.3633 9.69141,2.3632 9.69336,2.3633 9.69141,2.3633 9.68944,2.3633 9.69141,2.3633 9.69142,2.3633 9.69139,2.3632 9.69142,2.3633 9.69141,2.3633 9.69139,2.3633 9.69337,2.3633 9.68944,2.3632 9.69141,2.3633 9.69142,2.3633 9.69335,2.3633 9.69141,2.3633 9.6914,2.3632 9.69141,2.3633 9.6914,2.3633 9.69141,2.3633 9.69336,2.3633 9.69141,2.3632 9.6914,2.3633 9.69142,2.3633 9.69139,2.3633 9.69142,2.3613 9.69139,2.3633 9.69142,2.3633 9.68944,2.3633 9.69337,2.3632 9.6914,2.3633 9.69142,2.3633 9.69139,2.3633 9.69142,2.3633 9.69139,2.3633 9.69336,2.3632 9.69141,2.3633 9.69142,2.3653 9.69336,2.3632 9.69139,2.3633 9.69142,2.3633 9.69335,2.3633 9.68946,2.3633 9.69141,2.3632 9.69139,2.3633 9.69141,2.3633 9.69142,2.3613 9.69335,2.3653 9.68945,2.3613 9.6914,2.3633 9.69336,2.3633 9.68947,2.3632 9.69139,2.3633 9.69141,2.3633 9.69336,2.3633 9.69141,2.3633 9.69141,2.3632 9.69336,2.3633 9.69141,2.3653 9.69139,2.3613 9.69141,2.3633 9.69142,2.3632 9.6914,2.3633 9.6914,2.3633 9.6914,2.3633 9.68947,2.3633 9.69336,2.3633 9.69139,2.3632 9.69141,2.3633 9.69142,2.3633 9.6914,2.3633 9.6914,2.3633 9.6914,2.3632 9.69336,2.3633 9.68947,2.3633 9.69139,2.3633 9.69336,2.3633 9.68947,2.3632 9.6914,2.3633 9.6914,2.3633 9.69337,2.3633 9.69139,2.3633 9.69141,2.3633 9.69142,2.3632 9.69139,2.3633 9.69141,2.3633 9.69141,2.3633 9.69335,2.3633 9.69142,2.3632 9.69141,2.3633 9.68944,2.3633 9.69336,2.3633 9.69137,2.3633 9.6914,2.3632 9.6914,2.3633 9.6934,2.3633 9.6914,2.3633 9.6914,2.3633 9.6914,2.3633 9.6895,2.3632 9.6933,2.3633 9.6914,2.3633 9.6914,2.3633 9.6914,2.3633 9.6914,2.3632 9.6934,2.3633 9.6914,2.3633 9.6914,2.3633 9.6895,2.3633 9.6914,2.3632 9.6933,2.3633 9.6914,2.3633 9.6914,2.3633 9.6915,2.3633 9.6914,2.3633 9.6914,2.3632 9.6933,2.3633 9.6895,2.3633 9.6914,2.3633 9.6933,2.3633 9.6914,2.3632 9.6915,2.3633 9.6914,2.3633 9.6914,2.3633 9.6894,2.3633 9.6914,2.3632 9.6914,2.3614 9.6914,2.3633 9.6914,2.3632 9.6915,2.3633 9.6914,2.3633 9.6914,2.3633 9.6914,2.3633 9.6914,2.3632 9.6933,2.3633 9.6914,2.3633 9.6915,2.3633 9.6914,2.3633 9.6914,2.3632 9.6933,2.3633 9.6895,2.3633 9.6933,2.3633 9.6914,2.3652 9.6914,2.3614 9.6915,2.3632 9.6914,2.3633 9.6914,2.3633 9.6914,2.3633 9.6914,2.3633 9.6894,2.3632 9.6934,2.3633 9.6914,2.3633 9.6914,2.3633 9.6914,2.3633 9.6934,2.3633 9.6914,2.3632 9.6914,2.3633 9.6914,2.3633 9.6914,2.3633 9.6914,2.3633 9.6914,2.3632 9.6914,2.3633 9.6914,2.3633 9.6914,2.3633 9.6934,2.3633 9.6914,2.3632 9.6934,2.3633 9.6914,2.3633 9.6894,2.3633 9.6934,2.3633 9.6914,2.3632 9.6914,2.3633 9.6914,2.3633 9.6914,2.3633 9.6914,2.3633 9.6914,2.3633 9.6914,2.3632 9.6914,2.3633 9.6914,2.3633 9.6914,2.3633 9.6914,2.3633 9.6914,2.3632 9.6934,2.3633 9.6895,2.3633 9.6914,2.3633 9.6933,2.3633 9.6914,2.3633 9.6914,2.3632 9.6914,2.3633 9.6914,2.3633 9.6915,2.3633 9.6933,2.3633 9.6895,2.3632 9.6914,2.3633 9.6914,2.3633 9.6914,2.3633 9.6914,2.3633 9.6914,2.3632 9.6914,2.3633 9.6914,2.3633 9.6914,2.3633 9.6934,2.3633 9.6894,2.3632 9.6934,2.3633 9.6914,2.3633 9.6914,2.3633 9.6914,2.3633 9.6914,2.3633 9.6914,2.3632 9.6914,2.3633 9.6914,2.3633 9.6934,2.3633 9.6914,2.3633 9.6914,2.3632 9.6895,2.3633 9.6933,2.3633 9.6914,2.3633 9.6914,2.3633 9.6914,2.3613 9.6895,2.3633 9.6933,2.3633 9.6915,2.3632 9.6914,2.3633 9.6894,2.3633 9.6934,2.3633 9.6914,2.3633 9.6914,2.3632 9.6914,2.3633 9.6914,2.3633 9.6914,2.3633 9.6914,2.3633 9.6914,2.3633 9.6914,2.3632 9.6934,2.3633 9.6914,2.3633 9.6914,2.3633 9.6914,2.3633 9.6914,2.3632 9.6914,2.3633 9.6914,2.3633 9.6914,2.3633 9.6934,2.3633 9.6914,2.3632 9.6914,2.3633 9.6914,2.3633 9.6895,2.3633 9.6933,2.3633 9.6914,2.3633 9.6934,2.3632 9.6894,2.3633 9.6934,2.3633 9.6914,2.3633 9.6914,2.3633 9.6895,2.3632 9.6914,2.3633 9.6914,2.3633 9.6894,2.3633 9.6914,2.3633 9.6914,2.3632 9.6914,2.3614 9.6915,2.3652 9.6914,2.3633 9.6914,2.3613 9.6914,2.3633 9.6914,2.3633 9.6914,2.3633 9.6914,2.3632 9.6914,2.3633 9.6914,2.3633 9.6914,2.3633 9.6934,2.3633 9.6914,2.3633 9.6894,2.3632 9.6934,2.3633 9.6894,2.3633 9.6914,2.3633 9.6914,2.3633 9.6915,2.3632 9.6914,2.3633 8.8359,2.1543 z"
       id="path4169" />
    <path
       style="color:#000000;font-style:normal;font-variant:normal;font-weight:normal;font-stretch:normal;font-size:medium;line-height:normal;font-family:Sans;-inkscape-font-specification:Sans;text-indent:0;text-align:start;text-decoration:none;text-decoration-line:none;letter-spacing:normal;word-spacing:normal;text-transform:none;direction:ltr;block-progression:tb;writing-mode:lr-tb;baseline-shift:baseline;text-anchor:start;display:inline;overflow:visible;visibility:visible;fill:#676c53;fill-opacity:1;stroke:none;stroke-width:4.4000001;marker:none;enable-background:accumulate"
       d="m 6813.194,-7742.471 0,1157.875 0.4316,0.1055 9.6368,2.3691 9.6386,2.3711 9.6368,2.3692 9.6367,2.3691 9.6386,2.3711 9.6368,2.3691 9.6386,2.3692 9.6367,2.3691 9.6387,2.3711 9.6367,2.3692 9.6387,2.3691 9.6367,2.3691 9.6368,2.3711 9.6386,2.3692 9.6387,2.3691 9.6387,2.3711 9.6367,2.3691 9.6387,2.3692 9.6367,2.3711 9.6386,2.3691 9.6368,2.3692 9.6386,2.3711 9.6387,2.3691 9.6367,2.3691 9.6387,2.3711 9.6367,2.3692 9.6367,2.3691 9.6387,2.3711 9.6367,2.3691 9.6387,2.3692 9.6367,2.3691 9.6367,2.3711 9.6368,2.3692 9.6386,2.3691 9.6367,2.3691 9.6368,2.3711 9.6386,2.3692 9.6387,2.3691 9.6367,2.3711 9.6367,2.3691 9.6387,2.3692 9.6387,2.3711 9.6367,2.3691 9.6367,2.3692 9.6387,2.3691 9.6367,2.3711 9.6387,2.3691 9.6367,2.3692 9.6387,2.3711 9.6367,2.3691 9.6367,2.3692 9.6387,2.3691 9.6387,2.3711 9.6386,2.3691 9.6387,2.3711 9.6367,2.3692 9.6387,2.3691 9.6387,2.3711 9.6367,2.3691 9.6387,2.3692 9.6367,2.3711 0,9.9902 0,9.9922 0,9.9883 0,9.9922 0,9.9902 0,9.9902 0,9.9922 0,9.9903 0,9.9902 0,9.9922 0,9.9902 0,9.9922 0,9.9902 0,9.9903 0,9.9922 0,9.9921 0,9.9903 0,9.9902 0,9.9902 0,9.9903 0,9.9902 0,9.9903 0,9.9921 0,9.9903 0,9.9902 0,9.9922 0,9.9902 0,9.9922 0,9.9902 0,9.9922 0,9.9903 0,9.9902 0,9.9922 0,9.9902 0,9.9922 0,9.9903 0,9.9902 0,9.9922 0,9.9902 0,9.9922 0,9.9902 0,9.9903 0,9.9902 0,9.9902 0,9.9922 0,9.9903 0,9.9921 0,9.9903 0,9.9902 0,9.9902 0,9.9922 0,9.9883 0,9.9922 0,9.9922 0,9.9922 0,9.9922 0,9.9902 0,9.9922 0,9.9902 0,9.9922 0,9.9902 0,9.9922 0,9.9903 0,9.9902 0,9.9922 0,9.9902 0,9.9903 0,9.9902 0,9.9922 0,9.9902 0,9.9922 0,9.9902 0,9.9922 0,9.9903 0,9.9902 0,9.9922 0,9.9922 0,9.9902 0,9.9902 0,9.9922 0,9.9903 0,9.9902 0,9.9922 0,9.9902 0,9.9902 0,9.9922 0,9.9922 0,9.9903 0,9.9902 0,9.9922 0,9.9902 0,9.9922 0,9.9902 0,9.9903 0,9.9902 0,9.9922 0,9.9922 0,9.9902 0,9.9922 0,9.9922 0,9.9902 0,9.9903 0,9.9902 0,9.9902 0,9.9922 0,9.9902 0,9.9922 0,9.9922 0,9.9903 0,9.9921 0,9.9903 0,9.9922 0,9.9902 0,9.9902 0,9.9922 0,9.9903 0,9.9902 0,9.9922 0,9.9902 0,9.9902 0,9.9922 0,9.9903 0,9.9902 0,9.9902 0,9.9922 0,9.9903 0,9.9902 0,9.9922 0,9.9902 0,9.9922 0,9.9902 0,9.9903 0,9.9922 0,9.9902 0,9.9902 0,9.9922 0,9.9922 0,9.9902 0,9.9903 0,9.9922 0,9.9921 0,9.9883 0,9.9922 0,9.9902 0,9.9903 0,9.9922 0,9.9902 0,9.9922 0,9.9902 0,9.9903 0,9.9921 0,9.9903 0,9.9902 0,9.9922 0,9.9922 0,9.9902 0,9.9903 0,9.9902 0,9.9902 0,9.9903 0,9.9922 0,9.9902 0,9.9922 0,9.9922 0,9.9902 0,9.9902 0,9.9922 0,9.9902 0,9.9903 0,9.9902 0,9.9903 0,9.9902 0,9.9922 0,9.9902 0,9.9902 0,9.9922 0,9.9903 0,9.9922 0,9.9902 0,9.9902 0,9.9903 0,9.9902 0,9.9922 0,9.9902 0,9.9902 0,9.9903 0,9.9922 0,9.9902 0,9.9902 0,9.9903 0,9.9922 0,9.9902 0,9.9922 0,9.9902 0,9.9902 0,9.9903 0,9.9902 0,9.9922 0,9.9922 0,9.9902 0,9.9903 0,9.9922 0,9.9902 0,9.9902 0,9.9922 0,9.9902 0,9.9922 0,9.9903 0,9.9902 0,9.9902 0,9.9922 0,9.9922 0,9.9902 0,9.9903 0,9.9922 0,9.9902 0,9.9902 0,9.9922 0,9.9903 0,9.9902 0,9.9902 0,9.9903 0,9.9902 0,9.9922 0,9.9922 0,9.9902 0,9.9902 0,9.9922 0,9.9903 0,9.9902 0,9.9922 0,9.9902 0,9.9902 0,9.9903 0,9.9922 0,9.9902 0,9.9902 0,9.9922 0,9.9903 0,9.9902 0,9.9922 0,9.9922 0,9.9902 0,9.9902 0,9.9922 0,9.9922 0,9.9902 0,9.9922 0,9.9903 0,9.9922 0,9.9921 0,9.9903 0,9.9902 0,9.9922 0,9.9902 0,9.9922 0,9.9903 0,9.9902 0,9.9902 0,9.9922 0,9.9902 0,9.9922 0,9.9922 0,9.9903 0,9.9921 0,9.9903 0,9.9902 0,9.9902 0,9.9922 0,9.9903 0,9.9902 0,9.9922 0,9.9922 0,9.9902 0,9.9902 0,9.9922 0,9.9903 0,9.9902 0,9.9902 0,9.9903 0,9.9922 0,9.9921 0,9.9903 0,9.9902 0,9.9903 0,9.9921 0,9.9903 0,9.9902 0,9.9922 0,9.9902 0,9.9903 0,9.9902 0,9.9902 0,9.9922 0,9.9903 0,9.9921 0,9.9922 0,9.9903 0,9.9922 0,9.9882 0,9.9922 0,9.9922 0,9.9902 0,9.9903 0,9.9902 0,9.9902 0,9.9922 0,9.9903 0,9.9922 0,9.9902 0,9.9902 0,9.9922 0,9.9902 0,9.9903 0,9.9922 0,9.9902 0,9.9902 0,9.9922 0,9.9903 0,9.9921 0,9.9903 0,9.9922 0,9.9902 0,9.9902 0,9.9922 0,9.9903 0,9.9902 0,9.9922 0,9.9902 0,9.9922 0,9.9902 0,9.9922 0,9.9903 0,9.9921 0,9.9903 0,9.9902 0,9.9922 0,9.9902 0,9.9922 0,9.9903 0,9.9921 0,9.9903 0,9.9922 0,9.9902 0,9.9902 0,9.9922 0,9.9903 0,9.9921 0,9.9903 0,9.9922 0,9.9902 0,9.9902 0,9.9922 0,9.9903 0,9.9902 0,9.9922 0,9.9902 0,9.9922 0,9.9902 0,9.9922 0,9.9903 0,9.9921 0,9.9903 0,9.9902 0,9.9902 0,9.9922 0,9.9903 0,9.9922 0,9.9902 0,9.9902 0,9.9922 0,9.9902 0,9.9903 0,9.9922 0,9.9902 0,9.9922 0,9.9902 0,9.9903 0,9.9921 0,9.9922 0,9.9903 0,9.9922 0,9.9902 0,9.9922 0,9.9902 0,9.9902 0,9.9903 0,9.9922 0,9.9902 0,9.9922 0,9.9902 0,9.9922 0,9.9902 0,9.9903 0,9.9922 0,9.9922 0,9.9902 0,9.9922 0,9.9902 0,9.9902 0,9.9903 0,9.9922 0,9.9902 0,9.9922 0,9.9922 0,9.9922 0,9.9902 0,9.9902 0,9.9903 0,9.9902 0,9.9922 0,9.9922 0,9.9902 0,9.9902 0,9.9903 0,9.9922 0,9.9902 0,9.9902 0,9.9903 0,9.9922 0,9.9902 0,9.9902 0,9.9922 0,9.9903 0,9.9902 0,9.9902 0,9.9922 0,9.9922 0,9.9922 0,9.9902 0,9.9922 0,9.9902 0,9.9903 0,9.9922 0,9.9902 0,9.9902 0,9.9903 0,9.9922 0,9.9902 0,9.9922 0,9.9922 0,9.9902 0,9.9922 0,9.9922 0,9.9902 0,9.9922 0,9.9902 0,9.9922 0,9.9922 0,9.9902 0,9.9903 0,9.9902 0,9.9922 0,9.9922 0,9.9902 0,9.9922 0,9.9902 0,9.9903 0,9.9922 0,9.9902 0,9.9902 0,9.9922 0,9.9902 0,9.9903 0,9.9922 0,9.9902 0,9.9922 0,9.9902 0,9.9922 0,9.9902 0,9.9903 0,9.9902 0,9.9922 0,9.9922 0,9.9922 0,9.9922 0,9.9902 0,9.9922 0,9.9902 0,9.9903 0,9.9921 0,9.9922 0,9.9903 0,9.9902 0,9.9922 0,9.9922 0,9.9902 0,9.9922 0,9.9902 0,9.9903 0,9.9902 0,9.9922 0,9.9902 0,9.9903 0,9.9921 0,9.9903 0,9.9902 0,9.9922 0,9.9902 0,9.9922 0,9.9903 0,9.9921 0,9.9903 0,9.9922 0,9.9902 0,9.9922 0,9.9902 0,9.9922 0,9.9902 0,9.9922 0,9.9922 0,9.9922 0,9.9902 0,9.9922 0,9.9903 0,9.9902 0,9.9922 0,9.9902 0,9.9922 0,9.9902 0,9.9903 0,9.9922 0,9.9902 0,9.9902 0,9.9922 0,9.9903 0,9.9921 0,9.9922 0,9.9903 0,9.9902 0,9.9922 0,9.9922 0,9.9902 0,9.9922 0,9.9902 0,9.9903 0,9.9902 0,9.9922 0,9.9902 0,9.9903 0,9.9902 0,9.9902 0,9.9922 0,9.9902 0,9.9922 0,9.9903 0,9.9922 0,9.9902 0,9.9902 0,9.9903 0,9.9902 0,9.9922 0,9.9902 0,9.9922 0,9.9902 0,9.9903 0,9.9922 0,9.9921 0,9.9903 0,9.9922 0,9.9902 0,9.9902 0,9.9903 0,9.9902 0,9.9922 0,9.9902 0,9.9903 -9.6367,2.3711 -9.6368,2.3691 -9.6386,2.3691 -9.6387,2.3711 -9.6367,2.3692 -9.6367,2.3711 -9.6387,2.3691 -9.6367,2.3691 -9.6367,2.3711 -9.6387,2.3692 -9.6367,2.3711 -9.6387,2.3691 -9.6387,2.3692 -9.6367,2.371 -9.6367,2.3692 -9.6367,2.3691 -9.6368,2.3711 -9.6386,2.3692 -9.6367,2.3711 -9.6387,2.3691 -9.6367,2.3691 -9.6387,2.3711 -9.6367,2.3692 -9.6387,2.3691 -9.6367,2.3711 -9.6387,2.3691 -9.6387,2.3711 -9.6367,2.3692 -9.6387,2.3711 -9.6367,2.3691 -9.6386,2.3692 -9.6387,2.371 -9.6367,2.3692 -9.6387,2.3711 -9.6367,2.3691 -9.6387,2.3711 -9.6387,2.3692 -9.6367,2.3691 -9.6367,2.3711 -9.6387,2.3691 -9.6367,2.3711 -9.6387,2.3692 -9.6367,2.3691 -9.6367,2.3711 -9.6387,2.3691 -9.6367,2.3692 -9.6367,2.3711 -9.6387,2.3691 -9.6387,2.3711 -9.6367,2.3692 -9.6367,2.371 -9.6387,2.3692 -9.6367,2.3691 -9.6387,2.3711 -9.6386,2.3692 -9.6368,2.3711 -9.6386,2.3691 -9.6367,2.3691 -9.6387,2.3711 -9.6387,2.3692 -9.6367,2.3711 -0.4336,0.1074 0,1157.8652 6.5059,-1.5898 9.6953,-2.3692 9.6953,-2.3711 9.6973,-2.3691 9.6953,-2.3691 9.6972,-2.3692 9.6953,-2.3711 9.6973,-2.3691 9.6953,-2.3692 9.6973,-2.371 9.6953,-2.3692 9.6973,-2.3691 9.6953,-2.3692 9.6972,-2.3711 9.6954,-2.3691 9.6972,-2.3691 9.6953,-2.3711 9.6973,-2.3692 9.6973,-2.3691 9.6953,-2.3711 9.6953,-2.3692 9.6973,-2.3691 9.6953,-2.3691 9.6972,-2.3711 9.6953,-2.3692 9.6973,-2.3691 9.6953,-2.3711 9.6973,-2.3691 9.6953,-2.3692 9.6953,-2.3691 9.6973,-2.3711 9.6953,-2.3692 9.6973,-2.3691 9.6972,-2.3711 9.6953,-2.3691 9.6953,-2.3692 9.6973,-2.3691 9.6973,-2.3711 9.6953,-2.3691 9.6973,-2.3692 9.6953,-2.3711 9.6972,-2.3691 9.6953,-2.3692 9.6954,-2.3691 9.6972,-2.3711 9.6953,-2.3691 9.6973,-2.3692 9.6953,-2.3691 9.6953,-2.3711 9.6973,-2.3692 9.6973,-2.3691 9.6953,-2.3711 9.6953,-2.3691 9.6953,-2.3692 9.6973,-2.3691 9.6953,-2.3711 9.6972,-2.3691 9.6973,-2.3692 9.6953,-2.3711 9.6953,-2.3691 9.6953,-2.3692 9.6973,-2.3691 9.6973,-2.3711 9.6953,-2.3691 9.6973,-2.3692 9.6953,-2.3691 9.6953,-2.3711 9.6972,-2.3692 9.6954,-2.3691 9.6953,-2.3691 9.6972,-2.3711 9.6973,-2.3692 9.6953,-2.3691 9.6953,-2.3711 9.6953,-2.3691 9.6973,-2.3692 9.6953,-2.3691 9.6953,-2.3711 9.6973,-2.3692 9.6973,-2.3691 9.6953,-2.3711 9.6972,-2.3691 9.6973,-2.3692 9.6953,-2.3691 9.6953,-2.3711 9.6953,-2.3691 9.6973,-2.3692 9.6953,-2.3711 9.6973,-2.3691 9.6953,-2.3692 9.6953,-2.3691 9.6953,-2.3691 9.6973,-2.3711 9.6953,-2.3692 9.6973,-2.3691 9.6953,-2.3711 9.6972,-2.3692 9.6954,-2.3691 9.6953,-2.3691 9.6972,-2.3711 9.6973,-2.3692 9.6953,-2.3691 9.6973,-2.3711 9.6972,-2.3691 9.6954,-2.3692 9.6972,-2.3711 9.6953,-2.3691 9.6953,-2.3692 9.6973,-2.3691 9.6953,-2.3711 9.6953,-2.3691 9.6973,-2.3692 9.6953,-2.3691 9.6953,-2.3711 9.6973,-2.3692 9.6973,-2.3691 9.6972,-2.3711 9.6953,-2.3691 9.6953,-2.3692 9.6973,-2.3711 9.6953,-2.3691 9.6953,-2.3691 9.6973,-2.3692 9.6973,-2.3711 9.6953,-2.3691 9.6972,-2.3692 9.6954,-2.3711 9.6972,-2.3691 9.6953,-2.3691 9.6954,-2.3692 9.6972,-2.3711 9.6953,-2.3691 9.6973,-2.3691 9.6973,-2.3711 9.6953,-2.3692 9.6953,-2.3691 9.6953,-2.3692 9.6973,-2.3711 9.6953,-2.3691 9.6972,-2.3691 9.6973,-2.3711 9.6953,-2.3692 9.6973,-2.3691 9.6973,-2.3711 9.6953,-2.3692 9.6953,-2.3691 9.6953,-2.3691 9.6973,-2.3692 9.6953,-2.3711 9.6972,-2.3691 9.6953,-2.3691 9.6973,-2.3711 9.6953,-2.3692 9.6973,-2.3691 9.6953,-2.3711 9.6973,-2.3692 9.6953,-2.3691 9.6972,-2.3691 9.6954,-2.3711 9.6953,-2.3692 9.6953,-2.3691 9.6973,-2.3692 9.6953,-2.371 9.6972,-2.3692 9.6953,-2.3691 9.6954,-2.3692 9.6972,-2.3711 9.6953,-2.3691 9.6953,-2.3691 9.6973,-2.3692 9.6953,-2.3711 9.6973,-2.3691 9.6953,-2.3692 9.6973,-2.3711 9.6953,-2.3691 9.6953,-2.3691 9.6953,-2.3692 9.6973,-2.3691 9.6953,-2.3711 9.6972,-2.3691 9.6973,-2.3711 9.6953,-2.3692 9.6973,-2.3691 9.6973,-2.3692 9.6953,-2.3711 9.6972,-2.3691 9.6953,-2.3691 9.6973,-2.3711 9.6953,-2.3692 9.6953,-2.3691 9.6973,-2.3711 9.6953,-2.3692 9.6973,-2.3691 9.6953,-2.3691 9.6953,-2.3711 9.6973,-2.3692 9.6972,-2.3691 9.6953,-2.3691 9.6973,-2.3711 9.6953,-2.3692 9.6953,-2.3691 9.6973,-2.3711 9.6973,-2.3692 9.6953,-2.3691 9.6953,-2.3691 9.6973,-2.3711 9.6972,-2.3692 9.6953,-2.3691 9.6954,-2.3711 9.6972,-2.3691 9.6973,-2.3692 9.6972,-2.3711 9.6954,-2.3691 9.6953,-2.3692 9.6972,-2.3711 9.6954,-2.3691 9.6972,-2.3691 9.6953,-2.3692 9.6973,-2.3711 9.6973,-2.3691 9.6953,-2.3692 9.6972,-2.371 9.6954,-2.3692 9.6972,-2.3691 9.6953,-2.3692 9.6973,-2.3711 9.6953,-2.3691 9.6973,-2.3691 9.6953,-2.3711 9.6973,-2.3692 9.6972,-2.3691 9.6973,-2.3711 9.6953,-2.3692 9.6953,-2.3691 9.6953,-2.3691 9.6973,-2.3711 9.6953,-2.3692 9.6973,-2.3691 9.6953,-2.3711 9.6972,-2.3691 9.6954,-2.3692 9.6972,-2.3711 9.6973,-2.3691 9.6953,-2.3692 9.6973,-2.3711 9.6953,-2.3691 9.6953,-2.3691 9.6973,-2.3692 9.6953,-2.3691 9.6953,-2.3711 9.6972,-2.3691 9.6954,-2.3692 9.6972,-2.3711 9.6953,-2.3691 9.6954,-2.3692 9.6972,-2.3691 9.6973,-2.3711 9.6953,-2.3691 9.6953,-2.3692 9.6953,-2.3691 9.6973,-2.3711 9.6953,-2.3692 9.6973,-2.3691 9.6953,-2.3711 9.6972,-2.3691 9.6954,-2.3692 9.6953,-2.3691 9.6972,-2.3711 9.6953,-2.3691 9.6973,-2.3692 9.6953,-2.3691 9.6973,-2.3711 9.6953,-2.3692 9.6973,-2.3691 9.6953,-2.3711 9.6972,-2.3691 9.6954,-2.3692 9.6972,-2.3711 9.6953,-2.3691 9.6953,-2.3692 9.6973,-2.3691 9.6953,-2.3711 9.6953,-2.3691 9.6973,-2.3692 0,-9.9746 0,-9.9726 0,-9.9746 0,-9.9727 0,-9.9727 0,-9.9746 0,-9.9746 0,-9.9726 0,-9.9727 0,-9.9726 0,-9.9727 0,-9.9746 0,-9.9727 0,-9.9726 0,-9.9746 0,-9.9727 0,-9.9726 0,-9.9747 0,-9.9726 0,-9.9727 0,-9.9746 0,-9.9746 0,-9.9726 0,-9.9727 0,-9.9727 0,-9.9726 0,-9.9746 0,-9.9727 0,-9.9746 0,-9.9746 0,-9.9726 0,-9.9727 0,-9.9727 0,-9.9726 0,-9.9727 0,-9.9746 0,-9.9726 0,-9.9727 0,-9.9746 0,-9.9727 0,-9.9746 0,-9.9726 0,-9.9727 0,-9.9746 0,-9.9726 0,-9.9747 0,-9.9726 0,-9.9727 0,-9.9726 0,-9.9727 0,-9.9746 0,-9.9727 0,-9.9746 0,-9.9726 0,-9.9746 0,-9.9727 0,-9.9746 0,-9.9726 0,-9.9727 0,-9.9727 0,-9.9726 0,-9.9746 0,-9.9727 0,-9.9746 0,-9.9726 0,-9.9747 0,-9.9726 0,-9.9727 0,-9.9746 0,-9.9726 0,-9.9746 0,-9.9727 0,-9.9727 0,-9.9746 0,-9.9746 0,-9.9726 0,-9.9746 0,-9.9727 0,-9.9746 0,-9.9727 0,-9.9746 0,-9.9726 0,-9.9727 0,-9.9746 0,-9.9746 0,-9.9727 0,-9.9746 0,-9.9726 0,-9.9727 0,-9.9746 0,-9.9726 0,-9.9747 0,-9.9726 0,-9.9746 0,-9.9746 0,-9.9727 0,-9.9746 0,-9.9727 0,-9.9726 0,-9.9746 0,-9.9727 0,-9.9746 0,-9.9726 0,-9.9747 0,-9.9726 0,-9.9727 0,-9.9746 0,-9.9726 0,-9.9727 0,-9.9726 0,-9.9727 0,-9.9727 0,-9.9746 0,-9.9746 0,-9.9726 0,-9.9727 -9.6934,2.3848 -9.6953,2.3867 -9.6933,2.3867 -9.6934,2.3848 -9.6933,2.3867 -9.6934,2.3848 -9.6934,2.3867 -9.6933,2.3867 -9.6953,2.3867 -9.6934,2.3848 -9.6934,2.3867 -9.6933,2.3867 -9.6934,2.3848 -9.6933,2.3867 -9.6953,2.3867 -9.6934,2.3848 -9.6934,2.3867 -9.6953,2.3867 -9.6933,2.3868 -9.6934,2.3847 -9.6934,2.3867 -9.6933,2.3848 -9.6934,2.3867 -9.6933,2.3867 -9.6934,2.3848 -9.6934,2.3867 -9.6933,2.3867 -9.6934,2.3848 -9.6953,2.3867 -9.6933,2.3867 -9.6934,2.3868 -9.6953,2.3847 -9.6934,2.3868 -9.6953,2.3867 -9.6933,2.3867 -9.6954,2.3848 -9.6933,2.3867 -9.6934,2.3867 -9.6933,2.3848 -9.6934,2.3867 -9.6953,2.3867 -9.6934,2.3867 -9.6933,2.3848 -9.6953,2.3867 -9.6934,2.3867 -9.6934,2.3848 -9.6953,2.3867 -9.6933,2.3867 -9.6953,2.3867 -9.6954,2.3868 -9.6933,2.3847 -9.6934,2.3867 -9.6933,2.3868 -9.6953,2.3847 -9.6934,2.3867 -9.6934,2.3868 -9.6933,2.3847 -9.6934,2.3867 -9.6933,2.3868 -9.6934,2.3847 -9.6934,2.3867 -9.6953,2.3868 -9.6914,2.3847 -9.6953,2.3868 -9.6953,2.3867 -9.6934,2.3847 -9.6933,2.3868 -9.6934,2.3867 -9.6933,2.3847 -9.6934,2.3868 -9.6934,2.3867 -9.6933,2.3847 -9.6953,2.3868 -9.6934,2.3867 -9.6934,2.3867 -9.6933,2.3848 -9.6953,2.3867 -9.6934,2.3867 -9.6953,2.3867 -9.6953,2.3848 -9.6934,2.3867 -9.6933,2.3867 -9.6934,2.3867 -9.6953,2.3848 -9.6934,2.3867 -9.6914,2.3848 -9.6933,2.3867 -9.6934,2.3867 -9.6953,2.3868 -9.6953,2.3847 -9.6934,2.3867 -9.6933,2.3868 -9.6934,2.3847 -9.6953,2.3867 -9.6934,2.3868 -9.6933,2.3847 -9.6934,2.3867 -9.6933,2.3868 -9.6934,2.3847 -9.6934,2.3867 -9.6933,2.3868 -9.6934,2.3847 -9.6933,2.3867 -9.6934,2.3848 -9.6934,2.3867 -9.6933,2.3867 -9.6934,2.3868 0,-9.9844 0,-9.9844 0,-9.9863 0,-9.9844 0,-9.9844 0,-9.9863 0,-9.9863 0,-9.9844 0,-9.9844 0,-9.9843 0,-9.9844 0,-9.9863 0,-9.9844 0,-9.9863 0,-9.9844 0,-9.9864 0,-9.9843 0,-9.9844 0,-9.9863 0,-9.9844 0,-9.9844 0,-9.9844 0,-9.9863 0,-9.9863 0,-9.9863 0,-9.9844 0,-9.9844 0,-9.9844 0,-9.9843 0,-9.9864 0,-9.9843 0,-9.9864 0,-9.9863 0,-9.9844 0,-9.9843 0,-9.9864 0,-9.9843 0,-9.9864 0,-9.9844 0,-9.9843 0,-9.9864 0,-9.9843 0,-9.9844 0,-9.9863 0,-9.9844 0,-9.9863 0,-9.9844 0,-9.9844 0,-9.9844 0,-9.9863 0,-9.9844 0,-9.9863 0,-9.9863 0,-9.9844 0,-9.9844 0,-9.9843 0,-9.9864 0,-9.9844 0,-9.9843 0,-9.9844 0,-9.9863 0,-9.9844 0,-9.9863 0,-9.9844 0,-9.9863 0,-9.9825 0,-9.9863 0,-9.9863 0,-9.9844 0,-9.9824 0,-9.9863 0,-9.9844 0,-9.9844 0,-9.9844 0,-9.9863 0,-9.9863 0,-9.9844 0,-9.9844 0,-9.9843 0,-9.9844 0,-9.9863 0,-9.9864 0,-9.9844 0,-9.9843 0,-9.9844 0,-9.9863 0,-9.9844 0,-9.9863 0,-9.9844 0,-9.9863 0,-9.9864 0,-9.9843 0,-9.9864 0,-9.9843 0,-9.9844 0,-9.9844 0,-9.9863 0,-9.9863 0,-9.9844 0,-9.9844 0,-9.9863 0,-9.9844 0,-9.9863 0,-9.9844 0,-9.9863 0,-9.9844 0,-9.9844 0,-9.9844 0,-9.9863 0,-9.9824 0,-9.9863 0,-9.9844 0,-9.9844 0,-9.9844 0,-9.9843 0,-9.9864 0,-9.9843 0,-9.9844 0,-9.9863 0,-9.9844 0,-9.9863 0,-9.9844 0,-9.9863 0,-9.9844 0,-9.9864 0,-9.9843 0,-9.9864 0,-9.9843 0,-9.9844 0,-9.9844 0,-9.9844 0,-9.9863 0,-9.9844 0,-9.9843 0,-9.9844 0,-9.9844 0,-9.9863 0,-9.9844 0,-9.9844 0,-9.9863 0,-9.9863 0,-9.9863 0,-9.9844 0,-9.9863 0,-9.9825 0,-9.9863 0,-9.9844 0,-9.9843 0,-9.9844 0,-9.9864 0,-9.9843 0,-9.9844 0,-9.9863 0,-9.9844 0,-9.9863 0,-9.9844 0,-9.9844 0,-9.9863 0,-9.9844 0,-9.9863 0,-9.9844 0,-9.9844 0,-9.9863 0,-9.9844 0,-9.9843 0,-9.9864 0,-9.9843 0,-9.9844 0,-9.9844 0,-9.9863 0,-9.9844 0,-9.9863 0,-9.9844 0,-9.9844 0,-9.9863 0,-9.9844 0,-9.9844 0,-9.9843 0,-9.9844 0,-9.9844 0,-9.9863 0,-9.9844 0,-9.9863 0,-9.9844 0,-9.9844 0,-9.9863 0,-9.9844 0,-9.9863 0,-9.9863 0,-9.9844 0,-9.9844 0,-9.9843 0,-9.9864 0,-9.9863 0,-9.9844 0,-9.9843 0,-9.9864 0,-9.9844 0,-9.9843 0,-9.9844 0,-9.9863 0,-9.9844 0,-9.9863 0,-9.9844 0,-9.9863 0,-9.9864 0,-9.9843 0,-9.9864 0,-9.9843 0,-9.9844 0,-9.9863 0,-9.9864 0,-9.9843 0,-9.9844 0,-9.9844 0,-9.9863 0,-9.9844 0,-9.9844 0,-9.9844 0,-9.9843 0,-9.9864 0,-9.9843 0,-9.9864 0,-9.9843 0,-9.9844 0,-9.9844 0,-9.9844 0,-9.9863 0,-9.9844 0,-9.9843 0,-9.9844 0,-9.9863 0,-9.9844 0,-9.9844 0,-9.9844 0,-9.9843 0,-9.9864 0,-9.9843 0,-9.9864 0,-9.9843 0,-9.9864 0,-9.9863 0,-9.9863 0,-9.9844 0,-9.9844 0,-9.9863 0,-9.9844 0,-9.9844 0,-9.9843 0,-9.9844 0,-9.9844 0,-9.9863 0,-9.9844 0,-9.9844 0,-9.9863 0,-9.9863 0,-9.9844 0,-9.9863 0,-9.9844 0,-9.9863 0,-9.9844 0,-9.9844 0,-9.9843 0,-9.9844 0,-9.9864 0,-9.9863 0,-9.9844 0,-9.9843 0,-9.9844 0,-9.9844 0,-9.9844 0,-9.9843 0,-9.9864 0,-9.9843 0,-9.9864 0,-9.9843 0,-9.9844 0,-9.9863 0,-9.9844 0,-9.9844 0,-9.9844 0,-9.9863 0,-9.9844 0,-9.9863 0,-9.9844 0,-9.9843 0,-9.9844 0,-9.9844 0,-9.9863 0,-9.9844 0,-9.9844 0,-9.9863 0,-9.9863 0,-9.9825 0,-9.9863 0,-9.9844 0,-9.9843 0,-9.9844 0,-9.9863 0,-9.9844 0,-9.9863 0,-9.9844 0,-9.9844 0,-9.9863 0,-9.9844 0,-9.9844 0,-9.9863 0,-9.9863 0,-9.9844 0,-9.9863 0,-9.9844 0,-9.9863 0,-9.9844 0,-9.9844 0,-9.9844 0,-9.9863 0,-9.9844 0,-9.9843 0,-9.9864 0,-9.9843 0,-9.9844 0,-9.9863 0,-9.9844 0,-9.9844 0,-9.9863 0,-9.9844 0,-9.9844 0,-9.9843 0,-9.9864 0,-9.9843 0,-9.9844 0,-9.9863 0,-9.9844 0,-9.9864 0,-9.9843 0,-9.9844 0,-9.9844 0,-9.9843 0,-9.9844 0,-9.9844 0,-9.9863 0,-9.9864 0,-9.9843 0,-9.9864 0,-9.9843 0,-9.9864 0,-9.9843 0,-9.9844 0,-9.9863 0,-9.9844 0,-9.9844 0,-9.9844 0,-9.9863 0,-9.9844 0,-9.9863 0,-9.9844 0,-9.9843 0,-9.9844 0,-9.9844 0,-9.9863 0,-9.9844 0,-9.9844 0,-9.9843 0,-9.9864 0,-9.9844 0,-9.9863 0,-9.9844 0,-9.9843 0,-9.9844 0,-9.9863 0,-9.9844 0,-9.9844 0,-9.9844 0,-9.9863 0,-9.9844 0,-9.9863 0,-9.9844 0,-9.9843 0,-9.9844 0,-9.9844 0,-9.9863 0,-9.9844 0,-9.9863 0,-9.9844 0,-9.9844 0,-9.9843 0,-9.9864 0,-9.9843 0,-9.9864 0,-9.9863 0,-9.9844 0,-9.9863 0,-9.9844 0,-9.9844 0,-9.9843 0,-9.9864 0,-9.9863 0,-9.9844 0,-9.9843 0,-9.9864 0,-9.9843 0,-9.9864 0,-9.9843 0,-9.9844 0,-9.9844 0,-9.9863 0,-9.9844 0,-9.9863 0,-9.9844 0,-9.9844 0,-9.9844 0,-9.9863 0,-9.9844 0,-9.9843 0,-9.9864 0,-9.9843 0,-9.9844 0,-9.9844 0,-9.9863 0,-9.9844 0,-9.9844 0,-9.9843 0,-9.9844 0,-9.9863 0,-9.9844 0,-9.9863 0,-9.9844 0,-9.9844 0,-9.9863 0,-9.9844 0,-9.9844 0,-9.9843 0,-9.9864 0,-9.9844 0,-9.9863 0,-9.9863 0,-9.9844 0,-9.9844 0,-9.9843 0,-9.9864 0,-9.9843 0,-9.9864 0,-9.9863 0,-9.9844 0,-9.9843 0,-9.9844 0,-9.9863 0,-9.9844 0,-9.9863 0,-9.9844 0,-9.9844 0,-9.9863 0,-9.9844 0,-9.9863 0,-9.9844 0,-9.9863 0,-9.9864 0,-9.9843 0,-9.9864 0,-9.9843 0,-9.9844 0,-9.9844 0,-9.9844 0,-9.9863 0,-9.9863 0,-9.9844 0,-9.9844 0,-9.9863 0,-9.9844 0,-9.9843 0,-9.9864 0,-9.9843 0,-9.9844 0,-9.9844 0,-9.9863 0,-9.9844 0,-9.9863 0,-9.9844 0,-9.9863 0,-9.9844 0,-9.9844 0,-9.9863 0,-9.9844 0,-9.9844 0,-9.9863 0,-9.9824 0,-9.9863 0,-9.9864 0,-9.9843 0,-9.9864 0,-9.9843 0,-9.9844 0,-9.9864 0,-9.9843 0,-9.9864 0,-9.9843 0,-9.9844 0,-9.9863 0,-9.9844 0,-9.9844 0,-9.9844 0,-9.9863 0,-9.9844 0,-9.9843 0,-9.9844 0,-9.9863 0,-9.9844 0,-9.9844 0,-9.9863 0,-9.9844 0,-9.9844 0,-9.9843 0,-9.9864 9.6934,2.3868 9.6933,2.3867 9.6934,2.3847 9.6934,2.3868 9.6933,2.3867 9.6934,2.3847 9.6933,2.3868 9.6954,2.3867 9.6933,2.3867 9.6934,2.3848 9.6933,2.3867 9.6934,2.3847 9.6934,2.3868 9.6953,2.3867 9.6933,2.3867 9.6934,2.3848 9.6933,2.3867 9.6954,2.3867 9.6933,2.3848 9.6934,2.3867 9.6933,2.3867 9.6934,2.3848 9.6934,2.3867 9.6933,2.3867 9.6934,2.3848 9.6933,2.3867 9.6934,2.3867 9.6953,2.3848 9.6934,2.3867 9.6933,2.3867 9.6953,2.3848 9.6934,2.3867 9.6953,2.3867 9.6934,2.3867 9.6933,2.3848 9.6953,2.3867 9.6934,2.3867 9.6934,2.3868 9.6953,2.3847 9.6933,2.3867 9.6934,2.3868 9.6933,2.3847 9.6934,2.3867 9.6953,2.3868 9.6934,2.3867 9.6953,2.3848 9.6933,2.3867 9.6954,2.3867 9.6933,2.3867 9.6953,2.3848 9.6934,2.3867 9.6953,2.3867 9.6934,2.3848 9.6933,2.3867 9.6934,2.3867 9.6933,2.3867 9.6934,2.3848 9.6934,2.3867 9.6953,2.3867 9.6933,2.3848 9.6934,2.3867 9.6934,2.3867 9.6933,2.3848 9.6934,2.3867 9.6953,2.3867 9.6933,2.3848 9.6954,2.3867 9.6914,2.3867 9.6933,2.3848 9.6934,2.3867 9.6933,2.3867 9.6954,2.3848 9.6933,2.3867 9.6934,2.3867 9.6933,2.3848 9.6953,2.3867 9.6934,2.3868 9.6953,2.3867 9.6934,2.3867 9.6953,2.3848 9.6933,2.3867 9.6954,2.3867 9.6933,2.3848 9.6934,2.3867 9.6933,2.3867 9.6934,2.3848 9.6934,2.3867 9.6933,2.3867 9.6934,2.3848 9.6953,2.3867 9.6933,2.3867 9.6954,2.3867 9.6933,2.3848 9.6934,2.3867 9.6933,2.3867 9.6934,2.3848 9.6934,2.3867 9.6933,2.3867 9.6934,2.3848 9.6933,2.3867 9.6953,2.3867 9.6915,2.3848 9.6933,2.3867 9.6934,2.3848 9.6933,2.3867 9.6934,2.3867 9.6953,2.3848 0,-9.9727 0,-9.9726 0,-9.9746 0,-9.9727 0,-9.9746 0,-9.9727 0,-9.9746 0,-9.9726 0,-9.9727 0,-9.9726 0,-9.9727 0,-9.9746 0,-9.9727 0,-9.9726 0,-9.9727 0,-9.9746 0,-9.9726 0,-9.9727 0,-9.9746 0,-9.9727 0,-9.9726 0,-9.9746 0,-9.9727 0,-9.9726 0,-9.9727 0,-9.9746 0,-9.9727 0,-9.9746 0,-9.9726 0,-9.9746 0,-9.9727 0,-9.9726 0,-9.9727 0,-9.9727 0,-9.9726 0,-9.9746 0,-9.9727 0,-9.9726 0,-9.9727 0,-9.9746 0,-9.9727 0,-9.9746 0,-9.9726 0,-9.9727 0,-9.9746 0,-9.9726 0,-9.9747 0,-9.9726 0,-9.9727 0,-9.9707 0,-9.9746 0,-9.9726 0,-9.9746 0,-9.9727 0,-9.9746 0,-9.9727 0,-9.9746 0,-9.9726 0,-9.9727 0,-9.9726 0,-9.9727 0,-9.9746 0,-9.9727 0,-9.9746 0,-9.9726 0,-9.9727 0,-9.9746 0,-9.9727 0,-9.9726 0,-9.9727 0,-9.9746 0,-9.9726 0,-9.9746 0,-9.9727 0,-9.9746 0,-9.9727 0,-9.9746 0,-9.9726 0,-9.9746 0,-9.9727 0,-9.9727 0,-9.9746 0,-9.9726 0,-9.9746 0,-9.9746 0,-9.9727 0,-9.9726 0,-9.9727 0,-9.9746 0,-9.9727 0,-9.9746 0,-9.9726 0,-9.9746 0,-9.9727 0,-9.9746 0,-9.9727 0,-9.9746 0,-9.9726 0,-9.9727 0,-9.9746 0,-9.9727 0,-9.9726 0,-9.9746 0,-9.9727 0,-9.9746 0,-9.9726 0,-9.9747 0,-9.9707 0,-9.9726 0,-9.9746 0,-9.9727 0,-9.9726 0,-9.9746 0,-9.9727 0,-9.9727 0,-9.9746 -9.6973,-2.3691 -9.6972,-2.3711 -9.6953,-2.3691 -9.6954,-2.3692 -9.6972,-2.3691 -9.6953,-2.3711 -9.6953,-2.3692 -9.6973,-2.3691 -9.6953,-2.3711 -9.6973,-2.3691 -9.6953,-2.3692 -9.6953,-2.3691 -9.6973,-2.3711 -9.6953,-2.3691 -9.6973,-2.3692 -9.6972,-2.3711 -9.6973,-2.3691 -9.6953,-2.3711 -9.6973,-2.3692 -9.6953,-2.3691 -9.6972,-2.3711 -9.6954,-2.3691 -9.6953,-2.3692 -9.6953,-2.3691 -9.6972,-2.3711 -9.6954,-2.3691 -9.6953,-2.3692 -9.6953,-2.3691 -9.6972,-2.3711 -9.6954,-2.3692 -9.6972,-2.3691 -9.6953,-2.3691 -9.6973,-2.3711 -9.6953,-2.3692 -9.6953,-2.3691 -9.6973,-2.3711 -9.6973,-2.3691 -9.6953,-2.3692 -9.6953,-2.3711 -9.6973,-2.3691 -9.6972,-2.3692 -9.6953,-2.3711 -9.6973,-2.3691 -9.6953,-2.3691 -9.6953,-2.3711 -9.6973,-2.3692 -9.6953,-2.3691 -9.6973,-2.3711 -9.6953,-2.3691 -9.6953,-2.3692 -9.6953,-2.3691 -9.6973,-2.3711 -9.6972,-2.3692 -9.6953,-2.3691 -9.6973,-2.3711 -9.6973,-2.3691 -9.6953,-2.3692 -9.6953,-2.3711 -9.6973,-2.3691 -9.6953,-2.3692 -9.6972,-2.371 -9.6973,-2.3692 -9.6953,-2.3691 -9.6973,-2.3711 -9.6973,-2.3692 -9.6972,-2.3711 -9.6953,-2.3691 -9.6973,-2.3691 -9.6953,-2.3711 -9.6973,-2.3692 -9.6972,-2.3691 -9.6954,-2.3711 -9.6953,-2.3691 -9.6972,-2.3692 -9.6953,-2.3691 -9.6973,-2.3711 -9.6953,-2.3692 -9.6973,-2.3711 -9.6973,-2.3691 -9.6953,-2.3691 -9.6953,-2.3692 -9.6953,-2.3711 -9.6973,-2.3691 -9.6972,-2.3692 -9.6953,-2.371 -9.6954,-2.3692 -9.6953,-2.3691 -9.6972,-2.3692 -9.6953,-2.3711 -9.6973,-2.3691 -9.6973,-2.3691 -9.6953,-2.3711 -9.6953,-2.3692 -9.6953,-2.3691 -9.6973,-2.3711 -9.6972,-2.3692 -9.6954,-2.3691 -9.6972,-2.3711 -9.6953,-2.3691 -9.6973,-2.3692 -9.6953,-2.3711 -9.6973,-2.3691 -9.6953,-2.3691 -9.6973,-2.3711 -9.6953,-2.3692 -9.6972,-2.3691 -9.6953,-2.3692 -9.6973,-2.3711 -9.6953,-2.3691 -9.6973,-2.3691 -9.6953,-2.3711 -9.6973,-2.3692 -9.6953,-2.3691 -9.6953,-2.3711 -9.6973,-2.3691 -9.6972,-2.3692 -9.6953,-2.3711 -9.6953,-2.3691 -9.6973,-2.3692 -9.6953,-2.3711 -9.6973,-2.3691 -9.6973,-2.3691 -9.6953,-2.3711 -9.6953,-2.3692 -9.6972,-2.3691 -9.6973,-2.3711 -9.6953,-2.3691 -9.6953,-2.3692 -9.6953,-2.3691 -9.6973,-2.3711 -9.6953,-2.3692 -9.6953,-2.3691 -9.6973,-2.3711 -9.6973,-2.3691 -9.6953,-2.3692 -9.6953,-2.3691 -9.6973,-2.3711 -9.6953,-2.3692 -9.6972,-2.3691 -9.6954,-2.3711 -9.6972,-2.3691 -9.6953,-2.3692 -9.6953,-2.3711 -9.6973,-2.3691 -9.6973,-2.3691 -9.6953,-2.3711 -9.6953,-2.3692 -9.6973,-2.3691 -9.6953,-2.3692 -9.6953,-2.3711 -9.6973,-2.3691 -9.6953,-2.3691 -9.6972,-2.3711 -9.6953,-2.3692 -9.6973,-2.3691 -9.6953,-2.3711 -9.6953,-2.3691 -9.6973,-2.3692 -9.6953,-2.3691 -9.6953,-2.3711 -9.6973,-2.3692 -9.6953,-2.3691 -9.6973,-2.3711 -9.6972,-2.3691 -9.6954,-2.3692 -9.6972,-2.3711 -9.6953,-2.3691 -9.6953,-2.3691 -9.6973,-2.3711 -9.6953,-2.3692 -9.6973,-2.3691 -9.6953,-2.3692 -9.6973,-2.3711 -9.6953,-2.3691 -9.6953,-2.3691 -9.6953,-2.3692 -9.6973,-2.3711 -9.6953,-2.3691 -9.6972,-2.3692 -9.6954,-2.371 -9.6953,-2.3692 -9.6972,-2.3691 -9.6953,-2.3711 -9.6973,-2.3692 -9.6973,-2.3691 -9.6972,-2.3711 -9.6954,-2.3691 -9.6972,-2.3711 -9.6953,-2.3692 -9.6953,-2.3691 -9.6973,-2.3692 -9.6953,-2.371 -9.6953,-2.3692 -9.6973,-2.3691 -9.6953,-2.3692 -9.6953,-2.3711 -9.6973,-2.3691 -9.6973,-2.3691 -9.6972,-2.3711 -9.6953,-2.3692 -9.6953,-2.3691 -9.6973,-2.3711 -9.6953,-2.3692 -9.6953,-2.3691 -9.6973,-2.3711 -9.6953,-2.3691 -9.6973,-2.3692 -9.6953,-2.3711 -9.6973,-2.3691 -9.6972,-2.3691 -9.6953,-2.3711 -9.6973,-2.3692 -9.6953,-2.3691 -9.6953,-2.3711 -9.6973,-2.3692 -9.6973,-2.3691 -9.6953,-2.3691 -9.6953,-2.3711 -9.6953,-2.3692 -9.6953,-2.3691 -9.6973,-2.3711 -9.6972,-2.3691 -9.6954,-2.3692 -9.6972,-2.3711 -9.6973,-2.3691 -9.6953,-2.3692 -9.6973,-2.3711 -9.6972,-2.3691 -9.6953,-2.3691 -9.6934,-2.3692 -9.6973,-2.3711 -9.6972,-2.3691 -9.6953,-2.3692 -9.6973,-2.371 -9.6953,-2.3692 -9.6973,-2.3691 -9.6953,-2.3711 -9.6973,-2.3692 -9.6953,-2.3691 -9.6972,-2.3711 -9.6954,-2.3691 -9.6953,-2.3692 -9.6972,-2.3691 -9.6954,-2.3711 -9.6953,-2.3692 -9.6972,-2.3691 -9.6953,-2.3711 -9.6973,-2.3691 -9.6953,-2.3692 -9.6953,-2.3711 -9.6973,-2.3691 -9.6953,-2.3691 -9.6953,-2.3692 -9.6973,-2.3711 -9.6953,-2.3691 -9.6973,-2.3692 -9.6953,-2.3711 -9.6953,-2.3691 -9.6973,-2.3691 -9.6953,-2.3692 -9.6953,-2.3711 -9.6972,-2.3691 -9.6973,-2.3691 -9.6953,-2.3711 -9.6953,-2.3692 -9.6973,-2.3691 -9.6973,-2.3711 -9.6972,-2.3692 -9.6953,-2.3691 -9.6973,-2.3711 -9.6953,-2.3691 -9.6953,-2.3692 -9.6973,-2.3711 -9.6953,-2.3691 -9.6973,-2.3691 -9.6953,-2.3711 -9.6953,-2.3692 -9.6973,-2.3691 -9.6972,-2.3711 -9.6953,-2.3692 -9.6973,-2.3691 -9.6953,-2.3691 -9.6973,-2.3711 -6.5039,-1.5899 z"
       id="path4053-0-7" />
  </g>
</svg>
