  0
SECTION
  2
HEADER
  9
$ACADVER
  1
AC1014
  9
$HANDSEED
  5
FFFF
  9
$MEASUREMENT
 70
     1
  0
ENDSEC
  0
SECTION
  2
TABLES
  0
TABLE
  2
VPORT
  5
8
330
0
100
AcDbSymbolTable
 70
     4
  0
VPORT
  5
2E
330
8
100
AcDbSymbolTableRecord
100
AcDbViewportTableRecord
  2
*ACTIVE
 70
     0
 10
0.0
 20
0.0
 11
1.0
 21
1.0
 12
210.0
 22
148.5
 13
0.0
 23
0.0
 14
10.0
 24
10.0
 15
10.0
 25
10.0
 16
0.0
 26
0.0
 36
1.0
 17
0.0
 27
0.0
 37
0.0
 40
341.0
 41
1.24
 42
50.0
 43
0.0
 44
0.0
 50
0.0
 51
0.0
 71
     0
 72
   100
 73
     1
 74
     3
 75
     0
 76
     0
 77
     0
 78
     0
  0
ENDTAB
  0
TABLE
  2
LTYPE
  5
5
330
0
100
AcDbSymbolTable
 70
     1
  0
LTYPE
  5
14
330
5
100
AcDbSymbolTableRecord
100
AcDbLinetypeTableRecord
  2
BYBLOCK
 70
     0
  3

 72
    65
 73
     0
 40
0.0
  0
LTYPE
  5
15
330
5
100
AcDbSymbolTableRecord
100
AcDbLinetypeTableRecord
  2
BYLAYER
 70
     0
  3

 72
    65
 73
     0
 40
0.0
  0
LTYPE
  5
16
330
5
100
AcDbSymbolTableRecord
100
AcDbLinetypeTableRecord
  2
CONTINUOUS
 70
     0
  3
Solid line
 72
    65
 73
     0
 40
0.0
  0
ENDTAB
  0
TABLE
  2
LAYER
  5
2
100
AcDbSymbolTable
 70
2
  0
LAYER
  5
50
100
AcDbSymbolTableRecord
100
AcDbLayerTableRecord
  2
0
 70
0
  6
CONTINUOUS
  0
LAYER
  5
51
100
AcDbSymbolTableRecord
100
AcDbLayerTableRecord
  2
Layer_1
 70
0
  6
CONTINUOUS
  0
ENDTAB
  0
TABLE
  2
STYLE
  5
3
330
0
100
AcDbSymbolTable
 70
     1
  0
STYLE
  5
11
330
3
100
AcDbSymbolTableRecord
100
AcDbTextStyleTableRecord
  2
STANDARD
 70
     0
 40
0.0
 41
1.0
 50
0.0
 71
     0
 42
2.5
  3
txt
  4

  0
ENDTAB
  0
TABLE
  2
VIEW
  5
6
330
0
100
AcDbSymbolTable
 70
     0
  0
ENDTAB
  0
TABLE
  2
UCS
  5
7
330
0
100
AcDbSymbolTable
 70
     0
  0
ENDTAB
  0
TABLE
  2
APPID
  5
9
330
0
100
AcDbSymbolTable
 70
     2
  0
APPID
  5
12
330
9
100
AcDbSymbolTableRecord
100
AcDbRegAppTableRecord
  2
ACAD
 70
     0
  0
ENDTAB
  0
TABLE
  2
DIMSTYLE
  5
A
330
0
100
AcDbSymbolTable
 70
     1
  0
DIMSTYLE
105
27
330
A
100
AcDbSymbolTableRecord
100
AcDbDimStyleTableRecord
  2
ISO-25
 70
     0
  3

  4

  5

  6

  7

 40
1.0
 41
2.5
 42
0.625
 43
3.75
 44
1.25
 45
0.0
 46
0.0
 47
0.0
 48
0.0
140
2.5
141
2.5
142
0.0
143
0.03937007874016
144
1.0
145
0.0
146
1.0
147
0.625
 71
     0
 72
     0
 73
     0
 74
     0
 75
     0
 76
     0
 77
     1
 78
     8
170
     0
171
     3
172
     1
173
     0
174
     0
175
     0
176
     0
177
     0
178
     0
270
     2
271
     2
272
     2
273
     2
274
     3
340
11
275
     0
280
     0
281
     0
282
     0
283
     0
284
     8
285
     0
286
     0
287
     3
288
     0
  0
ENDTAB
  0
TABLE
  2
BLOCK_RECORD
  5
1
330
0
100
AcDbSymbolTable
 70
     1
  0
BLOCK_RECORD
  5
1F
330
1
100
AcDbSymbolTableRecord
100
AcDbBlockTableRecord
  2
*MODEL_SPACE
  0
BLOCK_RECORD
  5
1B
330
1
100
AcDbSymbolTableRecord
100
AcDbBlockTableRecord
  2
*PAPER_SPACE
  0
ENDTAB
  0
ENDSEC
  0
SECTION
  2
BLOCKS
  0
BLOCK
  5
20
330
1F
100
AcDbEntity
  8
0
100
AcDbBlockBegin
  2
*MODEL_SPACE
 70
     0
 10
0.0
 20
0.0
 30
0.0
  3
*MODEL_SPACE
  1

  0
ENDBLK
  5
21
330
1F
100
AcDbEntity
  8
0
100
AcDbBlockEnd
  0
BLOCK
  5
1C
330
1B
100
AcDbEntity
 67
     1
  8
0
100
AcDbBlockBegin
  2
*PAPER_SPACE
  1

  0
ENDBLK
  5
1D
330
1B
100
AcDbEntity
 67
     1
  8
0
100
AcDbBlockEnd
  0
ENDSEC
  0
SECTION
  2
ENTITIES
  0
SPLINE
  5
100
100
AcDbEntity
  8
Layer_1
 62
7
100
AcDbSpline
 70
8
 71
3
 72
8
 73
4
 74
0
 40
0
 40
0
 40
0
 40
0
 40
1
 40
1
 40
1
 40
1
 10
847.465680
 20
1448.676651
 30
0.0
 10
837.577280
 20
1448.676651
 30
0.0
 10
829.565680
 20
1440.665075
 30
0.0
 10
829.565680
 20
1430.776651
 30
0.0
  0
SPLINE
  5
101
100
AcDbEntity
  8
Layer_1
 62
7
100
AcDbSpline
 70
8
 71
3
 72
8
 73
4
 74
0
 40
0
 40
0
 40
0
 40
0
 40
1
 40
1
 40
1
 40
1
 10
829.565680
 20
1430.776651
 30
0.0
 10
829.565680
 20
1420.888219
 30
0.0
 10
837.577280
 20
1412.876651
 30
0.0
 10
847.465680
 20
1412.876651
 30
0.0
  0
SPLINE
  5
102
100
AcDbEntity
  8
Layer_1
 62
7
100
AcDbSpline
 70
8
 71
3
 72
8
 73
4
 74
0
 40
0
 40
0
 40
0
 40
0
 40
1
 40
1
 40
1
 40
1
 10
847.465680
 20
1412.876651
 30
0.0
 10
849.942080
 20
1412.876651
 30
0.0
 10
852.302480
 20
1413.377243
 30
0.0
 10
854.240640
 20
1414.201651
 30
0.0
  0
LWPOLYLINE
  5
103
100
AcDbEntity
  8
Layer_1
 62
7
100
AcDbPolyline
 90
13
 70
0
 10
310.815680
 20
1736.126651
 30
0.0
 10
278.540720
 20
1673.626651
 30
0.0
 10
263.740720
 20
1681.326651
 30
0.0
 10
174.490720
 20
1506.851651
 30
0.0
 10
269.840720
 20
1378.126651
 30
0.0
 10
273.040720
 20
1360.701651
 30
0.0
 10
300.315680
 20
1360.701651
 30
0.0
 10
303.515680
 20
1378.126651
 30
0.0
 10
335.590720
 20
1405.976651
 30
0.0
 10
400.290720
 20
1405.976651
 30
0.0
 10
464.140720
 20
1435.001651
 30
0.0
 10
471.615680
 20
1448.676651
 30
0.0
 10
847.465680
 20
1448.676651
 30
0.0
  0
SPLINE
  5
104
100
AcDbEntity
  8
Layer_1
 62
7
100
AcDbSpline
 70
8
 71
3
 72
8
 73
4
 74
0
 40
0
 40
0
 40
0
 40
0
 40
1
 40
1
 40
1
 40
1
 10
1170.890720
 20
1619.226651
 30
0.0
 10
1161.406400
 20
1694.448923
 30
0.0
 10
1137.440720
 20
1717.626651
 30
0.0
 10
1137.440720
 20
1717.626651
 30
0.0
  0
LWPOLYLINE
  5
105
100
AcDbEntity
  8
Layer_1
 62
7
100
AcDbPolyline
 90
14
 70
0
 10
854.240640
 20
1414.201651
 30
0.0
 10
918.965680
 20
1448.676651
 30
0.0
 10
1023.565760
 20
1448.676651
 30
0.0
 10
1044.240720
 20
1412.876651
 30
0.0
 10
1093.790720
 20
1448.676651
 30
0.0
 10
1118.565680
 20
1448.676651
 30
0.0
 10
1137.615680
 20
1488.326651
 30
0.0
 10
1162.215680
 20
1488.326651
 30
0.0
 10
1162.215680
 20
1495.876651
 30
0.0
 10
1162.215680
 20
1513.176651
 30
0.0
 10
1162.215680
 20
1595.501651
 30
0.0
 10
1162.215680
 20
1612.826651
 30
0.0
 10
1162.215680
 20
1619.226651
 30
0.0
 10
1170.890720
 20
1619.226651
 30
0.0
  0
LWPOLYLINE
  5
106
100
AcDbEntity
  8
Layer_1
 62
7
100
AcDbPolyline
 90
6
 70
0
 10
1137.440720
 20
1717.626651
 30
0.0
 10
1004.155760
 20
1720.520459
 30
0.0
 10
936.863360
 20
1830.428059
 30
0.0
 10
561.641200
 20
1830.428059
 30
0.0
 10
469.959520
 20
1732.342419
 30
0.0
 10
310.815680
 20
1736.126651
 30
0.0
  0
LWPOLYLINE
  5
107
100
AcDbEntity
  8
Layer_1
 62
7
100
AcDbPolyline
 90
4
 70
0
 10
914.990720
 20
1722.451651
 30
0.0
 10
891.940640
 20
1682.501651
 30
0.0
 10
593.865680
 20
1682.501651
 30
0.0
 10
566.415680
 20
1730.051651
 30
0.0
  0
LWPOLYLINE
  5
108
100
AcDbEntity
  8
Layer_1
 62
7
100
AcDbPolyline
 90
2
 70
0
 10
566.419200
 20
1730.048371
 30
0.0
 10
604.398880
 20
1768.028059
 30
0.0
  0
LWPOLYLINE
  5
109
100
AcDbEntity
  8
Layer_1
 62
7
100
AcDbPolyline
 90
2
 70
0
 10
915.001520
 20
1722.463259
 30
0.0
 10
881.123360
 20
1768.028059
 30
0.0
  0
LWPOLYLINE
  5
10a
100
AcDbEntity
  8
Layer_1
 62
7
100
AcDbPolyline
 90
2
 70
0
 10
604.398880
 20
1768.028059
 30
0.0
 10
881.123360
 20
1768.028059
 30
0.0
  0
LWPOLYLINE
  5
10b
100
AcDbEntity
  8
Layer_1
 62
7
100
AcDbPolyline
 90
5
 70
0
 10
1127.586960
 20
1612.821331
 30
0.0
 10
1144.901313
 20
1612.821331
 30
0.0
 10
1144.901313
 20
1595.506978
 30
0.0
 10
1127.586960
 20
1595.506978
 30
0.0
 10
1127.586960
 20
1612.821331
 30
0.0
  0
LWPOLYLINE
  5
10c
100
AcDbEntity
  8
Layer_1
 62
7
100
AcDbPolyline
 90
5
 70
0
 10
1127.586960
 20
1513.179755
 30
0.0
 10
1144.901313
 20
1513.179755
 30
0.0
 10
1144.901313
 20
1495.865402
 30
0.0
 10
1127.586960
 20
1495.865402
 30
0.0
 10
1127.586960
 20
1513.179755
 30
0.0
  0
LWPOLYLINE
  5
10d
100
AcDbEntity
  8
Layer_1
 62
7
100
AcDbPolyline
 90
5
 70
0
 10
1123.626880
 20
1578.192619
 30
0.0
 10
1144.901409
 20
1578.192619
 30
0.0
 10
1144.901409
 20
1530.494093
 30
0.0
 10
1123.626880
 20
1530.494093
 30
0.0
 10
1123.626880
 20
1578.192619
 30
0.0
  0
SPLINE
  5
10e
100
AcDbEntity
  8
Layer_1
 62
7
100
AcDbSpline
 70
8
 71
3
 72
8
 73
4
 74
0
 40
0
 40
0
 40
0
 40
0
 40
1
 40
1
 40
1
 40
1
 10
300.520016
 20
458.664696
 30
0.0
 10
229.088416
 20
445.411096
 30
0.0
 10
247.764176
 20
448.510696
 30
0.0
 10
187.944976
 20
451.514616
 30
0.0
  0
SPLINE
  5
10f
100
AcDbEntity
  8
Layer_1
 62
7
100
AcDbSpline
 70
8
 71
3
 72
8
 73
4
 74
0
 40
0
 40
0
 40
0
 40
0
 40
1
 40
1
 40
1
 40
1
 10
187.944976
 20
451.514616
 30
0.0
 10
181.203856
 20
451.853096
 30
0.0
 10
124.113856
 20
461.815016
 30
0.0
 10
117.520016
 20
462.439656
 30
0.0
  0
SPLINE
  5
110
100
AcDbEntity
  8
Layer_1
 62
7
100
AcDbSpline
 70
8
 71
3
 72
8
 73
4
 74
0
 40
0
 40
0
 40
0
 40
0
 40
1
 40
1
 40
1
 40
1
 10
117.520016
 20
462.439656
 30
0.0
 10
91.510256
 20
464.903496
 30
0.0
 10
42.271776
 20
463.058296
 30
0.0
 10
11.970016
 20
463.914616
 30
0.0
  0
SPLINE
  5
111
100
AcDbEntity
  8
Layer_1
 62
7
100
AcDbSpline
 70
8
 71
3
 72
8
 73
4
 74
0
 40
0
 40
0
 40
0
 40
0
 40
1
 40
1
 40
1
 40
1
 10
11.970016
 20
463.914616
 30
0.0
 10
11.574416
 20
464.084136
 30
0.0
 10
11.020976
 20
464.139656
 30
0.0
 10
10.444976
 20
464.139656
 30
0.0
  0
SPLINE
  5
112
100
AcDbEntity
  8
Layer_1
 62
7
100
AcDbSpline
 70
8
 71
3
 72
8
 73
4
 74
0
 40
0
 40
0
 40
0
 40
0
 40
1
 40
1
 40
1
 40
1
 10
10.444976
 20
464.139656
 30
0.0
 10
4.701216
 20
464.139656
 30
0.0
 10
0.042576
 20
459.488936
 30
0.0
 10
0.044976
 20
454.139656
 30
0.0
  0
SPLINE
  5
113
100
AcDbEntity
  8
Layer_1
 62
7
100
AcDbSpline
 70
8
 71
3
 72
8
 73
4
 74
0
 40
0
 40
0
 40
0
 40
0
 40
1
 40
1
 40
1
 40
1
 10
0.044976
 20
454.139656
 30
0.0
 10
5.360096
 20
369.861664
 30
0.0
 10
9.556416
 20
283.188864
 30
0.0
 10
0.044976
 20
171.764704
 30
0.0
  0
SPLINE
  5
114
100
AcDbEntity
  8
Layer_1
 62
7
100
AcDbSpline
 70
8
 71
3
 72
8
 73
4
 74
0
 40
0
 40
0
 40
0
 40
0
 40
1
 40
1
 40
1
 40
1
 10
0.044976
 20
171.764704
 30
0.0
 10
0.045056
 20
166.974784
 30
0.0
 10
3.195296
 20
162.979664
 30
0.0
 10
7.344976
 20
161.664704
 30
0.0
  0
SPLINE
  5
115
100
AcDbEntity
  8
Layer_1
 62
7
100
AcDbSpline
 70
8
 71
3
 72
8
 73
4
 74
0
 40
0
 40
0
 40
0
 40
0
 40
1
 40
1
 40
1
 40
1
 10
7.344976
 20
161.664704
 30
0.0
 10
96.481056
 20
141.433504
 30
0.0
 10
198.502336
 20
143.543584
 30
0.0
 10
310.620016
 20
163.289664
 30
0.0
  0
LWPOLYLINE
  5
116
100
AcDbEntity
  8
Layer_1
 62
7
100
AcDbPolyline
 90
6
 70
0
 10
584.124657
 20
595.989736
 30
0.0
 10
510.744977
 20
517.514616
 30
0.0
 10
351.620016
 20
521.289656
 30
0.0
 10
319.344976
 20
458.789656
 30
0.0
 10
304.544976
 20
466.489656
 30
0.0
 10
300.520016
 20
458.664696
 30
0.0
  0
SPLINE
  5
117
100
AcDbEntity
  8
Layer_1
 62
7
100
AcDbSpline
 70
8
 71
3
 72
8
 73
4
 74
0
 40
0
 40
0
 40
0
 40
0
 40
1
 40
1
 40
1
 40
1
 10
481.244977
 20
14.864704
 30
0.0
 10
559.520417
 20
14.864704
 30
0.0
 10
611.669616
 20
6.389664
 30
0.0
 10
689.944976
 20
6.389664
 30
0.0
  0
SPLINE
  5
118
100
AcDbEntity
  8
Layer_1
 62
7
100
AcDbSpline
 70
8
 71
3
 72
8
 73
4
 74
0
 40
0
 40
0
 40
0
 40
0
 40
1
 40
1
 40
1
 40
1
 10
689.944976
 20
6.389664
 30
0.0
 10
692.622416
 20
1.885984
 30
0.0
 10
699.280656
 20
-1.819616
 30
0.0
 10
715.070016
 20
1.039664
 30
0.0
  0
SPLINE
  5
119
100
AcDbEntity
  8
Layer_1
 62
7
100
AcDbSpline
 70
8
 71
3
 72
8
 73
4
 74
0
 40
0
 40
0
 40
0
 40
0
 40
1
 40
1
 40
1
 40
1
 10
715.070016
 20
1.039664
 30
0.0
 10
747.144096
 20
6.847824
 30
0.0
 10
731.085856
 20
5.281504
 30
0.0
 10
768.820016
 20
11.089664
 30
0.0
  0
SPLINE
  5
11a
100
AcDbEntity
  8
Layer_1
 62
7
100
AcDbSpline
 70
8
 71
3
 72
8
 73
4
 74
0
 40
0
 40
0
 40
0
 40
0
 40
1
 40
1
 40
1
 40
1
 10
768.820016
 20
11.089664
 30
0.0
 10
806.554096
 20
16.897824
 30
0.0
 10
895.244976
 20
70.139664
 30
0.0
 10
895.244976
 20
70.139664
 30
0.0
  0
LWPOLYLINE
  5
11b
100
AcDbEntity
  8
Layer_1
 62
7
100
AcDbPolyline
 90
6
 70
0
 10
310.620016
 20
163.289664
 30
0.0
 10
313.844976
 20
145.864704
 30
0.0
 10
341.120016
 20
145.864704
 30
0.0
 10
344.320016
 20
163.289664
 30
0.0
 10
376.394976
 20
191.139664
 30
0.0
 10
481.244977
 20
14.864704
 30
0.0
  0
SPLINE
  5
11c
100
AcDbEntity
  8
Layer_1
 62
7
100
AcDbSpline
 70
8
 71
3
 72
8
 73
4
 74
0
 40
0
 40
0
 40
0
 40
0
 40
1
 40
1
 40
1
 40
1
 10
912.220016
 20
96.289664
 30
0.0
 10
912.220016
 20
96.289664
 30
0.0
 10
927.308016
 20
121.451504
 30
0.0
 10
943.344976
 20
95.314624
 30
0.0
  0
SPLINE
  5
11d
100
AcDbEntity
  8
Layer_1
 62
7
100
AcDbSpline
 70
8
 71
3
 72
8
 73
4
 74
0
 40
0
 40
0
 40
0
 40
0
 40
1
 40
1
 40
1
 40
1
 10
943.344976
 20
95.314624
 30
0.0
 10
959.381936
 20
69.177904
 30
0.0
 10
962.220016
 20
42.064704
 30
0.0
 10
962.220016
 20
42.064704
 30
0.0
  0
LWPOLYLINE
  5
11e
100
AcDbEntity
  8
Layer_1
 62
7
100
AcDbPolyline
 90
2
 70
0
 10
895.244976
 20
70.139664
 30
0.0
 10
912.220016
 20
96.289664
 30
0.0
  0
SPLINE
  5
11f
100
AcDbEntity
  8
Layer_1
 62
7
100
AcDbSpline
 70
8
 71
3
 72
8
 73
4
 74
0
 40
0
 40
0
 40
0
 40
0
 40
1
 40
1
 40
1
 40
1
 10
1112.520016
 20
36.614624
 30
0.0
 10
1156.545456
 20
59.203104
 30
0.0
 10
1154.543536
 20
59.221104
 30
0.0
 10
1185.895056
 20
109.189664
 30
0.0
  0
SPLINE
  5
120
100
AcDbEntity
  8
Layer_1
 62
7
100
AcDbSpline
 70
8
 71
3
 72
8
 73
4
 74
0
 40
0
 40
0
 40
0
 40
0
 40
1
 40
1
 40
1
 40
1
 10
1185.895056
 20
109.189664
 30
0.0
 10
1217.246496
 20
159.158144
 30
0.0
 10
1246.595056
 20
166.439664
 30
0.0
 10
1246.595056
 20
166.439664
 30
0.0
  0
LWPOLYLINE
  5
121
100
AcDbEntity
  8
Layer_1
 62
7
100
AcDbPolyline
 90
5
 70
0
 10
962.220016
 20
42.064704
 30
0.0
 10
962.220016
 20
18.839664
 30
0.0
 10
1043.270016
 20
18.839664
 30
0.0
 10
1059.295056
 20
35.289664
 30
0.0
 10
1112.520016
 20
36.614624
 30
0.0
  0
SPLINE
  5
122
100
AcDbEntity
  8
Layer_1
 62
7
100
AcDbSpline
 70
8
 71
3
 72
8
 73
4
 74
0
 40
0
 40
0
 40
0
 40
0
 40
1
 40
1
 40
1
 40
1
 10
1246.595056
 20
225.464704
 30
0.0
 10
1226.770096
 20
224.102224
 30
0.0
 10
1211.121456
 20
239.897664
 30
0.0
 10
1195.220016
 20
254.639664
 30
0.0
  0
LWPOLYLINE
  5
123
100
AcDbEntity
  8
Layer_1
 62
7
100
AcDbPolyline
 90
2
 70
0
 10
1246.595056
 20
166.439664
 30
0.0
 10
1246.595056
 20
225.464704
 30
0.0
  0
SPLINE
  5
124
100
AcDbEntity
  8
Layer_1
 62
7
100
AcDbSpline
 70
8
 71
3
 72
8
 73
4
 74
0
 40
0
 40
0
 40
0
 40
0
 40
1
 40
1
 40
1
 40
1
 10
872.595056
 20
208.564704
 30
0.0
 10
872.595056
 20
208.564704
 30
0.0
 10
894.304496
 20
163.069984
 30
0.0
 10
842.420016
 20
153.389664
 30
0.0
  0
SPLINE
  5
125
100
AcDbEntity
  8
Layer_1
 62
7
100
AcDbSpline
 70
8
 71
3
 72
8
 73
4
 74
0
 40
0
 40
0
 40
0
 40
0
 40
1
 40
1
 40
1
 40
1
 10
842.420016
 20
153.389664
 30
0.0
 10
842.420016
 20
153.389664
 30
0.0
 10
815.010336
 20
144.010064
 30
0.0
 10
792.370016
 20
129.489664
 30
0.0
  0
SPLINE
  5
126
100
AcDbEntity
  8
Layer_1
 62
7
100
AcDbSpline
 70
8
 71
3
 72
8
 73
4
 74
0
 40
0
 40
0
 40
0
 40
0
 40
1
 40
1
 40
1
 40
1
 10
792.370016
 20
129.489664
 30
0.0
 10
792.370016
 20
129.489664
 30
0.0
 10
766.952976
 20
112.160544
 30
0.0
 10
711.295056
 20
115.064704
 30
0.0
  0
SPLINE
  5
127
100
AcDbEntity
  8
Layer_1
 62
7
100
AcDbSpline
 70
8
 71
3
 72
8
 73
4
 74
0
 40
0
 40
0
 40
0
 40
0
 40
1
 40
1
 40
1
 40
1
 10
711.295056
 20
115.064704
 30
0.0
 10
711.295056
 20
115.064704
 30
0.0
 10
698.578176
 20
117.724944
 30
0.0
 10
692.144976
 20
106.139664
 30
0.0
  0
LWPOLYLINE
  5
128
100
AcDbEntity
  8
Layer_1
 62
7
100
AcDbPolyline
 90
5
 70
0
 10
1195.220016
 20
254.639664
 30
0.0
 10
1195.220016
 20
273.489664
 30
0.0
 10
858.370016
 20
273.489664
 30
0.0
 10
858.270016
 20
234.014624
 30
0.0
 10
872.595056
 20
208.564704
 30
0.0
  0
SPLINE
  5
129
100
AcDbEntity
  8
Layer_1
 62
7
100
AcDbSpline
 70
8
 71
3
 72
8
 73
4
 74
0
 40
0
 40
0
 40
0
 40
0
 40
1
 40
1
 40
1
 40
1
 10
1205.520016
 20
439.489656
 30
0.0
 10
1196.334496
 20
483.400216
 30
0.0
 10
1178.244976
 20
502.789656
 30
0.0
 10
1178.244976
 20
502.789656
 30
0.0
  0
LWPOLYLINE
  5
12a
100
AcDbEntity
  8
Layer_1
 62
7
100
AcDbPolyline
 90
5
 70
0
 10
692.144976
 20
106.139664
 30
0.0
 10
537.544977
 20
112.939664
 30
0.0
 10
481.470017
 20
209.514624
 30
0.0
 10
481.470017
 20
439.489656
 30
0.0
 10
1205.520016
 20
439.489656
 30
0.0
  0
LWPOLYLINE
  5
12b
100
AcDbEntity
  8
Layer_1
 62
7
100
AcDbPolyline
 90
9
 70
0
 10
1178.244976
 20
502.789656
 30
0.0
 10
1044.944976
 20
505.689656
 30
0.0
 10
989.670016
 20
595.989656
 30
0.0
 10
977.667136
 20
615.589736
 30
0.0
 10
917.741056
 20
615.589736
 30
0.0
 10
917.741056
 20
595.989736
 30
0.0
 10
676.320016
 20
595.989656
 30
0.0
 10
676.320016
 20
595.989736
 30
0.0
 10
584.124657
 20
595.989736
 30
0.0
  0
SPLINE
  5
12c
100
AcDbEntity
  8
Layer_1
 62
7
100
AcDbSpline
 70
8
 71
3
 72
8
 73
4
 74
0
 40
0
 40
0
 40
0
 40
0
 40
1
 40
1
 40
1
 40
1
 10
998.620016
 20
205.589664
 30
0.0
 10
1026.324096
 20
205.589664
 30
0.0
 10
1048.795056
 20
189.393744
 30
0.0
 10
1048.795056
 20
169.414624
 30
0.0
  0
LWPOLYLINE
  5
12d
100
AcDbEntity
  8
Layer_1
 62
7
100
AcDbPolyline
 90
7
 70
0
 10
645.195056
 20
553.189656
 30
0.0
 10
921.920016
 20
553.189656
 30
0.0
 10
955.795056
 20
507.614616
 30
0.0
 10
932.744976
 20
467.664696
 30
0.0
 10
634.670016
 20
467.664696
 30
0.0
 10
607.220017
 20
515.214616
 30
0.0
 10
645.195056
 20
553.189656
 30
0.0
  0
SPLINE
  5
12e
100
AcDbEntity
  8
Layer_1
 62
7
100
AcDbSpline
 70
8
 71
3
 72
8
 73
4
 74
0
 40
0
 40
0
 40
0
 40
0
 40
1
 40
1
 40
1
 40
1
 10
1048.795056
 20
169.365024
 30
0.0
 10
1074.053296
 20
167.945424
 30
0.0
 10
1094.120016
 20
144.219824
 30
0.0
 10
1094.120016
 20
115.165024
 30
0.0
  0
SPLINE
  5
12f
100
AcDbEntity
  8
Layer_1
 62
7
100
AcDbSpline
 70
8
 71
3
 72
8
 73
4
 74
0
 40
0
 40
0
 40
0
 40
0
 40
1
 40
1
 40
1
 40
1
 10
1094.120016
 20
115.165024
 30
0.0
 10
1094.120016
 20
85.196784
 30
0.0
 10
1072.742256
 20
60.889984
 30
0.0
 10
1046.370016
 20
60.889984
 30
0.0
  0
SPLINE
  5
130
100
AcDbEntity
  8
Layer_1
 62
7
100
AcDbSpline
 70
8
 71
3
 72
8
 73
4
 74
0
 40
0
 40
0
 40
0
 40
0
 40
1
 40
1
 40
1
 40
1
 10
1046.370016
 20
60.889984
 30
0.0
 10
1019.997856
 20
60.889984
 30
0.0
 10
998.620016
 20
85.196784
 30
0.0
 10
998.620016
 20
115.165024
 30
0.0
  0
SPLINE
  5
131
100
AcDbEntity
  8
Layer_1
 62
7
100
AcDbSpline
 70
8
 71
3
 72
8
 73
4
 74
0
 40
0
 40
0
 40
0
 40
0
 40
1
 40
1
 40
1
 40
1
 10
998.620016
 20
115.165024
 30
0.0
 10
998.620016
 20
121.531264
 30
0.0
 10
999.597616
 20
127.639344
 30
0.0
 10
1001.370016
 20
133.314944
 30
0.0
  0
SPLINE
  5
132
100
AcDbEntity
  8
Layer_1
 62
7
100
AcDbSpline
 70
8
 71
3
 72
8
 73
4
 74
0
 40
0
 40
0
 40
0
 40
0
 40
1
 40
1
 40
1
 40
1
 10
1001.370016
 20
133.314944
 30
0.0
 10
1000.464976
 20
133.279744
 30
0.0
 10
999.537136
 20
133.239744
 30
0.0
 10
998.620016
 20
133.239744
 30
0.0
  0
SPLINE
  5
133
100
AcDbEntity
  8
Layer_1
 62
7
100
AcDbSpline
 70
8
 71
3
 72
8
 73
4
 74
0
 40
0
 40
0
 40
0
 40
0
 40
1
 40
1
 40
1
 40
1
 10
998.620016
 20
133.239744
 30
0.0
 10
970.915856
 20
133.239744
 30
0.0
 10
948.470016
 20
149.435744
 30
0.0
 10
948.470016
 20
169.414704
 30
0.0
  0
SPLINE
  5
134
100
AcDbEntity
  8
Layer_1
 62
7
100
AcDbSpline
 70
8
 71
3
 72
8
 73
4
 74
0
 40
0
 40
0
 40
0
 40
0
 40
1
 40
1
 40
1
 40
1
 10
948.470016
 20
169.414704
 30
0.0
 10
948.470016
 20
189.393744
 30
0.0
 10
970.915856
 20
205.589824
 30
0.0
 10
998.620016
 20
205.589744
 30
0.0
  0
LWPOLYLINE
  5
135
100
AcDbEntity
  8
Layer_1
 62
7
100
AcDbPolyline
 90
2
 70
0
 10
1048.795056
 20
169.414624
 30
0.0
 10
1048.795056
 20
169.365024
 30
0.0
  0
LWPOLYLINE
  5
136
100
AcDbEntity
  8
Layer_1
 62
7
100
AcDbPolyline
 90
2
 70
0
 10
998.620016
 20
205.589744
 30
0.0
 10
998.620016
 20
205.589664
 30
0.0
  0
SPLINE
  5
137
100
AcDbEntity
  8
Layer_1
 62
7
100
AcDbSpline
 70
8
 71
3
 72
8
 73
4
 74
0
 40
0
 40
0
 40
0
 40
0
 40
1
 40
1
 40
1
 40
1
 10
321.765696
 20
1176.076659
 30
0.0
 10
250.334096
 20
1162.823059
 30
0.0
 10
269.009856
 20
1165.922659
 30
0.0
 10
209.190656
 20
1168.926579
 30
0.0
  0
SPLINE
  5
138
100
AcDbEntity
  8
Layer_1
 62
7
100
AcDbSpline
 70
8
 71
3
 72
8
 73
4
 74
0
 40
0
 40
0
 40
0
 40
0
 40
1
 40
1
 40
1
 40
1
 10
209.190656
 20
1168.926579
 30
0.0
 10
202.449536
 20
1169.265059
 30
0.0
 10
145.359536
 20
1179.226979
 30
0.0
 10
138.765696
 20
1179.851619
 30
0.0
  0
SPLINE
  5
139
100
AcDbEntity
  8
Layer_1
 62
7
100
AcDbSpline
 70
8
 71
3
 72
8
 73
4
 74
0
 40
0
 40
0
 40
0
 40
0
 40
1
 40
1
 40
1
 40
1
 10
138.765696
 20
1179.851619
 30
0.0
 10
112.755936
 20
1182.315459
 30
0.0
 10
63.517456
 20
1180.470259
 30
0.0
 10
33.215696
 20
1181.326579
 30
0.0
  0
SPLINE
  5
13a
100
AcDbEntity
  8
Layer_1
 62
7
100
AcDbSpline
 70
8
 71
3
 72
8
 73
4
 74
0
 40
0
 40
0
 40
0
 40
0
 40
1
 40
1
 40
1
 40
1
 10
33.215696
 20
1181.326579
 30
0.0
 10
32.820096
 20
1181.496099
 30
0.0
 10
32.266656
 20
1181.551619
 30
0.0
 10
31.690656
 20
1181.551619
 30
0.0
  0
SPLINE
  5
13b
100
AcDbEntity
  8
Layer_1
 62
7
100
AcDbSpline
 70
8
 71
3
 72
8
 73
4
 74
0
 40
0
 40
0
 40
0
 40
0
 40
1
 40
1
 40
1
 40
1
 10
31.690656
 20
1181.551619
 30
0.0
 10
25.946896
 20
1181.551619
 30
0.0
 10
21.288256
 20
1176.900899
 30
0.0
 10
21.290656
 20
1171.551619
 30
0.0
  0
SPLINE
  5
13c
100
AcDbEntity
  8
Layer_1
 62
7
100
AcDbSpline
 70
8
 71
3
 72
8
 73
4
 74
0
 40
0
 40
0
 40
0
 40
0
 40
1
 40
1
 40
1
 40
1
 10
21.290656
 20
1171.551619
 30
0.0
 10
26.605776
 20
1087.273536
 30
0.0
 10
30.802096
 20
1000.600776
 30
0.0
 10
21.290656
 20
889.176616
 30
0.0
  0
SPLINE
  5
13d
100
AcDbEntity
  8
Layer_1
 62
7
100
AcDbSpline
 70
8
 71
3
 72
8
 73
4
 74
0
 40
0
 40
0
 40
0
 40
0
 40
1
 40
1
 40
1
 40
1
 10
21.290656
 20
889.176616
 30
0.0
 10
21.290736
 20
884.386696
 30
0.0
 10
24.440976
 20
880.391576
 30
0.0
 10
28.590656
 20
879.076616
 30
0.0
  0
SPLINE
  5
13e
100
AcDbEntity
  8
Layer_1
 62
7
100
AcDbSpline
 70
8
 71
3
 72
8
 73
4
 74
0
 40
0
 40
0
 40
0
 40
0
 40
1
 40
1
 40
1
 40
1
 10
28.590656
 20
879.076616
 30
0.0
 10
117.726736
 20
858.845496
 30
0.0
 10
219.748016
 20
860.955576
 30
0.0
 10
331.865696
 20
880.701576
 30
0.0
  0
LWPOLYLINE
  5
13f
100
AcDbEntity
  8
Layer_1
 62
7
100
AcDbPolyline
 90
6
 70
0
 10
623.690656
 20
1333.001648
 30
0.0
 10
531.990657
 20
1234.926579
 30
0.0
 10
372.865696
 20
1238.701619
 30
0.0
 10
340.590656
 20
1176.201619
 30
0.0
 10
325.790656
 20
1183.901619
 30
0.0
 10
321.765696
 20
1176.076659
 30
0.0
  0
SPLINE
  5
140
100
AcDbEntity
  8
Layer_1
 62
7
100
AcDbSpline
 70
8
 71
3
 72
8
 73
4
 74
0
 40
0
 40
0
 40
0
 40
0
 40
1
 40
1
 40
1
 40
1
 10
502.490657
 20
732.276616
 30
0.0
 10
580.766097
 20
732.276616
 30
0.0
 10
632.915296
 20
723.801576
 30
0.0
 10
711.190656
 20
723.801576
 30
0.0
  0
SPLINE
  5
141
100
AcDbEntity
  8
Layer_1
 62
7
100
AcDbSpline
 70
8
 71
3
 72
8
 73
4
 74
0
 40
0
 40
0
 40
0
 40
0
 40
1
 40
1
 40
1
 40
1
 10
711.190656
 20
723.801576
 30
0.0
 10
713.868096
 20
719.297896
 30
0.0
 10
720.526336
 20
715.592296
 30
0.0
 10
736.315696
 20
718.451576
 30
0.0
  0
SPLINE
  5
142
100
AcDbEntity
  8
Layer_1
 62
7
100
AcDbSpline
 70
8
 71
3
 72
8
 73
4
 74
0
 40
0
 40
0
 40
0
 40
0
 40
1
 40
1
 40
1
 40
1
 10
736.315696
 20
718.451576
 30
0.0
 10
768.389776
 20
724.259736
 30
0.0
 10
752.331536
 20
722.693416
 30
0.0
 10
790.065696
 20
728.501576
 30
0.0
  0
SPLINE
  5
143
100
AcDbEntity
  8
Layer_1
 62
7
100
AcDbSpline
 70
8
 71
3
 72
8
 73
4
 74
0
 40
0
 40
0
 40
0
 40
0
 40
1
 40
1
 40
1
 40
1
 10
790.065696
 20
728.501576
 30
0.0
 10
827.799776
 20
734.309736
 30
0.0
 10
916.490656
 20
787.551576
 30
0.0
 10
916.490656
 20
787.551576
 30
0.0
  0
LWPOLYLINE
  5
144
100
AcDbEntity
  8
Layer_1
 62
7
100
AcDbPolyline
 90
6
 70
0
 10
331.865696
 20
880.701576
 30
0.0
 10
335.090656
 20
863.276696
 30
0.0
 10
362.365696
 20
863.276696
 30
0.0
 10
365.565696
 20
880.701576
 30
0.0
 10
397.640656
 20
908.551576
 30
0.0
 10
502.490657
 20
732.276616
 30
0.0
  0
SPLINE
  5
145
100
AcDbEntity
  8
Layer_1
 62
7
100
AcDbSpline
 70
8
 71
3
 72
8
 73
4
 74
0
 40
0
 40
0
 40
0
 40
0
 40
1
 40
1
 40
1
 40
1
 10
933.465696
 20
813.701576
 30
0.0
 10
933.465696
 20
813.701576
 30
0.0
 10
948.553696
 20
838.863416
 30
0.0
 10
964.590656
 20
812.726536
 30
0.0
  0
SPLINE
  5
146
100
AcDbEntity
  8
Layer_1
 62
7
100
AcDbSpline
 70
8
 71
3
 72
8
 73
4
 74
0
 40
0
 40
0
 40
0
 40
0
 40
1
 40
1
 40
1
 40
1
 10
964.590656
 20
812.726536
 30
0.0
 10
980.627616
 20
786.589816
 30
0.0
 10
983.465696
 20
759.476616
 30
0.0
 10
983.465696
 20
759.476616
 30
0.0
  0
LWPOLYLINE
  5
147
100
AcDbEntity
  8
Layer_1
 62
7
100
AcDbPolyline
 90
2
 70
0
 10
916.490656
 20
787.551576
 30
0.0
 10
933.465696
 20
813.701576
 30
0.0
  0
SPLINE
  5
148
100
AcDbEntity
  8
Layer_1
 62
7
100
AcDbSpline
 70
8
 71
3
 72
8
 73
4
 74
0
 40
0
 40
0
 40
0
 40
0
 40
1
 40
1
 40
1
 40
1
 10
1133.765696
 20
754.026536
 30
0.0
 10
1177.791136
 20
776.615016
 30
0.0
 10
1175.789216
 20
776.633016
 30
0.0
 10
1207.140736
 20
826.601576
 30
0.0
  0
SPLINE
  5
149
100
AcDbEntity
  8
Layer_1
 62
7
100
AcDbSpline
 70
8
 71
3
 72
8
 73
4
 74
0
 40
0
 40
0
 40
0
 40
0
 40
1
 40
1
 40
1
 40
1
 10
1207.140736
 20
826.601576
 30
0.0
 10
1238.492176
 20
876.570136
 30
0.0
 10
1267.840736
 20
883.851576
 30
0.0
 10
1267.840736
 20
883.851576
 30
0.0
  0
LWPOLYLINE
  5
14a
100
AcDbEntity
  8
Layer_1
 62
7
100
AcDbPolyline
 90
5
 70
0
 10
983.465696
 20
759.476616
 30
0.0
 10
983.465696
 20
736.251576
 30
0.0
 10
1064.515696
 20
736.251576
 30
0.0
 10
1080.540736
 20
752.701576
 30
0.0
 10
1133.765696
 20
754.026536
 30
0.0
  0
SPLINE
  5
14b
100
AcDbEntity
  8
Layer_1
 62
7
100
AcDbSpline
 70
8
 71
3
 72
8
 73
4
 74
0
 40
0
 40
0
 40
0
 40
0
 40
1
 40
1
 40
1
 40
1
 10
1267.840736
 20
942.876616
 30
0.0
 10
1248.015696
 20
941.514136
 30
0.0
 10
1232.367136
 20
957.309576
 30
0.0
 10
1216.465696
 20
972.051576
 30
0.0
  0
LWPOLYLINE
  5
14c
100
AcDbEntity
  8
Layer_1
 62
7
100
AcDbPolyline
 90
2
 70
0
 10
1267.840736
 20
883.851576
 30
0.0
 10
1267.840736
 20
942.876616
 30
0.0
  0
SPLINE
  5
14d
100
AcDbEntity
  8
Layer_1
 62
7
100
AcDbSpline
 70
8
 71
3
 72
8
 73
4
 74
0
 40
0
 40
0
 40
0
 40
0
 40
1
 40
1
 40
1
 40
1
 10
893.840736
 20
925.976616
 30
0.0
 10
893.840736
 20
925.976616
 30
0.0
 10
915.550176
 20
880.481896
 30
0.0
 10
863.665696
 20
870.801656
 30
0.0
  0
SPLINE
  5
14e
100
AcDbEntity
  8
Layer_1
 62
7
100
AcDbSpline
 70
8
 71
3
 72
8
 73
4
 74
0
 40
0
 40
0
 40
0
 40
0
 40
1
 40
1
 40
1
 40
1
 10
863.665696
 20
870.801656
 30
0.0
 10
863.665696
 20
870.801656
 30
0.0
 10
836.256016
 20
861.422056
 30
0.0
 10
813.615696
 20
846.901576
 30
0.0
  0
SPLINE
  5
14f
100
AcDbEntity
  8
Layer_1
 62
7
100
AcDbSpline
 70
8
 71
3
 72
8
 73
4
 74
0
 40
0
 40
0
 40
0
 40
0
 40
1
 40
1
 40
1
 40
1
 10
813.615696
 20
846.901576
 30
0.0
 10
813.615696
 20
846.901576
 30
0.0
 10
788.198656
 20
829.572456
 30
0.0
 10
732.540736
 20
832.476616
 30
0.0
  0
SPLINE
  5
150
100
AcDbEntity
  8
Layer_1
 62
7
100
AcDbSpline
 70
8
 71
3
 72
8
 73
4
 74
0
 40
0
 40
0
 40
0
 40
0
 40
1
 40
1
 40
1
 40
1
 10
732.540736
 20
832.476616
 30
0.0
 10
732.540736
 20
832.476616
 30
0.0
 10
719.823856
 20
835.136856
 30
0.0
 10
713.390576
 20
823.551576
 30
0.0
  0
LWPOLYLINE
  5
151
100
AcDbEntity
  8
Layer_1
 62
7
100
AcDbPolyline
 90
5
 70
0
 10
1216.465696
 20
972.051576
 30
0.0
 10
1216.465696
 20
990.901576
 30
0.0
 10
879.615696
 20
990.901576
 30
0.0
 10
879.515696
 20
951.426536
 30
0.0
 10
893.840736
 20
925.976616
 30
0.0
  0
SPLINE
  5
152
100
AcDbEntity
  8
Layer_1
 62
7
100
AcDbSpline
 70
8
 71
3
 72
8
 73
4
 74
0
 40
0
 40
0
 40
0
 40
0
 40
1
 40
1
 40
1
 40
1
 10
1226.765616
 20
1156.901619
 30
0.0
 10
1217.580096
 20
1200.812179
 30
0.0
 10
1199.490576
 20
1220.201620
 30
0.0
 10
1199.490576
 20
1220.201620
 30
0.0
  0
LWPOLYLINE
  5
153
100
AcDbEntity
  8
Layer_1
 62
7
100
AcDbPolyline
 90
5
 70
0
 10
713.390576
 20
823.551576
 30
0.0
 10
558.790577
 20
830.351576
 30
0.0
 10
502.715617
 20
926.926536
 30
0.0
 10
502.715617
 20
1156.901619
 30
0.0
 10
1226.765616
 20
1156.901619
 30
0.0
  0
LWPOLYLINE
  5
154
100
AcDbEntity
  8
Layer_1
 62
7
100
AcDbPolyline
 90
7
 70
0
 10
1199.490576
 20
1220.201620
 30
0.0
 10
1066.190576
 20
1223.101620
 30
0.0
 10
1010.915616
 20
1313.401648
 30
0.0
 10
697.565616
 20
1313.401648
 30
0.0
 10
697.565616
 20
1333.001648
 30
0.0
 10
623.690576
 20
1333.001648
 30
0.0
 10
623.690656
 20
1333.001648
 30
0.0
  0
SPLINE
  5
155
100
AcDbEntity
  8
Layer_1
 62
7
100
AcDbSpline
 70
8
 71
3
 72
8
 73
4
 74
0
 40
0
 40
0
 40
0
 40
0
 40
1
 40
1
 40
1
 40
1
 10
1019.865696
 20
923.001576
 30
0.0
 10
1047.569776
 20
923.001576
 30
0.0
 10
1070.040736
 20
906.805656
 30
0.0
 10
1070.040736
 20
886.826536
 30
0.0
  0
LWPOLYLINE
  5
156
100
AcDbEntity
  8
Layer_1
 62
7
100
AcDbPolyline
 90
8
 70
0
 10
666.440736
 20
1270.601619
 30
0.0
 10
943.165696
 20
1270.601619
 30
0.0
 10
977.040736
 20
1225.026580
 30
0.0
 10
953.990656
 20
1185.076659
 30
0.0
 10
655.915696
 20
1185.076659
 30
0.0
 10
628.465696
 20
1232.626579
 30
0.0
 10
666.440736
 20
1270.601619
 30
0.0
 10
666.440736
 20
1270.601619
 30
0.0
  0
SPLINE
  5
157
100
AcDbEntity
  8
Layer_1
 62
7
100
AcDbSpline
 70
8
 71
3
 72
8
 73
4
 74
0
 40
0
 40
0
 40
0
 40
0
 40
1
 40
1
 40
1
 40
1
 10
1070.040736
 20
886.776936
 30
0.0
 10
1095.298976
 20
885.357336
 30
0.0
 10
1115.365696
 20
861.631816
 30
0.0
 10
1115.365696
 20
832.576936
 30
0.0
  0
SPLINE
  5
158
100
AcDbEntity
  8
Layer_1
 62
7
100
AcDbSpline
 70
8
 71
3
 72
8
 73
4
 74
0
 40
0
 40
0
 40
0
 40
0
 40
1
 40
1
 40
1
 40
1
 10
1115.365696
 20
832.576936
 30
0.0
 10
1115.365696
 20
802.608696
 30
0.0
 10
1093.987936
 20
778.301896
 30
0.0
 10
1067.615696
 20
778.301896
 30
0.0
  0
SPLINE
  5
159
100
AcDbEntity
  8
Layer_1
 62
7
100
AcDbSpline
 70
8
 71
3
 72
8
 73
4
 74
0
 40
0
 40
0
 40
0
 40
0
 40
1
 40
1
 40
1
 40
1
 10
1067.615696
 20
778.301896
 30
0.0
 10
1041.243536
 20
778.301896
 30
0.0
 10
1019.865696
 20
802.608696
 30
0.0
 10
1019.865696
 20
832.576936
 30
0.0
  0
SPLINE
  5
15a
100
AcDbEntity
  8
Layer_1
 62
7
100
AcDbSpline
 70
8
 71
3
 72
8
 73
4
 74
0
 40
0
 40
0
 40
0
 40
0
 40
1
 40
1
 40
1
 40
1
 10
1019.865696
 20
832.576936
 30
0.0
 10
1019.865696
 20
838.943176
 30
0.0
 10
1020.843296
 20
845.051256
 30
0.0
 10
1022.615696
 20
850.726856
 30
0.0
  0
SPLINE
  5
15b
100
AcDbEntity
  8
Layer_1
 62
7
100
AcDbSpline
 70
8
 71
3
 72
8
 73
4
 74
0
 40
0
 40
0
 40
0
 40
0
 40
1
 40
1
 40
1
 40
1
 10
1022.615696
 20
850.726856
 30
0.0
 10
1021.710656
 20
850.691656
 30
0.0
 10
1020.782816
 20
850.651656
 30
0.0
 10
1019.865696
 20
850.651656
 30
0.0
  0
SPLINE
  5
15c
100
AcDbEntity
  8
Layer_1
 62
7
100
AcDbSpline
 70
8
 71
3
 72
8
 73
4
 74
0
 40
0
 40
0
 40
0
 40
0
 40
1
 40
1
 40
1
 40
1
 10
1019.865696
 20
850.651656
 30
0.0
 10
992.161536
 20
850.651656
 30
0.0
 10
969.715696
 20
866.847736
 30
0.0
 10
969.715696
 20
886.826616
 30
0.0
  0
SPLINE
  5
15d
100
AcDbEntity
  8
Layer_1
 62
7
100
AcDbSpline
 70
8
 71
3
 72
8
 73
4
 74
0
 40
0
 40
0
 40
0
 40
0
 40
1
 40
1
 40
1
 40
1
 10
969.715696
 20
886.826616
 30
0.0
 10
969.715696
 20
906.805656
 30
0.0
 10
992.161536
 20
923.001736
 30
0.0
 10
1019.865696
 20
923.001656
 30
0.0
  0
LWPOLYLINE
  5
15e
100
AcDbEntity
  8
Layer_1
 62
7
100
AcDbPolyline
 90
2
 70
0
 10
1070.040736
 20
886.826536
 30
0.0
 10
1070.040736
 20
886.776936
 30
0.0
  0
LWPOLYLINE
  5
15f
100
AcDbEntity
  8
Layer_1
 62
7
100
AcDbPolyline
 90
2
 70
0
 10
1019.865696
 20
923.001656
 30
0.0
 10
1019.865696
 20
923.001576
 30
0.0
  0
ENDSEC
  0
SECTION
  2
OBJECTS
  0
DICTIONARY
  5
C
330
0
100
AcDbDictionary
  3
ACAD_GROUP
350
D
  3
ACAD_MLINESTYLE
350
17
  0
DICTIONARY
  5
D
330
C
100
AcDbDictionary
  0
DICTIONARY
  5
1A
330
C
100
AcDbDictionary
  0
DICTIONARY
  5
17
330
C
100
AcDbDictionary
  3
STANDARD
350
18
  0
DICTIONARY
  5
19
330
C
100
AcDbDictionary
  0
ENDSEC
  0
EOF
