  0
SECTION
  2
HEADER
  9
$ACADVER
  1
AC1014
  9
$HANDSEED
  5
FFFF
  9
$MEASUREMENT
 70
     1
  0
ENDSEC
  0
SECTION
  2
TABLES
  0
TABLE
  2
VPORT
  5
8
330
0
100
AcDbSymbolTable
 70
     4
  0
VPORT
  5
2E
330
8
100
AcDbSymbolTableRecord
100
AcDbViewportTableRecord
  2
*ACTIVE
 70
     0
 10
0.0
 20
0.0
 11
1.0
 21
1.0
 12
210.0
 22
148.5
 13
0.0
 23
0.0
 14
10.0
 24
10.0
 15
10.0
 25
10.0
 16
0.0
 26
0.0
 36
1.0
 17
0.0
 27
0.0
 37
0.0
 40
341.0
 41
1.24
 42
50.0
 43
0.0
 44
0.0
 50
0.0
 51
0.0
 71
     0
 72
   100
 73
     1
 74
     3
 75
     0
 76
     0
 77
     0
 78
     0
  0
ENDTAB
  0
TABLE
  2
LTYPE
  5
5
330
0
100
AcDbSymbolTable
 70
     1
  0
LTYPE
  5
14
330
5
100
AcDbSymbolTableRecord
100
AcDbLinetypeTableRecord
  2
BYBLOCK
 70
     0
  3

 72
    65
 73
     0
 40
0.0
  0
LTYPE
  5
15
330
5
100
AcDbSymbolTableRecord
100
AcDbLinetypeTableRecord
  2
BYLAYER
 70
     0
  3

 72
    65
 73
     0
 40
0.0
  0
LTYPE
  5
16
330
5
100
AcDbSymbolTableRecord
100
AcDbLinetypeTableRecord
  2
CONTINUOUS
 70
     0
  3
Solid line
 72
    65
 73
     0
 40
0.0
  0
ENDTAB
  0
TABLE
  2
LAYER
  5
2
100
AcDbSymbolTable
 70
2
  0
LAYER
  5
50
100
AcDbSymbolTableRecord
100
AcDbLayerTableRecord
  2
0
 70
0
  6
CONTINUOUS
  0
LAYER
  5
51
100
AcDbSymbolTableRecord
100
AcDbLayerTableRecord
  2
Layer_1
 70
0
  6
CONTINUOUS
  0
ENDTAB
  0
TABLE
  2
STYLE
  5
3
330
0
100
AcDbSymbolTable
 70
     1
  0
STYLE
  5
11
330
3
100
AcDbSymbolTableRecord
100
AcDbTextStyleTableRecord
  2
STANDARD
 70
     0
 40
0.0
 41
1.0
 50
0.0
 71
     0
 42
2.5
  3
txt
  4

  0
ENDTAB
  0
TABLE
  2
VIEW
  5
6
330
0
100
AcDbSymbolTable
 70
     0
  0
ENDTAB
  0
TABLE
  2
UCS
  5
7
330
0
100
AcDbSymbolTable
 70
     0
  0
ENDTAB
  0
TABLE
  2
APPID
  5
9
330
0
100
AcDbSymbolTable
 70
     2
  0
APPID
  5
12
330
9
100
AcDbSymbolTableRecord
100
AcDbRegAppTableRecord
  2
ACAD
 70
     0
  0
ENDTAB
  0
TABLE
  2
DIMSTYLE
  5
A
330
0
100
AcDbSymbolTable
 70
     1
  0
DIMSTYLE
105
27
330
A
100
AcDbSymbolTableRecord
100
AcDbDimStyleTableRecord
  2
ISO-25
 70
     0
  3

  4

  5

  6

  7

 40
1.0
 41
2.5
 42
0.625
 43
3.75
 44
1.25
 45
0.0
 46
0.0
 47
0.0
 48
0.0
140
2.5
141
2.5
142
0.0
143
0.03937007874016
144
1.0
145
0.0
146
1.0
147
0.625
 71
     0
 72
     0
 73
     0
 74
     0
 75
     0
 76
     0
 77
     1
 78
     8
170
     0
171
     3
172
     1
173
     0
174
     0
175
     0
176
     0
177
     0
178
     0
270
     2
271
     2
272
     2
273
     2
274
     3
340
11
275
     0
280
     0
281
     0
282
     0
283
     0
284
     8
285
     0
286
     0
287
     3
288
     0
  0
ENDTAB
  0
TABLE
  2
BLOCK_RECORD
  5
1
330
0
100
AcDbSymbolTable
 70
     1
  0
BLOCK_RECORD
  5
1F
330
1
100
AcDbSymbolTableRecord
100
AcDbBlockTableRecord
  2
*MODEL_SPACE
  0
BLOCK_RECORD
  5
1B
330
1
100
AcDbSymbolTableRecord
100
AcDbBlockTableRecord
  2
*PAPER_SPACE
  0
ENDTAB
  0
ENDSEC
  0
SECTION
  2
BLOCKS
  0
BLOCK
  5
20
330
1F
100
AcDbEntity
  8
0
100
AcDbBlockBegin
  2
*MODEL_SPACE
 70
     0
 10
0.0
 20
0.0
 30
0.0
  3
*MODEL_SPACE
  1

  0
ENDBLK
  5
21
330
1F
100
AcDbEntity
  8
0
100
AcDbBlockEnd
  0
BLOCK
  5
1C
330
1B
100
AcDbEntity
 67
     1
  8
0
100
AcDbBlockBegin
  2
*PAPER_SPACE
  1

  0
ENDBLK
  5
1D
330
1B
100
AcDbEntity
 67
     1
  8
0
100
AcDbBlockEnd
  0
ENDSEC
  0
SECTION
  2
ENTITIES
  0
SPLINE
  5
100
100
AcDbEntity
  8
Layer_1
 62
7
100
AcDbSpline
 70
8
 71
3
 72
8
 73
4
 74
0
 40
0
 40
0
 40
0
 40
0
 40
1
 40
1
 40
1
 40
1
 10
49.492733
 20
113.585856
 30
0.0
 10
49.492733
 20
111.026752
 30
0.0
 10
47.418171
 20
108.952192
 30
0.0
 10
44.859070
 20
108.952192
 30
0.0
  0
SPLINE
  5
101
100
AcDbEntity
  8
Layer_1
 62
7
100
AcDbSpline
 70
8
 71
3
 72
8
 73
4
 74
0
 40
0
 40
0
 40
0
 40
0
 40
1
 40
1
 40
1
 40
1
 10
44.859070
 20
108.952192
 30
0.0
 10
42.299969
 20
108.952192
 30
0.0
 10
40.225406
 20
111.026752
 30
0.0
 10
40.225406
 20
113.585856
 30
0.0
  0
SPLINE
  5
102
100
AcDbEntity
  8
Layer_1
 62
7
100
AcDbSpline
 70
8
 71
3
 72
8
 73
4
 74
0
 40
0
 40
0
 40
0
 40
0
 40
1
 40
1
 40
1
 40
1
 10
40.225406
 20
113.585856
 30
0.0
 10
40.225406
 20
116.144960
 30
0.0
 10
42.299969
 20
118.219520
 30
0.0
 10
44.859070
 20
118.219520
 30
0.0
  0
SPLINE
  5
103
100
AcDbEntity
  8
Layer_1
 62
7
100
AcDbSpline
 70
8
 71
3
 72
8
 73
4
 74
0
 40
0
 40
0
 40
0
 40
0
 40
1
 40
1
 40
1
 40
1
 10
44.859070
 20
118.219520
 30
0.0
 10
47.418171
 20
118.219520
 30
0.0
 10
49.492733
 20
116.144960
 30
0.0
 10
49.492733
 20
113.585856
 30
0.0
  0
SPLINE
  5
104
100
AcDbEntity
  8
Layer_1
 62
7
100
AcDbSpline
 70
8
 71
3
 72
8
 73
4
 74
0
 40
0
 40
0
 40
0
 40
0
 40
1
 40
1
 40
1
 40
1
 10
49.492733
 20
10.625832
 30
0.0
 10
49.492733
 20
8.066712
 30
0.0
 10
47.418171
 20
5.992152
 30
0.0
 10
44.859070
 20
5.992152
 30
0.0
  0
SPLINE
  5
105
100
AcDbEntity
  8
Layer_1
 62
7
100
AcDbSpline
 70
8
 71
3
 72
8
 73
4
 74
0
 40
0
 40
0
 40
0
 40
0
 40
1
 40
1
 40
1
 40
1
 10
44.859070
 20
5.992152
 30
0.0
 10
42.299969
 20
5.992152
 30
0.0
 10
40.225406
 20
8.066712
 30
0.0
 10
40.225406
 20
10.625832
 30
0.0
  0
SPLINE
  5
106
100
AcDbEntity
  8
Layer_1
 62
7
100
AcDbSpline
 70
8
 71
3
 72
8
 73
4
 74
0
 40
0
 40
0
 40
0
 40
0
 40
1
 40
1
 40
1
 40
1
 10
40.225406
 20
10.625832
 30
0.0
 10
40.225406
 20
13.184952
 30
0.0
 10
42.299969
 20
15.259512
 30
0.0
 10
44.859070
 20
15.259512
 30
0.0
  0
SPLINE
  5
107
100
AcDbEntity
  8
Layer_1
 62
7
100
AcDbSpline
 70
8
 71
3
 72
8
 73
4
 74
0
 40
0
 40
0
 40
0
 40
0
 40
1
 40
1
 40
1
 40
1
 10
44.859070
 20
15.259512
 30
0.0
 10
47.418171
 20
15.259512
 30
0.0
 10
49.492733
 20
13.184952
 30
0.0
 10
49.492733
 20
10.625832
 30
0.0
  0
LWPOLYLINE
  5
108
100
AcDbEntity
  8
Layer_1
 62
7
100
AcDbPolyline
 90
2
 70
0
 10
49.492733
 20
113.585856
 30
0.0
 10
49.492733
 20
113.585856
 30
0.0
  0
SPLINE
  5
109
100
AcDbEntity
  8
Layer_1
 62
7
100
AcDbSpline
 70
8
 71
3
 72
8
 73
4
 74
0
 40
0
 40
0
 40
0
 40
0
 40
1
 40
1
 40
1
 40
1
 10
44.810938
 20
95.539032
 30
0.0
 10
42.251889
 20
95.539425
 30
0.0
 10
40.177030
 20
93.465265
 30
0.0
 10
40.176562
 20
90.906216
 30
0.0
  0
SPLINE
  5
10a
100
AcDbEntity
  8
Layer_1
 62
7
100
AcDbSpline
 70
8
 71
3
 72
8
 73
4
 74
0
 40
0
 40
0
 40
0
 40
0
 40
1
 40
1
 40
1
 40
1
 10
40.176562
 20
90.906216
 30
0.0
 10
40.177613
 20
88.891900
 30
0.0
 10
41.479893
 20
87.109003
 30
0.0
 10
43.398438
 20
86.495280
 30
0.0
  0
SPLINE
  5
10b
100
AcDbEntity
  8
Layer_1
 62
7
100
AcDbSpline
 70
8
 71
3
 72
8
 73
4
 74
0
 40
0
 40
0
 40
0
 40
0
 40
1
 40
1
 40
1
 40
1
 10
43.398438
 20
86.495280
 30
0.0
 10
30.474942
 20
85.747134
 30
0.0
 10
20.376680
 20
75.051348
 30
0.0
 10
20.371875
 20
62.106216
 30
0.0
  0
SPLINE
  5
10c
100
AcDbEntity
  8
Layer_1
 62
7
100
AcDbSpline
 70
8
 71
3
 72
8
 73
4
 74
0
 40
0
 40
0
 40
0
 40
0
 40
1
 40
1
 40
1
 40
1
 10
20.371875
 20
62.106216
 30
0.0
 10
20.388184
 20
49.149524
 30
0.0
 10
30.513401
 20
38.457381
 30
0.0
 10
43.450000
 20
37.735912
 30
0.0
  0
SPLINE
  5
10d
100
AcDbEntity
  8
Layer_1
 62
7
100
AcDbSpline
 70
8
 71
3
 72
8
 73
4
 74
0
 40
0
 40
0
 40
0
 40
0
 40
1
 40
1
 40
1
 40
1
 10
43.450000
 20
37.735912
 30
0.0
 10
41.503885
 20
37.138295
 30
0.0
 10
40.175788
 20
35.340438
 30
0.0
 10
40.176562
 20
33.304632
 30
0.0
  0
SPLINE
  5
10e
100
AcDbEntity
  8
Layer_1
 62
7
100
AcDbSpline
 70
8
 71
3
 72
8
 73
4
 74
0
 40
0
 40
0
 40
0
 40
0
 40
1
 40
1
 40
1
 40
1
 10
40.176562
 20
33.304632
 30
0.0
 10
40.177039
 20
30.746200
 30
0.0
 10
42.250943
 20
28.672301
 30
0.0
 10
44.809375
 20
28.671832
 30
0.0
  0
SPLINE
  5
10f
100
AcDbEntity
  8
Layer_1
 62
7
100
AcDbSpline
 70
8
 71
3
 72
8
 73
4
 74
0
 40
0
 40
0
 40
0
 40
0
 40
1
 40
1
 40
1
 40
1
 10
44.809375
 20
28.671832
 30
0.0
 10
47.368418
 20
28.671439
 30
0.0
 10
49.443274
 20
30.745590
 30
0.0
 10
49.443750
 20
33.304632
 30
0.0
  0
SPLINE
  5
110
100
AcDbEntity
  8
Layer_1
 62
7
100
AcDbSpline
 70
8
 71
3
 72
8
 73
4
 74
0
 40
0
 40
0
 40
0
 40
0
 40
1
 40
1
 40
1
 40
1
 10
49.443750
 20
33.304632
 30
0.0
 10
49.442320
 20
35.321652
 30
0.0
 10
48.136268
 20
37.106046
 30
0.0
 10
46.214062
 20
37.717192
 30
0.0
  0
SPLINE
  5
111
100
AcDbEntity
  8
Layer_1
 62
7
100
AcDbSpline
 70
8
 71
3
 72
8
 73
4
 74
0
 40
0
 40
0
 40
0
 40
0
 40
1
 40
1
 40
1
 40
1
 10
46.214062
 20
37.717192
 30
0.0
 10
59.141239
 20
38.460567
 30
0.0
 10
69.244886
 20
49.157684
 30
0.0
 10
69.250000
 20
62.106216
 30
0.0
  0
SPLINE
  5
112
100
AcDbEntity
  8
Layer_1
 62
7
100
AcDbSpline
 70
8
 71
3
 72
8
 73
4
 74
0
 40
0
 40
0
 40
0
 40
0
 40
1
 40
1
 40
1
 40
1
 10
69.250000
 20
62.106216
 30
0.0
 10
69.234195
 20
75.067508
 30
0.0
 10
59.102451
 20
85.762163
 30
0.0
 10
46.160938
 20
86.478088
 30
0.0
  0
SPLINE
  5
113
100
AcDbEntity
  8
Layer_1
 62
7
100
AcDbSpline
 70
8
 71
3
 72
8
 73
4
 74
0
 40
0
 40
0
 40
0
 40
0
 40
1
 40
1
 40
1
 40
1
 10
46.160938
 20
86.478088
 30
0.0
 10
48.110269
 20
87.071430
 30
0.0
 10
49.443231
 20
88.868584
 30
0.0
 10
49.445313
 20
90.906216
 30
0.0
  0
SPLINE
  5
114
100
AcDbEntity
  8
Layer_1
 62
7
100
AcDbSpline
 70
8
 71
3
 72
8
 73
4
 74
0
 40
0
 40
0
 40
0
 40
0
 40
1
 40
1
 40
1
 40
1
 10
49.445313
 20
90.906216
 30
0.0
 10
49.444845
 20
93.465265
 30
0.0
 10
47.369986
 20
95.539425
 30
0.0
 10
44.810938
 20
95.539032
 30
0.0
  0
LWPOLYLINE
  5
115
100
AcDbEntity
  8
Layer_1
 62
7
100
AcDbPolyline
 90
2
 70
0
 10
49.492733
 20
10.625832
 30
0.0
 10
49.492733
 20
10.625832
 30
0.0
  0
LWPOLYLINE
  5
116
100
AcDbEntity
  8
Layer_1
 62
7
100
AcDbPolyline
 90
2
 70
0
 10
44.810938
 20
95.539032
 30
0.0
 10
44.810938
 20
95.539032
 30
0.0
  0
SPLINE
  5
117
100
AcDbEntity
  8
Layer_1
 62
7
100
AcDbSpline
 70
8
 71
3
 72
8
 73
4
 74
0
 40
0
 40
0
 40
0
 40
0
 40
1
 40
1
 40
1
 40
1
 10
317.707890
 20
101.177360
 30
0.0
 10
327.660274
 20
101.177360
 30
0.0
 10
335.672482
 20
92.703352
 30
0.0
 10
335.672482
 20
82.177344
 30
0.0
  0
LWPOLYLINE
  5
118
100
AcDbEntity
  8
Layer_1
 62
7
100
AcDbPolyline
 90
29
 70
0
 10
1.682813
 20
122.560904
 30
0.0
 10
1.682813
 20
104.609344
 30
0.0
 10
19.635938
 20
104.609344
 30
0.0
 10
19.635938
 20
86.546840
 30
0.0
 10
1.650000
 20
86.546840
 30
0.0
 10
1.650000
 20
37.663992
 30
0.0
 10
19.635938
 20
37.663992
 30
0.0
 10
19.635938
 20
19.603112
 30
0.0
 10
1.682813
 20
19.603112
 30
0.0
 10
1.682813
 20
1.649992
 30
0.0
 10
21.235938
 20
1.649992
 30
0.0
 10
69.985938
 20
1.649992
 30
0.0
 10
69.985938
 20
1.657992
 30
0.0
 10
87.979690
 20
1.657992
 30
0.0
 10
87.979690
 20
19.611112
 30
0.0
 10
69.985938
 20
19.611112
 30
0.0
 10
69.985938
 20
37.664232
 30
0.0
 10
87.971874
 20
37.664232
 30
0.0
 10
87.971874
 20
86.547080
 30
0.0
 10
69.985938
 20
86.547080
 30
0.0
 10
69.985938
 20
104.601768
 30
0.0
 10
87.979690
 20
104.601768
 30
0.0
 10
87.979690
 20
122.553336
 30
0.0
 10
69.985938
 20
122.553336
 30
0.0
 10
69.985938
 20
122.561336
 30
0.0
 10
21.235938
 20
122.561336
 30
0.0
 10
19.635938
 20
122.561336
 30
0.0
 10
1.682813
 20
122.561336
 30
0.0
 10
1.682813
 20
122.560904
 30
0.0
  0
SPLINE
  5
119
100
AcDbEntity
  8
Layer_1
 62
7
100
AcDbSpline
 70
8
 71
3
 72
8
 73
4
 74
0
 40
0
 40
0
 40
0
 40
0
 40
1
 40
1
 40
1
 40
1
 10
335.672482
 20
41.035432
 30
0.0
 10
335.672482
 20
30.509432
 30
0.0
 10
327.660274
 20
22.035352
 30
0.0
 10
317.707890
 20
22.035352
 30
0.0
  0
SPLINE
  5
11a
100
AcDbEntity
  8
Layer_1
 62
7
100
AcDbSpline
 70
8
 71
3
 72
8
 73
4
 74
0
 40
0
 40
0
 40
0
 40
0
 40
1
 40
1
 40
1
 40
1
 10
317.707890
 20
22.035352
 30
0.0
 10
307.755498
 20
22.035352
 30
0.0
 10
299.743290
 20
30.509432
 30
0.0
 10
299.743290
 20
41.035432
 30
0.0
  0
LWPOLYLINE
  5
11b
100
AcDbEntity
  8
Layer_1
 62
7
100
AcDbPolyline
 90
2
 70
0
 10
335.672482
 20
82.177344
 30
0.0
 10
335.672482
 20
41.035432
 30
0.0
  0
SPLINE
  5
11c
100
AcDbEntity
  8
Layer_1
 62
7
100
AcDbSpline
 70
8
 71
3
 72
8
 73
4
 74
0
 40
0
 40
0
 40
0
 40
0
 40
1
 40
1
 40
1
 40
1
 10
299.743290
 20
82.177344
 30
0.0
 10
299.743290
 20
92.703352
 30
0.0
 10
307.755498
 20
101.177360
 30
0.0
 10
317.707890
 20
101.177360
 30
0.0
  0
LWPOLYLINE
  5
11d
100
AcDbEntity
  8
Layer_1
 62
7
100
AcDbPolyline
 90
2
 70
0
 10
299.743290
 20
41.035432
 30
0.0
 10
299.743290
 20
82.177344
 30
0.0
  0
SPLINE
  5
11e
100
AcDbEntity
  8
Layer_1
 62
7
100
AcDbSpline
 70
8
 71
3
 72
8
 73
4
 74
0
 40
0
 40
0
 40
0
 40
0
 40
1
 40
1
 40
1
 40
1
 10
317.720538
 20
122.048952
 30
0.0
 10
312.754794
 20
122.048952
 30
0.0
 10
308.758034
 20
118.458416
 30
0.0
 10
308.758034
 20
113.998952
 30
0.0
  0
SPLINE
  5
11f
100
AcDbEntity
  8
Layer_1
 62
7
100
AcDbSpline
 70
8
 71
3
 72
8
 73
4
 74
0
 40
0
 40
0
 40
0
 40
0
 40
1
 40
1
 40
1
 40
1
 10
308.758034
 20
113.998952
 30
0.0
 10
308.758034
 20
113.998952
 30
0.0
 10
308.758034
 20
105.597384
 30
0.0
 10
308.758034
 20
105.597384
 30
0.0
  0
SPLINE
  5
120
100
AcDbEntity
  8
Layer_1
 62
7
100
AcDbSpline
 70
8
 71
3
 72
8
 73
4
 74
0
 40
0
 40
0
 40
0
 40
0
 40
1
 40
1
 40
1
 40
1
 10
308.758034
 20
105.597384
 30
0.0
 10
302.934697
 20
104.410808
 30
0.0
 10
297.404553
 20
102.080956
 30
0.0
 10
292.487722
 20
98.742696
 30
0.0
  0
SPLINE
  5
121
100
AcDbEntity
  8
Layer_1
 62
7
100
AcDbSpline
 70
8
 71
3
 72
8
 73
4
 74
0
 40
0
 40
0
 40
0
 40
0
 40
1
 40
1
 40
1
 40
1
 10
292.487722
 20
98.742696
 30
0.0
 10
292.487722
 20
98.742696
 30
0.0
 10
292.487722
 20
24.466152
 30
0.0
 10
292.487722
 20
24.466152
 30
0.0
  0
SPLINE
  5
122
100
AcDbEntity
  8
Layer_1
 62
7
100
AcDbSpline
 70
8
 71
3
 72
8
 73
4
 74
0
 40
0
 40
0
 40
0
 40
0
 40
1
 40
1
 40
1
 40
1
 10
292.487722
 20
24.466152
 30
0.0
 10
297.393747
 20
21.118405
 30
0.0
 10
302.914732
 20
18.776388
 30
0.0
 10
308.731466
 20
17.575512
 30
0.0
  0
LWPOLYLINE
  5
123
100
AcDbEntity
  8
Layer_1
 62
7
100
AcDbPolyline
 90
2
 70
0
 10
317.707890
 20
101.177360
 30
0.0
 10
317.707890
 20
101.177360
 30
0.0
  0
SPLINE
  5
124
100
AcDbEntity
  8
Layer_1
 62
7
100
AcDbSpline
 70
8
 71
3
 72
8
 73
4
 74
0
 40
0
 40
0
 40
0
 40
0
 40
1
 40
1
 40
1
 40
1
 10
308.731466
 20
9.213032
 30
0.0
 10
308.731466
 20
4.753592
 30
0.0
 10
312.728234
 20
1.164552
 30
0.0
 10
317.693978
 20
1.164552
 30
0.0
  0
SPLINE
  5
125
100
AcDbEntity
  8
Layer_1
 62
7
100
AcDbSpline
 70
8
 71
3
 72
8
 73
4
 74
0
 40
0
 40
0
 40
0
 40
0
 40
1
 40
1
 40
1
 40
1
 10
317.693978
 20
1.164552
 30
0.0
 10
322.659722
 20
1.164552
 30
0.0
 10
326.658042
 20
4.753592
 30
0.0
 10
326.658042
 20
9.213032
 30
0.0
  0
LWPOLYLINE
  5
126
100
AcDbEntity
  8
Layer_1
 62
7
100
AcDbPolyline
 90
2
 70
0
 10
308.731466
 20
17.575512
 30
0.0
 10
308.731466
 20
9.213032
 30
0.0
  0
SPLINE
  5
127
100
AcDbEntity
  8
Layer_1
 62
7
100
AcDbSpline
 70
8
 71
3
 72
8
 73
4
 74
0
 40
0
 40
0
 40
0
 40
0
 40
1
 40
1
 40
1
 40
1
 10
326.658042
 20
17.616152
 30
0.0
 10
332.486309
 20
18.803532
 30
0.0
 10
338.020880
 20
21.136107
 30
0.0
 10
342.940850
 20
24.478632
 30
0.0
  0
SPLINE
  5
128
100
AcDbEntity
  8
Layer_1
 62
7
100
AcDbSpline
 70
8
 71
3
 72
8
 73
4
 74
0
 40
0
 40
0
 40
0
 40
0
 40
1
 40
1
 40
1
 40
1
 10
342.940850
 20
24.478632
 30
0.0
 10
342.940850
 20
24.478632
 30
0.0
 10
342.940850
 20
98.736448
 30
0.0
 10
342.940850
 20
98.736448
 30
0.0
  0
SPLINE
  5
129
100
AcDbEntity
  8
Layer_1
 62
7
100
AcDbSpline
 70
8
 71
3
 72
8
 73
4
 74
0
 40
0
 40
0
 40
0
 40
0
 40
1
 40
1
 40
1
 40
1
 10
342.940850
 20
98.736448
 30
0.0
 10
338.031809
 20
102.089013
 30
0.0
 10
332.506387
 20
104.434290
 30
0.0
 10
326.684602
 20
105.636448
 30
0.0
  0
LWPOLYLINE
  5
12a
100
AcDbEntity
  8
Layer_1
 62
7
100
AcDbPolyline
 90
2
 70
0
 10
326.658042
 20
9.213032
 30
0.0
 10
326.658042
 20
17.616152
 30
0.0
  0
SPLINE
  5
12b
100
AcDbEntity
  8
Layer_1
 62
7
100
AcDbSpline
 70
8
 71
3
 72
8
 73
4
 74
0
 40
0
 40
0
 40
0
 40
0
 40
1
 40
1
 40
1
 40
1
 10
326.684602
 20
113.998952
 30
0.0
 10
326.684602
 20
118.458416
 30
0.0
 10
322.686282
 20
122.048952
 30
0.0
 10
317.720538
 20
122.048952
 30
0.0
  0
LWPOLYLINE
  5
12c
100
AcDbEntity
  8
Layer_1
 62
7
100
AcDbPolyline
 90
2
 70
0
 10
326.684602
 20
105.636448
 30
0.0
 10
326.684602
 20
113.998952
 30
0.0
  0
SPLINE
  5
12d
100
AcDbEntity
  8
Layer_1
 62
7
100
AcDbSpline
 70
8
 71
3
 72
8
 73
4
 74
0
 40
0
 40
0
 40
0
 40
0
 40
1
 40
1
 40
1
 40
1
 10
322.354838
 20
113.086384
 30
0.0
 10
322.354838
 20
110.527280
 30
0.0
 10
320.280277
 20
108.452720
 30
0.0
 10
317.721175
 20
108.452720
 30
0.0
  0
SPLINE
  5
12e
100
AcDbEntity
  8
Layer_1
 62
7
100
AcDbSpline
 70
8
 71
3
 72
8
 73
4
 74
0
 40
0
 40
0
 40
0
 40
0
 40
1
 40
1
 40
1
 40
1
 10
317.721175
 20
108.452720
 30
0.0
 10
315.162074
 20
108.452720
 30
0.0
 10
313.087512
 20
110.527280
 30
0.0
 10
313.087512
 20
113.086384
 30
0.0
  0
SPLINE
  5
12f
100
AcDbEntity
  8
Layer_1
 62
7
100
AcDbSpline
 70
8
 71
3
 72
8
 73
4
 74
0
 40
0
 40
0
 40
0
 40
0
 40
1
 40
1
 40
1
 40
1
 10
313.087512
 20
113.086384
 30
0.0
 10
313.087512
 20
115.645488
 30
0.0
 10
315.162074
 20
117.720048
 30
0.0
 10
317.721175
 20
117.720048
 30
0.0
  0
SPLINE
  5
130
100
AcDbEntity
  8
Layer_1
 62
7
100
AcDbSpline
 70
8
 71
3
 72
8
 73
4
 74
0
 40
0
 40
0
 40
0
 40
0
 40
1
 40
1
 40
1
 40
1
 10
317.721175
 20
117.720048
 30
0.0
 10
320.280277
 20
117.720048
 30
0.0
 10
322.354838
 20
115.645488
 30
0.0
 10
322.354838
 20
113.086384
 30
0.0
  0
LWPOLYLINE
  5
131
100
AcDbEntity
  8
Layer_1
 62
7
100
AcDbPolyline
 90
2
 70
0
 10
317.720538
 20
122.048952
 30
0.0
 10
317.720538
 20
122.048952
 30
0.0
  0
SPLINE
  5
132
100
AcDbEntity
  8
Layer_1
 62
7
100
AcDbSpline
 70
8
 71
3
 72
8
 73
4
 74
0
 40
0
 40
0
 40
0
 40
0
 40
1
 40
1
 40
1
 40
1
 10
322.328279
 20
10.126408
 30
0.0
 10
322.328279
 20
7.567288
 30
0.0
 10
320.253718
 20
5.492728
 30
0.0
 10
317.694616
 20
5.492728
 30
0.0
  0
SPLINE
  5
133
100
AcDbEntity
  8
Layer_1
 62
7
100
AcDbSpline
 70
8
 71
3
 72
8
 73
4
 74
0
 40
0
 40
0
 40
0
 40
0
 40
1
 40
1
 40
1
 40
1
 10
317.694616
 20
5.492728
 30
0.0
 10
315.135514
 20
5.492728
 30
0.0
 10
313.060953
 20
7.567288
 30
0.0
 10
313.060953
 20
10.126408
 30
0.0
  0
SPLINE
  5
134
100
AcDbEntity
  8
Layer_1
 62
7
100
AcDbSpline
 70
8
 71
3
 72
8
 73
4
 74
0
 40
0
 40
0
 40
0
 40
0
 40
1
 40
1
 40
1
 40
1
 10
313.060953
 20
10.126408
 30
0.0
 10
313.060953
 20
12.685528
 30
0.0
 10
315.135514
 20
14.760088
 30
0.0
 10
317.694616
 20
14.760088
 30
0.0
  0
SPLINE
  5
135
100
AcDbEntity
  8
Layer_1
 62
7
100
AcDbSpline
 70
8
 71
3
 72
8
 73
4
 74
0
 40
0
 40
0
 40
0
 40
0
 40
1
 40
1
 40
1
 40
1
 10
317.694616
 20
14.760088
 30
0.0
 10
320.253718
 20
14.760088
 30
0.0
 10
322.328279
 20
12.685528
 30
0.0
 10
322.328279
 20
10.126408
 30
0.0
  0
LWPOLYLINE
  5
136
100
AcDbEntity
  8
Layer_1
 62
7
100
AcDbPolyline
 90
2
 70
0
 10
322.354838
 20
113.086384
 30
0.0
 10
322.354838
 20
113.086384
 30
0.0
  0
SPLINE
  5
137
100
AcDbEntity
  8
Layer_1
 62
7
100
AcDbSpline
 70
8
 71
3
 72
8
 73
4
 74
0
 40
0
 40
0
 40
0
 40
0
 40
1
 40
1
 40
1
 40
1
 10
240.694602
 20
122.095576
 30
0.0
 10
235.728858
 20
122.095576
 30
0.0
 10
231.732106
 20
118.505048
 30
0.0
 10
231.732106
 20
114.045576
 30
0.0
  0
LWPOLYLINE
  5
138
100
AcDbEntity
  8
Layer_1
 62
7
100
AcDbPolyline
 90
2
 70
0
 10
322.328279
 20
10.126408
 30
0.0
 10
322.328279
 20
10.126408
 30
0.0
  0
SPLINE
  5
139
100
AcDbEntity
  8
Layer_1
 62
7
100
AcDbSpline
 70
8
 71
3
 72
8
 73
4
 74
0
 40
0
 40
0
 40
0
 40
0
 40
1
 40
1
 40
1
 40
1
 10
231.732106
 20
105.644008
 30
0.0
 10
210.808717
 20
101.391807
 30
0.0
 10
195.765897
 20
83.004470
 30
0.0
 10
195.743042
 20
61.653384
 30
0.0
  0
SPLINE
  5
13a
100
AcDbEntity
  8
Layer_1
 62
7
100
AcDbSpline
 70
8
 71
3
 72
8
 73
4
 74
0
 40
0
 40
0
 40
0
 40
0
 40
1
 40
1
 40
1
 40
1
 10
195.743042
 20
61.653384
 30
0.0
 10
195.744033
 20
40.295190
 30
0.0
 10
210.777775
 20
21.888402
 30
0.0
 10
231.705546
 20
17.622152
 30
0.0
  0
LWPOLYLINE
  5
13b
100
AcDbEntity
  8
Layer_1
 62
7
100
AcDbPolyline
 90
2
 70
0
 10
231.732106
 20
114.045576
 30
0.0
 10
231.732106
 20
105.644008
 30
0.0
  0
SPLINE
  5
13c
100
AcDbEntity
  8
Layer_1
 62
7
100
AcDbSpline
 70
8
 71
3
 72
8
 73
4
 74
0
 40
0
 40
0
 40
0
 40
0
 40
1
 40
1
 40
1
 40
1
 10
231.705546
 20
9.259672
 30
0.0
 10
231.705546
 20
4.800232
 30
0.0
 10
235.702298
 20
1.211192
 30
0.0
 10
240.668042
 20
1.211192
 30
0.0
  0
SPLINE
  5
13d
100
AcDbEntity
  8
Layer_1
 62
7
100
AcDbSpline
 70
8
 71
3
 72
8
 73
4
 74
0
 40
0
 40
0
 40
0
 40
0
 40
1
 40
1
 40
1
 40
1
 10
240.668042
 20
1.211192
 30
0.0
 10
245.633786
 20
1.211192
 30
0.0
 10
249.632106
 20
4.800232
 30
0.0
 10
249.632106
 20
9.259672
 30
0.0
  0
LWPOLYLINE
  5
13e
100
AcDbEntity
  8
Layer_1
 62
7
100
AcDbPolyline
 90
2
 70
0
 10
231.705546
 20
17.622152
 30
0.0
 10
231.705546
 20
9.259672
 30
0.0
  0
SPLINE
  5
13f
100
AcDbEntity
  8
Layer_1
 62
7
100
AcDbSpline
 70
8
 71
3
 72
8
 73
4
 74
0
 40
0
 40
0
 40
0
 40
0
 40
1
 40
1
 40
1
 40
1
 10
249.632106
 20
17.662792
 30
0.0
 10
270.555482
 20
21.914991
 30
0.0
 10
285.598299
 20
40.302310
 30
0.0
 10
285.621170
 20
61.653384
 30
0.0
  0
SPLINE
  5
140
100
AcDbEntity
  8
Layer_1
 62
7
100
AcDbSpline
 70
8
 71
3
 72
8
 73
4
 74
0
 40
0
 40
0
 40
0
 40
0
 40
1
 40
1
 40
1
 40
1
 10
285.621170
 20
61.653384
 30
0.0
 10
285.619444
 20
83.010998
 30
0.0
 10
270.585867
 20
101.416938
 30
0.0
 10
249.658666
 20
105.683072
 30
0.0
  0
LWPOLYLINE
  5
141
100
AcDbEntity
  8
Layer_1
 62
7
100
AcDbPolyline
 90
2
 70
0
 10
249.632106
 20
9.259672
 30
0.0
 10
249.632106
 20
17.662792
 30
0.0
  0
SPLINE
  5
142
100
AcDbEntity
  8
Layer_1
 62
7
100
AcDbSpline
 70
8
 71
3
 72
8
 73
4
 74
0
 40
0
 40
0
 40
0
 40
0
 40
1
 40
1
 40
1
 40
1
 10
249.658666
 20
114.045576
 30
0.0
 10
249.658666
 20
118.505048
 30
0.0
 10
245.660354
 20
122.095576
 30
0.0
 10
240.694602
 20
122.095576
 30
0.0
  0
LWPOLYLINE
  5
143
100
AcDbEntity
  8
Layer_1
 62
7
100
AcDbPolyline
 90
2
 70
0
 10
249.658666
 20
105.683072
 30
0.0
 10
249.658666
 20
114.045576
 30
0.0
  0
SPLINE
  5
144
100
AcDbEntity
  8
Layer_1
 62
7
100
AcDbSpline
 70
8
 71
3
 72
8
 73
4
 74
0
 40
0
 40
0
 40
0
 40
0
 40
1
 40
1
 40
1
 40
1
 10
245.329009
 20
113.133112
 30
0.0
 10
245.329009
 20
110.574008
 30
0.0
 10
243.254447
 20
108.499448
 30
0.0
 10
240.695346
 20
108.499448
 30
0.0
  0
SPLINE
  5
145
100
AcDbEntity
  8
Layer_1
 62
7
100
AcDbSpline
 70
8
 71
3
 72
8
 73
4
 74
0
 40
0
 40
0
 40
0
 40
0
 40
1
 40
1
 40
1
 40
1
 10
240.695346
 20
108.499448
 30
0.0
 10
238.136245
 20
108.499448
 30
0.0
 10
236.061683
 20
110.574008
 30
0.0
 10
236.061683
 20
113.133112
 30
0.0
  0
SPLINE
  5
146
100
AcDbEntity
  8
Layer_1
 62
7
100
AcDbSpline
 70
8
 71
3
 72
8
 73
4
 74
0
 40
0
 40
0
 40
0
 40
0
 40
1
 40
1
 40
1
 40
1
 10
236.061683
 20
113.133112
 30
0.0
 10
236.061683
 20
115.692216
 30
0.0
 10
238.136245
 20
117.766776
 30
0.0
 10
240.695346
 20
117.766776
 30
0.0
  0
SPLINE
  5
147
100
AcDbEntity
  8
Layer_1
 62
7
100
AcDbSpline
 70
8
 71
3
 72
8
 73
4
 74
0
 40
0
 40
0
 40
0
 40
0
 40
1
 40
1
 40
1
 40
1
 10
240.695346
 20
117.766776
 30
0.0
 10
243.254447
 20
117.766776
 30
0.0
 10
245.329009
 20
115.692216
 30
0.0
 10
245.329009
 20
113.133112
 30
0.0
  0
LWPOLYLINE
  5
148
100
AcDbEntity
  8
Layer_1
 62
7
100
AcDbPolyline
 90
2
 70
0
 10
240.694602
 20
122.095576
 30
0.0
 10
240.694602
 20
122.095576
 30
0.0
  0
SPLINE
  5
149
100
AcDbEntity
  8
Layer_1
 62
7
100
AcDbSpline
 70
8
 71
3
 72
8
 73
4
 74
0
 40
0
 40
0
 40
0
 40
0
 40
1
 40
1
 40
1
 40
1
 10
245.302446
 20
10.173120
 30
0.0
 10
245.302446
 20
7.614080
 30
0.0
 10
243.227885
 20
5.539520
 30
0.0
 10
240.668783
 20
5.539520
 30
0.0
  0
SPLINE
  5
14a
100
AcDbEntity
  8
Layer_1
 62
7
100
AcDbSpline
 70
8
 71
3
 72
8
 73
4
 74
0
 40
0
 40
0
 40
0
 40
0
 40
1
 40
1
 40
1
 40
1
 10
240.668783
 20
5.539520
 30
0.0
 10
238.109682
 20
5.539520
 30
0.0
 10
236.035120
 20
7.614080
 30
0.0
 10
236.035120
 20
10.173120
 30
0.0
  0
SPLINE
  5
14b
100
AcDbEntity
  8
Layer_1
 62
7
100
AcDbSpline
 70
8
 71
3
 72
8
 73
4
 74
0
 40
0
 40
0
 40
0
 40
0
 40
1
 40
1
 40
1
 40
1
 10
236.035120
 20
10.173120
 30
0.0
 10
236.035120
 20
12.732240
 30
0.0
 10
238.109682
 20
14.806800
 30
0.0
 10
240.668783
 20
14.806800
 30
0.0
  0
SPLINE
  5
14c
100
AcDbEntity
  8
Layer_1
 62
7
100
AcDbSpline
 70
8
 71
3
 72
8
 73
4
 74
0
 40
0
 40
0
 40
0
 40
0
 40
1
 40
1
 40
1
 40
1
 10
240.668783
 20
14.806800
 30
0.0
 10
243.227885
 20
14.806800
 30
0.0
 10
245.302446
 20
12.732240
 30
0.0
 10
245.302446
 20
10.173120
 30
0.0
  0
LWPOLYLINE
  5
14d
100
AcDbEntity
  8
Layer_1
 62
7
100
AcDbPolyline
 90
2
 70
0
 10
245.329009
 20
113.133112
 30
0.0
 10
245.329009
 20
113.133112
 30
0.0
  0
SPLINE
  5
14e
100
AcDbEntity
  8
Layer_1
 62
7
100
AcDbSpline
 70
8
 71
3
 72
8
 73
4
 74
0
 40
0
 40
0
 40
0
 40
0
 40
1
 40
1
 40
1
 40
1
 10
278.451810
 20
61.653184
 30
0.0
 10
278.451810
 20
40.793520
 30
0.0
 10
261.541720
 20
23.883440
 30
0.0
 10
240.682068
 20
23.883440
 30
0.0
  0
SPLINE
  5
14f
100
AcDbEntity
  8
Layer_1
 62
7
100
AcDbSpline
 70
8
 71
3
 72
8
 73
4
 74
0
 40
0
 40
0
 40
0
 40
0
 40
1
 40
1
 40
1
 40
1
 10
240.682068
 20
23.883440
 30
0.0
 10
219.822415
 20
23.883440
 30
0.0
 10
202.912326
 20
40.793520
 30
0.0
 10
202.912326
 20
61.653184
 30
0.0
  0
SPLINE
  5
150
100
AcDbEntity
  8
Layer_1
 62
7
100
AcDbSpline
 70
8
 71
3
 72
8
 73
4
 74
0
 40
0
 40
0
 40
0
 40
0
 40
1
 40
1
 40
1
 40
1
 10
202.912326
 20
61.653184
 30
0.0
 10
202.912326
 20
82.512832
 30
0.0
 10
219.822415
 20
99.422920
 30
0.0
 10
240.682068
 20
99.422920
 30
0.0
  0
SPLINE
  5
151
100
AcDbEntity
  8
Layer_1
 62
7
100
AcDbSpline
 70
8
 71
3
 72
8
 73
4
 74
0
 40
0
 40
0
 40
0
 40
0
 40
1
 40
1
 40
1
 40
1
 10
240.682068
 20
99.422920
 30
0.0
 10
261.541720
 20
99.422920
 30
0.0
 10
278.451810
 20
82.512832
 30
0.0
 10
278.451810
 20
61.653184
 30
0.0
  0
LWPOLYLINE
  5
152
100
AcDbEntity
  8
Layer_1
 62
7
100
AcDbPolyline
 90
2
 70
0
 10
245.302446
 20
10.173120
 30
0.0
 10
245.302446
 20
10.173120
 30
0.0
  0
SPLINE
  5
153
100
AcDbEntity
  8
Layer_1
 62
7
100
AcDbSpline
 70
8
 71
3
 72
8
 73
4
 74
0
 40
0
 40
0
 40
0
 40
0
 40
1
 40
1
 40
1
 40
1
 10
139.433818
 20
123.903088
 30
0.0
 10
134.468074
 20
123.903088
 30
0.0
 10
130.471314
 20
120.312560
 30
0.0
 10
130.471314
 20
115.853088
 30
0.0
  0
SPLINE
  5
154
100
AcDbEntity
  8
Layer_1
 62
7
100
AcDbSpline
 70
8
 71
3
 72
8
 73
4
 74
0
 40
0
 40
0
 40
0
 40
0
 40
1
 40
1
 40
1
 40
1
 10
130.471314
 20
115.853088
 30
0.0
 10
130.471314
 20
115.853088
 30
0.0
 10
130.471314
 20
107.451520
 30
0.0
 10
130.471314
 20
107.451520
 30
0.0
  0
SPLINE
  5
155
100
AcDbEntity
  8
Layer_1
 62
7
100
AcDbSpline
 70
8
 71
3
 72
8
 73
4
 74
0
 40
0
 40
0
 40
0
 40
0
 40
1
 40
1
 40
1
 40
1
 10
130.471314
 20
107.451520
 30
0.0
 10
109.547922
 20
103.199322
 30
0.0
 10
94.505098
 20
84.811984
 30
0.0
 10
94.482242
 20
63.460896
 30
0.0
  0
SPLINE
  5
156
100
AcDbEntity
  8
Layer_1
 62
7
100
AcDbSpline
 70
8
 71
3
 72
8
 73
4
 74
0
 40
0
 40
0
 40
0
 40
0
 40
1
 40
1
 40
1
 40
1
 10
94.482242
 20
63.460896
 30
0.0
 10
94.483237
 20
42.102703
 30
0.0
 10
109.516983
 20
23.695918
 30
0.0
 10
130.444754
 20
19.429672
 30
0.0
  0
LWPOLYLINE
  5
157
100
AcDbEntity
  8
Layer_1
 62
7
100
AcDbPolyline
 90
2
 70
0
 10
278.451810
 20
61.653184
 30
0.0
 10
278.451810
 20
61.653184
 30
0.0
  0
SPLINE
  5
158
100
AcDbEntity
  8
Layer_1
 62
7
100
AcDbSpline
 70
8
 71
3
 72
8
 73
4
 74
0
 40
0
 40
0
 40
0
 40
0
 40
1
 40
1
 40
1
 40
1
 10
130.444754
 20
11.067192
 30
0.0
 10
130.444754
 20
6.607752
 30
0.0
 10
134.441506
 20
3.018712
 30
0.0
 10
139.407250
 20
3.018712
 30
0.0
  0
SPLINE
  5
159
100
AcDbEntity
  8
Layer_1
 62
7
100
AcDbSpline
 70
8
 71
3
 72
8
 73
4
 74
0
 40
0
 40
0
 40
0
 40
0
 40
1
 40
1
 40
1
 40
1
 10
139.407250
 20
3.018712
 30
0.0
 10
144.373002
 20
3.018712
 30
0.0
 10
148.371314
 20
6.607752
 30
0.0
 10
148.371314
 20
11.067192
 30
0.0
  0
LWPOLYLINE
  5
15a
100
AcDbEntity
  8
Layer_1
 62
7
100
AcDbPolyline
 90
2
 70
0
 10
130.444754
 20
19.429672
 30
0.0
 10
130.444754
 20
11.067192
 30
0.0
  0
SPLINE
  5
15b
100
AcDbEntity
  8
Layer_1
 62
7
100
AcDbSpline
 70
8
 71
3
 72
8
 73
4
 74
0
 40
0
 40
0
 40
0
 40
0
 40
1
 40
1
 40
1
 40
1
 10
148.371314
 20
19.470312
 30
0.0
 10
169.294690
 20
23.722507
 30
0.0
 10
184.337510
 20
42.109823
 30
0.0
 10
184.360386
 20
63.460896
 30
0.0
  0
SPLINE
  5
15c
100
AcDbEntity
  8
Layer_1
 62
7
100
AcDbSpline
 70
8
 71
3
 72
8
 73
4
 74
0
 40
0
 40
0
 40
0
 40
0
 40
1
 40
1
 40
1
 40
1
 10
184.360386
 20
63.460896
 30
0.0
 10
184.358660
 20
84.818510
 30
0.0
 10
169.325083
 20
103.224450
 30
0.0
 10
148.397882
 20
107.490584
 30
0.0
  0
LWPOLYLINE
  5
15d
100
AcDbEntity
  8
Layer_1
 62
7
100
AcDbPolyline
 90
2
 70
0
 10
148.371314
 20
11.067192
 30
0.0
 10
148.371314
 20
19.470312
 30
0.0
  0
SPLINE
  5
15e
100
AcDbEntity
  8
Layer_1
 62
7
100
AcDbSpline
 70
8
 71
3
 72
8
 73
4
 74
0
 40
0
 40
0
 40
0
 40
0
 40
1
 40
1
 40
1
 40
1
 10
148.397882
 20
115.853088
 30
0.0
 10
148.397882
 20
120.312560
 30
0.0
 10
144.399562
 20
123.903088
 30
0.0
 10
139.433818
 20
123.903088
 30
0.0
  0
LWPOLYLINE
  5
15f
100
AcDbEntity
  8
Layer_1
 62
7
100
AcDbPolyline
 90
2
 70
0
 10
148.397882
 20
107.490584
 30
0.0
 10
148.397882
 20
115.853088
 30
0.0
  0
SPLINE
  5
160
100
AcDbEntity
  8
Layer_1
 62
7
100
AcDbSpline
 70
8
 71
3
 72
8
 73
4
 74
0
 40
0
 40
0
 40
0
 40
0
 40
1
 40
1
 40
1
 40
1
 10
144.068209
 20
114.940624
 30
0.0
 10
144.068209
 20
112.381520
 30
0.0
 10
141.993647
 20
110.306960
 30
0.0
 10
139.434546
 20
110.306960
 30
0.0
  0
SPLINE
  5
161
100
AcDbEntity
  8
Layer_1
 62
7
100
AcDbSpline
 70
8
 71
3
 72
8
 73
4
 74
0
 40
0
 40
0
 40
0
 40
0
 40
1
 40
1
 40
1
 40
1
 10
139.434546
 20
110.306960
 30
0.0
 10
136.875445
 20
110.306960
 30
0.0
 10
134.800883
 20
112.381520
 30
0.0
 10
134.800883
 20
114.940624
 30
0.0
  0
SPLINE
  5
162
100
AcDbEntity
  8
Layer_1
 62
7
100
AcDbSpline
 70
8
 71
3
 72
8
 73
4
 74
0
 40
0
 40
0
 40
0
 40
0
 40
1
 40
1
 40
1
 40
1
 10
134.800883
 20
114.940624
 30
0.0
 10
134.800883
 20
117.499728
 30
0.0
 10
136.875445
 20
119.574288
 30
0.0
 10
139.434546
 20
119.574288
 30
0.0
  0
SPLINE
  5
163
100
AcDbEntity
  8
Layer_1
 62
7
100
AcDbSpline
 70
8
 71
3
 72
8
 73
4
 74
0
 40
0
 40
0
 40
0
 40
0
 40
1
 40
1
 40
1
 40
1
 10
139.434546
 20
119.574288
 30
0.0
 10
141.993647
 20
119.574288
 30
0.0
 10
144.068209
 20
117.499728
 30
0.0
 10
144.068209
 20
114.940624
 30
0.0
  0
LWPOLYLINE
  5
164
100
AcDbEntity
  8
Layer_1
 62
7
100
AcDbPolyline
 90
2
 70
0
 10
139.433818
 20
123.903088
 30
0.0
 10
139.433818
 20
123.903088
 30
0.0
  0
SPLINE
  5
165
100
AcDbEntity
  8
Layer_1
 62
7
100
AcDbSpline
 70
8
 71
3
 72
8
 73
4
 74
0
 40
0
 40
0
 40
0
 40
0
 40
1
 40
1
 40
1
 40
1
 10
144.041646
 20
11.980632
 30
0.0
 10
144.041646
 20
9.421592
 30
0.0
 10
141.967085
 20
7.347032
 30
0.0
 10
139.407983
 20
7.347032
 30
0.0
  0
SPLINE
  5
166
100
AcDbEntity
  8
Layer_1
 62
7
100
AcDbSpline
 70
8
 71
3
 72
8
 73
4
 74
0
 40
0
 40
0
 40
0
 40
0
 40
1
 40
1
 40
1
 40
1
 10
139.407983
 20
7.347032
 30
0.0
 10
136.848882
 20
7.347032
 30
0.0
 10
134.774320
 20
9.421592
 30
0.0
 10
134.774320
 20
11.980632
 30
0.0
  0
SPLINE
  5
167
100
AcDbEntity
  8
Layer_1
 62
7
100
AcDbSpline
 70
8
 71
3
 72
8
 73
4
 74
0
 40
0
 40
0
 40
0
 40
0
 40
1
 40
1
 40
1
 40
1
 10
134.774320
 20
11.980632
 30
0.0
 10
134.774320
 20
14.539752
 30
0.0
 10
136.848882
 20
16.614312
 30
0.0
 10
139.407983
 20
16.614312
 30
0.0
  0
SPLINE
  5
168
100
AcDbEntity
  8
Layer_1
 62
7
100
AcDbSpline
 70
8
 71
3
 72
8
 73
4
 74
0
 40
0
 40
0
 40
0
 40
0
 40
1
 40
1
 40
1
 40
1
 10
139.407983
 20
16.614312
 30
0.0
 10
141.967085
 20
16.614312
 30
0.0
 10
144.041646
 20
14.539752
 30
0.0
 10
144.041646
 20
11.980632
 30
0.0
  0
LWPOLYLINE
  5
169
100
AcDbEntity
  8
Layer_1
 62
7
100
AcDbPolyline
 90
2
 70
0
 10
144.068209
 20
114.940624
 30
0.0
 10
144.068209
 20
114.940624
 30
0.0
  0
SPLINE
  5
16a
100
AcDbEntity
  8
Layer_1
 62
7
100
AcDbSpline
 70
8
 71
3
 72
8
 73
4
 74
0
 40
0
 40
0
 40
0
 40
0
 40
1
 40
1
 40
1
 40
1
 10
168.223197
 20
63.462696
 30
0.0
 10
168.223197
 20
47.569624
 30
0.0
 10
155.339318
 20
34.685752
 30
0.0
 10
139.446250
 20
34.685752
 30
0.0
  0
SPLINE
  5
16b
100
AcDbEntity
  8
Layer_1
 62
7
100
AcDbSpline
 70
8
 71
3
 72
8
 73
4
 74
0
 40
0
 40
0
 40
0
 40
0
 40
1
 40
1
 40
1
 40
1
 10
139.446250
 20
34.685752
 30
0.0
 10
123.553181
 20
34.685752
 30
0.0
 10
110.669302
 20
47.569624
 30
0.0
 10
110.669302
 20
63.462696
 30
0.0
  0
SPLINE
  5
16c
100
AcDbEntity
  8
Layer_1
 62
7
100
AcDbSpline
 70
8
 71
3
 72
8
 73
4
 74
0
 40
0
 40
0
 40
0
 40
0
 40
1
 40
1
 40
1
 40
1
 10
110.669302
 20
63.462696
 30
0.0
 10
110.669302
 20
79.355760
 30
0.0
 10
123.553181
 20
92.239640
 30
0.0
 10
139.446250
 20
92.239640
 30
0.0
  0
SPLINE
  5
16d
100
AcDbEntity
  8
Layer_1
 62
7
100
AcDbSpline
 70
8
 71
3
 72
8
 73
4
 74
0
 40
0
 40
0
 40
0
 40
0
 40
1
 40
1
 40
1
 40
1
 10
139.446250
 20
92.239640
 30
0.0
 10
155.339318
 20
92.239640
 30
0.0
 10
168.223197
 20
79.355760
 30
0.0
 10
168.223197
 20
63.462696
 30
0.0
  0
LWPOLYLINE
  5
16e
100
AcDbEntity
  8
Layer_1
 62
7
100
AcDbPolyline
 90
2
 70
0
 10
144.041646
 20
11.980632
 30
0.0
 10
144.041646
 20
11.980632
 30
0.0
  0
LWPOLYLINE
  5
16f
100
AcDbEntity
  8
Layer_1
 62
7
100
AcDbPolyline
 90
2
 70
0
 10
168.223197
 20
63.462696
 30
0.0
 10
168.223197
 20
63.462696
 30
0.0
  0
ENDSEC
  0
SECTION
  2
OBJECTS
  0
DICTIONARY
  5
C
330
0
100
AcDbDictionary
  3
ACAD_GROUP
350
D
  3
ACAD_MLINESTYLE
350
17
  0
DICTIONARY
  5
D
330
C
100
AcDbDictionary
  0
DICTIONARY
  5
1A
330
C
100
AcDbDictionary
  0
DICTIONARY
  5
17
330
C
100
AcDbDictionary
  3
STANDARD
350
18
  0
DICTIONARY
  5
19
330
C
100
AcDbDictionary
  0
ENDSEC
  0
EOF
