  0
SECTION
  2
HEADER
  9
$ACADVER
  1
AC1014
  9
$HANDSEED
  5
FFFF
  9
$MEASUREMENT
 70
     1
  0
ENDSEC
  0
SECTION
  2
TABLES
  0
TABLE
  2
VPORT
  5
8
330
0
100
AcDbSymbolTable
 70
     4
  0
VPORT
  5
2E
330
8
100
AcDbSymbolTableRecord
100
AcDbViewportTableRecord
  2
*ACTIVE
 70
     0
 10
0.0
 20
0.0
 11
1.0
 21
1.0
 12
210.0
 22
148.5
 13
0.0
 23
0.0
 14
10.0
 24
10.0
 15
10.0
 25
10.0
 16
0.0
 26
0.0
 36
1.0
 17
0.0
 27
0.0
 37
0.0
 40
341.0
 41
1.24
 42
50.0
 43
0.0
 44
0.0
 50
0.0
 51
0.0
 71
     0
 72
   100
 73
     1
 74
     3
 75
     0
 76
     0
 77
     0
 78
     0
  0
ENDTAB
  0
TABLE
  2
LTYPE
  5
5
330
0
100
AcDbSymbolTable
 70
     1
  0
LTYPE
  5
14
330
5
100
AcDbSymbolTableRecord
100
AcDbLinetypeTableRecord
  2
BYBLOCK
 70
     0
  3

 72
    65
 73
     0
 40
0.0
  0
LTYPE
  5
15
330
5
100
AcDbSymbolTableRecord
100
AcDbLinetypeTableRecord
  2
BYLAYER
 70
     0
  3

 72
    65
 73
     0
 40
0.0
  0
LTYPE
  5
16
330
5
100
AcDbSymbolTableRecord
100
AcDbLinetypeTableRecord
  2
CONTINUOUS
 70
     0
  3
Solid line
 72
    65
 73
     0
 40
0.0
  0
ENDTAB
  0
TABLE
  2
LAYER
  5
2
100
AcDbSymbolTable
 70
2
  0
LAYER
  5
50
100
AcDbSymbolTableRecord
100
AcDbLayerTableRecord
  2
0
 70
0
  6
CONTINUOUS
  0
LAYER
  5
51
100
AcDbSymbolTableRecord
100
AcDbLayerTableRecord
  2
Layer_1
 70
0
  6
CONTINUOUS
  0
ENDTAB
  0
TABLE
  2
STYLE
  5
3
330
0
100
AcDbSymbolTable
 70
     1
  0
STYLE
  5
11
330
3
100
AcDbSymbolTableRecord
100
AcDbTextStyleTableRecord
  2
STANDARD
 70
     0
 40
0.0
 41
1.0
 50
0.0
 71
     0
 42
2.5
  3
txt
  4

  0
ENDTAB
  0
TABLE
  2
VIEW
  5
6
330
0
100
AcDbSymbolTable
 70
     0
  0
ENDTAB
  0
TABLE
  2
UCS
  5
7
330
0
100
AcDbSymbolTable
 70
     0
  0
ENDTAB
  0
TABLE
  2
APPID
  5
9
330
0
100
AcDbSymbolTable
 70
     2
  0
APPID
  5
12
330
9
100
AcDbSymbolTableRecord
100
AcDbRegAppTableRecord
  2
ACAD
 70
     0
  0
ENDTAB
  0
TABLE
  2
DIMSTYLE
  5
A
330
0
100
AcDbSymbolTable
 70
     1
  0
DIMSTYLE
105
27
330
A
100
AcDbSymbolTableRecord
100
AcDbDimStyleTableRecord
  2
ISO-25
 70
     0
  3

  4

  5

  6

  7

 40
1.0
 41
2.5
 42
0.625
 43
3.75
 44
1.25
 45
0.0
 46
0.0
 47
0.0
 48
0.0
140
2.5
141
2.5
142
0.0
143
0.03937007874016
144
1.0
145
0.0
146
1.0
147
0.625
 71
     0
 72
     0
 73
     0
 74
     0
 75
     0
 76
     0
 77
     1
 78
     8
170
     0
171
     3
172
     1
173
     0
174
     0
175
     0
176
     0
177
     0
178
     0
270
     2
271
     2
272
     2
273
     2
274
     3
340
11
275
     0
280
     0
281
     0
282
     0
283
     0
284
     8
285
     0
286
     0
287
     3
288
     0
  0
ENDTAB
  0
TABLE
  2
BLOCK_RECORD
  5
1
330
0
100
AcDbSymbolTable
 70
     1
  0
BLOCK_RECORD
  5
1F
330
1
100
AcDbSymbolTableRecord
100
AcDbBlockTableRecord
  2
*MODEL_SPACE
  0
BLOCK_RECORD
  5
1B
330
1
100
AcDbSymbolTableRecord
100
AcDbBlockTableRecord
  2
*PAPER_SPACE
  0
ENDTAB
  0
ENDSEC
  0
SECTION
  2
BLOCKS
  0
BLOCK
  5
20
330
1F
100
AcDbEntity
  8
0
100
AcDbBlockBegin
  2
*MODEL_SPACE
 70
     0
 10
0.0
 20
0.0
 30
0.0
  3
*MODEL_SPACE
  1

  0
ENDBLK
  5
21
330
1F
100
AcDbEntity
  8
0
100
AcDbBlockEnd
  0
BLOCK
  5
1C
330
1B
100
AcDbEntity
 67
     1
  8
0
100
AcDbBlockBegin
  2
*PAPER_SPACE
  1

  0
ENDBLK
  5
1D
330
1B
100
AcDbEntity
 67
     1
  8
0
100
AcDbBlockEnd
  0
ENDSEC
  0
SECTION
  2
ENTITIES
  0
SPLINE
  5
100
100
AcDbEntity
  8
Layer_1
 62
7
100
AcDbSpline
 70
8
 71
3
 72
8
 73
4
 74
0
 40
0
 40
0
 40
0
 40
0
 40
1
 40
1
 40
1
 40
1
 10
2203.086351
 20
1564.912896
 30
0.0
 10
2203.086351
 20
1562.548862
 30
0.0
 10
2201.168115
 20
1560.632408
 30
0.0
 10
2198.801883
 20
1560.632408
 30
0.0
  0
SPLINE
  5
101
100
AcDbEntity
  8
Layer_1
 62
7
100
AcDbSpline
 70
8
 71
3
 72
8
 73
4
 74
0
 40
0
 40
0
 40
0
 40
0
 40
1
 40
1
 40
1
 40
1
 10
2198.801883
 20
1560.632408
 30
0.0
 10
2196.435650
 20
1560.632408
 30
0.0
 10
2194.517415
 20
1562.548862
 30
0.0
 10
2194.517415
 20
1564.912896
 30
0.0
  0
SPLINE
  5
102
100
AcDbEntity
  8
Layer_1
 62
7
100
AcDbSpline
 70
8
 71
3
 72
8
 73
4
 74
0
 40
0
 40
0
 40
0
 40
0
 40
1
 40
1
 40
1
 40
1
 10
2194.517415
 20
1564.912896
 30
0.0
 10
2194.517415
 20
1567.276931
 30
0.0
 10
2196.435650
 20
1569.193384
 30
0.0
 10
2198.801883
 20
1569.193384
 30
0.0
  0
SPLINE
  5
103
100
AcDbEntity
  8
Layer_1
 62
7
100
AcDbSpline
 70
8
 71
3
 72
8
 73
4
 74
0
 40
0
 40
0
 40
0
 40
0
 40
1
 40
1
 40
1
 40
1
 10
2198.801883
 20
1569.193384
 30
0.0
 10
2201.168115
 20
1569.193384
 30
0.0
 10
2203.086351
 20
1567.276931
 30
0.0
 10
2203.086351
 20
1564.912896
 30
0.0
  0
LWPOLYLINE
  5
104
100
AcDbEntity
  8
Layer_1
 62
7
100
AcDbPolyline
 90
7
 70
0
 10
1955.739520
 20
1902.162808
 30
0.0
 10
2232.464480
 20
1902.162808
 30
0.0
 10
2266.339520
 20
1856.587768
 30
0.0
 10
2243.289440
 20
1816.637848
 30
0.0
 10
1945.214480
 20
1816.637848
 30
0.0
 10
1917.764480
 20
1864.187768
 30
0.0
 10
1955.739520
 20
1902.162808
 30
0.0
  0
SPLINE
  5
105
100
AcDbEntity
  8
Layer_1
 62
7
100
AcDbSpline
 70
8
 71
3
 72
8
 73
4
 74
0
 40
0
 40
0
 40
0
 40
0
 40
1
 40
1
 40
1
 40
1
 10
2152.964464
 20
1502.362808
 30
0.0
 10
2152.964464
 20
1502.362808
 30
0.0
 10
2125.554784
 20
1492.983208
 30
0.0
 10
2102.914464
 20
1478.462808
 30
0.0
  0
SPLINE
  5
106
100
AcDbEntity
  8
Layer_1
 62
7
100
AcDbSpline
 70
8
 71
3
 72
8
 73
4
 74
0
 40
0
 40
0
 40
0
 40
0
 40
1
 40
1
 40
1
 40
1
 10
2102.914464
 20
1478.462808
 30
0.0
 10
2102.914464
 20
1478.462808
 30
0.0
 10
2077.497424
 20
1461.133688
 30
0.0
 10
2021.839504
 20
1464.037848
 30
0.0
  0
SPLINE
  5
107
100
AcDbEntity
  8
Layer_1
 62
7
100
AcDbSpline
 70
8
 71
3
 72
8
 73
4
 74
0
 40
0
 40
0
 40
0
 40
0
 40
1
 40
1
 40
1
 40
1
 10
2021.839504
 20
1464.037848
 30
0.0
 10
2021.839504
 20
1464.037848
 30
0.0
 10
2009.122624
 20
1466.698088
 30
0.0
 10
2002.689424
 20
1455.112808
 30
0.0
  0
LWPOLYLINE
  5
108
100
AcDbEntity
  8
Layer_1
 62
7
100
AcDbPolyline
 90
2
 70
0
 10
2203.086351
 20
1564.912896
 30
0.0
 10
2203.086351
 20
1564.912896
 30
0.0
  0
SPLINE
  5
109
100
AcDbEntity
  8
Layer_1
 62
7
100
AcDbSpline
 70
8
 71
3
 72
8
 73
4
 74
0
 40
0
 40
0
 40
0
 40
0
 40
1
 40
1
 40
1
 40
1
 10
2516.064464
 20
1788.462808
 30
0.0
 10
2506.878944
 20
1832.373368
 30
0.0
 10
2488.789424
 20
1851.762808
 30
0.0
 10
2488.789424
 20
1851.762808
 30
0.0
  0
LWPOLYLINE
  5
10a
100
AcDbEntity
  8
Layer_1
 62
7
100
AcDbPolyline
 90
5
 70
0
 10
2002.689424
 20
1455.112808
 30
0.0
 10
1848.089424
 20
1461.912808
 30
0.0
 10
1792.014464
 20
1558.487768
 30
0.0
 10
1792.014464
 20
1788.462808
 30
0.0
 10
2516.064464
 20
1788.462808
 30
0.0
  0
SPLINE
  5
10b
100
AcDbEntity
  8
Layer_1
 62
7
100
AcDbSpline
 70
8
 71
3
 72
8
 73
4
 74
0
 40
0
 40
0
 40
0
 40
0
 40
1
 40
1
 40
1
 40
1
 10
1611.064464
 20
1807.637848
 30
0.0
 10
1539.632864
 20
1794.384248
 30
0.0
 10
1558.308624
 20
1797.483848
 30
0.0
 10
1498.489424
 20
1800.487768
 30
0.0
  0
SPLINE
  5
10c
100
AcDbEntity
  8
Layer_1
 62
7
100
AcDbSpline
 70
8
 71
3
 72
8
 73
4
 74
0
 40
0
 40
0
 40
0
 40
0
 40
1
 40
1
 40
1
 40
1
 10
1498.489424
 20
1800.487768
 30
0.0
 10
1491.748304
 20
1800.826248
 30
0.0
 10
1434.658304
 20
1810.788168
 30
0.0
 10
1428.064464
 20
1811.412808
 30
0.0
  0
SPLINE
  5
10d
100
AcDbEntity
  8
Layer_1
 62
7
100
AcDbSpline
 70
8
 71
3
 72
8
 73
4
 74
0
 40
0
 40
0
 40
0
 40
0
 40
1
 40
1
 40
1
 40
1
 10
1428.064464
 20
1811.412808
 30
0.0
 10
1402.054704
 20
1813.876648
 30
0.0
 10
1352.816224
 20
1812.031448
 30
0.0
 10
1322.514464
 20
1812.887768
 30
0.0
  0
SPLINE
  5
10e
100
AcDbEntity
  8
Layer_1
 62
7
100
AcDbSpline
 70
8
 71
3
 72
8
 73
4
 74
0
 40
0
 40
0
 40
0
 40
0
 40
1
 40
1
 40
1
 40
1
 10
1322.514464
 20
1812.887768
 30
0.0
 10
1322.118864
 20
1813.057288
 30
0.0
 10
1321.565424
 20
1813.112808
 30
0.0
 10
1320.989424
 20
1813.112808
 30
0.0
  0
SPLINE
  5
10f
100
AcDbEntity
  8
Layer_1
 62
7
100
AcDbSpline
 70
8
 71
3
 72
8
 73
4
 74
0
 40
0
 40
0
 40
0
 40
0
 40
1
 40
1
 40
1
 40
1
 10
1320.989424
 20
1813.112808
 30
0.0
 10
1315.245664
 20
1813.112808
 30
0.0
 10
1310.587024
 20
1808.462088
 30
0.0
 10
1310.589424
 20
1803.112808
 30
0.0
  0
SPLINE
  5
110
100
AcDbEntity
  8
Layer_1
 62
7
100
AcDbSpline
 70
8
 71
3
 72
8
 73
4
 74
0
 40
0
 40
0
 40
0
 40
0
 40
1
 40
1
 40
1
 40
1
 10
1310.589424
 20
1803.112808
 30
0.0
 10
1315.904544
 20
1718.834808
 30
0.0
 10
1320.100864
 20
1632.162008
 30
0.0
 10
1310.589424
 20
1520.737848
 30
0.0
  0
SPLINE
  5
111
100
AcDbEntity
  8
Layer_1
 62
7
100
AcDbSpline
 70
8
 71
3
 72
8
 73
4
 74
0
 40
0
 40
0
 40
0
 40
0
 40
1
 40
1
 40
1
 40
1
 10
1310.589424
 20
1520.737848
 30
0.0
 10
1310.589504
 20
1515.947928
 30
0.0
 10
1313.739744
 20
1511.952808
 30
0.0
 10
1317.889424
 20
1510.637848
 30
0.0
  0
SPLINE
  5
112
100
AcDbEntity
  8
Layer_1
 62
7
100
AcDbSpline
 70
8
 71
3
 72
8
 73
4
 74
0
 40
0
 40
0
 40
0
 40
0
 40
1
 40
1
 40
1
 40
1
 10
1317.889424
 20
1510.637848
 30
0.0
 10
1407.025504
 20
1490.406648
 30
0.0
 10
1509.046784
 20
1492.516728
 30
0.0
 10
1621.164464
 20
1512.262808
 30
0.0
  0
LWPOLYLINE
  5
113
100
AcDbEntity
  8
Layer_1
 62
7
100
AcDbPolyline
 90
14
 70
0
 10
2488.789424
 20
1851.762808
 30
0.0
 10
2355.489424
 20
1854.662808
 30
0.0
 10
2300.214464
 20
1944.962808
 30
0.0
 10
2288.211584
 20
1964.562888
 30
0.0
 10
2228.285504
 20
1964.562888
 30
0.0
 10
2228.285504
 20
1944.962888
 30
0.0
 10
1986.864464
 20
1944.962808
 30
0.0
 10
1986.864464
 20
1944.962888
 30
0.0
 10
1894.669104
 20
1944.962888
 30
0.0
 10
1821.289424
 20
1866.487768
 30
0.0
 10
1662.164464
 20
1870.262808
 30
0.0
 10
1629.889424
 20
1807.762808
 30
0.0
 10
1615.089424
 20
1815.462808
 30
0.0
 10
1611.064464
 20
1807.637848
 30
0.0
  0
SPLINE
  5
114
100
AcDbEntity
  8
Layer_1
 62
7
100
AcDbSpline
 70
8
 71
3
 72
8
 73
4
 74
0
 40
0
 40
0
 40
0
 40
0
 40
1
 40
1
 40
1
 40
1
 10
1791.789424
 20
1363.837848
 30
0.0
 10
1870.064864
 20
1363.837848
 30
0.0
 10
1922.214064
 20
1355.362808
 30
0.0
 10
2000.489424
 20
1355.362808
 30
0.0
  0
SPLINE
  5
115
100
AcDbEntity
  8
Layer_1
 62
7
100
AcDbSpline
 70
8
 71
3
 72
8
 73
4
 74
0
 40
0
 40
0
 40
0
 40
0
 40
1
 40
1
 40
1
 40
1
 10
2000.489424
 20
1355.362808
 30
0.0
 10
2003.166864
 20
1350.859128
 30
0.0
 10
2009.825104
 20
1347.153528
 30
0.0
 10
2025.614464
 20
1350.012808
 30
0.0
  0
SPLINE
  5
116
100
AcDbEntity
  8
Layer_1
 62
7
100
AcDbSpline
 70
8
 71
3
 72
8
 73
4
 74
0
 40
0
 40
0
 40
0
 40
0
 40
1
 40
1
 40
1
 40
1
 10
2025.614464
 20
1350.012808
 30
0.0
 10
2057.688544
 20
1355.820968
 30
0.0
 10
2041.630304
 20
1354.254648
 30
0.0
 10
2079.364464
 20
1360.062808
 30
0.0
  0
SPLINE
  5
117
100
AcDbEntity
  8
Layer_1
 62
7
100
AcDbSpline
 70
8
 71
3
 72
8
 73
4
 74
0
 40
0
 40
0
 40
0
 40
0
 40
1
 40
1
 40
1
 40
1
 10
2079.364464
 20
1360.062808
 30
0.0
 10
2117.098544
 20
1365.870968
 30
0.0
 10
2205.789424
 20
1419.112808
 30
0.0
 10
2205.789424
 20
1419.112808
 30
0.0
  0
LWPOLYLINE
  5
118
100
AcDbEntity
  8
Layer_1
 62
7
100
AcDbPolyline
 90
6
 70
0
 10
1621.164464
 20
1512.262808
 30
0.0
 10
1624.389424
 20
1494.837848
 30
0.0
 10
1651.664464
 20
1494.837848
 30
0.0
 10
1654.864464
 20
1512.262808
 30
0.0
 10
1686.939424
 20
1540.112808
 30
0.0
 10
1791.789424
 20
1363.837848
 30
0.0
  0
LWPOLYLINE
  5
119
100
AcDbEntity
  8
Layer_1
 62
7
100
AcDbPolyline
 90
2
 70
0
 10
2205.789424
 20
1419.112808
 30
0.0
 10
2152.964464
 20
1502.362808
 30
0.0
  0
SPLINE
  5
11a
100
AcDbEntity
  8
Layer_1
 62
7
100
AcDbSpline
 70
8
 71
3
 72
8
 73
4
 74
0
 40
0
 40
0
 40
0
 40
0
 40
1
 40
1
 40
1
 40
1
 10
846.079320
 20
1533.870024
 30
0.0
 10
836.619400
 20
1533.390744
 30
0.0
 10
829.104360
 20
1525.549384
 30
0.0
 10
829.104360
 20
1515.970024
 30
0.0
  0
SPLINE
  5
11b
100
AcDbEntity
  8
Layer_1
 62
7
100
AcDbSpline
 70
8
 71
3
 72
8
 73
4
 74
0
 40
0
 40
0
 40
0
 40
0
 40
1
 40
1
 40
1
 40
1
 10
829.104360
 20
1515.970024
 30
0.0
 10
829.104360
 20
1506.081544
 30
0.0
 10
837.115960
 20
1498.070024
 30
0.0
 10
847.004360
 20
1498.070024
 30
0.0
  0
SPLINE
  5
11c
100
AcDbEntity
  8
Layer_1
 62
7
100
AcDbSpline
 70
8
 71
3
 72
8
 73
4
 74
0
 40
0
 40
0
 40
0
 40
0
 40
1
 40
1
 40
1
 40
1
 10
847.004360
 20
1498.070024
 30
0.0
 10
849.480760
 20
1498.070024
 30
0.0
 10
851.841320
 20
1498.570584
 30
0.0
 10
853.779320
 20
1499.394984
 30
0.0
  0
LWPOLYLINE
  5
11d
100
AcDbEntity
  8
Layer_1
 62
7
100
AcDbPolyline
 90
15
 70
0
 10
561.179320
 20
1915.644984
 30
0.0
 10
469.504360
 20
1817.544984
 30
0.0
 10
310.354360
 20
1821.320024
 30
0.0
 10
278.079320
 20
1758.820024
 30
0.0
 10
263.279320
 20
1766.520024
 30
0.0
 10
174.029400
 20
1592.044984
 30
0.0
 10
269.379320
 20
1463.320024
 30
0.0
 10
272.579320
 20
1445.894984
 30
0.0
 10
299.854360
 20
1445.894984
 30
0.0
 10
303.054360
 20
1463.320024
 30
0.0
 10
335.129400
 20
1491.170024
 30
0.0
 10
399.829400
 20
1491.170024
 30
0.0
 10
463.679320
 20
1520.194984
 30
0.0
 10
471.154360
 20
1533.870024
 30
0.0
 10
846.079320
 20
1533.870024
 30
0.0
  0
SPLINE
  5
11e
100
AcDbEntity
  8
Layer_1
 62
7
100
AcDbSpline
 70
8
 71
3
 72
8
 73
4
 74
0
 40
0
 40
0
 40
0
 40
0
 40
1
 40
1
 40
1
 40
1
 10
1170.429400
 20
1704.420024
 30
0.0
 10
1160.944920
 20
1779.642264
 30
0.0
 10
1136.979400
 20
1802.820024
 30
0.0
 10
1136.979320
 20
1802.820024
 30
0.0
  0
LWPOLYLINE
  5
11f
100
AcDbEntity
  8
Layer_1
 62
7
100
AcDbPolyline
 90
20
 70
0
 10
853.779320
 20
1499.394984
 30
0.0
 10
918.504360
 20
1533.870024
 30
0.0
 10
1023.104360
 20
1533.870024
 30
0.0
 10
1043.779320
 20
1498.070024
 30
0.0
 10
1093.329400
 20
1533.870024
 30
0.0
 10
1118.104360
 20
1533.870024
 30
0.0
 10
1137.154360
 20
1573.520024
 30
0.0
 10
1161.754360
 20
1573.520024
 30
0.0
 10
1161.754360
 20
1581.070024
 30
0.0
 10
1161.754360
 20
1581.720024
 30
0.0
 10
1144.429400
 20
1581.720024
 30
0.0
 10
1144.429400
 20
1599.044984
 30
0.0
 10
1161.754360
 20
1599.044984
 30
0.0
 10
1161.754360
 20
1680.694984
 30
0.0
 10
1161.754360
 20
1681.370024
 30
0.0
 10
1144.429400
 20
1681.370024
 30
0.0
 10
1144.429400
 20
1698.694984
 30
0.0
 10
1161.754360
 20
1698.694984
 30
0.0
 10
1161.754360
 20
1704.420024
 30
0.0
 10
1170.429400
 20
1704.420024
 30
0.0
  0
LWPOLYLINE
  5
120
100
AcDbEntity
  8
Layer_1
 62
7
100
AcDbPolyline
 90
5
 70
0
 10
1136.979320
 20
1802.820024
 30
0.0
 10
1003.679320
 20
1805.720024
 30
0.0
 10
936.404360
 20
1915.644984
 30
0.0
 10
561.179320
 20
1915.644984
 30
0.0
 10
561.179320
 20
1915.644984
 30
0.0
  0
LWPOLYLINE
  5
121
100
AcDbEntity
  8
Layer_1
 62
7
100
AcDbPolyline
 90
4
 70
0
 10
914.523320
 20
1807.656344
 30
0.0
 10
891.473240
 20
1767.706344
 30
0.0
 10
593.398280
 20
1767.706344
 30
0.0
 10
565.948280
 20
1815.256344
 30
0.0
  0
LWPOLYLINE
  5
122
100
AcDbEntity
  8
Layer_1
 62
7
100
AcDbPolyline
 90
5
 70
0
 10
581.951800
 20
1730.192184
 30
0.0
 10
962.582280
 20
1730.192184
 30
0.0
 10
975.382360
 20
1698.032744
 30
0.0
 10
565.951800
 20
1698.032744
 30
0.0
 10
581.951800
 20
1730.192184
 30
0.0
  0
SPLINE
  5
123
100
AcDbEntity
  8
Layer_1
 62
7
100
AcDbSpline
 70
8
 71
3
 72
8
 73
4
 74
0
 40
0
 40
0
 40
0
 40
0
 40
1
 40
1
 40
1
 40
1
 10
505.141400
 20
1603.824104
 30
0.0
 10
491.920120
 20
1603.824104
 30
0.0
 10
481.202040
 20
1614.542104
 30
0.0
 10
481.202040
 20
1627.763464
 30
0.0
  0
SPLINE
  5
124
100
AcDbEntity
  8
Layer_1
 62
7
100
AcDbSpline
 70
8
 71
3
 72
8
 73
4
 74
0
 40
0
 40
0
 40
0
 40
0
 40
1
 40
1
 40
1
 40
1
 10
481.202040
 20
1627.763464
 30
0.0
 10
481.202040
 20
1640.984824
 30
0.0
 10
491.920120
 20
1651.702824
 30
0.0
 10
505.141480
 20
1651.702824
 30
0.0
  0
LWPOLYLINE
  5
125
100
AcDbEntity
  8
Layer_1
 62
7
100
AcDbPolyline
 90
4
 70
0
 10
804.962040
 20
1639.589944
 30
0.0
 10
804.962040
 20
1622.408184
 30
0.0
 10
786.377960
 20
1603.824104
 30
0.0
 10
505.141400
 20
1603.824104
 30
0.0
  0
LWPOLYLINE
  5
126
100
AcDbEntity
  8
Layer_1
 62
7
100
AcDbPolyline
 90
4
 70
0
 10
505.141480
 20
1651.702824
 30
0.0
 10
565.951800
 20
1651.702744
 30
0.0
 10
578.064600
 20
1639.589944
 30
0.0
 10
804.962040
 20
1639.589944
 30
0.0
  0
LWPOLYLINE
  5
127
100
AcDbEntity
  8
Layer_1
 62
7
100
AcDbPolyline
 90
2
 70
0
 10
565.951800
 20
1815.253064
 30
0.0
 10
603.931480
 20
1853.232744
 30
0.0
  0
LWPOLYLINE
  5
128
100
AcDbEntity
  8
Layer_1
 62
7
100
AcDbPolyline
 90
2
 70
0
 10
914.534120
 20
1807.667944
 30
0.0
 10
880.655960
 20
1853.232744
 30
0.0
  0
SPLINE
  5
129
100
AcDbEntity
  8
Layer_1
 62
7
100
AcDbSpline
 70
8
 71
3
 72
8
 73
4
 74
0
 40
0
 40
0
 40
0
 40
0
 40
1
 40
1
 40
1
 40
1
 10
1101.750760
 20
1688.249312
 30
0.0
 10
1101.750760
 20
1680.480416
 30
0.0
 10
1095.452840
 20
1674.182472
 30
0.0
 10
1087.683960
 20
1674.182472
 30
0.0
  0
SPLINE
  5
12a
100
AcDbEntity
  8
Layer_1
 62
7
100
AcDbSpline
 70
8
 71
3
 72
8
 73
4
 74
0
 40
0
 40
0
 40
0
 40
0
 40
1
 40
1
 40
1
 40
1
 10
1087.683960
 20
1674.182472
 30
0.0
 10
1079.915080
 20
1674.182472
 30
0.0
 10
1073.617080
 20
1680.480416
 30
0.0
 10
1073.617080
 20
1688.249312
 30
0.0
  0
SPLINE
  5
12b
100
AcDbEntity
  8
Layer_1
 62
7
100
AcDbSpline
 70
8
 71
3
 72
8
 73
4
 74
0
 40
0
 40
0
 40
0
 40
0
 40
1
 40
1
 40
1
 40
1
 10
1073.617080
 20
1688.249312
 30
0.0
 10
1073.617080
 20
1696.018208
 30
0.0
 10
1079.915080
 20
1702.316152
 30
0.0
 10
1087.683960
 20
1702.316152
 30
0.0
  0
SPLINE
  5
12c
100
AcDbEntity
  8
Layer_1
 62
7
100
AcDbSpline
 70
8
 71
3
 72
8
 73
4
 74
0
 40
0
 40
0
 40
0
 40
0
 40
1
 40
1
 40
1
 40
1
 10
1087.683960
 20
1702.316152
 30
0.0
 10
1095.452840
 20
1702.316152
 30
0.0
 10
1101.750760
 20
1696.018208
 30
0.0
 10
1101.750760
 20
1688.249312
 30
0.0
  0
LWPOLYLINE
  5
12d
100
AcDbEntity
  8
Layer_1
 62
7
100
AcDbPolyline
 90
2
 70
0
 10
603.931480
 20
1853.232744
 30
0.0
 10
880.655960
 20
1853.232744
 30
0.0
  0
SPLINE
  5
12e
100
AcDbEntity
  8
Layer_1
 62
7
100
AcDbSpline
 70
8
 71
3
 72
8
 73
4
 74
0
 40
0
 40
0
 40
0
 40
0
 40
1
 40
1
 40
1
 40
1
 10
1052.099960
 20
1688.249312
 30
0.0
 10
1052.099960
 20
1680.480416
 30
0.0
 10
1045.802040
 20
1674.182472
 30
0.0
 10
1038.033160
 20
1674.182472
 30
0.0
  0
SPLINE
  5
12f
100
AcDbEntity
  8
Layer_1
 62
7
100
AcDbSpline
 70
8
 71
3
 72
8
 73
4
 74
0
 40
0
 40
0
 40
0
 40
0
 40
1
 40
1
 40
1
 40
1
 10
1038.033160
 20
1674.182472
 30
0.0
 10
1030.264280
 20
1674.182472
 30
0.0
 10
1023.966280
 20
1680.480416
 30
0.0
 10
1023.966280
 20
1688.249312
 30
0.0
  0
SPLINE
  5
130
100
AcDbEntity
  8
Layer_1
 62
7
100
AcDbSpline
 70
8
 71
3
 72
8
 73
4
 74
0
 40
0
 40
0
 40
0
 40
0
 40
1
 40
1
 40
1
 40
1
 10
1023.966280
 20
1688.249312
 30
0.0
 10
1023.966280
 20
1696.018208
 30
0.0
 10
1030.264280
 20
1702.316152
 30
0.0
 10
1038.033160
 20
1702.316152
 30
0.0
  0
SPLINE
  5
131
100
AcDbEntity
  8
Layer_1
 62
7
100
AcDbSpline
 70
8
 71
3
 72
8
 73
4
 74
0
 40
0
 40
0
 40
0
 40
0
 40
1
 40
1
 40
1
 40
1
 10
1038.033160
 20
1702.316152
 30
0.0
 10
1045.802040
 20
1702.316152
 30
0.0
 10
1052.099960
 20
1696.018208
 30
0.0
 10
1052.099960
 20
1688.249312
 30
0.0
  0
LWPOLYLINE
  5
132
100
AcDbEntity
  8
Layer_1
 62
7
100
AcDbPolyline
 90
2
 70
0
 10
1101.750760
 20
1688.249312
 30
0.0
 10
1101.750760
 20
1688.249312
 30
0.0
  0
SPLINE
  5
133
100
AcDbEntity
  8
Layer_1
 62
7
100
AcDbSpline
 70
8
 71
3
 72
8
 73
4
 74
0
 40
0
 40
0
 40
0
 40
0
 40
1
 40
1
 40
1
 40
1
 10
1076.925400
 20
1645.250416
 30
0.0
 10
1076.925400
 20
1637.481520
 30
0.0
 10
1070.627480
 20
1631.183576
 30
0.0
 10
1062.858600
 20
1631.183576
 30
0.0
  0
SPLINE
  5
134
100
AcDbEntity
  8
Layer_1
 62
7
100
AcDbSpline
 70
8
 71
3
 72
8
 73
4
 74
0
 40
0
 40
0
 40
0
 40
0
 40
1
 40
1
 40
1
 40
1
 10
1062.858600
 20
1631.183576
 30
0.0
 10
1055.089720
 20
1631.183576
 30
0.0
 10
1048.791720
 20
1637.481520
 30
0.0
 10
1048.791720
 20
1645.250416
 30
0.0
  0
SPLINE
  5
135
100
AcDbEntity
  8
Layer_1
 62
7
100
AcDbSpline
 70
8
 71
3
 72
8
 73
4
 74
0
 40
0
 40
0
 40
0
 40
0
 40
1
 40
1
 40
1
 40
1
 10
1048.791720
 20
1645.250416
 30
0.0
 10
1048.791720
 20
1653.019312
 30
0.0
 10
1055.089720
 20
1659.317256
 30
0.0
 10
1062.858600
 20
1659.317256
 30
0.0
  0
SPLINE
  5
136
100
AcDbEntity
  8
Layer_1
 62
7
100
AcDbSpline
 70
8
 71
3
 72
8
 73
4
 74
0
 40
0
 40
0
 40
0
 40
0
 40
1
 40
1
 40
1
 40
1
 10
1062.858600
 20
1659.317256
 30
0.0
 10
1070.627480
 20
1659.317256
 30
0.0
 10
1076.925400
 20
1653.019312
 30
0.0
 10
1076.925400
 20
1645.250416
 30
0.0
  0
LWPOLYLINE
  5
137
100
AcDbEntity
  8
Layer_1
 62
7
100
AcDbPolyline
 90
2
 70
0
 10
1052.099960
 20
1688.249312
 30
0.0
 10
1052.099960
 20
1688.249312
 30
0.0
  0
SPLINE
  5
138
100
AcDbEntity
  8
Layer_1
 62
7
100
AcDbSpline
 70
8
 71
3
 72
8
 73
4
 74
0
 40
0
 40
0
 40
0
 40
0
 40
1
 40
1
 40
1
 40
1
 10
478.466040
 20
1777.264024
 30
0.0
 10
478.466040
 20
1769.495144
 30
0.0
 10
472.168120
 20
1763.197224
 30
0.0
 10
464.399160
 20
1763.197224
 30
0.0
  0
SPLINE
  5
139
100
AcDbEntity
  8
Layer_1
 62
7
100
AcDbSpline
 70
8
 71
3
 72
8
 73
4
 74
0
 40
0
 40
0
 40
0
 40
0
 40
1
 40
1
 40
1
 40
1
 10
464.399160
 20
1763.197224
 30
0.0
 10
456.630280
 20
1763.197224
 30
0.0
 10
450.332360
 20
1769.495144
 30
0.0
 10
450.332360
 20
1777.264024
 30
0.0
  0
SPLINE
  5
13a
100
AcDbEntity
  8
Layer_1
 62
7
100
AcDbSpline
 70
8
 71
3
 72
8
 73
4
 74
0
 40
0
 40
0
 40
0
 40
0
 40
1
 40
1
 40
1
 40
1
 10
450.332360
 20
1777.264024
 30
0.0
 10
450.332360
 20
1785.032984
 30
0.0
 10
456.630280
 20
1791.330904
 30
0.0
 10
464.399160
 20
1791.330904
 30
0.0
  0
SPLINE
  5
13b
100
AcDbEntity
  8
Layer_1
 62
7
100
AcDbSpline
 70
8
 71
3
 72
8
 73
4
 74
0
 40
0
 40
0
 40
0
 40
0
 40
1
 40
1
 40
1
 40
1
 10
464.399160
 20
1791.330904
 30
0.0
 10
472.168120
 20
1791.330904
 30
0.0
 10
478.466040
 20
1785.032984
 30
0.0
 10
478.466040
 20
1777.264024
 30
0.0
  0
LWPOLYLINE
  5
13c
100
AcDbEntity
  8
Layer_1
 62
7
100
AcDbPolyline
 90
2
 70
0
 10
1076.925400
 20
1645.250416
 30
0.0
 10
1076.925400
 20
1645.250416
 30
0.0
  0
SPLINE
  5
13d
100
AcDbEntity
  8
Layer_1
 62
7
100
AcDbSpline
 70
8
 71
3
 72
8
 73
4
 74
0
 40
0
 40
0
 40
0
 40
0
 40
1
 40
1
 40
1
 40
1
 10
428.815160
 20
1777.264024
 30
0.0
 10
428.815160
 20
1769.495144
 30
0.0
 10
422.517240
 20
1763.197224
 30
0.0
 10
414.748360
 20
1763.197224
 30
0.0
  0
SPLINE
  5
13e
100
AcDbEntity
  8
Layer_1
 62
7
100
AcDbSpline
 70
8
 71
3
 72
8
 73
4
 74
0
 40
0
 40
0
 40
0
 40
0
 40
1
 40
1
 40
1
 40
1
 10
414.748360
 20
1763.197224
 30
0.0
 10
406.979480
 20
1763.197224
 30
0.0
 10
400.681480
 20
1769.495144
 30
0.0
 10
400.681480
 20
1777.264024
 30
0.0
  0
SPLINE
  5
13f
100
AcDbEntity
  8
Layer_1
 62
7
100
AcDbSpline
 70
8
 71
3
 72
8
 73
4
 74
0
 40
0
 40
0
 40
0
 40
0
 40
1
 40
1
 40
1
 40
1
 10
400.681480
 20
1777.264024
 30
0.0
 10
400.681480
 20
1785.032984
 30
0.0
 10
406.979480
 20
1791.330904
 30
0.0
 10
414.748360
 20
1791.330904
 30
0.0
  0
SPLINE
  5
140
100
AcDbEntity
  8
Layer_1
 62
7
100
AcDbSpline
 70
8
 71
3
 72
8
 73
4
 74
0
 40
0
 40
0
 40
0
 40
0
 40
1
 40
1
 40
1
 40
1
 10
414.748360
 20
1791.330904
 30
0.0
 10
422.517240
 20
1791.330904
 30
0.0
 10
428.815160
 20
1785.032984
 30
0.0
 10
428.815160
 20
1777.264024
 30
0.0
  0
LWPOLYLINE
  5
141
100
AcDbEntity
  8
Layer_1
 62
7
100
AcDbPolyline
 90
2
 70
0
 10
478.466040
 20
1777.264024
 30
0.0
 10
478.466040
 20
1777.264024
 30
0.0
  0
SPLINE
  5
142
100
AcDbEntity
  8
Layer_1
 62
7
100
AcDbSpline
 70
8
 71
3
 72
8
 73
4
 74
0
 40
0
 40
0
 40
0
 40
0
 40
1
 40
1
 40
1
 40
1
 10
439.573800
 20
1748.339624
 30
0.0
 10
431.804840
 20
1748.339624
 30
0.0
 10
425.498760
 20
1742.033544
 30
0.0
 10
425.498760
 20
1734.264584
 30
0.0
  0
LWPOLYLINE
  5
143
100
AcDbEntity
  8
Layer_1
 62
7
100
AcDbPolyline
 90
2
 70
0
 10
428.815160
 20
1777.264024
 30
0.0
 10
428.815160
 20
1777.264024
 30
0.0
  0
SPLINE
  5
144
100
AcDbEntity
  8
Layer_1
 62
7
100
AcDbSpline
 70
8
 71
3
 72
8
 73
4
 74
0
 40
0
 40
0
 40
0
 40
0
 40
1
 40
1
 40
1
 40
1
 10
453.648760
 20
1734.264584
 30
0.0
 10
453.648760
 20
1742.033544
 30
0.0
 10
447.342680
 20
1748.339624
 30
0.0
 10
439.573800
 20
1748.339624
 30
0.0
  0
LWPOLYLINE
  5
145
100
AcDbEntity
  8
Layer_1
 62
7
100
AcDbPolyline
 90
4
 70
0
 10
425.498760
 20
1734.264584
 30
0.0
 10
425.498760
 20
1695.539624
 30
0.0
 10
453.648760
 20
1695.539624
 30
0.0
 10
453.648760
 20
1734.264584
 30
0.0
  0
SPLINE
  5
146
100
AcDbEntity
  8
Layer_1
 62
7
100
AcDbSpline
 70
8
 71
3
 72
8
 73
4
 74
0
 40
0
 40
0
 40
0
 40
0
 40
1
 40
1
 40
1
 40
1
 10
316.128271
 20
1697.263078
 30
0.0
 10
316.128271
 20
1680.700673
 30
0.0
 10
302.701795
 20
1667.274192
 30
0.0
 10
286.139390
 20
1667.274192
 30
0.0
  0
SPLINE
  5
147
100
AcDbEntity
  8
Layer_1
 62
7
100
AcDbSpline
 70
8
 71
3
 72
8
 73
4
 74
0
 40
0
 40
0
 40
0
 40
0
 40
1
 40
1
 40
1
 40
1
 10
286.139390
 20
1667.274192
 30
0.0
 10
269.576985
 20
1667.274192
 30
0.0
 10
256.150504
 20
1680.700673
 30
0.0
 10
256.150504
 20
1697.263078
 30
0.0
  0
SPLINE
  5
148
100
AcDbEntity
  8
Layer_1
 62
7
100
AcDbSpline
 70
8
 71
3
 72
8
 73
4
 74
0
 40
0
 40
0
 40
0
 40
0
 40
1
 40
1
 40
1
 40
1
 10
256.150504
 20
1697.263078
 30
0.0
 10
256.150504
 20
1713.825478
 30
0.0
 10
269.576985
 20
1727.251959
 30
0.0
 10
286.139390
 20
1727.251959
 30
0.0
  0
SPLINE
  5
149
100
AcDbEntity
  8
Layer_1
 62
7
100
AcDbSpline
 70
8
 71
3
 72
8
 73
4
 74
0
 40
0
 40
0
 40
0
 40
0
 40
1
 40
1
 40
1
 40
1
 10
286.139390
 20
1727.251959
 30
0.0
 10
302.701795
 20
1727.251959
 30
0.0
 10
316.128271
 20
1713.825478
 30
0.0
 10
316.128271
 20
1697.263078
 30
0.0
  0
LWPOLYLINE
  5
14a
100
AcDbEntity
  8
Layer_1
 62
7
100
AcDbPolyline
 90
2
 70
0
 10
439.573800
 20
1748.339624
 30
0.0
 10
439.573800
 20
1748.339624
 30
0.0
  0
SPLINE
  5
14b
100
AcDbEntity
  8
Layer_1
 62
7
100
AcDbSpline
 70
8
 71
3
 72
8
 73
4
 74
0
 40
0
 40
0
 40
0
 40
0
 40
1
 40
1
 40
1
 40
1
 10
280.019812
 20
1545.294828
 30
0.0
 10
280.019812
 20
1534.290461
 30
0.0
 10
271.099033
 20
1525.369630
 30
0.0
 10
260.094666
 20
1525.369630
 30
0.0
  0
SPLINE
  5
14c
100
AcDbEntity
  8
Layer_1
 62
7
100
AcDbSpline
 70
8
 71
3
 72
8
 73
4
 74
0
 40
0
 40
0
 40
0
 40
0
 40
1
 40
1
 40
1
 40
1
 10
260.094666
 20
1525.369630
 30
0.0
 10
249.090247
 20
1525.369630
 30
0.0
 10
240.169469
 20
1534.290461
 30
0.0
 10
240.169469
 20
1545.294828
 30
0.0
  0
SPLINE
  5
14d
100
AcDbEntity
  8
Layer_1
 62
7
100
AcDbSpline
 70
8
 71
3
 72
8
 73
4
 74
0
 40
0
 40
0
 40
0
 40
0
 40
1
 40
1
 40
1
 40
1
 10
240.169469
 20
1545.294828
 30
0.0
 10
240.169469
 20
1556.299195
 30
0.0
 10
249.090247
 20
1565.220025
 30
0.0
 10
260.094666
 20
1565.220025
 30
0.0
  0
SPLINE
  5
14e
100
AcDbEntity
  8
Layer_1
 62
7
100
AcDbSpline
 70
8
 71
3
 72
8
 73
4
 74
0
 40
0
 40
0
 40
0
 40
0
 40
1
 40
1
 40
1
 40
1
 10
260.094666
 20
1565.220025
 30
0.0
 10
271.099033
 20
1565.220025
 30
0.0
 10
280.019812
 20
1556.299195
 30
0.0
 10
280.019812
 20
1545.294828
 30
0.0
  0
LWPOLYLINE
  5
14f
100
AcDbEntity
  8
Layer_1
 62
7
100
AcDbPolyline
 90
2
 70
0
 10
316.128271
 20
1697.263078
 30
0.0
 10
316.128271
 20
1697.263078
 30
0.0
  0
LWPOLYLINE
  5
150
100
AcDbEntity
  8
Layer_1
 62
7
100
AcDbPolyline
 90
2
 70
0
 10
280.019812
 20
1545.294828
 30
0.0
 10
280.019812
 20
1545.294828
 30
0.0
  0
LWPOLYLINE
  5
151
100
AcDbEntity
  8
Layer_1
 62
7
100
AcDbPolyline
 90
5
 70
0
 10
1109.805160
 20
1698.683192
 30
0.0
 10
1127.119513
 20
1698.683192
 30
0.0
 10
1127.119513
 20
1681.368839
 30
0.0
 10
1109.805160
 20
1681.368839
 30
0.0
 10
1109.805160
 20
1698.683192
 30
0.0
  0
LWPOLYLINE
  5
152
100
AcDbEntity
  8
Layer_1
 62
7
100
AcDbPolyline
 90
5
 70
0
 10
1109.805160
 20
1599.041616
 30
0.0
 10
1127.119513
 20
1599.041616
 30
0.0
 10
1127.119513
 20
1581.727263
 30
0.0
 10
1109.805160
 20
1581.727263
 30
0.0
 10
1109.805160
 20
1599.041616
 30
0.0
  0
SPLINE
  5
153
100
AcDbEntity
  8
Layer_1
 62
7
100
AcDbSpline
 70
8
 71
3
 72
8
 73
4
 74
0
 40
0
 40
0
 40
0
 40
0
 40
1
 40
1
 40
1
 40
1
 10
850.363751
 20
1515.969920
 30
0.0
 10
850.363751
 20
1513.605886
 30
0.0
 10
848.445515
 20
1511.689432
 30
0.0
 10
846.079283
 20
1511.689432
 30
0.0
  0
SPLINE
  5
154
100
AcDbEntity
  8
Layer_1
 62
7
100
AcDbSpline
 70
8
 71
3
 72
8
 73
4
 74
0
 40
0
 40
0
 40
0
 40
0
 40
1
 40
1
 40
1
 40
1
 10
846.079283
 20
1511.689432
 30
0.0
 10
843.713050
 20
1511.689432
 30
0.0
 10
841.794815
 20
1513.605886
 30
0.0
 10
841.794815
 20
1515.969920
 30
0.0
  0
SPLINE
  5
155
100
AcDbEntity
  8
Layer_1
 62
7
100
AcDbSpline
 70
8
 71
3
 72
8
 73
4
 74
0
 40
0
 40
0
 40
0
 40
0
 40
1
 40
1
 40
1
 40
1
 10
841.794815
 20
1515.969920
 30
0.0
 10
841.794815
 20
1518.333955
 30
0.0
 10
843.713050
 20
1520.250408
 30
0.0
 10
846.079283
 20
1520.250408
 30
0.0
  0
SPLINE
  5
156
100
AcDbEntity
  8
Layer_1
 62
7
100
AcDbSpline
 70
8
 71
3
 72
8
 73
4
 74
0
 40
0
 40
0
 40
0
 40
0
 40
1
 40
1
 40
1
 40
1
 10
846.079283
 20
1520.250408
 30
0.0
 10
848.445515
 20
1520.250408
 30
0.0
 10
850.363751
 20
1518.333955
 30
0.0
 10
850.363751
 20
1515.969920
 30
0.0
  0
LWPOLYLINE
  5
157
100
AcDbEntity
  8
Layer_1
 62
7
100
AcDbPolyline
 90
5
 70
0
 10
1105.845080
 20
1664.054480
 30
0.0
 10
1127.119609
 20
1664.054480
 30
0.0
 10
1127.119609
 20
1616.355954
 30
0.0
 10
1105.845080
 20
1616.355954
 30
0.0
 10
1105.845080
 20
1664.054480
 30
0.0
  0
LWPOLYLINE
  5
158
100
AcDbEntity
  8
Layer_1
 62
7
100
AcDbPolyline
 90
2
 70
0
 10
850.363751
 20
1515.969920
 30
0.0
 10
850.363751
 20
1515.969920
 30
0.0
  0
LWPOLYLINE
  5
159
100
AcDbEntity
  8
Layer_1
 62
7
100
AcDbPolyline
 90
5
 70
0
 10
876.490840
 20
1697.083192
 30
0.0
 10
893.805193
 20
1697.083192
 30
0.0
 10
893.805193
 20
1679.768839
 30
0.0
 10
876.490840
 20
1679.768839
 30
0.0
 10
876.490840
 20
1697.083192
 30
0.0
  0
LWPOLYLINE
  5
15a
100
AcDbEntity
  8
Layer_1
 62
7
100
AcDbPolyline
 90
5
 70
0
 10
876.490840
 20
1597.441616
 30
0.0
 10
893.805193
 20
1597.441616
 30
0.0
 10
893.805193
 20
1580.127263
 30
0.0
 10
876.490840
 20
1580.127263
 30
0.0
 10
876.490840
 20
1597.441616
 30
0.0
  0
SPLINE
  5
15b
100
AcDbEntity
  8
Layer_1
 62
7
100
AcDbSpline
 70
8
 71
3
 72
8
 73
4
 74
0
 40
0
 40
0
 40
0
 40
0
 40
1
 40
1
 40
1
 40
1
 10
852.896224
 20
1058.957520
 30
0.0
 10
843.007824
 20
1058.957520
 30
0.0
 10
834.996224
 20
1050.945840
 30
0.0
 10
834.996224
 20
1041.057520
 30
0.0
  0
SPLINE
  5
15c
100
AcDbEntity
  8
Layer_1
 62
7
100
AcDbSpline
 70
8
 71
3
 72
8
 73
4
 74
0
 40
0
 40
0
 40
0
 40
0
 40
1
 40
1
 40
1
 40
1
 10
834.996224
 20
1041.057520
 30
0.0
 10
834.996224
 20
1031.169040
 30
0.0
 10
843.007824
 20
1023.157520
 30
0.0
 10
852.896224
 20
1023.157520
 30
0.0
  0
SPLINE
  5
15d
100
AcDbEntity
  8
Layer_1
 62
7
100
AcDbSpline
 70
8
 71
3
 72
8
 73
4
 74
0
 40
0
 40
0
 40
0
 40
0
 40
1
 40
1
 40
1
 40
1
 10
852.896224
 20
1023.157520
 30
0.0
 10
855.372624
 20
1023.157520
 30
0.0
 10
857.732944
 20
1023.658080
 30
0.0
 10
859.671264
 20
1024.482480
 30
0.0
  0
LWPOLYLINE
  5
15e
100
AcDbEntity
  8
Layer_1
 62
7
100
AcDbPolyline
 90
15
 70
0
 10
567.071264
 20
1440.707440
 30
0.0
 10
475.396224
 20
1342.632480
 30
0.0
 10
316.246224
 20
1346.407440
 30
0.0
 10
283.971264
 20
1283.907440
 30
0.0
 10
269.171264
 20
1291.607440
 30
0.0
 10
179.921184
 20
1117.132480
 30
0.0
 10
275.271264
 20
988.407440
 30
0.0
 10
278.471264
 20
970.982480
 30
0.0
 10
305.746224
 20
970.982480
 30
0.0
 10
308.946224
 20
988.407440
 30
0.0
 10
341.021184
 20
1016.257520
 30
0.0
 10
405.721184
 20
1016.257520
 30
0.0
 10
469.571264
 20
1045.282480
 30
0.0
 10
477.046224
 20
1058.957520
 30
0.0
 10
852.896224
 20
1058.957520
 30
0.0
  0
SPLINE
  5
15f
100
AcDbEntity
  8
Layer_1
 62
7
100
AcDbSpline
 70
8
 71
3
 72
8
 73
4
 74
0
 40
0
 40
0
 40
0
 40
0
 40
1
 40
1
 40
1
 40
1
 10
1176.321184
 20
1229.507440
 30
0.0
 10
1166.836944
 20
1304.729920
 30
0.0
 10
1142.871264
 20
1327.907440
 30
0.0
 10
1142.871264
 20
1327.907440
 30
0.0
  0
LWPOLYLINE
  5
160
100
AcDbEntity
  8
Layer_1
 62
7
100
AcDbPolyline
 90
20
 70
0
 10
859.671264
 20
1024.482480
 30
0.0
 10
924.396224
 20
1058.957520
 30
0.0
 10
1028.996224
 20
1058.957520
 30
0.0
 10
1049.671264
 20
1023.157520
 30
0.0
 10
1099.221184
 20
1058.957520
 30
0.0
 10
1123.996224
 20
1058.957520
 30
0.0
 10
1143.046224
 20
1098.607440
 30
0.0
 10
1167.646224
 20
1098.607440
 30
0.0
 10
1167.646224
 20
1106.157520
 30
0.0
 10
1167.646224
 20
1106.807440
 30
0.0
 10
1150.346224
 20
1106.807440
 30
0.0
 10
1150.346224
 20
1124.132480
 30
0.0
 10
1167.646224
 20
1124.132480
 30
0.0
 10
1167.646224
 20
1205.782480
 30
0.0
 10
1167.646224
 20
1206.457520
 30
0.0
 10
1150.346224
 20
1206.457520
 30
0.0
 10
1150.346224
 20
1223.757520
 30
0.0
 10
1167.646224
 20
1223.757520
 30
0.0
 10
1167.646224
 20
1229.507440
 30
0.0
 10
1176.321184
 20
1229.507440
 30
0.0
  0
LWPOLYLINE
  5
161
100
AcDbEntity
  8
Layer_1
 62
7
100
AcDbPolyline
 90
5
 70
0
 10
1142.871264
 20
1327.907440
 30
0.0
 10
1009.596224
 20
1330.807440
 30
0.0
 10
942.296224
 20
1440.707440
 30
0.0
 10
567.071264
 20
1440.707440
 30
0.0
 10
567.071264
 20
1440.707440
 30
0.0
  0
LWPOLYLINE
  5
162
100
AcDbEntity
  8
Layer_1
 62
7
100
AcDbPolyline
 90
5
 70
0
 10
1115.706064
 20
1223.763408
 30
0.0
 10
1133.020417
 20
1223.763408
 30
0.0
 10
1133.020417
 20
1206.449055
 30
0.0
 10
1115.706064
 20
1206.449055
 30
0.0
 10
1115.706064
 20
1223.763408
 30
0.0
  0
LWPOLYLINE
  5
163
100
AcDbEntity
  8
Layer_1
 62
7
100
AcDbPolyline
 90
5
 70
0
 10
1115.706064
 20
1124.121832
 30
0.0
 10
1133.020417
 20
1124.121832
 30
0.0
 10
1133.020417
 20
1106.807479
 30
0.0
 10
1115.706064
 20
1106.807479
 30
0.0
 10
1115.706064
 20
1124.121832
 30
0.0
  0
LWPOLYLINE
  5
164
100
AcDbEntity
  8
Layer_1
 62
7
100
AcDbPolyline
 90
5
 70
0
 10
1111.745984
 20
1189.134696
 30
0.0
 10
1133.020513
 20
1189.134696
 30
0.0
 10
1133.020513
 20
1141.436170
 30
0.0
 10
1111.745984
 20
1141.436170
 30
0.0
 10
1111.745984
 20
1189.134696
 30
0.0
  0
LWPOLYLINE
  5
165
100
AcDbEntity
  8
Layer_1
 62
7
100
AcDbPolyline
 90
4
 70
0
 10
920.424216
 20
1332.736504
 30
0.0
 10
897.374136
 20
1292.786504
 30
0.0
 10
599.299176
 20
1292.786504
 30
0.0
 10
571.849176
 20
1340.336504
 30
0.0
  0
LWPOLYLINE
  5
166
100
AcDbEntity
  8
Layer_1
 62
7
100
AcDbPolyline
 90
5
 70
0
 10
587.852696
 20
1255.272312
 30
0.0
 10
968.483176
 20
1255.272312
 30
0.0
 10
981.283256
 20
1223.112912
 30
0.0
 10
571.852696
 20
1223.112912
 30
0.0
 10
587.852696
 20
1255.272312
 30
0.0
  0
LWPOLYLINE
  5
167
100
AcDbEntity
  8
Layer_1
 62
7
100
AcDbPolyline
 90
2
 70
0
 10
571.852696
 20
1340.333224
 30
0.0
 10
609.832376
 20
1378.312912
 30
0.0
  0
LWPOLYLINE
  5
168
100
AcDbEntity
  8
Layer_1
 62
7
100
AcDbPolyline
 90
2
 70
0
 10
920.435016
 20
1332.748112
 30
0.0
 10
886.556856
 20
1378.312912
 30
0.0
  0
SPLINE
  5
169
100
AcDbEntity
  8
Layer_1
 62
7
100
AcDbSpline
 70
8
 71
3
 72
8
 73
4
 74
0
 40
0
 40
0
 40
0
 40
0
 40
1
 40
1
 40
1
 40
1
 10
1107.651656
 20
1213.329472
 30
0.0
 10
1107.651656
 20
1205.560576
 30
0.0
 10
1101.353736
 20
1199.262632
 30
0.0
 10
1093.584856
 20
1199.262632
 30
0.0
  0
SPLINE
  5
16a
100
AcDbEntity
  8
Layer_1
 62
7
100
AcDbSpline
 70
8
 71
3
 72
8
 73
4
 74
0
 40
0
 40
0
 40
0
 40
0
 40
1
 40
1
 40
1
 40
1
 10
1093.584856
 20
1199.262632
 30
0.0
 10
1085.815976
 20
1199.262632
 30
0.0
 10
1079.517976
 20
1205.560576
 30
0.0
 10
1079.517976
 20
1213.329472
 30
0.0
  0
SPLINE
  5
16b
100
AcDbEntity
  8
Layer_1
 62
7
100
AcDbSpline
 70
8
 71
3
 72
8
 73
4
 74
0
 40
0
 40
0
 40
0
 40
0
 40
1
 40
1
 40
1
 40
1
 10
1079.517976
 20
1213.329472
 30
0.0
 10
1079.517976
 20
1221.098368
 30
0.0
 10
1085.815976
 20
1227.396312
 30
0.0
 10
1093.584856
 20
1227.396312
 30
0.0
  0
SPLINE
  5
16c
100
AcDbEntity
  8
Layer_1
 62
7
100
AcDbSpline
 70
8
 71
3
 72
8
 73
4
 74
0
 40
0
 40
0
 40
0
 40
0
 40
1
 40
1
 40
1
 40
1
 10
1093.584856
 20
1227.396312
 30
0.0
 10
1101.353736
 20
1227.396312
 30
0.0
 10
1107.651656
 20
1221.098368
 30
0.0
 10
1107.651656
 20
1213.329472
 30
0.0
  0
LWPOLYLINE
  5
16d
100
AcDbEntity
  8
Layer_1
 62
7
100
AcDbPolyline
 90
2
 70
0
 10
609.832376
 20
1378.312912
 30
0.0
 10
886.556856
 20
1378.312912
 30
0.0
  0
SPLINE
  5
16e
100
AcDbEntity
  8
Layer_1
 62
7
100
AcDbSpline
 70
8
 71
3
 72
8
 73
4
 74
0
 40
0
 40
0
 40
0
 40
0
 40
1
 40
1
 40
1
 40
1
 10
1058.000856
 20
1213.329472
 30
0.0
 10
1058.000856
 20
1205.560576
 30
0.0
 10
1051.702936
 20
1199.262632
 30
0.0
 10
1043.934056
 20
1199.262632
 30
0.0
  0
SPLINE
  5
16f
100
AcDbEntity
  8
Layer_1
 62
7
100
AcDbSpline
 70
8
 71
3
 72
8
 73
4
 74
0
 40
0
 40
0
 40
0
 40
0
 40
1
 40
1
 40
1
 40
1
 10
1043.934056
 20
1199.262632
 30
0.0
 10
1036.165176
 20
1199.262632
 30
0.0
 10
1029.867176
 20
1205.560576
 30
0.0
 10
1029.867176
 20
1213.329472
 30
0.0
  0
SPLINE
  5
170
100
AcDbEntity
  8
Layer_1
 62
7
100
AcDbSpline
 70
8
 71
3
 72
8
 73
4
 74
0
 40
0
 40
0
 40
0
 40
0
 40
1
 40
1
 40
1
 40
1
 10
1029.867176
 20
1213.329472
 30
0.0
 10
1029.867176
 20
1221.098368
 30
0.0
 10
1036.165176
 20
1227.396312
 30
0.0
 10
1043.934056
 20
1227.396312
 30
0.0
  0
SPLINE
  5
171
100
AcDbEntity
  8
Layer_1
 62
7
100
AcDbSpline
 70
8
 71
3
 72
8
 73
4
 74
0
 40
0
 40
0
 40
0
 40
0
 40
1
 40
1
 40
1
 40
1
 10
1043.934056
 20
1227.396312
 30
0.0
 10
1051.702936
 20
1227.396312
 30
0.0
 10
1058.000856
 20
1221.098368
 30
0.0
 10
1058.000856
 20
1213.329472
 30
0.0
  0
LWPOLYLINE
  5
172
100
AcDbEntity
  8
Layer_1
 62
7
100
AcDbPolyline
 90
2
 70
0
 10
1107.651656
 20
1213.329472
 30
0.0
 10
1107.651656
 20
1213.329472
 30
0.0
  0
SPLINE
  5
173
100
AcDbEntity
  8
Layer_1
 62
7
100
AcDbSpline
 70
8
 71
3
 72
8
 73
4
 74
0
 40
0
 40
0
 40
0
 40
0
 40
1
 40
1
 40
1
 40
1
 10
1082.826296
 20
1170.330576
 30
0.0
 10
1082.826296
 20
1162.561680
 30
0.0
 10
1076.528376
 20
1156.263736
 30
0.0
 10
1068.759496
 20
1156.263736
 30
0.0
  0
SPLINE
  5
174
100
AcDbEntity
  8
Layer_1
 62
7
100
AcDbSpline
 70
8
 71
3
 72
8
 73
4
 74
0
 40
0
 40
0
 40
0
 40
0
 40
1
 40
1
 40
1
 40
1
 10
1068.759496
 20
1156.263736
 30
0.0
 10
1060.990616
 20
1156.263736
 30
0.0
 10
1054.692616
 20
1162.561680
 30
0.0
 10
1054.692616
 20
1170.330576
 30
0.0
  0
SPLINE
  5
175
100
AcDbEntity
  8
Layer_1
 62
7
100
AcDbSpline
 70
8
 71
3
 72
8
 73
4
 74
0
 40
0
 40
0
 40
0
 40
0
 40
1
 40
1
 40
1
 40
1
 10
1054.692616
 20
1170.330576
 30
0.0
 10
1054.692616
 20
1178.099472
 30
0.0
 10
1060.990616
 20
1184.397416
 30
0.0
 10
1068.759496
 20
1184.397416
 30
0.0
  0
SPLINE
  5
176
100
AcDbEntity
  8
Layer_1
 62
7
100
AcDbSpline
 70
8
 71
3
 72
8
 73
4
 74
0
 40
0
 40
0
 40
0
 40
0
 40
1
 40
1
 40
1
 40
1
 10
1068.759496
 20
1184.397416
 30
0.0
 10
1076.528376
 20
1184.397416
 30
0.0
 10
1082.826296
 20
1178.099472
 30
0.0
 10
1082.826296
 20
1170.330576
 30
0.0
  0
LWPOLYLINE
  5
177
100
AcDbEntity
  8
Layer_1
 62
7
100
AcDbPolyline
 90
2
 70
0
 10
1058.000856
 20
1213.329472
 30
0.0
 10
1058.000856
 20
1213.329472
 30
0.0
  0
SPLINE
  5
178
100
AcDbEntity
  8
Layer_1
 62
7
100
AcDbSpline
 70
8
 71
3
 72
8
 73
4
 74
0
 40
0
 40
0
 40
0
 40
0
 40
1
 40
1
 40
1
 40
1
 10
484.366936
 20
1302.344200
 30
0.0
 10
484.366936
 20
1294.575304
 30
0.0
 10
478.069016
 20
1288.277360
 30
0.0
 10
470.300056
 20
1288.277360
 30
0.0
  0
SPLINE
  5
179
100
AcDbEntity
  8
Layer_1
 62
7
100
AcDbSpline
 70
8
 71
3
 72
8
 73
4
 74
0
 40
0
 40
0
 40
0
 40
0
 40
1
 40
1
 40
1
 40
1
 10
470.300056
 20
1288.277360
 30
0.0
 10
462.531176
 20
1288.277360
 30
0.0
 10
456.233256
 20
1294.575304
 30
0.0
 10
456.233256
 20
1302.344200
 30
0.0
  0
SPLINE
  5
17a
100
AcDbEntity
  8
Layer_1
 62
7
100
AcDbSpline
 70
8
 71
3
 72
8
 73
4
 74
0
 40
0
 40
0
 40
0
 40
0
 40
1
 40
1
 40
1
 40
1
 10
456.233256
 20
1302.344200
 30
0.0
 10
456.233256
 20
1310.113096
 30
0.0
 10
462.531176
 20
1316.411040
 30
0.0
 10
470.300056
 20
1316.411040
 30
0.0
  0
SPLINE
  5
17b
100
AcDbEntity
  8
Layer_1
 62
7
100
AcDbSpline
 70
8
 71
3
 72
8
 73
4
 74
0
 40
0
 40
0
 40
0
 40
0
 40
1
 40
1
 40
1
 40
1
 10
470.300056
 20
1316.411040
 30
0.0
 10
478.069016
 20
1316.411040
 30
0.0
 10
484.366936
 20
1310.113096
 30
0.0
 10
484.366936
 20
1302.344200
 30
0.0
  0
LWPOLYLINE
  5
17c
100
AcDbEntity
  8
Layer_1
 62
7
100
AcDbPolyline
 90
2
 70
0
 10
1082.826296
 20
1170.330576
 30
0.0
 10
1082.826296
 20
1170.330576
 30
0.0
  0
SPLINE
  5
17d
100
AcDbEntity
  8
Layer_1
 62
7
100
AcDbSpline
 70
8
 71
3
 72
8
 73
4
 74
0
 40
0
 40
0
 40
0
 40
0
 40
1
 40
1
 40
1
 40
1
 10
434.716056
 20
1302.344200
 30
0.0
 10
434.716056
 20
1294.575304
 30
0.0
 10
428.418136
 20
1288.277360
 30
0.0
 10
420.649256
 20
1288.277360
 30
0.0
  0
SPLINE
  5
17e
100
AcDbEntity
  8
Layer_1
 62
7
100
AcDbSpline
 70
8
 71
3
 72
8
 73
4
 74
0
 40
0
 40
0
 40
0
 40
0
 40
1
 40
1
 40
1
 40
1
 10
420.649256
 20
1288.277360
 30
0.0
 10
412.880376
 20
1288.277360
 30
0.0
 10
406.582376
 20
1294.575304
 30
0.0
 10
406.582376
 20
1302.344200
 30
0.0
  0
SPLINE
  5
17f
100
AcDbEntity
  8
Layer_1
 62
7
100
AcDbSpline
 70
8
 71
3
 72
8
 73
4
 74
0
 40
0
 40
0
 40
0
 40
0
 40
1
 40
1
 40
1
 40
1
 10
406.582376
 20
1302.344200
 30
0.0
 10
406.582376
 20
1310.113096
 30
0.0
 10
412.880376
 20
1316.411040
 30
0.0
 10
420.649256
 20
1316.411040
 30
0.0
  0
SPLINE
  5
180
100
AcDbEntity
  8
Layer_1
 62
7
100
AcDbSpline
 70
8
 71
3
 72
8
 73
4
 74
0
 40
0
 40
0
 40
0
 40
0
 40
1
 40
1
 40
1
 40
1
 10
420.649256
 20
1316.411040
 30
0.0
 10
428.418136
 20
1316.411040
 30
0.0
 10
434.716056
 20
1310.113096
 30
0.0
 10
434.716056
 20
1302.344200
 30
0.0
  0
LWPOLYLINE
  5
181
100
AcDbEntity
  8
Layer_1
 62
7
100
AcDbPolyline
 90
2
 70
0
 10
484.366936
 20
1302.344200
 30
0.0
 10
484.366936
 20
1302.344200
 30
0.0
  0
SPLINE
  5
182
100
AcDbEntity
  8
Layer_1
 62
7
100
AcDbSpline
 70
8
 71
3
 72
8
 73
4
 74
0
 40
0
 40
0
 40
0
 40
0
 40
1
 40
1
 40
1
 40
1
 10
445.474696
 20
1273.419752
 30
0.0
 10
437.705736
 20
1273.419752
 30
0.0
 10
431.399656
 20
1267.113648
 30
0.0
 10
431.399656
 20
1259.344752
 30
0.0
  0
LWPOLYLINE
  5
183
100
AcDbEntity
  8
Layer_1
 62
7
100
AcDbPolyline
 90
2
 70
0
 10
434.716056
 20
1302.344200
 30
0.0
 10
434.716056
 20
1302.344200
 30
0.0
  0
SPLINE
  5
184
100
AcDbEntity
  8
Layer_1
 62
7
100
AcDbSpline
 70
8
 71
3
 72
8
 73
4
 74
0
 40
0
 40
0
 40
0
 40
0
 40
1
 40
1
 40
1
 40
1
 10
459.549656
 20
1259.344752
 30
0.0
 10
459.549656
 20
1267.113648
 30
0.0
 10
453.243576
 20
1273.419752
 30
0.0
 10
445.474696
 20
1273.419752
 30
0.0
  0
LWPOLYLINE
  5
185
100
AcDbEntity
  8
Layer_1
 62
7
100
AcDbPolyline
 90
4
 70
0
 10
431.399656
 20
1259.344752
 30
0.0
 10
431.399656
 20
1220.619752
 30
0.0
 10
459.549656
 20
1220.619752
 30
0.0
 10
459.549656
 20
1259.344752
 30
0.0
  0
SPLINE
  5
186
100
AcDbEntity
  8
Layer_1
 62
7
100
AcDbSpline
 70
8
 71
3
 72
8
 73
4
 74
0
 40
0
 40
0
 40
0
 40
0
 40
1
 40
1
 40
1
 40
1
 10
322.029167
 20
1222.343222
 30
0.0
 10
322.029167
 20
1205.780817
 30
0.0
 10
308.602691
 20
1192.354336
 30
0.0
 10
292.040286
 20
1192.354336
 30
0.0
  0
SPLINE
  5
187
100
AcDbEntity
  8
Layer_1
 62
7
100
AcDbSpline
 70
8
 71
3
 72
8
 73
4
 74
0
 40
0
 40
0
 40
0
 40
0
 40
1
 40
1
 40
1
 40
1
 10
292.040286
 20
1192.354336
 30
0.0
 10
275.477881
 20
1192.354336
 30
0.0
 10
262.051400
 20
1205.780817
 30
0.0
 10
262.051400
 20
1222.343222
 30
0.0
  0
SPLINE
  5
188
100
AcDbEntity
  8
Layer_1
 62
7
100
AcDbSpline
 70
8
 71
3
 72
8
 73
4
 74
0
 40
0
 40
0
 40
0
 40
0
 40
1
 40
1
 40
1
 40
1
 10
262.051400
 20
1222.343222
 30
0.0
 10
262.051400
 20
1238.905622
 30
0.0
 10
275.477881
 20
1252.332103
 30
0.0
 10
292.040286
 20
1252.332103
 30
0.0
  0
SPLINE
  5
189
100
AcDbEntity
  8
Layer_1
 62
7
100
AcDbSpline
 70
8
 71
3
 72
8
 73
4
 74
0
 40
0
 40
0
 40
0
 40
0
 40
1
 40
1
 40
1
 40
1
 10
292.040286
 20
1252.332103
 30
0.0
 10
308.602691
 20
1252.332103
 30
0.0
 10
322.029167
 20
1238.905622
 30
0.0
 10
322.029167
 20
1222.343222
 30
0.0
  0
LWPOLYLINE
  5
18a
100
AcDbEntity
  8
Layer_1
 62
7
100
AcDbPolyline
 90
2
 70
0
 10
445.474696
 20
1273.419752
 30
0.0
 10
445.474696
 20
1273.419752
 30
0.0
  0
SPLINE
  5
18b
100
AcDbEntity
  8
Layer_1
 62
7
100
AcDbSpline
 70
8
 71
3
 72
8
 73
4
 74
0
 40
0
 40
0
 40
0
 40
0
 40
1
 40
1
 40
1
 40
1
 10
285.920708
 20
1070.374996
 30
0.0
 10
285.920708
 20
1059.370629
 30
0.0
 10
276.999929
 20
1050.449798
 30
0.0
 10
265.995562
 20
1050.449798
 30
0.0
  0
SPLINE
  5
18c
100
AcDbEntity
  8
Layer_1
 62
7
100
AcDbSpline
 70
8
 71
3
 72
8
 73
4
 74
0
 40
0
 40
0
 40
0
 40
0
 40
1
 40
1
 40
1
 40
1
 10
265.995562
 20
1050.449798
 30
0.0
 10
254.991143
 20
1050.449798
 30
0.0
 10
246.070365
 20
1059.370629
 30
0.0
 10
246.070365
 20
1070.374996
 30
0.0
  0
SPLINE
  5
18d
100
AcDbEntity
  8
Layer_1
 62
7
100
AcDbSpline
 70
8
 71
3
 72
8
 73
4
 74
0
 40
0
 40
0
 40
0
 40
0
 40
1
 40
1
 40
1
 40
1
 10
246.070365
 20
1070.374996
 30
0.0
 10
246.070365
 20
1081.379363
 30
0.0
 10
254.991143
 20
1090.300193
 30
0.0
 10
265.995562
 20
1090.300193
 30
0.0
  0
SPLINE
  5
18e
100
AcDbEntity
  8
Layer_1
 62
7
100
AcDbSpline
 70
8
 71
3
 72
8
 73
4
 74
0
 40
0
 40
0
 40
0
 40
0
 40
1
 40
1
 40
1
 40
1
 10
265.995562
 20
1090.300193
 30
0.0
 10
276.999929
 20
1090.300193
 30
0.0
 10
285.920708
 20
1081.379363
 30
0.0
 10
285.920708
 20
1070.374996
 30
0.0
  0
LWPOLYLINE
  5
18f
100
AcDbEntity
  8
Layer_1
 62
7
100
AcDbPolyline
 90
2
 70
0
 10
322.029167
 20
1222.343222
 30
0.0
 10
322.029167
 20
1222.343222
 30
0.0
  0
SPLINE
  5
190
100
AcDbEntity
  8
Layer_1
 62
7
100
AcDbSpline
 70
8
 71
3
 72
8
 73
4
 74
0
 40
0
 40
0
 40
0
 40
0
 40
1
 40
1
 40
1
 40
1
 10
857.180655
 20
1041.057504
 30
0.0
 10
857.180655
 20
1038.693470
 30
0.0
 10
855.262419
 20
1036.777016
 30
0.0
 10
852.896187
 20
1036.777016
 30
0.0
  0
SPLINE
  5
191
100
AcDbEntity
  8
Layer_1
 62
7
100
AcDbSpline
 70
8
 71
3
 72
8
 73
4
 74
0
 40
0
 40
0
 40
0
 40
0
 40
1
 40
1
 40
1
 40
1
 10
852.896187
 20
1036.777016
 30
0.0
 10
850.529954
 20
1036.777016
 30
0.0
 10
848.611719
 20
1038.693470
 30
0.0
 10
848.611719
 20
1041.057504
 30
0.0
  0
SPLINE
  5
192
100
AcDbEntity
  8
Layer_1
 62
7
100
AcDbSpline
 70
8
 71
3
 72
8
 73
4
 74
0
 40
0
 40
0
 40
0
 40
0
 40
1
 40
1
 40
1
 40
1
 10
848.611719
 20
1041.057504
 30
0.0
 10
848.611719
 20
1043.421539
 30
0.0
 10
850.529954
 20
1045.337992
 30
0.0
 10
852.896187
 20
1045.337992
 30
0.0
  0
SPLINE
  5
193
100
AcDbEntity
  8
Layer_1
 62
7
100
AcDbSpline
 70
8
 71
3
 72
8
 73
4
 74
0
 40
0
 40
0
 40
0
 40
0
 40
1
 40
1
 40
1
 40
1
 10
852.896187
 20
1045.337992
 30
0.0
 10
855.262419
 20
1045.337992
 30
0.0
 10
857.180655
 20
1043.421539
 30
0.0
 10
857.180655
 20
1041.057504
 30
0.0
  0
LWPOLYLINE
  5
194
100
AcDbEntity
  8
Layer_1
 62
7
100
AcDbPolyline
 90
2
 70
0
 10
285.920708
 20
1070.374996
 30
0.0
 10
285.920708
 20
1070.374996
 30
0.0
  0
LWPOLYLINE
  5
195
100
AcDbEntity
  8
Layer_1
 62
7
100
AcDbPolyline
 90
2
 70
0
 10
857.180655
 20
1041.057504
 30
0.0
 10
857.180655
 20
1041.057504
 30
0.0
  0
LWPOLYLINE
  5
196
100
AcDbEntity
  8
Layer_1
 62
7
100
AcDbPolyline
 90
5
 70
0
 10
882.391752
 20
1222.163328
 30
0.0
 10
899.706105
 20
1222.163328
 30
0.0
 10
899.706105
 20
1204.848975
 30
0.0
 10
882.391752
 20
1204.848975
 30
0.0
 10
882.391752
 20
1222.163328
 30
0.0
  0
LWPOLYLINE
  5
197
100
AcDbEntity
  8
Layer_1
 62
7
100
AcDbPolyline
 90
5
 70
0
 10
882.391752
 20
1122.521752
 30
0.0
 10
899.706105
 20
1122.521752
 30
0.0
 10
899.706105
 20
1105.207399
 30
0.0
 10
882.391752
 20
1105.207399
 30
0.0
 10
882.391752
 20
1122.521752
 30
0.0
  0
ENDSEC
  0
SECTION
  2
OBJECTS
  0
DICTIONARY
  5
C
330
0
100
AcDbDictionary
  3
ACAD_GROUP
350
D
  3
ACAD_MLINESTYLE
350
17
  0
DICTIONARY
  5
D
330
C
100
AcDbDictionary
  0
DICTIONARY
  5
1A
330
C
100
AcDbDictionary
  0
DICTIONARY
  5
17
330
C
100
AcDbDictionary
  3
STANDARD
350
18
  0
DICTIONARY
  5
19
330
C
100
AcDbDictionary
  0
ENDSEC
  0
EOF
