  0
SECTION
  2
HEADER
  9
$ACADVER
  1
AC1014
  9
$HANDSEED
  5
FFFF
  9
$MEASUREMENT
 70
     1
  0
ENDSEC
  0
SECTION
  2
TABLES
  0
TABLE
  2
VPORT
  5
8
330
0
100
AcDbSymbolTable
 70
     4
  0
VPORT
  5
2E
330
8
100
AcDbSymbolTableRecord
100
AcDbViewportTableRecord
  2
*ACTIVE
 70
     0
 10
0.0
 20
0.0
 11
1.0
 21
1.0
 12
210.0
 22
148.5
 13
0.0
 23
0.0
 14
10.0
 24
10.0
 15
10.0
 25
10.0
 16
0.0
 26
0.0
 36
1.0
 17
0.0
 27
0.0
 37
0.0
 40
341.0
 41
1.24
 42
50.0
 43
0.0
 44
0.0
 50
0.0
 51
0.0
 71
     0
 72
   100
 73
     1
 74
     3
 75
     0
 76
     0
 77
     0
 78
     0
  0
ENDTAB
  0
TABLE
  2
LTYPE
  5
5
330
0
100
AcDbSymbolTable
 70
     1
  0
LTYPE
  5
14
330
5
100
AcDbSymbolTableRecord
100
AcDbLinetypeTableRecord
  2
BYBLOCK
 70
     0
  3

 72
    65
 73
     0
 40
0.0
  0
LTYPE
  5
15
330
5
100
AcDbSymbolTableRecord
100
AcDbLinetypeTableRecord
  2
BYLAYER
 70
     0
  3

 72
    65
 73
     0
 40
0.0
  0
LTYPE
  5
16
330
5
100
AcDbSymbolTableRecord
100
AcDbLinetypeTableRecord
  2
CONTINUOUS
 70
     0
  3
Solid line
 72
    65
 73
     0
 40
0.0
  0
ENDTAB
  0
TABLE
  2
LAYER
  5
2
100
AcDbSymbolTable
 70
2
  0
LAYER
  5
50
100
AcDbSymbolTableRecord
100
AcDbLayerTableRecord
  2
0
 70
0
  6
CONTINUOUS
  0
LAYER
  5
51
100
AcDbSymbolTableRecord
100
AcDbLayerTableRecord
  2
Layer_1
 70
0
  6
CONTINUOUS
  0
ENDTAB
  0
TABLE
  2
STYLE
  5
3
330
0
100
AcDbSymbolTable
 70
     1
  0
STYLE
  5
11
330
3
100
AcDbSymbolTableRecord
100
AcDbTextStyleTableRecord
  2
STANDARD
 70
     0
 40
0.0
 41
1.0
 50
0.0
 71
     0
 42
2.5
  3
txt
  4

  0
ENDTAB
  0
TABLE
  2
VIEW
  5
6
330
0
100
AcDbSymbolTable
 70
     0
  0
ENDTAB
  0
TABLE
  2
UCS
  5
7
330
0
100
AcDbSymbolTable
 70
     0
  0
ENDTAB
  0
TABLE
  2
APPID
  5
9
330
0
100
AcDbSymbolTable
 70
     2
  0
APPID
  5
12
330
9
100
AcDbSymbolTableRecord
100
AcDbRegAppTableRecord
  2
ACAD
 70
     0
  0
ENDTAB
  0
TABLE
  2
DIMSTYLE
  5
A
330
0
100
AcDbSymbolTable
 70
     1
  0
DIMSTYLE
105
27
330
A
100
AcDbSymbolTableRecord
100
AcDbDimStyleTableRecord
  2
ISO-25
 70
     0
  3

  4

  5

  6

  7

 40
1.0
 41
2.5
 42
0.625
 43
3.75
 44
1.25
 45
0.0
 46
0.0
 47
0.0
 48
0.0
140
2.5
141
2.5
142
0.0
143
0.03937007874016
144
1.0
145
0.0
146
1.0
147
0.625
 71
     0
 72
     0
 73
     0
 74
     0
 75
     0
 76
     0
 77
     1
 78
     8
170
     0
171
     3
172
     1
173
     0
174
     0
175
     0
176
     0
177
     0
178
     0
270
     2
271
     2
272
     2
273
     2
274
     3
340
11
275
     0
280
     0
281
     0
282
     0
283
     0
284
     8
285
     0
286
     0
287
     3
288
     0
  0
ENDTAB
  0
TABLE
  2
BLOCK_RECORD
  5
1
330
0
100
AcDbSymbolTable
 70
     1
  0
BLOCK_RECORD
  5
1F
330
1
100
AcDbSymbolTableRecord
100
AcDbBlockTableRecord
  2
*MODEL_SPACE
  0
BLOCK_RECORD
  5
1B
330
1
100
AcDbSymbolTableRecord
100
AcDbBlockTableRecord
  2
*PAPER_SPACE
  0
ENDTAB
  0
ENDSEC
  0
SECTION
  2
BLOCKS
  0
BLOCK
  5
20
330
1F
100
AcDbEntity
  8
0
100
AcDbBlockBegin
  2
*MODEL_SPACE
 70
     0
 10
0.0
 20
0.0
 30
0.0
  3
*MODEL_SPACE
  1

  0
ENDBLK
  5
21
330
1F
100
AcDbEntity
  8
0
100
AcDbBlockEnd
  0
BLOCK
  5
1C
330
1B
100
AcDbEntity
 67
     1
  8
0
100
AcDbBlockBegin
  2
*PAPER_SPACE
  1

  0
ENDBLK
  5
1D
330
1B
100
AcDbEntity
 67
     1
  8
0
100
AcDbBlockEnd
  0
ENDSEC
  0
SECTION
  2
ENTITIES
  0
SPLINE
  5
100
100
AcDbEntity
  8
Layer_1
 62
7
100
AcDbSpline
 70
8
 71
3
 72
8
 73
4
 74
0
 40
0
 40
0
 40
0
 40
0
 40
1
 40
1
 40
1
 40
1
 10
708.936464
 20
816.155760
 30
0.0
 10
699.476544
 20
815.676480
 30
0.0
 10
691.961504
 20
807.835120
 30
0.0
 10
691.961504
 20
798.255760
 30
0.0
  0
SPLINE
  5
101
100
AcDbEntity
  8
Layer_1
 62
7
100
AcDbSpline
 70
8
 71
3
 72
8
 73
4
 74
0
 40
0
 40
0
 40
0
 40
0
 40
1
 40
1
 40
1
 40
1
 10
691.961504
 20
798.255760
 30
0.0
 10
691.961504
 20
788.367280
 30
0.0
 10
699.973104
 20
780.355760
 30
0.0
 10
709.861504
 20
780.355760
 30
0.0
  0
SPLINE
  5
102
100
AcDbEntity
  8
Layer_1
 62
7
100
AcDbSpline
 70
8
 71
3
 72
8
 73
4
 74
0
 40
0
 40
0
 40
0
 40
0
 40
1
 40
1
 40
1
 40
1
 10
709.861504
 20
780.355760
 30
0.0
 10
712.337904
 20
780.355760
 30
0.0
 10
714.698464
 20
780.856320
 30
0.0
 10
716.636464
 20
781.680720
 30
0.0
  0
LWPOLYLINE
  5
103
100
AcDbEntity
  8
Layer_1
 62
7
100
AcDbPolyline
 90
15
 70
0
 10
424.036464
 20
1197.930720
 30
0.0
 10
332.361504
 20
1099.830720
 30
0.0
 10
173.211504
 20
1103.605760
 30
0.0
 10
140.936464
 20
1041.105760
 30
0.0
 10
126.136464
 20
1048.805760
 30
0.0
 10
36.886544
 20
874.330720
 30
0.0
 10
132.236464
 20
745.605760
 30
0.0
 10
135.436464
 20
728.180720
 30
0.0
 10
162.711504
 20
728.180720
 30
0.0
 10
165.911504
 20
745.605760
 30
0.0
 10
197.986544
 20
773.455760
 30
0.0
 10
262.686544
 20
773.455760
 30
0.0
 10
326.536464
 20
802.480720
 30
0.0
 10
334.011504
 20
816.155760
 30
0.0
 10
708.936464
 20
816.155760
 30
0.0
  0
SPLINE
  5
104
100
AcDbEntity
  8
Layer_1
 62
7
100
AcDbSpline
 70
8
 71
3
 72
8
 73
4
 74
0
 40
0
 40
0
 40
0
 40
0
 40
1
 40
1
 40
1
 40
1
 10
1033.286544
 20
986.705760
 30
0.0
 10
1023.802064
 20
1061.928000
 30
0.0
 10
999.836544
 20
1085.105760
 30
0.0
 10
999.836464
 20
1085.105760
 30
0.0
  0
LWPOLYLINE
  5
105
100
AcDbEntity
  8
Layer_1
 62
7
100
AcDbPolyline
 90
20
 70
0
 10
716.636464
 20
781.680720
 30
0.0
 10
781.361504
 20
816.155760
 30
0.0
 10
885.961504
 20
816.155760
 30
0.0
 10
906.636464
 20
780.355760
 30
0.0
 10
956.186544
 20
816.155760
 30
0.0
 10
980.961504
 20
816.155760
 30
0.0
 10
1000.011504
 20
855.805760
 30
0.0
 10
1024.611504
 20
855.805760
 30
0.0
 10
1024.611504
 20
863.355760
 30
0.0
 10
1024.611504
 20
864.005760
 30
0.0
 10
1007.286544
 20
864.005760
 30
0.0
 10
1007.286544
 20
881.330720
 30
0.0
 10
1024.611504
 20
881.330720
 30
0.0
 10
1024.611504
 20
962.980720
 30
0.0
 10
1024.611504
 20
963.655760
 30
0.0
 10
1007.286544
 20
963.655760
 30
0.0
 10
1007.286544
 20
980.980720
 30
0.0
 10
1024.611504
 20
980.980720
 30
0.0
 10
1024.611504
 20
986.705760
 30
0.0
 10
1033.286544
 20
986.705760
 30
0.0
  0
LWPOLYLINE
  5
106
100
AcDbEntity
  8
Layer_1
 62
7
100
AcDbPolyline
 90
5
 70
0
 10
999.836464
 20
1085.105760
 30
0.0
 10
866.536464
 20
1088.005760
 30
0.0
 10
799.261504
 20
1197.930720
 30
0.0
 10
424.036464
 20
1197.930720
 30
0.0
 10
424.036464
 20
1197.930720
 30
0.0
  0
LWPOLYLINE
  5
107
100
AcDbEntity
  8
Layer_1
 62
7
100
AcDbPolyline
 90
4
 70
0
 10
777.380464
 20
1089.942080
 30
0.0
 10
754.330384
 20
1049.992080
 30
0.0
 10
456.255424
 20
1049.992080
 30
0.0
 10
428.805424
 20
1097.542080
 30
0.0
  0
LWPOLYLINE
  5
108
100
AcDbEntity
  8
Layer_1
 62
7
100
AcDbPolyline
 90
5
 70
0
 10
444.808944
 20
1012.477920
 30
0.0
 10
825.439424
 20
1012.477920
 30
0.0
 10
838.239504
 20
980.318480
 30
0.0
 10
428.808944
 20
980.318480
 30
0.0
 10
444.808944
 20
1012.477920
 30
0.0
  0
SPLINE
  5
109
100
AcDbEntity
  8
Layer_1
 62
7
100
AcDbSpline
 70
8
 71
3
 72
8
 73
4
 74
0
 40
0
 40
0
 40
0
 40
0
 40
1
 40
1
 40
1
 40
1
 10
367.998544
 20
886.109840
 30
0.0
 10
354.777264
 20
886.109840
 30
0.0
 10
344.059184
 20
896.827840
 30
0.0
 10
344.059184
 20
910.049200
 30
0.0
  0
SPLINE
  5
10a
100
AcDbEntity
  8
Layer_1
 62
7
100
AcDbSpline
 70
8
 71
3
 72
8
 73
4
 74
0
 40
0
 40
0
 40
0
 40
0
 40
1
 40
1
 40
1
 40
1
 10
344.059184
 20
910.049200
 30
0.0
 10
344.059184
 20
923.270560
 30
0.0
 10
354.777264
 20
933.988560
 30
0.0
 10
367.998624
 20
933.988560
 30
0.0
  0
LWPOLYLINE
  5
10b
100
AcDbEntity
  8
Layer_1
 62
7
100
AcDbPolyline
 90
4
 70
0
 10
667.819184
 20
921.875680
 30
0.0
 10
667.819184
 20
904.693920
 30
0.0
 10
649.235104
 20
886.109840
 30
0.0
 10
367.998544
 20
886.109840
 30
0.0
  0
LWPOLYLINE
  5
10c
100
AcDbEntity
  8
Layer_1
 62
7
100
AcDbPolyline
 90
4
 70
0
 10
367.998624
 20
933.988560
 30
0.0
 10
428.808944
 20
933.988480
 30
0.0
 10
440.921744
 20
921.875680
 30
0.0
 10
667.819184
 20
921.875680
 30
0.0
  0
LWPOLYLINE
  5
10d
100
AcDbEntity
  8
Layer_1
 62
7
100
AcDbPolyline
 90
2
 70
0
 10
428.808944
 20
1097.538800
 30
0.0
 10
466.788624
 20
1135.518480
 30
0.0
  0
LWPOLYLINE
  5
10e
100
AcDbEntity
  8
Layer_1
 62
7
100
AcDbPolyline
 90
2
 70
0
 10
777.391264
 20
1089.953680
 30
0.0
 10
743.513104
 20
1135.518480
 30
0.0
  0
SPLINE
  5
10f
100
AcDbEntity
  8
Layer_1
 62
7
100
AcDbSpline
 70
8
 71
3
 72
8
 73
4
 74
0
 40
0
 40
0
 40
0
 40
0
 40
1
 40
1
 40
1
 40
1
 10
964.607904
 20
970.535048
 30
0.0
 10
964.607904
 20
962.766152
 30
0.0
 10
958.309984
 20
956.468208
 30
0.0
 10
950.541104
 20
956.468208
 30
0.0
  0
SPLINE
  5
110
100
AcDbEntity
  8
Layer_1
 62
7
100
AcDbSpline
 70
8
 71
3
 72
8
 73
4
 74
0
 40
0
 40
0
 40
0
 40
0
 40
1
 40
1
 40
1
 40
1
 10
950.541104
 20
956.468208
 30
0.0
 10
942.772224
 20
956.468208
 30
0.0
 10
936.474224
 20
962.766152
 30
0.0
 10
936.474224
 20
970.535048
 30
0.0
  0
SPLINE
  5
111
100
AcDbEntity
  8
Layer_1
 62
7
100
AcDbSpline
 70
8
 71
3
 72
8
 73
4
 74
0
 40
0
 40
0
 40
0
 40
0
 40
1
 40
1
 40
1
 40
1
 10
936.474224
 20
970.535048
 30
0.0
 10
936.474224
 20
978.303944
 30
0.0
 10
942.772224
 20
984.601888
 30
0.0
 10
950.541104
 20
984.601888
 30
0.0
  0
SPLINE
  5
112
100
AcDbEntity
  8
Layer_1
 62
7
100
AcDbSpline
 70
8
 71
3
 72
8
 73
4
 74
0
 40
0
 40
0
 40
0
 40
0
 40
1
 40
1
 40
1
 40
1
 10
950.541104
 20
984.601888
 30
0.0
 10
958.309984
 20
984.601888
 30
0.0
 10
964.607904
 20
978.303944
 30
0.0
 10
964.607904
 20
970.535048
 30
0.0
  0
LWPOLYLINE
  5
113
100
AcDbEntity
  8
Layer_1
 62
7
100
AcDbPolyline
 90
2
 70
0
 10
466.788624
 20
1135.518480
 30
0.0
 10
743.513104
 20
1135.518480
 30
0.0
  0
SPLINE
  5
114
100
AcDbEntity
  8
Layer_1
 62
7
100
AcDbSpline
 70
8
 71
3
 72
8
 73
4
 74
0
 40
0
 40
0
 40
0
 40
0
 40
1
 40
1
 40
1
 40
1
 10
914.957104
 20
970.535048
 30
0.0
 10
914.957104
 20
962.766152
 30
0.0
 10
908.659184
 20
956.468208
 30
0.0
 10
900.890304
 20
956.468208
 30
0.0
  0
SPLINE
  5
115
100
AcDbEntity
  8
Layer_1
 62
7
100
AcDbSpline
 70
8
 71
3
 72
8
 73
4
 74
0
 40
0
 40
0
 40
0
 40
0
 40
1
 40
1
 40
1
 40
1
 10
900.890304
 20
956.468208
 30
0.0
 10
893.121424
 20
956.468208
 30
0.0
 10
886.823424
 20
962.766152
 30
0.0
 10
886.823424
 20
970.535048
 30
0.0
  0
SPLINE
  5
116
100
AcDbEntity
  8
Layer_1
 62
7
100
AcDbSpline
 70
8
 71
3
 72
8
 73
4
 74
0
 40
0
 40
0
 40
0
 40
0
 40
1
 40
1
 40
1
 40
1
 10
886.823424
 20
970.535048
 30
0.0
 10
886.823424
 20
978.303944
 30
0.0
 10
893.121424
 20
984.601888
 30
0.0
 10
900.890304
 20
984.601888
 30
0.0
  0
SPLINE
  5
117
100
AcDbEntity
  8
Layer_1
 62
7
100
AcDbSpline
 70
8
 71
3
 72
8
 73
4
 74
0
 40
0
 40
0
 40
0
 40
0
 40
1
 40
1
 40
1
 40
1
 10
900.890304
 20
984.601888
 30
0.0
 10
908.659184
 20
984.601888
 30
0.0
 10
914.957104
 20
978.303944
 30
0.0
 10
914.957104
 20
970.535048
 30
0.0
  0
LWPOLYLINE
  5
118
100
AcDbEntity
  8
Layer_1
 62
7
100
AcDbPolyline
 90
2
 70
0
 10
964.607904
 20
970.535048
 30
0.0
 10
964.607904
 20
970.535048
 30
0.0
  0
SPLINE
  5
119
100
AcDbEntity
  8
Layer_1
 62
7
100
AcDbSpline
 70
8
 71
3
 72
8
 73
4
 74
0
 40
0
 40
0
 40
0
 40
0
 40
1
 40
1
 40
1
 40
1
 10
939.782544
 20
927.536152
 30
0.0
 10
939.782544
 20
919.767256
 30
0.0
 10
933.484624
 20
913.469312
 30
0.0
 10
925.715744
 20
913.469312
 30
0.0
  0
SPLINE
  5
11a
100
AcDbEntity
  8
Layer_1
 62
7
100
AcDbSpline
 70
8
 71
3
 72
8
 73
4
 74
0
 40
0
 40
0
 40
0
 40
0
 40
1
 40
1
 40
1
 40
1
 10
925.715744
 20
913.469312
 30
0.0
 10
917.946864
 20
913.469312
 30
0.0
 10
911.648864
 20
919.767256
 30
0.0
 10
911.648864
 20
927.536152
 30
0.0
  0
SPLINE
  5
11b
100
AcDbEntity
  8
Layer_1
 62
7
100
AcDbSpline
 70
8
 71
3
 72
8
 73
4
 74
0
 40
0
 40
0
 40
0
 40
0
 40
1
 40
1
 40
1
 40
1
 10
911.648864
 20
927.536152
 30
0.0
 10
911.648864
 20
935.305048
 30
0.0
 10
917.946864
 20
941.602992
 30
0.0
 10
925.715744
 20
941.602992
 30
0.0
  0
SPLINE
  5
11c
100
AcDbEntity
  8
Layer_1
 62
7
100
AcDbSpline
 70
8
 71
3
 72
8
 73
4
 74
0
 40
0
 40
0
 40
0
 40
0
 40
1
 40
1
 40
1
 40
1
 10
925.715744
 20
941.602992
 30
0.0
 10
933.484624
 20
941.602992
 30
0.0
 10
939.782544
 20
935.305048
 30
0.0
 10
939.782544
 20
927.536152
 30
0.0
  0
LWPOLYLINE
  5
11d
100
AcDbEntity
  8
Layer_1
 62
7
100
AcDbPolyline
 90
2
 70
0
 10
914.957104
 20
970.535048
 30
0.0
 10
914.957104
 20
970.535048
 30
0.0
  0
SPLINE
  5
11e
100
AcDbEntity
  8
Layer_1
 62
7
100
AcDbSpline
 70
8
 71
3
 72
8
 73
4
 74
0
 40
0
 40
0
 40
0
 40
0
 40
1
 40
1
 40
1
 40
1
 10
341.323184
 20
1059.549760
 30
0.0
 10
341.323184
 20
1051.780880
 30
0.0
 10
335.025264
 20
1045.482960
 30
0.0
 10
327.256304
 20
1045.482960
 30
0.0
  0
SPLINE
  5
11f
100
AcDbEntity
  8
Layer_1
 62
7
100
AcDbSpline
 70
8
 71
3
 72
8
 73
4
 74
0
 40
0
 40
0
 40
0
 40
0
 40
1
 40
1
 40
1
 40
1
 10
327.256304
 20
1045.482960
 30
0.0
 10
319.487424
 20
1045.482960
 30
0.0
 10
313.189504
 20
1051.780880
 30
0.0
 10
313.189504
 20
1059.549760
 30
0.0
  0
SPLINE
  5
120
100
AcDbEntity
  8
Layer_1
 62
7
100
AcDbSpline
 70
8
 71
3
 72
8
 73
4
 74
0
 40
0
 40
0
 40
0
 40
0
 40
1
 40
1
 40
1
 40
1
 10
313.189504
 20
1059.549760
 30
0.0
 10
313.189504
 20
1067.318720
 30
0.0
 10
319.487424
 20
1073.616640
 30
0.0
 10
327.256304
 20
1073.616640
 30
0.0
  0
SPLINE
  5
121
100
AcDbEntity
  8
Layer_1
 62
7
100
AcDbSpline
 70
8
 71
3
 72
8
 73
4
 74
0
 40
0
 40
0
 40
0
 40
0
 40
1
 40
1
 40
1
 40
1
 10
327.256304
 20
1073.616640
 30
0.0
 10
335.025264
 20
1073.616640
 30
0.0
 10
341.323184
 20
1067.318720
 30
0.0
 10
341.323184
 20
1059.549760
 30
0.0
  0
LWPOLYLINE
  5
122
100
AcDbEntity
  8
Layer_1
 62
7
100
AcDbPolyline
 90
2
 70
0
 10
939.782544
 20
927.536152
 30
0.0
 10
939.782544
 20
927.536152
 30
0.0
  0
SPLINE
  5
123
100
AcDbEntity
  8
Layer_1
 62
7
100
AcDbSpline
 70
8
 71
3
 72
8
 73
4
 74
0
 40
0
 40
0
 40
0
 40
0
 40
1
 40
1
 40
1
 40
1
 10
291.672304
 20
1059.549760
 30
0.0
 10
291.672304
 20
1051.780880
 30
0.0
 10
285.374384
 20
1045.482960
 30
0.0
 10
277.605504
 20
1045.482960
 30
0.0
  0
SPLINE
  5
124
100
AcDbEntity
  8
Layer_1
 62
7
100
AcDbSpline
 70
8
 71
3
 72
8
 73
4
 74
0
 40
0
 40
0
 40
0
 40
0
 40
1
 40
1
 40
1
 40
1
 10
277.605504
 20
1045.482960
 30
0.0
 10
269.836624
 20
1045.482960
 30
0.0
 10
263.538624
 20
1051.780880
 30
0.0
 10
263.538624
 20
1059.549760
 30
0.0
  0
SPLINE
  5
125
100
AcDbEntity
  8
Layer_1
 62
7
100
AcDbSpline
 70
8
 71
3
 72
8
 73
4
 74
0
 40
0
 40
0
 40
0
 40
0
 40
1
 40
1
 40
1
 40
1
 10
263.538624
 20
1059.549760
 30
0.0
 10
263.538624
 20
1067.318720
 30
0.0
 10
269.836624
 20
1073.616640
 30
0.0
 10
277.605504
 20
1073.616640
 30
0.0
  0
SPLINE
  5
126
100
AcDbEntity
  8
Layer_1
 62
7
100
AcDbSpline
 70
8
 71
3
 72
8
 73
4
 74
0
 40
0
 40
0
 40
0
 40
0
 40
1
 40
1
 40
1
 40
1
 10
277.605504
 20
1073.616640
 30
0.0
 10
285.374384
 20
1073.616640
 30
0.0
 10
291.672304
 20
1067.318720
 30
0.0
 10
291.672304
 20
1059.549760
 30
0.0
  0
LWPOLYLINE
  5
127
100
AcDbEntity
  8
Layer_1
 62
7
100
AcDbPolyline
 90
2
 70
0
 10
341.323184
 20
1059.549760
 30
0.0
 10
341.323184
 20
1059.549760
 30
0.0
  0
SPLINE
  5
128
100
AcDbEntity
  8
Layer_1
 62
7
100
AcDbSpline
 70
8
 71
3
 72
8
 73
4
 74
0
 40
0
 40
0
 40
0
 40
0
 40
1
 40
1
 40
1
 40
1
 10
302.430944
 20
1030.625360
 30
0.0
 10
294.661984
 20
1030.625360
 30
0.0
 10
288.355904
 20
1024.319280
 30
0.0
 10
288.355904
 20
1016.550320
 30
0.0
  0
LWPOLYLINE
  5
129
100
AcDbEntity
  8
Layer_1
 62
7
100
AcDbPolyline
 90
2
 70
0
 10
291.672304
 20
1059.549760
 30
0.0
 10
291.672304
 20
1059.549760
 30
0.0
  0
SPLINE
  5
12a
100
AcDbEntity
  8
Layer_1
 62
7
100
AcDbSpline
 70
8
 71
3
 72
8
 73
4
 74
0
 40
0
 40
0
 40
0
 40
0
 40
1
 40
1
 40
1
 40
1
 10
316.505904
 20
1016.550320
 30
0.0
 10
316.505904
 20
1024.319280
 30
0.0
 10
310.199824
 20
1030.625360
 30
0.0
 10
302.430944
 20
1030.625360
 30
0.0
  0
LWPOLYLINE
  5
12b
100
AcDbEntity
  8
Layer_1
 62
7
100
AcDbPolyline
 90
4
 70
0
 10
288.355904
 20
1016.550320
 30
0.0
 10
288.355904
 20
977.825360
 30
0.0
 10
316.505904
 20
977.825360
 30
0.0
 10
316.505904
 20
1016.550320
 30
0.0
  0
SPLINE
  5
12c
100
AcDbEntity
  8
Layer_1
 62
7
100
AcDbSpline
 70
8
 71
3
 72
8
 73
4
 74
0
 40
0
 40
0
 40
0
 40
0
 40
1
 40
1
 40
1
 40
1
 10
178.985415
 20
979.548814
 30
0.0
 10
178.985415
 20
962.986409
 30
0.0
 10
165.558939
 20
949.559928
 30
0.0
 10
148.996534
 20
949.559928
 30
0.0
  0
SPLINE
  5
12d
100
AcDbEntity
  8
Layer_1
 62
7
100
AcDbSpline
 70
8
 71
3
 72
8
 73
4
 74
0
 40
0
 40
0
 40
0
 40
0
 40
1
 40
1
 40
1
 40
1
 10
148.996534
 20
949.559928
 30
0.0
 10
132.434129
 20
949.559928
 30
0.0
 10
119.007648
 20
962.986409
 30
0.0
 10
119.007648
 20
979.548814
 30
0.0
  0
SPLINE
  5
12e
100
AcDbEntity
  8
Layer_1
 62
7
100
AcDbSpline
 70
8
 71
3
 72
8
 73
4
 74
0
 40
0
 40
0
 40
0
 40
0
 40
1
 40
1
 40
1
 40
1
 10
119.007648
 20
979.548814
 30
0.0
 10
119.007648
 20
996.111214
 30
0.0
 10
132.434129
 20
1009.537695
 30
0.0
 10
148.996534
 20
1009.537695
 30
0.0
  0
SPLINE
  5
12f
100
AcDbEntity
  8
Layer_1
 62
7
100
AcDbSpline
 70
8
 71
3
 72
8
 73
4
 74
0
 40
0
 40
0
 40
0
 40
0
 40
1
 40
1
 40
1
 40
1
 10
148.996534
 20
1009.537695
 30
0.0
 10
165.558939
 20
1009.537695
 30
0.0
 10
178.985415
 20
996.111214
 30
0.0
 10
178.985415
 20
979.548814
 30
0.0
  0
LWPOLYLINE
  5
130
100
AcDbEntity
  8
Layer_1
 62
7
100
AcDbPolyline
 90
2
 70
0
 10
302.430944
 20
1030.625360
 30
0.0
 10
302.430944
 20
1030.625360
 30
0.0
  0
SPLINE
  5
131
100
AcDbEntity
  8
Layer_1
 62
7
100
AcDbSpline
 70
8
 71
3
 72
8
 73
4
 74
0
 40
0
 40
0
 40
0
 40
0
 40
1
 40
1
 40
1
 40
1
 10
142.876956
 20
827.580564
 30
0.0
 10
142.876956
 20
816.576197
 30
0.0
 10
133.956177
 20
807.655366
 30
0.0
 10
122.951810
 20
807.655366
 30
0.0
  0
SPLINE
  5
132
100
AcDbEntity
  8
Layer_1
 62
7
100
AcDbSpline
 70
8
 71
3
 72
8
 73
4
 74
0
 40
0
 40
0
 40
0
 40
0
 40
1
 40
1
 40
1
 40
1
 10
122.951810
 20
807.655366
 30
0.0
 10
111.947391
 20
807.655366
 30
0.0
 10
103.026613
 20
816.576197
 30
0.0
 10
103.026613
 20
827.580564
 30
0.0
  0
SPLINE
  5
133
100
AcDbEntity
  8
Layer_1
 62
7
100
AcDbSpline
 70
8
 71
3
 72
8
 73
4
 74
0
 40
0
 40
0
 40
0
 40
0
 40
1
 40
1
 40
1
 40
1
 10
103.026613
 20
827.580564
 30
0.0
 10
103.026613
 20
838.584931
 30
0.0
 10
111.947391
 20
847.505761
 30
0.0
 10
122.951810
 20
847.505761
 30
0.0
  0
SPLINE
  5
134
100
AcDbEntity
  8
Layer_1
 62
7
100
AcDbSpline
 70
8
 71
3
 72
8
 73
4
 74
0
 40
0
 40
0
 40
0
 40
0
 40
1
 40
1
 40
1
 40
1
 10
122.951810
 20
847.505761
 30
0.0
 10
133.956177
 20
847.505761
 30
0.0
 10
142.876956
 20
838.584931
 30
0.0
 10
142.876956
 20
827.580564
 30
0.0
  0
LWPOLYLINE
  5
135
100
AcDbEntity
  8
Layer_1
 62
7
100
AcDbPolyline
 90
2
 70
0
 10
178.985415
 20
979.548814
 30
0.0
 10
178.985415
 20
979.548814
 30
0.0
  0
LWPOLYLINE
  5
136
100
AcDbEntity
  8
Layer_1
 62
7
100
AcDbPolyline
 90
2
 70
0
 10
142.876956
 20
827.580564
 30
0.0
 10
142.876956
 20
827.580564
 30
0.0
  0
LWPOLYLINE
  5
137
100
AcDbEntity
  8
Layer_1
 62
7
100
AcDbPolyline
 90
5
 70
0
 10
972.662304
 20
980.968928
 30
0.0
 10
989.976657
 20
980.968928
 30
0.0
 10
989.976657
 20
963.654575
 30
0.0
 10
972.662304
 20
963.654575
 30
0.0
 10
972.662304
 20
980.968928
 30
0.0
  0
LWPOLYLINE
  5
138
100
AcDbEntity
  8
Layer_1
 62
7
100
AcDbPolyline
 90
5
 70
0
 10
972.662304
 20
881.327352
 30
0.0
 10
989.976657
 20
881.327352
 30
0.0
 10
989.976657
 20
864.012999
 30
0.0
 10
972.662304
 20
864.012999
 30
0.0
 10
972.662304
 20
881.327352
 30
0.0
  0
SPLINE
  5
139
100
AcDbEntity
  8
Layer_1
 62
7
100
AcDbSpline
 70
8
 71
3
 72
8
 73
4
 74
0
 40
0
 40
0
 40
0
 40
0
 40
1
 40
1
 40
1
 40
1
 10
713.220895
 20
798.255656
 30
0.0
 10
713.220895
 20
795.891622
 30
0.0
 10
711.302659
 20
793.975168
 30
0.0
 10
708.936427
 20
793.975168
 30
0.0
  0
SPLINE
  5
13a
100
AcDbEntity
  8
Layer_1
 62
7
100
AcDbSpline
 70
8
 71
3
 72
8
 73
4
 74
0
 40
0
 40
0
 40
0
 40
0
 40
1
 40
1
 40
1
 40
1
 10
708.936427
 20
793.975168
 30
0.0
 10
706.570194
 20
793.975168
 30
0.0
 10
704.651959
 20
795.891622
 30
0.0
 10
704.651959
 20
798.255656
 30
0.0
  0
SPLINE
  5
13b
100
AcDbEntity
  8
Layer_1
 62
7
100
AcDbSpline
 70
8
 71
3
 72
8
 73
4
 74
0
 40
0
 40
0
 40
0
 40
0
 40
1
 40
1
 40
1
 40
1
 10
704.651959
 20
798.255656
 30
0.0
 10
704.651959
 20
800.619691
 30
0.0
 10
706.570194
 20
802.536144
 30
0.0
 10
708.936427
 20
802.536144
 30
0.0
  0
SPLINE
  5
13c
100
AcDbEntity
  8
Layer_1
 62
7
100
AcDbSpline
 70
8
 71
3
 72
8
 73
4
 74
0
 40
0
 40
0
 40
0
 40
0
 40
1
 40
1
 40
1
 40
1
 10
708.936427
 20
802.536144
 30
0.0
 10
711.302659
 20
802.536144
 30
0.0
 10
713.220895
 20
800.619691
 30
0.0
 10
713.220895
 20
798.255656
 30
0.0
  0
LWPOLYLINE
  5
13d
100
AcDbEntity
  8
Layer_1
 62
7
100
AcDbPolyline
 90
5
 70
0
 10
968.702224
 20
946.340216
 30
0.0
 10
989.976753
 20
946.340216
 30
0.0
 10
989.976753
 20
898.641690
 30
0.0
 10
968.702224
 20
898.641690
 30
0.0
 10
968.702224
 20
946.340216
 30
0.0
  0
LWPOLYLINE
  5
13e
100
AcDbEntity
  8
Layer_1
 62
7
100
AcDbPolyline
 90
2
 70
0
 10
713.220895
 20
798.255656
 30
0.0
 10
713.220895
 20
798.255656
 30
0.0
  0
SPLINE
  5
13f
100
AcDbEntity
  8
Layer_1
 62
7
100
AcDbSpline
 70
8
 71
3
 72
8
 73
4
 74
0
 40
0
 40
0
 40
0
 40
0
 40
1
 40
1
 40
1
 40
1
 10
2105.467584
 20
144.671840
 30
0.0
 10
2095.579184
 20
144.671840
 30
0.0
 10
2087.567584
 20
136.660160
 30
0.0
 10
2087.567584
 20
126.771840
 30
0.0
  0
SPLINE
  5
140
100
AcDbEntity
  8
Layer_1
 62
7
100
AcDbSpline
 70
8
 71
3
 72
8
 73
4
 74
0
 40
0
 40
0
 40
0
 40
0
 40
1
 40
1
 40
1
 40
1
 10
2087.567584
 20
126.771840
 30
0.0
 10
2087.567584
 20
116.883360
 30
0.0
 10
2095.579184
 20
108.871840
 30
0.0
 10
2105.467584
 20
108.871840
 30
0.0
  0
SPLINE
  5
141
100
AcDbEntity
  8
Layer_1
 62
7
100
AcDbSpline
 70
8
 71
3
 72
8
 73
4
 74
0
 40
0
 40
0
 40
0
 40
0
 40
1
 40
1
 40
1
 40
1
 10
2105.467584
 20
108.871840
 30
0.0
 10
2107.943984
 20
108.871840
 30
0.0
 10
2110.304304
 20
109.372400
 30
0.0
 10
2112.242624
 20
110.196800
 30
0.0
  0
LWPOLYLINE
  5
142
100
AcDbEntity
  8
Layer_1
 62
7
100
AcDbPolyline
 90
15
 70
0
 10
1819.642624
 20
526.421760
 30
0.0
 10
1727.967584
 20
428.346800
 30
0.0
 10
1568.817584
 20
432.121760
 30
0.0
 10
1536.542624
 20
369.621760
 30
0.0
 10
1521.742624
 20
377.321760
 30
0.0
 10
1432.492544
 20
202.846800
 30
0.0
 10
1527.842624
 20
74.121760
 30
0.0
 10
1531.042624
 20
56.696800
 30
0.0
 10
1558.317584
 20
56.696800
 30
0.0
 10
1561.517584
 20
74.121760
 30
0.0
 10
1593.592544
 20
101.971840
 30
0.0
 10
1658.292544
 20
101.971840
 30
0.0
 10
1722.142624
 20
130.996800
 30
0.0
 10
1729.617584
 20
144.671840
 30
0.0
 10
2105.467584
 20
144.671840
 30
0.0
  0
SPLINE
  5
143
100
AcDbEntity
  8
Layer_1
 62
7
100
AcDbSpline
 70
8
 71
3
 72
8
 73
4
 74
0
 40
0
 40
0
 40
0
 40
0
 40
1
 40
1
 40
1
 40
1
 10
2428.892544
 20
315.221760
 30
0.0
 10
2419.408304
 20
390.444240
 30
0.0
 10
2395.442624
 20
413.621760
 30
0.0
 10
2395.442624
 20
413.621760
 30
0.0
  0
LWPOLYLINE
  5
144
100
AcDbEntity
  8
Layer_1
 62
7
100
AcDbPolyline
 90
20
 70
0
 10
2112.242624
 20
110.196800
 30
0.0
 10
2176.967584
 20
144.671840
 30
0.0
 10
2281.567584
 20
144.671840
 30
0.0
 10
2302.242624
 20
108.871840
 30
0.0
 10
2351.792544
 20
144.671840
 30
0.0
 10
2376.567584
 20
144.671840
 30
0.0
 10
2395.617584
 20
184.321760
 30
0.0
 10
2420.217584
 20
184.321760
 30
0.0
 10
2420.217584
 20
191.871840
 30
0.0
 10
2420.217584
 20
192.521760
 30
0.0
 10
2402.917584
 20
192.521760
 30
0.0
 10
2402.917584
 20
209.846800
 30
0.0
 10
2420.217584
 20
209.846800
 30
0.0
 10
2420.217584
 20
291.496800
 30
0.0
 10
2420.217584
 20
292.171840
 30
0.0
 10
2402.917584
 20
292.171840
 30
0.0
 10
2402.917584
 20
309.471840
 30
0.0
 10
2420.217584
 20
309.471840
 30
0.0
 10
2420.217584
 20
315.221760
 30
0.0
 10
2428.892544
 20
315.221760
 30
0.0
  0
LWPOLYLINE
  5
145
100
AcDbEntity
  8
Layer_1
 62
7
100
AcDbPolyline
 90
5
 70
0
 10
2395.442624
 20
413.621760
 30
0.0
 10
2262.167584
 20
416.521760
 30
0.0
 10
2194.867584
 20
526.421760
 30
0.0
 10
1819.642624
 20
526.421760
 30
0.0
 10
1819.642624
 20
526.421760
 30
0.0
  0
LWPOLYLINE
  5
146
100
AcDbEntity
  8
Layer_1
 62
7
100
AcDbPolyline
 90
5
 70
0
 10
2368.277424
 20
309.477728
 30
0.0
 10
2385.591777
 20
309.477728
 30
0.0
 10
2385.591777
 20
292.163375
 30
0.0
 10
2368.277424
 20
292.163375
 30
0.0
 10
2368.277424
 20
309.477728
 30
0.0
  0
LWPOLYLINE
  5
147
100
AcDbEntity
  8
Layer_1
 62
7
100
AcDbPolyline
 90
5
 70
0
 10
2368.277424
 20
209.836152
 30
0.0
 10
2385.591777
 20
209.836152
 30
0.0
 10
2385.591777
 20
192.521799
 30
0.0
 10
2368.277424
 20
192.521799
 30
0.0
 10
2368.277424
 20
209.836152
 30
0.0
  0
LWPOLYLINE
  5
148
100
AcDbEntity
  8
Layer_1
 62
7
100
AcDbPolyline
 90
5
 70
0
 10
2364.317344
 20
274.849016
 30
0.0
 10
2385.591873
 20
274.849016
 30
0.0
 10
2385.591873
 20
227.150490
 30
0.0
 10
2364.317344
 20
227.150490
 30
0.0
 10
2364.317344
 20
274.849016
 30
0.0
  0
LWPOLYLINE
  5
149
100
AcDbEntity
  8
Layer_1
 62
7
100
AcDbPolyline
 90
4
 70
0
 10
2172.995576
 20
418.450824
 30
0.0
 10
2149.945496
 20
378.500824
 30
0.0
 10
1851.870536
 20
378.500824
 30
0.0
 10
1824.420536
 20
426.050824
 30
0.0
  0
LWPOLYLINE
  5
14a
100
AcDbEntity
  8
Layer_1
 62
7
100
AcDbPolyline
 90
5
 70
0
 10
1840.424056
 20
340.986632
 30
0.0
 10
2221.054536
 20
340.986632
 30
0.0
 10
2233.854616
 20
308.827232
 30
0.0
 10
1824.424056
 20
308.827232
 30
0.0
 10
1840.424056
 20
340.986632
 30
0.0
  0
LWPOLYLINE
  5
14b
100
AcDbEntity
  8
Layer_1
 62
7
100
AcDbPolyline
 90
2
 70
0
 10
1824.424056
 20
426.047544
 30
0.0
 10
1862.403736
 20
464.027232
 30
0.0
  0
LWPOLYLINE
  5
14c
100
AcDbEntity
  8
Layer_1
 62
7
100
AcDbPolyline
 90
2
 70
0
 10
2173.006376
 20
418.462432
 30
0.0
 10
2139.128216
 20
464.027232
 30
0.0
  0
SPLINE
  5
14d
100
AcDbEntity
  8
Layer_1
 62
7
100
AcDbSpline
 70
8
 71
3
 72
8
 73
4
 74
0
 40
0
 40
0
 40
0
 40
0
 40
1
 40
1
 40
1
 40
1
 10
2360.223016
 20
299.043792
 30
0.0
 10
2360.223016
 20
291.274896
 30
0.0
 10
2353.925096
 20
284.976952
 30
0.0
 10
2346.156216
 20
284.976952
 30
0.0
  0
SPLINE
  5
14e
100
AcDbEntity
  8
Layer_1
 62
7
100
AcDbSpline
 70
8
 71
3
 72
8
 73
4
 74
0
 40
0
 40
0
 40
0
 40
0
 40
1
 40
1
 40
1
 40
1
 10
2346.156216
 20
284.976952
 30
0.0
 10
2338.387336
 20
284.976952
 30
0.0
 10
2332.089336
 20
291.274896
 30
0.0
 10
2332.089336
 20
299.043792
 30
0.0
  0
SPLINE
  5
14f
100
AcDbEntity
  8
Layer_1
 62
7
100
AcDbSpline
 70
8
 71
3
 72
8
 73
4
 74
0
 40
0
 40
0
 40
0
 40
0
 40
1
 40
1
 40
1
 40
1
 10
2332.089336
 20
299.043792
 30
0.0
 10
2332.089336
 20
306.812688
 30
0.0
 10
2338.387336
 20
313.110632
 30
0.0
 10
2346.156216
 20
313.110632
 30
0.0
  0
SPLINE
  5
150
100
AcDbEntity
  8
Layer_1
 62
7
100
AcDbSpline
 70
8
 71
3
 72
8
 73
4
 74
0
 40
0
 40
0
 40
0
 40
0
 40
1
 40
1
 40
1
 40
1
 10
2346.156216
 20
313.110632
 30
0.0
 10
2353.925096
 20
313.110632
 30
0.0
 10
2360.223016
 20
306.812688
 30
0.0
 10
2360.223016
 20
299.043792
 30
0.0
  0
LWPOLYLINE
  5
151
100
AcDbEntity
  8
Layer_1
 62
7
100
AcDbPolyline
 90
2
 70
0
 10
1862.403736
 20
464.027232
 30
0.0
 10
2139.128216
 20
464.027232
 30
0.0
  0
SPLINE
  5
152
100
AcDbEntity
  8
Layer_1
 62
7
100
AcDbSpline
 70
8
 71
3
 72
8
 73
4
 74
0
 40
0
 40
0
 40
0
 40
0
 40
1
 40
1
 40
1
 40
1
 10
2310.572216
 20
299.043792
 30
0.0
 10
2310.572216
 20
291.274896
 30
0.0
 10
2304.274296
 20
284.976952
 30
0.0
 10
2296.505416
 20
284.976952
 30
0.0
  0
SPLINE
  5
153
100
AcDbEntity
  8
Layer_1
 62
7
100
AcDbSpline
 70
8
 71
3
 72
8
 73
4
 74
0
 40
0
 40
0
 40
0
 40
0
 40
1
 40
1
 40
1
 40
1
 10
2296.505416
 20
284.976952
 30
0.0
 10
2288.736536
 20
284.976952
 30
0.0
 10
2282.438536
 20
291.274896
 30
0.0
 10
2282.438536
 20
299.043792
 30
0.0
  0
SPLINE
  5
154
100
AcDbEntity
  8
Layer_1
 62
7
100
AcDbSpline
 70
8
 71
3
 72
8
 73
4
 74
0
 40
0
 40
0
 40
0
 40
0
 40
1
 40
1
 40
1
 40
1
 10
2282.438536
 20
299.043792
 30
0.0
 10
2282.438536
 20
306.812688
 30
0.0
 10
2288.736536
 20
313.110632
 30
0.0
 10
2296.505416
 20
313.110632
 30
0.0
  0
SPLINE
  5
155
100
AcDbEntity
  8
Layer_1
 62
7
100
AcDbSpline
 70
8
 71
3
 72
8
 73
4
 74
0
 40
0
 40
0
 40
0
 40
0
 40
1
 40
1
 40
1
 40
1
 10
2296.505416
 20
313.110632
 30
0.0
 10
2304.274296
 20
313.110632
 30
0.0
 10
2310.572216
 20
306.812688
 30
0.0
 10
2310.572216
 20
299.043792
 30
0.0
  0
LWPOLYLINE
  5
156
100
AcDbEntity
  8
Layer_1
 62
7
100
AcDbPolyline
 90
2
 70
0
 10
2360.223016
 20
299.043792
 30
0.0
 10
2360.223016
 20
299.043792
 30
0.0
  0
SPLINE
  5
157
100
AcDbEntity
  8
Layer_1
 62
7
100
AcDbSpline
 70
8
 71
3
 72
8
 73
4
 74
0
 40
0
 40
0
 40
0
 40
0
 40
1
 40
1
 40
1
 40
1
 10
2335.397656
 20
256.044896
 30
0.0
 10
2335.397656
 20
248.276000
 30
0.0
 10
2329.099736
 20
241.978056
 30
0.0
 10
2321.330856
 20
241.978056
 30
0.0
  0
SPLINE
  5
158
100
AcDbEntity
  8
Layer_1
 62
7
100
AcDbSpline
 70
8
 71
3
 72
8
 73
4
 74
0
 40
0
 40
0
 40
0
 40
0
 40
1
 40
1
 40
1
 40
1
 10
2321.330856
 20
241.978056
 30
0.0
 10
2313.561976
 20
241.978056
 30
0.0
 10
2307.263976
 20
248.276000
 30
0.0
 10
2307.263976
 20
256.044896
 30
0.0
  0
SPLINE
  5
159
100
AcDbEntity
  8
Layer_1
 62
7
100
AcDbSpline
 70
8
 71
3
 72
8
 73
4
 74
0
 40
0
 40
0
 40
0
 40
0
 40
1
 40
1
 40
1
 40
1
 10
2307.263976
 20
256.044896
 30
0.0
 10
2307.263976
 20
263.813792
 30
0.0
 10
2313.561976
 20
270.111736
 30
0.0
 10
2321.330856
 20
270.111736
 30
0.0
  0
SPLINE
  5
15a
100
AcDbEntity
  8
Layer_1
 62
7
100
AcDbSpline
 70
8
 71
3
 72
8
 73
4
 74
0
 40
0
 40
0
 40
0
 40
0
 40
1
 40
1
 40
1
 40
1
 10
2321.330856
 20
270.111736
 30
0.0
 10
2329.099736
 20
270.111736
 30
0.0
 10
2335.397656
 20
263.813792
 30
0.0
 10
2335.397656
 20
256.044896
 30
0.0
  0
LWPOLYLINE
  5
15b
100
AcDbEntity
  8
Layer_1
 62
7
100
AcDbPolyline
 90
2
 70
0
 10
2310.572216
 20
299.043792
 30
0.0
 10
2310.572216
 20
299.043792
 30
0.0
  0
SPLINE
  5
15c
100
AcDbEntity
  8
Layer_1
 62
7
100
AcDbSpline
 70
8
 71
3
 72
8
 73
4
 74
0
 40
0
 40
0
 40
0
 40
0
 40
1
 40
1
 40
1
 40
1
 10
1736.938296
 20
388.058520
 30
0.0
 10
1736.938296
 20
380.289624
 30
0.0
 10
1730.640376
 20
373.991680
 30
0.0
 10
1722.871416
 20
373.991680
 30
0.0
  0
SPLINE
  5
15d
100
AcDbEntity
  8
Layer_1
 62
7
100
AcDbSpline
 70
8
 71
3
 72
8
 73
4
 74
0
 40
0
 40
0
 40
0
 40
0
 40
1
 40
1
 40
1
 40
1
 10
1722.871416
 20
373.991680
 30
0.0
 10
1715.102536
 20
373.991680
 30
0.0
 10
1708.804616
 20
380.289624
 30
0.0
 10
1708.804616
 20
388.058520
 30
0.0
  0
SPLINE
  5
15e
100
AcDbEntity
  8
Layer_1
 62
7
100
AcDbSpline
 70
8
 71
3
 72
8
 73
4
 74
0
 40
0
 40
0
 40
0
 40
0
 40
1
 40
1
 40
1
 40
1
 10
1708.804616
 20
388.058520
 30
0.0
 10
1708.804616
 20
395.827416
 30
0.0
 10
1715.102536
 20
402.125360
 30
0.0
 10
1722.871416
 20
402.125360
 30
0.0
  0
SPLINE
  5
15f
100
AcDbEntity
  8
Layer_1
 62
7
100
AcDbSpline
 70
8
 71
3
 72
8
 73
4
 74
0
 40
0
 40
0
 40
0
 40
0
 40
1
 40
1
 40
1
 40
1
 10
1722.871416
 20
402.125360
 30
0.0
 10
1730.640376
 20
402.125360
 30
0.0
 10
1736.938296
 20
395.827416
 30
0.0
 10
1736.938296
 20
388.058520
 30
0.0
  0
LWPOLYLINE
  5
160
100
AcDbEntity
  8
Layer_1
 62
7
100
AcDbPolyline
 90
2
 70
0
 10
2335.397656
 20
256.044896
 30
0.0
 10
2335.397656
 20
256.044896
 30
0.0
  0
SPLINE
  5
161
100
AcDbEntity
  8
Layer_1
 62
7
100
AcDbSpline
 70
8
 71
3
 72
8
 73
4
 74
0
 40
0
 40
0
 40
0
 40
0
 40
1
 40
1
 40
1
 40
1
 10
1687.287416
 20
388.058520
 30
0.0
 10
1687.287416
 20
380.289624
 30
0.0
 10
1680.989496
 20
373.991680
 30
0.0
 10
1673.220616
 20
373.991680
 30
0.0
  0
SPLINE
  5
162
100
AcDbEntity
  8
Layer_1
 62
7
100
AcDbSpline
 70
8
 71
3
 72
8
 73
4
 74
0
 40
0
 40
0
 40
0
 40
0
 40
1
 40
1
 40
1
 40
1
 10
1673.220616
 20
373.991680
 30
0.0
 10
1665.451736
 20
373.991680
 30
0.0
 10
1659.153736
 20
380.289624
 30
0.0
 10
1659.153736
 20
388.058520
 30
0.0
  0
SPLINE
  5
163
100
AcDbEntity
  8
Layer_1
 62
7
100
AcDbSpline
 70
8
 71
3
 72
8
 73
4
 74
0
 40
0
 40
0
 40
0
 40
0
 40
1
 40
1
 40
1
 40
1
 10
1659.153736
 20
388.058520
 30
0.0
 10
1659.153736
 20
395.827416
 30
0.0
 10
1665.451736
 20
402.125360
 30
0.0
 10
1673.220616
 20
402.125360
 30
0.0
  0
SPLINE
  5
164
100
AcDbEntity
  8
Layer_1
 62
7
100
AcDbSpline
 70
8
 71
3
 72
8
 73
4
 74
0
 40
0
 40
0
 40
0
 40
0
 40
1
 40
1
 40
1
 40
1
 10
1673.220616
 20
402.125360
 30
0.0
 10
1680.989496
 20
402.125360
 30
0.0
 10
1687.287416
 20
395.827416
 30
0.0
 10
1687.287416
 20
388.058520
 30
0.0
  0
LWPOLYLINE
  5
165
100
AcDbEntity
  8
Layer_1
 62
7
100
AcDbPolyline
 90
2
 70
0
 10
1736.938296
 20
388.058520
 30
0.0
 10
1736.938296
 20
388.058520
 30
0.0
  0
SPLINE
  5
166
100
AcDbEntity
  8
Layer_1
 62
7
100
AcDbSpline
 70
8
 71
3
 72
8
 73
4
 74
0
 40
0
 40
0
 40
0
 40
0
 40
1
 40
1
 40
1
 40
1
 10
1698.046056
 20
359.134072
 30
0.0
 10
1690.277096
 20
359.134072
 30
0.0
 10
1683.971016
 20
352.827968
 30
0.0
 10
1683.971016
 20
345.059072
 30
0.0
  0
LWPOLYLINE
  5
167
100
AcDbEntity
  8
Layer_1
 62
7
100
AcDbPolyline
 90
2
 70
0
 10
1687.287416
 20
388.058520
 30
0.0
 10
1687.287416
 20
388.058520
 30
0.0
  0
SPLINE
  5
168
100
AcDbEntity
  8
Layer_1
 62
7
100
AcDbSpline
 70
8
 71
3
 72
8
 73
4
 74
0
 40
0
 40
0
 40
0
 40
0
 40
1
 40
1
 40
1
 40
1
 10
1712.121016
 20
345.059072
 30
0.0
 10
1712.121016
 20
352.827968
 30
0.0
 10
1705.814936
 20
359.134072
 30
0.0
 10
1698.046056
 20
359.134072
 30
0.0
  0
LWPOLYLINE
  5
169
100
AcDbEntity
  8
Layer_1
 62
7
100
AcDbPolyline
 90
4
 70
0
 10
1683.971016
 20
345.059072
 30
0.0
 10
1683.971016
 20
306.334072
 30
0.0
 10
1712.121016
 20
306.334072
 30
0.0
 10
1712.121016
 20
345.059072
 30
0.0
  0
SPLINE
  5
16a
100
AcDbEntity
  8
Layer_1
 62
7
100
AcDbSpline
 70
8
 71
3
 72
8
 73
4
 74
0
 40
0
 40
0
 40
0
 40
0
 40
1
 40
1
 40
1
 40
1
 10
1574.600527
 20
308.057542
 30
0.0
 10
1574.600527
 20
291.495137
 30
0.0
 10
1561.174051
 20
278.068656
 30
0.0
 10
1544.611646
 20
278.068656
 30
0.0
  0
SPLINE
  5
16b
100
AcDbEntity
  8
Layer_1
 62
7
100
AcDbSpline
 70
8
 71
3
 72
8
 73
4
 74
0
 40
0
 40
0
 40
0
 40
0
 40
1
 40
1
 40
1
 40
1
 10
1544.611646
 20
278.068656
 30
0.0
 10
1528.049241
 20
278.068656
 30
0.0
 10
1514.622760
 20
291.495137
 30
0.0
 10
1514.622760
 20
308.057542
 30
0.0
  0
SPLINE
  5
16c
100
AcDbEntity
  8
Layer_1
 62
7
100
AcDbSpline
 70
8
 71
3
 72
8
 73
4
 74
0
 40
0
 40
0
 40
0
 40
0
 40
1
 40
1
 40
1
 40
1
 10
1514.622760
 20
308.057542
 30
0.0
 10
1514.622760
 20
324.619942
 30
0.0
 10
1528.049241
 20
338.046423
 30
0.0
 10
1544.611646
 20
338.046423
 30
0.0
  0
SPLINE
  5
16d
100
AcDbEntity
  8
Layer_1
 62
7
100
AcDbSpline
 70
8
 71
3
 72
8
 73
4
 74
0
 40
0
 40
0
 40
0
 40
0
 40
1
 40
1
 40
1
 40
1
 10
1544.611646
 20
338.046423
 30
0.0
 10
1561.174051
 20
338.046423
 30
0.0
 10
1574.600527
 20
324.619942
 30
0.0
 10
1574.600527
 20
308.057542
 30
0.0
  0
LWPOLYLINE
  5
16e
100
AcDbEntity
  8
Layer_1
 62
7
100
AcDbPolyline
 90
2
 70
0
 10
1698.046056
 20
359.134072
 30
0.0
 10
1698.046056
 20
359.134072
 30
0.0
  0
SPLINE
  5
16f
100
AcDbEntity
  8
Layer_1
 62
7
100
AcDbSpline
 70
8
 71
3
 72
8
 73
4
 74
0
 40
0
 40
0
 40
0
 40
0
 40
1
 40
1
 40
1
 40
1
 10
1538.492068
 20
156.089316
 30
0.0
 10
1538.492068
 20
145.084949
 30
0.0
 10
1529.571289
 20
136.164118
 30
0.0
 10
1518.566922
 20
136.164118
 30
0.0
  0
SPLINE
  5
170
100
AcDbEntity
  8
Layer_1
 62
7
100
AcDbSpline
 70
8
 71
3
 72
8
 73
4
 74
0
 40
0
 40
0
 40
0
 40
0
 40
1
 40
1
 40
1
 40
1
 10
1518.566922
 20
136.164118
 30
0.0
 10
1507.562503
 20
136.164118
 30
0.0
 10
1498.641725
 20
145.084949
 30
0.0
 10
1498.641725
 20
156.089316
 30
0.0
  0
SPLINE
  5
171
100
AcDbEntity
  8
Layer_1
 62
7
100
AcDbSpline
 70
8
 71
3
 72
8
 73
4
 74
0
 40
0
 40
0
 40
0
 40
0
 40
1
 40
1
 40
1
 40
1
 10
1498.641725
 20
156.089316
 30
0.0
 10
1498.641725
 20
167.093683
 30
0.0
 10
1507.562503
 20
176.014513
 30
0.0
 10
1518.566922
 20
176.014513
 30
0.0
  0
SPLINE
  5
172
100
AcDbEntity
  8
Layer_1
 62
7
100
AcDbSpline
 70
8
 71
3
 72
8
 73
4
 74
0
 40
0
 40
0
 40
0
 40
0
 40
1
 40
1
 40
1
 40
1
 10
1518.566922
 20
176.014513
 30
0.0
 10
1529.571289
 20
176.014513
 30
0.0
 10
1538.492068
 20
167.093683
 30
0.0
 10
1538.492068
 20
156.089316
 30
0.0
  0
LWPOLYLINE
  5
173
100
AcDbEntity
  8
Layer_1
 62
7
100
AcDbPolyline
 90
2
 70
0
 10
1574.600527
 20
308.057542
 30
0.0
 10
1574.600527
 20
308.057542
 30
0.0
  0
SPLINE
  5
174
100
AcDbEntity
  8
Layer_1
 62
7
100
AcDbSpline
 70
8
 71
3
 72
8
 73
4
 74
0
 40
0
 40
0
 40
0
 40
0
 40
1
 40
1
 40
1
 40
1
 10
2109.752015
 20
126.771824
 30
0.0
 10
2109.752015
 20
124.407790
 30
0.0
 10
2107.833779
 20
122.491336
 30
0.0
 10
2105.467547
 20
122.491336
 30
0.0
  0
SPLINE
  5
175
100
AcDbEntity
  8
Layer_1
 62
7
100
AcDbSpline
 70
8
 71
3
 72
8
 73
4
 74
0
 40
0
 40
0
 40
0
 40
0
 40
1
 40
1
 40
1
 40
1
 10
2105.467547
 20
122.491336
 30
0.0
 10
2103.101314
 20
122.491336
 30
0.0
 10
2101.183079
 20
124.407790
 30
0.0
 10
2101.183079
 20
126.771824
 30
0.0
  0
SPLINE
  5
176
100
AcDbEntity
  8
Layer_1
 62
7
100
AcDbSpline
 70
8
 71
3
 72
8
 73
4
 74
0
 40
0
 40
0
 40
0
 40
0
 40
1
 40
1
 40
1
 40
1
 10
2101.183079
 20
126.771824
 30
0.0
 10
2101.183079
 20
129.135859
 30
0.0
 10
2103.101314
 20
131.052312
 30
0.0
 10
2105.467547
 20
131.052312
 30
0.0
  0
SPLINE
  5
177
100
AcDbEntity
  8
Layer_1
 62
7
100
AcDbSpline
 70
8
 71
3
 72
8
 73
4
 74
0
 40
0
 40
0
 40
0
 40
0
 40
1
 40
1
 40
1
 40
1
 10
2105.467547
 20
131.052312
 30
0.0
 10
2107.833779
 20
131.052312
 30
0.0
 10
2109.752015
 20
129.135859
 30
0.0
 10
2109.752015
 20
126.771824
 30
0.0
  0
LWPOLYLINE
  5
178
100
AcDbEntity
  8
Layer_1
 62
7
100
AcDbPolyline
 90
2
 70
0
 10
1538.492068
 20
156.089316
 30
0.0
 10
1538.492068
 20
156.089316
 30
0.0
  0
LWPOLYLINE
  5
179
100
AcDbEntity
  8
Layer_1
 62
7
100
AcDbPolyline
 90
2
 70
0
 10
2109.752015
 20
126.771824
 30
0.0
 10
2109.752015
 20
126.771824
 30
0.0
  0
SPLINE
  5
17a
100
AcDbEntity
  8
Layer_1
 62
7
100
AcDbSpline
 70
8
 71
3
 72
8
 73
4
 74
0
 40
0
 40
0
 40
0
 40
0
 40
1
 40
1
 40
1
 40
1
 10
326.064050
 20
458.679328
 30
0.0
 10
254.632450
 20
445.425728
 30
0.0
 10
273.308210
 20
448.525328
 30
0.0
 10
213.489010
 20
451.529248
 30
0.0
  0
SPLINE
  5
17b
100
AcDbEntity
  8
Layer_1
 62
7
100
AcDbSpline
 70
8
 71
3
 72
8
 73
4
 74
0
 40
0
 40
0
 40
0
 40
0
 40
1
 40
1
 40
1
 40
1
 10
213.489010
 20
451.529248
 30
0.0
 10
206.747890
 20
451.867728
 30
0.0
 10
149.657890
 20
461.829648
 30
0.0
 10
143.064050
 20
462.454288
 30
0.0
  0
SPLINE
  5
17c
100
AcDbEntity
  8
Layer_1
 62
7
100
AcDbSpline
 70
8
 71
3
 72
8
 73
4
 74
0
 40
0
 40
0
 40
0
 40
0
 40
1
 40
1
 40
1
 40
1
 10
143.064050
 20
462.454288
 30
0.0
 10
117.054290
 20
464.918128
 30
0.0
 10
67.815810
 20
463.072928
 30
0.0
 10
37.514050
 20
463.929248
 30
0.0
  0
SPLINE
  5
17d
100
AcDbEntity
  8
Layer_1
 62
7
100
AcDbSpline
 70
8
 71
3
 72
8
 73
4
 74
0
 40
0
 40
0
 40
0
 40
0
 40
1
 40
1
 40
1
 40
1
 10
37.514050
 20
463.929248
 30
0.0
 10
37.118450
 20
464.098768
 30
0.0
 10
36.565010
 20
464.154288
 30
0.0
 10
35.989010
 20
464.154288
 30
0.0
  0
SPLINE
  5
17e
100
AcDbEntity
  8
Layer_1
 62
7
100
AcDbSpline
 70
8
 71
3
 72
8
 73
4
 74
0
 40
0
 40
0
 40
0
 40
0
 40
1
 40
1
 40
1
 40
1
 10
35.989010
 20
464.154288
 30
0.0
 10
30.245250
 20
464.154288
 30
0.0
 10
25.586610
 20
459.503568
 30
0.0
 10
25.589010
 20
454.154288
 30
0.0
  0
SPLINE
  5
17f
100
AcDbEntity
  8
Layer_1
 62
7
100
AcDbSpline
 70
8
 71
3
 72
8
 73
4
 74
0
 40
0
 40
0
 40
0
 40
0
 40
1
 40
1
 40
1
 40
1
 10
25.589010
 20
454.154288
 30
0.0
 10
30.904130
 20
369.876208
 30
0.0
 10
35.100450
 20
283.203464
 30
0.0
 10
25.589010
 20
171.779304
 30
0.0
  0
SPLINE
  5
180
100
AcDbEntity
  8
Layer_1
 62
7
100
AcDbSpline
 70
8
 71
3
 72
8
 73
4
 74
0
 40
0
 40
0
 40
0
 40
0
 40
1
 40
1
 40
1
 40
1
 10
25.589010
 20
171.779304
 30
0.0
 10
25.589090
 20
166.989384
 30
0.0
 10
28.739330
 20
162.994264
 30
0.0
 10
32.889010
 20
161.679304
 30
0.0
  0
SPLINE
  5
181
100
AcDbEntity
  8
Layer_1
 62
7
100
AcDbSpline
 70
8
 71
3
 72
8
 73
4
 74
0
 40
0
 40
0
 40
0
 40
0
 40
1
 40
1
 40
1
 40
1
 10
32.889010
 20
161.679304
 30
0.0
 10
122.025090
 20
141.448104
 30
0.0
 10
224.046370
 20
143.558184
 30
0.0
 10
336.164050
 20
163.304264
 30
0.0
  0
LWPOLYLINE
  5
182
100
AcDbEntity
  8
Layer_1
 62
7
100
AcDbPolyline
 90
6
 70
0
 10
627.989010
 20
615.604288
 30
0.0
 10
536.289010
 20
517.529248
 30
0.0
 10
377.164050
 20
521.304288
 30
0.0
 10
344.889010
 20
458.804288
 30
0.0
 10
330.089010
 20
466.504288
 30
0.0
 10
326.064050
 20
458.679328
 30
0.0
  0
SPLINE
  5
183
100
AcDbEntity
  8
Layer_1
 62
7
100
AcDbSpline
 70
8
 71
3
 72
8
 73
4
 74
0
 40
0
 40
0
 40
0
 40
0
 40
1
 40
1
 40
1
 40
1
 10
506.789010
 20
14.879304
 30
0.0
 10
585.064450
 20
14.879304
 30
0.0
 10
637.213650
 20
6.404264
 30
0.0
 10
715.489010
 20
6.404264
 30
0.0
  0
SPLINE
  5
184
100
AcDbEntity
  8
Layer_1
 62
7
100
AcDbSpline
 70
8
 71
3
 72
8
 73
4
 74
0
 40
0
 40
0
 40
0
 40
0
 40
1
 40
1
 40
1
 40
1
 10
715.489010
 20
6.404264
 30
0.0
 10
718.166450
 20
1.900584
 30
0.0
 10
724.824690
 20
-1.805016
 30
0.0
 10
740.614050
 20
1.054264
 30
0.0
  0
SPLINE
  5
185
100
AcDbEntity
  8
Layer_1
 62
7
100
AcDbSpline
 70
8
 71
3
 72
8
 73
4
 74
0
 40
0
 40
0
 40
0
 40
0
 40
1
 40
1
 40
1
 40
1
 10
740.614050
 20
1.054264
 30
0.0
 10
772.688130
 20
6.862424
 30
0.0
 10
756.629890
 20
5.296104
 30
0.0
 10
794.364050
 20
11.104264
 30
0.0
  0
SPLINE
  5
186
100
AcDbEntity
  8
Layer_1
 62
7
100
AcDbSpline
 70
8
 71
3
 72
8
 73
4
 74
0
 40
0
 40
0
 40
0
 40
0
 40
1
 40
1
 40
1
 40
1
 10
794.364050
 20
11.104264
 30
0.0
 10
832.098130
 20
16.912424
 30
0.0
 10
920.789010
 20
70.154264
 30
0.0
 10
920.789010
 20
70.154264
 30
0.0
  0
LWPOLYLINE
  5
187
100
AcDbEntity
  8
Layer_1
 62
7
100
AcDbPolyline
 90
6
 70
0
 10
336.164050
 20
163.304264
 30
0.0
 10
339.389010
 20
145.879304
 30
0.0
 10
366.664050
 20
145.879304
 30
0.0
 10
369.864050
 20
163.304264
 30
0.0
 10
401.939010
 20
191.154264
 30
0.0
 10
506.789010
 20
14.879304
 30
0.0
  0
SPLINE
  5
188
100
AcDbEntity
  8
Layer_1
 62
7
100
AcDbSpline
 70
8
 71
3
 72
8
 73
4
 74
0
 40
0
 40
0
 40
0
 40
0
 40
1
 40
1
 40
1
 40
1
 10
937.764050
 20
96.304264
 30
0.0
 10
937.764050
 20
96.304264
 30
0.0
 10
952.852050
 20
121.466104
 30
0.0
 10
968.889010
 20
95.329224
 30
0.0
  0
SPLINE
  5
189
100
AcDbEntity
  8
Layer_1
 62
7
100
AcDbSpline
 70
8
 71
3
 72
8
 73
4
 74
0
 40
0
 40
0
 40
0
 40
0
 40
1
 40
1
 40
1
 40
1
 10
968.889010
 20
95.329224
 30
0.0
 10
984.925970
 20
69.192504
 30
0.0
 10
987.764050
 20
42.079304
 30
0.0
 10
987.764050
 20
42.079304
 30
0.0
  0
LWPOLYLINE
  5
18a
100
AcDbEntity
  8
Layer_1
 62
7
100
AcDbPolyline
 90
2
 70
0
 10
920.789010
 20
70.154264
 30
0.0
 10
937.764050
 20
96.304264
 30
0.0
  0
SPLINE
  5
18b
100
AcDbEntity
  8
Layer_1
 62
7
100
AcDbSpline
 70
8
 71
3
 72
8
 73
4
 74
0
 40
0
 40
0
 40
0
 40
0
 40
1
 40
1
 40
1
 40
1
 10
1138.064050
 20
36.629224
 30
0.0
 10
1182.089490
 20
59.217704
 30
0.0
 10
1180.087570
 20
59.235704
 30
0.0
 10
1211.439090
 20
109.204264
 30
0.0
  0
SPLINE
  5
18c
100
AcDbEntity
  8
Layer_1
 62
7
100
AcDbSpline
 70
8
 71
3
 72
8
 73
4
 74
0
 40
0
 40
0
 40
0
 40
0
 40
1
 40
1
 40
1
 40
1
 10
1211.439090
 20
109.204264
 30
0.0
 10
1242.790530
 20
159.172744
 30
0.0
 10
1272.139090
 20
166.454264
 30
0.0
 10
1272.139090
 20
166.454264
 30
0.0
  0
LWPOLYLINE
  5
18d
100
AcDbEntity
  8
Layer_1
 62
7
100
AcDbPolyline
 90
5
 70
0
 10
987.764050
 20
42.079304
 30
0.0
 10
987.764050
 20
18.854264
 30
0.0
 10
1068.814050
 20
18.854264
 30
0.0
 10
1084.839090
 20
35.304264
 30
0.0
 10
1138.064050
 20
36.629224
 30
0.0
  0
SPLINE
  5
18e
100
AcDbEntity
  8
Layer_1
 62
7
100
AcDbSpline
 70
8
 71
3
 72
8
 73
4
 74
0
 40
0
 40
0
 40
0
 40
0
 40
1
 40
1
 40
1
 40
1
 10
1272.139090
 20
225.479304
 30
0.0
 10
1252.314130
 20
224.116824
 30
0.0
 10
1236.665490
 20
239.912264
 30
0.0
 10
1220.764050
 20
254.654264
 30
0.0
  0
LWPOLYLINE
  5
18f
100
AcDbEntity
  8
Layer_1
 62
7
100
AcDbPolyline
 90
2
 70
0
 10
1272.139090
 20
166.454264
 30
0.0
 10
1272.139090
 20
225.479304
 30
0.0
  0
SPLINE
  5
190
100
AcDbEntity
  8
Layer_1
 62
7
100
AcDbSpline
 70
8
 71
3
 72
8
 73
4
 74
0
 40
0
 40
0
 40
0
 40
0
 40
1
 40
1
 40
1
 40
1
 10
898.139090
 20
208.579304
 30
0.0
 10
898.139090
 20
208.579304
 30
0.0
 10
919.848530
 20
163.084584
 30
0.0
 10
867.964050
 20
153.404264
 30
0.0
  0
SPLINE
  5
191
100
AcDbEntity
  8
Layer_1
 62
7
100
AcDbSpline
 70
8
 71
3
 72
8
 73
4
 74
0
 40
0
 40
0
 40
0
 40
0
 40
1
 40
1
 40
1
 40
1
 10
867.964050
 20
153.404264
 30
0.0
 10
867.964050
 20
153.404264
 30
0.0
 10
840.554370
 20
144.024664
 30
0.0
 10
817.914050
 20
129.504264
 30
0.0
  0
SPLINE
  5
192
100
AcDbEntity
  8
Layer_1
 62
7
100
AcDbSpline
 70
8
 71
3
 72
8
 73
4
 74
0
 40
0
 40
0
 40
0
 40
0
 40
1
 40
1
 40
1
 40
1
 10
817.914050
 20
129.504264
 30
0.0
 10
817.914050
 20
129.504264
 30
0.0
 10
792.497010
 20
112.175144
 30
0.0
 10
736.839090
 20
115.079304
 30
0.0
  0
SPLINE
  5
193
100
AcDbEntity
  8
Layer_1
 62
7
100
AcDbSpline
 70
8
 71
3
 72
8
 73
4
 74
0
 40
0
 40
0
 40
0
 40
0
 40
1
 40
1
 40
1
 40
1
 10
736.839090
 20
115.079304
 30
0.0
 10
736.839090
 20
115.079304
 30
0.0
 10
724.122210
 20
117.739544
 30
0.0
 10
717.689010
 20
106.154264
 30
0.0
  0
LWPOLYLINE
  5
194
100
AcDbEntity
  8
Layer_1
 62
7
100
AcDbPolyline
 90
5
 70
0
 10
1220.764050
 20
254.654264
 30
0.0
 10
1220.764050
 20
273.504264
 30
0.0
 10
883.914050
 20
273.504264
 30
0.0
 10
883.814050
 20
234.029224
 30
0.0
 10
898.139090
 20
208.579304
 30
0.0
  0
SPLINE
  5
195
100
AcDbEntity
  8
Layer_1
 62
7
100
AcDbSpline
 70
8
 71
3
 72
8
 73
4
 74
0
 40
0
 40
0
 40
0
 40
0
 40
1
 40
1
 40
1
 40
1
 10
1231.064050
 20
439.504288
 30
0.0
 10
1221.878530
 20
483.414848
 30
0.0
 10
1203.789010
 20
502.804288
 30
0.0
 10
1203.789010
 20
502.804288
 30
0.0
  0
LWPOLYLINE
  5
196
100
AcDbEntity
  8
Layer_1
 62
7
100
AcDbPolyline
 90
5
 70
0
 10
717.689010
 20
106.154264
 30
0.0
 10
563.089010
 20
112.954264
 30
0.0
 10
507.014050
 20
209.529224
 30
0.0
 10
507.014050
 20
439.504288
 30
0.0
 10
1231.064050
 20
439.504288
 30
0.0
  0
LWPOLYLINE
  5
197
100
AcDbEntity
  8
Layer_1
 62
7
100
AcDbPolyline
 90
7
 70
0
 10
1203.789010
 20
502.804288
 30
0.0
 10
1070.489010
 20
505.704288
 30
0.0
 10
1015.214050
 20
596.004288
 30
0.0
 10
701.864050
 20
596.004288
 30
0.0
 10
701.864050
 20
615.604288
 30
0.0
 10
627.989010
 20
615.604288
 30
0.0
 10
627.989010
 20
615.604288
 30
0.0
  0
SPLINE
  5
198
100
AcDbEntity
  8
Layer_1
 62
7
100
AcDbSpline
 70
8
 71
3
 72
8
 73
4
 74
0
 40
0
 40
0
 40
0
 40
0
 40
1
 40
1
 40
1
 40
1
 10
1024.164050
 20
205.604264
 30
0.0
 10
1051.868130
 20
205.604264
 30
0.0
 10
1074.339090
 20
189.408344
 30
0.0
 10
1074.339090
 20
169.429224
 30
0.0
  0
LWPOLYLINE
  5
199
100
AcDbEntity
  8
Layer_1
 62
7
100
AcDbPolyline
 90
8
 70
0
 10
670.739090
 20
553.204288
 30
0.0
 10
947.464050
 20
553.204288
 30
0.0
 10
981.339090
 20
507.629248
 30
0.0
 10
958.289010
 20
467.679328
 30
0.0
 10
660.214050
 20
467.679328
 30
0.0
 10
632.764050
 20
515.229248
 30
0.0
 10
670.739090
 20
553.204288
 30
0.0
 10
670.739090
 20
553.204288
 30
0.0
  0
SPLINE
  5
19a
100
AcDbEntity
  8
Layer_1
 62
7
100
AcDbSpline
 70
8
 71
3
 72
8
 73
4
 74
0
 40
0
 40
0
 40
0
 40
0
 40
1
 40
1
 40
1
 40
1
 10
1074.339090
 20
169.379624
 30
0.0
 10
1099.597330
 20
167.960024
 30
0.0
 10
1119.664050
 20
144.234424
 30
0.0
 10
1119.664050
 20
115.179624
 30
0.0
  0
SPLINE
  5
19b
100
AcDbEntity
  8
Layer_1
 62
7
100
AcDbSpline
 70
8
 71
3
 72
8
 73
4
 74
0
 40
0
 40
0
 40
0
 40
0
 40
1
 40
1
 40
1
 40
1
 10
1119.664050
 20
115.179624
 30
0.0
 10
1119.664050
 20
85.211384
 30
0.0
 10
1098.286290
 20
60.904584
 30
0.0
 10
1071.914050
 20
60.904584
 30
0.0
  0
SPLINE
  5
19c
100
AcDbEntity
  8
Layer_1
 62
7
100
AcDbSpline
 70
8
 71
3
 72
8
 73
4
 74
0
 40
0
 40
0
 40
0
 40
0
 40
1
 40
1
 40
1
 40
1
 10
1071.914050
 20
60.904584
 30
0.0
 10
1045.541890
 20
60.904584
 30
0.0
 10
1024.164050
 20
85.211384
 30
0.0
 10
1024.164050
 20
115.179624
 30
0.0
  0
SPLINE
  5
19d
100
AcDbEntity
  8
Layer_1
 62
7
100
AcDbSpline
 70
8
 71
3
 72
8
 73
4
 74
0
 40
0
 40
0
 40
0
 40
0
 40
1
 40
1
 40
1
 40
1
 10
1024.164050
 20
115.179624
 30
0.0
 10
1024.164050
 20
121.545864
 30
0.0
 10
1025.141650
 20
127.653944
 30
0.0
 10
1026.914050
 20
133.329544
 30
0.0
  0
SPLINE
  5
19e
100
AcDbEntity
  8
Layer_1
 62
7
100
AcDbSpline
 70
8
 71
3
 72
8
 73
4
 74
0
 40
0
 40
0
 40
0
 40
0
 40
1
 40
1
 40
1
 40
1
 10
1026.914050
 20
133.329544
 30
0.0
 10
1026.009010
 20
133.294344
 30
0.0
 10
1025.081170
 20
133.254344
 30
0.0
 10
1024.164050
 20
133.254344
 30
0.0
  0
SPLINE
  5
19f
100
AcDbEntity
  8
Layer_1
 62
7
100
AcDbSpline
 70
8
 71
3
 72
8
 73
4
 74
0
 40
0
 40
0
 40
0
 40
0
 40
1
 40
1
 40
1
 40
1
 10
1024.164050
 20
133.254344
 30
0.0
 10
996.459890
 20
133.254344
 30
0.0
 10
974.014050
 20
149.450344
 30
0.0
 10
974.014050
 20
169.429304
 30
0.0
  0
SPLINE
  5
1a0
100
AcDbEntity
  8
Layer_1
 62
7
100
AcDbSpline
 70
8
 71
3
 72
8
 73
4
 74
0
 40
0
 40
0
 40
0
 40
0
 40
1
 40
1
 40
1
 40
1
 10
974.014050
 20
169.429304
 30
0.0
 10
974.014050
 20
189.408344
 30
0.0
 10
996.459890
 20
205.604424
 30
0.0
 10
1024.164050
 20
205.604344
 30
0.0
  0
LWPOLYLINE
  5
1a1
100
AcDbEntity
  8
Layer_1
 62
7
100
AcDbPolyline
 90
2
 70
0
 10
1074.339090
 20
169.429224
 30
0.0
 10
1074.339090
 20
169.379624
 30
0.0
  0
SPLINE
  5
1a2
100
AcDbEntity
  8
Layer_1
 62
7
100
AcDbSpline
 70
8
 71
3
 72
8
 73
4
 74
0
 40
0
 40
0
 40
0
 40
0
 40
1
 40
1
 40
1
 40
1
 10
918.098401
 20
215.954341
 30
0.0
 10
918.098401
 20
213.590306
 30
0.0
 10
916.180166
 20
211.673853
 30
0.0
 10
913.813933
 20
211.673853
 30
0.0
  0
SPLINE
  5
1a3
100
AcDbEntity
  8
Layer_1
 62
7
100
AcDbSpline
 70
8
 71
3
 72
8
 73
4
 74
0
 40
0
 40
0
 40
0
 40
0
 40
1
 40
1
 40
1
 40
1
 10
913.813933
 20
211.673853
 30
0.0
 10
911.447700
 20
211.673853
 30
0.0
 10
909.529465
 20
213.590306
 30
0.0
 10
909.529465
 20
215.954341
 30
0.0
  0
SPLINE
  5
1a4
100
AcDbEntity
  8
Layer_1
 62
7
100
AcDbSpline
 70
8
 71
3
 72
8
 73
4
 74
0
 40
0
 40
0
 40
0
 40
0
 40
1
 40
1
 40
1
 40
1
 10
909.529465
 20
215.954341
 30
0.0
 10
909.529465
 20
218.318376
 30
0.0
 10
911.447700
 20
220.234829
 30
0.0
 10
913.813933
 20
220.234829
 30
0.0
  0
SPLINE
  5
1a5
100
AcDbEntity
  8
Layer_1
 62
7
100
AcDbSpline
 70
8
 71
3
 72
8
 73
4
 74
0
 40
0
 40
0
 40
0
 40
0
 40
1
 40
1
 40
1
 40
1
 10
913.813933
 20
220.234829
 30
0.0
 10
916.180166
 20
220.234829
 30
0.0
 10
918.098401
 20
218.318376
 30
0.0
 10
918.098401
 20
215.954341
 30
0.0
  0
LWPOLYLINE
  5
1a6
100
AcDbEntity
  8
Layer_1
 62
7
100
AcDbPolyline
 90
2
 70
0
 10
1024.164050
 20
205.604344
 30
0.0
 10
1024.164050
 20
205.604264
 30
0.0
  0
LWPOLYLINE
  5
1a7
100
AcDbEntity
  8
Layer_1
 62
7
100
AcDbPolyline
 90
2
 70
0
 10
918.098401
 20
215.954341
 30
0.0
 10
918.098401
 20
215.954341
 30
0.0
  0
SPLINE
  5
1a8
100
AcDbEntity
  8
Layer_1
 62
7
100
AcDbSpline
 70
8
 71
3
 72
8
 73
4
 74
0
 40
0
 40
0
 40
0
 40
0
 40
1
 40
1
 40
1
 40
1
 10
300.525040
 20
1768.647632
 30
0.0
 10
229.093440
 20
1755.394032
 30
0.0
 10
247.769200
 20
1758.493632
 30
0.0
 10
187.950000
 20
1761.497552
 30
0.0
  0
SPLINE
  5
1a9
100
AcDbEntity
  8
Layer_1
 62
7
100
AcDbSpline
 70
8
 71
3
 72
8
 73
4
 74
0
 40
0
 40
0
 40
0
 40
0
 40
1
 40
1
 40
1
 40
1
 10
187.950000
 20
1761.497552
 30
0.0
 10
181.208880
 20
1761.836032
 30
0.0
 10
124.118880
 20
1771.797952
 30
0.0
 10
117.525040
 20
1772.422592
 30
0.0
  0
SPLINE
  5
1aa
100
AcDbEntity
  8
Layer_1
 62
7
100
AcDbSpline
 70
8
 71
3
 72
8
 73
4
 74
0
 40
0
 40
0
 40
0
 40
0
 40
1
 40
1
 40
1
 40
1
 10
117.525040
 20
1772.422592
 30
0.0
 10
91.515280
 20
1774.886432
 30
0.0
 10
42.276800
 20
1773.041232
 30
0.0
 10
11.975040
 20
1773.897552
 30
0.0
  0
SPLINE
  5
1ab
100
AcDbEntity
  8
Layer_1
 62
7
100
AcDbSpline
 70
8
 71
3
 72
8
 73
4
 74
0
 40
0
 40
0
 40
0
 40
0
 40
1
 40
1
 40
1
 40
1
 10
11.975040
 20
1773.897552
 30
0.0
 10
11.579440
 20
1774.067072
 30
0.0
 10
11.026000
 20
1774.122592
 30
0.0
 10
10.450000
 20
1774.122592
 30
0.0
  0
SPLINE
  5
1ac
100
AcDbEntity
  8
Layer_1
 62
7
100
AcDbSpline
 70
8
 71
3
 72
8
 73
4
 74
0
 40
0
 40
0
 40
0
 40
0
 40
1
 40
1
 40
1
 40
1
 10
10.450000
 20
1774.122592
 30
0.0
 10
4.706240
 20
1774.122592
 30
0.0
 10
0.047600
 20
1769.471872
 30
0.0
 10
0.050000
 20
1764.122592
 30
0.0
  0
SPLINE
  5
1ad
100
AcDbEntity
  8
Layer_1
 62
7
100
AcDbSpline
 70
8
 71
3
 72
8
 73
4
 74
0
 40
0
 40
0
 40
0
 40
0
 40
1
 40
1
 40
1
 40
1
 10
0.050000
 20
1764.122592
 30
0.0
 10
5.365120
 20
1679.844512
 30
0.0
 10
9.561440
 20
1593.171784
 30
0.0
 10
0.050000
 20
1481.747624
 30
0.0
  0
SPLINE
  5
1ae
100
AcDbEntity
  8
Layer_1
 62
7
100
AcDbSpline
 70
8
 71
3
 72
8
 73
4
 74
0
 40
0
 40
0
 40
0
 40
0
 40
1
 40
1
 40
1
 40
1
 10
0.050000
 20
1481.747624
 30
0.0
 10
0.050080
 20
1476.957704
 30
0.0
 10
3.200320
 20
1472.962584
 30
0.0
 10
7.350000
 20
1471.647624
 30
0.0
  0
SPLINE
  5
1af
100
AcDbEntity
  8
Layer_1
 62
7
100
AcDbSpline
 70
8
 71
3
 72
8
 73
4
 74
0
 40
0
 40
0
 40
0
 40
0
 40
1
 40
1
 40
1
 40
1
 10
7.350000
 20
1471.647624
 30
0.0
 10
96.486080
 20
1451.416424
 30
0.0
 10
198.507360
 20
1453.526504
 30
0.0
 10
310.625040
 20
1473.272584
 30
0.0
  0
LWPOLYLINE
  5
1b0
100
AcDbEntity
  8
Layer_1
 62
7
100
AcDbPolyline
 90
6
 70
0
 10
602.450000
 20
1925.572640
 30
0.0
 10
510.749999
 20
1827.497520
 30
0.0
 10
351.625040
 20
1831.272560
 30
0.0
 10
319.350000
 20
1768.772592
 30
0.0
 10
304.550000
 20
1776.472592
 30
0.0
 10
300.525040
 20
1768.647632
 30
0.0
  0
SPLINE
  5
1b1
100
AcDbEntity
  8
Layer_1
 62
7
100
AcDbSpline
 70
8
 71
3
 72
8
 73
4
 74
0
 40
0
 40
0
 40
0
 40
0
 40
1
 40
1
 40
1
 40
1
 10
481.249999
 20
1324.847624
 30
0.0
 10
559.525440
 20
1324.847624
 30
0.0
 10
611.674640
 20
1316.372584
 30
0.0
 10
689.950000
 20
1316.372584
 30
0.0
  0
SPLINE
  5
1b2
100
AcDbEntity
  8
Layer_1
 62
7
100
AcDbSpline
 70
8
 71
3
 72
8
 73
4
 74
0
 40
0
 40
0
 40
0
 40
0
 40
1
 40
1
 40
1
 40
1
 10
689.950000
 20
1316.372584
 30
0.0
 10
692.627440
 20
1311.868904
 30
0.0
 10
699.285680
 20
1308.163304
 30
0.0
 10
715.075040
 20
1311.022584
 30
0.0
  0
SPLINE
  5
1b3
100
AcDbEntity
  8
Layer_1
 62
7
100
AcDbSpline
 70
8
 71
3
 72
8
 73
4
 74
0
 40
0
 40
0
 40
0
 40
0
 40
1
 40
1
 40
1
 40
1
 10
715.075040
 20
1311.022584
 30
0.0
 10
747.149120
 20
1316.830744
 30
0.0
 10
731.090880
 20
1315.264424
 30
0.0
 10
768.825040
 20
1321.072584
 30
0.0
  0
SPLINE
  5
1b4
100
AcDbEntity
  8
Layer_1
 62
7
100
AcDbSpline
 70
8
 71
3
 72
8
 73
4
 74
0
 40
0
 40
0
 40
0
 40
0
 40
1
 40
1
 40
1
 40
1
 10
768.825040
 20
1321.072584
 30
0.0
 10
806.559120
 20
1326.880744
 30
0.0
 10
895.250000
 20
1380.122584
 30
0.0
 10
895.250000
 20
1380.122584
 30
0.0
  0
LWPOLYLINE
  5
1b5
100
AcDbEntity
  8
Layer_1
 62
7
100
AcDbPolyline
 90
6
 70
0
 10
310.625040
 20
1473.272584
 30
0.0
 10
313.850000
 20
1455.847624
 30
0.0
 10
341.125040
 20
1455.847624
 30
0.0
 10
344.325040
 20
1473.272584
 30
0.0
 10
376.399999
 20
1501.122584
 30
0.0
 10
481.249999
 20
1324.847624
 30
0.0
  0
SPLINE
  5
1b6
100
AcDbEntity
  8
Layer_1
 62
7
100
AcDbSpline
 70
8
 71
3
 72
8
 73
4
 74
0
 40
0
 40
0
 40
0
 40
0
 40
1
 40
1
 40
1
 40
1
 10
912.225040
 20
1406.272584
 30
0.0
 10
912.225040
 20
1406.272584
 30
0.0
 10
927.313040
 20
1431.434424
 30
0.0
 10
943.350000
 20
1405.297544
 30
0.0
  0
SPLINE
  5
1b7
100
AcDbEntity
  8
Layer_1
 62
7
100
AcDbSpline
 70
8
 71
3
 72
8
 73
4
 74
0
 40
0
 40
0
 40
0
 40
0
 40
1
 40
1
 40
1
 40
1
 10
943.350000
 20
1405.297544
 30
0.0
 10
959.386960
 20
1379.160824
 30
0.0
 10
962.225040
 20
1352.047624
 30
0.0
 10
962.225040
 20
1352.047624
 30
0.0
  0
LWPOLYLINE
  5
1b8
100
AcDbEntity
  8
Layer_1
 62
7
100
AcDbPolyline
 90
2
 70
0
 10
895.250000
 20
1380.122584
 30
0.0
 10
912.225040
 20
1406.272584
 30
0.0
  0
SPLINE
  5
1b9
100
AcDbEntity
  8
Layer_1
 62
7
100
AcDbSpline
 70
8
 71
3
 72
8
 73
4
 74
0
 40
0
 40
0
 40
0
 40
0
 40
1
 40
1
 40
1
 40
1
 10
1112.525040
 20
1346.597544
 30
0.0
 10
1156.550480
 20
1369.186024
 30
0.0
 10
1154.548560
 20
1369.204024
 30
0.0
 10
1185.900080
 20
1419.172584
 30
0.0
  0
SPLINE
  5
1ba
100
AcDbEntity
  8
Layer_1
 62
7
100
AcDbSpline
 70
8
 71
3
 72
8
 73
4
 74
0
 40
0
 40
0
 40
0
 40
0
 40
1
 40
1
 40
1
 40
1
 10
1185.900080
 20
1419.172584
 30
0.0
 10
1217.251520
 20
1469.141064
 30
0.0
 10
1246.600064
 20
1476.422584
 30
0.0
 10
1246.600064
 20
1476.422584
 30
0.0
  0
LWPOLYLINE
  5
1bb
100
AcDbEntity
  8
Layer_1
 62
7
100
AcDbPolyline
 90
5
 70
0
 10
962.225040
 20
1352.047624
 30
0.0
 10
962.225040
 20
1328.822584
 30
0.0
 10
1043.275040
 20
1328.822584
 30
0.0
 10
1059.300080
 20
1345.272584
 30
0.0
 10
1112.525040
 20
1346.597544
 30
0.0
  0
SPLINE
  5
1bc
100
AcDbEntity
  8
Layer_1
 62
7
100
AcDbSpline
 70
8
 71
3
 72
8
 73
4
 74
0
 40
0
 40
0
 40
0
 40
0
 40
1
 40
1
 40
1
 40
1
 10
1246.600064
 20
1535.447624
 30
0.0
 10
1226.775040
 20
1534.085144
 30
0.0
 10
1211.126480
 20
1549.880584
 30
0.0
 10
1195.225040
 20
1564.622584
 30
0.0
  0
LWPOLYLINE
  5
1bd
100
AcDbEntity
  8
Layer_1
 62
7
100
AcDbPolyline
 90
2
 70
0
 10
1246.600064
 20
1476.422584
 30
0.0
 10
1246.600064
 20
1535.447624
 30
0.0
  0
SPLINE
  5
1be
100
AcDbEntity
  8
Layer_1
 62
7
100
AcDbSpline
 70
8
 71
3
 72
8
 73
4
 74
0
 40
0
 40
0
 40
0
 40
0
 40
1
 40
1
 40
1
 40
1
 10
872.600080
 20
1518.547624
 30
0.0
 10
872.600080
 20
1518.547624
 30
0.0
 10
894.309520
 20
1473.052904
 30
0.0
 10
842.425040
 20
1463.372584
 30
0.0
  0
SPLINE
  5
1bf
100
AcDbEntity
  8
Layer_1
 62
7
100
AcDbSpline
 70
8
 71
3
 72
8
 73
4
 74
0
 40
0
 40
0
 40
0
 40
0
 40
1
 40
1
 40
1
 40
1
 10
842.425040
 20
1463.372584
 30
0.0
 10
842.425040
 20
1463.372584
 30
0.0
 10
815.015360
 20
1453.992984
 30
0.0
 10
792.375040
 20
1439.472584
 30
0.0
  0
SPLINE
  5
1c0
100
AcDbEntity
  8
Layer_1
 62
7
100
AcDbSpline
 70
8
 71
3
 72
8
 73
4
 74
0
 40
0
 40
0
 40
0
 40
0
 40
1
 40
1
 40
1
 40
1
 10
792.375040
 20
1439.472584
 30
0.0
 10
792.375040
 20
1439.472584
 30
0.0
 10
766.958000
 20
1422.143464
 30
0.0
 10
711.300080
 20
1425.047624
 30
0.0
  0
SPLINE
  5
1c1
100
AcDbEntity
  8
Layer_1
 62
7
100
AcDbSpline
 70
8
 71
3
 72
8
 73
4
 74
0
 40
0
 40
0
 40
0
 40
0
 40
1
 40
1
 40
1
 40
1
 10
711.300080
 20
1425.047624
 30
0.0
 10
711.300080
 20
1425.047624
 30
0.0
 10
698.583200
 20
1427.707864
 30
0.0
 10
692.149920
 20
1416.122584
 30
0.0
  0
LWPOLYLINE
  5
1c2
100
AcDbEntity
  8
Layer_1
 62
7
100
AcDbPolyline
 90
5
 70
0
 10
1195.225040
 20
1564.622584
 30
0.0
 10
1195.225040
 20
1583.472584
 30
0.0
 10
858.375040
 20
1583.472584
 30
0.0
 10
858.275040
 20
1543.997544
 30
0.0
 10
872.600080
 20
1518.547624
 30
0.0
  0
SPLINE
  5
1c3
100
AcDbEntity
  8
Layer_1
 62
7
100
AcDbSpline
 70
8
 71
3
 72
8
 73
4
 74
0
 40
0
 40
0
 40
0
 40
0
 40
1
 40
1
 40
1
 40
1
 10
1205.524960
 20
1749.472592
 30
0.0
 10
1196.339440
 20
1793.383120
 30
0.0
 10
1178.249920
 20
1812.772560
 30
0.0
 10
1178.249920
 20
1812.772560
 30
0.0
  0
LWPOLYLINE
  5
1c4
100
AcDbEntity
  8
Layer_1
 62
7
100
AcDbPolyline
 90
5
 70
0
 10
692.149920
 20
1416.122584
 30
0.0
 10
537.549920
 20
1422.922584
 30
0.0
 10
481.474959
 20
1519.497544
 30
0.0
 10
481.474959
 20
1749.472592
 30
0.0
 10
1205.524960
 20
1749.472592
 30
0.0
  0
LWPOLYLINE
  5
1c5
100
AcDbEntity
  8
Layer_1
 62
7
100
AcDbPolyline
 90
7
 70
0
 10
1178.249920
 20
1812.772560
 30
0.0
 10
1044.949920
 20
1815.672560
 30
0.0
 10
989.674960
 20
1905.972640
 30
0.0
 10
676.324960
 20
1905.972640
 30
0.0
 10
676.324960
 20
1925.572640
 30
0.0
 10
602.449920
 20
1925.572640
 30
0.0
 10
602.450000
 20
1925.572640
 30
0.0
  0
SPLINE
  5
1c6
100
AcDbEntity
  8
Layer_1
 62
7
100
AcDbSpline
 70
8
 71
3
 72
8
 73
4
 74
0
 40
0
 40
0
 40
0
 40
0
 40
1
 40
1
 40
1
 40
1
 10
998.625040
 20
1515.572584
 30
0.0
 10
1026.329120
 20
1515.572584
 30
0.0
 10
1048.800080
 20
1499.376664
 30
0.0
 10
1048.800080
 20
1479.397544
 30
0.0
  0
LWPOLYLINE
  5
1c7
100
AcDbEntity
  8
Layer_1
 62
7
100
AcDbPolyline
 90
8
 70
0
 10
645.200080
 20
1863.172560
 30
0.0
 10
921.925040
 20
1863.172560
 30
0.0
 10
955.800080
 20
1817.597520
 30
0.0
 10
932.750000
 20
1777.647632
 30
0.0
 10
634.675040
 20
1777.647632
 30
0.0
 10
607.225040
 20
1825.197520
 30
0.0
 10
645.200080
 20
1863.172560
 30
0.0
 10
645.200080
 20
1863.172560
 30
0.0
  0
SPLINE
  5
1c8
100
AcDbEntity
  8
Layer_1
 62
7
100
AcDbSpline
 70
8
 71
3
 72
8
 73
4
 74
0
 40
0
 40
0
 40
0
 40
0
 40
1
 40
1
 40
1
 40
1
 10
1048.800080
 20
1479.347944
 30
0.0
 10
1074.058320
 20
1477.928344
 30
0.0
 10
1094.125040
 20
1454.202744
 30
0.0
 10
1094.125040
 20
1425.147944
 30
0.0
  0
SPLINE
  5
1c9
100
AcDbEntity
  8
Layer_1
 62
7
100
AcDbSpline
 70
8
 71
3
 72
8
 73
4
 74
0
 40
0
 40
0
 40
0
 40
0
 40
1
 40
1
 40
1
 40
1
 10
1094.125040
 20
1425.147944
 30
0.0
 10
1094.125040
 20
1395.179704
 30
0.0
 10
1072.747280
 20
1370.872904
 30
0.0
 10
1046.375040
 20
1370.872904
 30
0.0
  0
SPLINE
  5
1ca
100
AcDbEntity
  8
Layer_1
 62
7
100
AcDbSpline
 70
8
 71
3
 72
8
 73
4
 74
0
 40
0
 40
0
 40
0
 40
0
 40
1
 40
1
 40
1
 40
1
 10
1046.375040
 20
1370.872904
 30
0.0
 10
1020.002880
 20
1370.872904
 30
0.0
 10
998.625040
 20
1395.179704
 30
0.0
 10
998.625040
 20
1425.147944
 30
0.0
  0
SPLINE
  5
1cb
100
AcDbEntity
  8
Layer_1
 62
7
100
AcDbSpline
 70
8
 71
3
 72
8
 73
4
 74
0
 40
0
 40
0
 40
0
 40
0
 40
1
 40
1
 40
1
 40
1
 10
998.625040
 20
1425.147944
 30
0.0
 10
998.625040
 20
1431.514184
 30
0.0
 10
999.602640
 20
1437.622264
 30
0.0
 10
1001.375040
 20
1443.297864
 30
0.0
  0
SPLINE
  5
1cc
100
AcDbEntity
  8
Layer_1
 62
7
100
AcDbSpline
 70
8
 71
3
 72
8
 73
4
 74
0
 40
0
 40
0
 40
0
 40
0
 40
1
 40
1
 40
1
 40
1
 10
1001.375040
 20
1443.297864
 30
0.0
 10
1000.470000
 20
1443.262664
 30
0.0
 10
999.542160
 20
1443.222664
 30
0.0
 10
998.625040
 20
1443.222664
 30
0.0
  0
SPLINE
  5
1cd
100
AcDbEntity
  8
Layer_1
 62
7
100
AcDbSpline
 70
8
 71
3
 72
8
 73
4
 74
0
 40
0
 40
0
 40
0
 40
0
 40
1
 40
1
 40
1
 40
1
 10
998.625040
 20
1443.222664
 30
0.0
 10
970.920880
 20
1443.222664
 30
0.0
 10
948.475040
 20
1459.418664
 30
0.0
 10
948.475040
 20
1479.397624
 30
0.0
  0
SPLINE
  5
1ce
100
AcDbEntity
  8
Layer_1
 62
7
100
AcDbSpline
 70
8
 71
3
 72
8
 73
4
 74
0
 40
0
 40
0
 40
0
 40
0
 40
1
 40
1
 40
1
 40
1
 10
948.475040
 20
1479.397624
 30
0.0
 10
948.475040
 20
1499.376664
 30
0.0
 10
970.920880
 20
1515.572744
 30
0.0
 10
998.625040
 20
1515.572664
 30
0.0
  0
LWPOLYLINE
  5
1cf
100
AcDbEntity
  8
Layer_1
 62
7
100
AcDbPolyline
 90
2
 70
0
 10
1048.800080
 20
1479.397544
 30
0.0
 10
1048.800080
 20
1479.347944
 30
0.0
  0
SPLINE
  5
1d0
100
AcDbEntity
  8
Layer_1
 62
7
100
AcDbSpline
 70
8
 71
3
 72
8
 73
4
 74
0
 40
0
 40
0
 40
0
 40
0
 40
1
 40
1
 40
1
 40
1
 10
892.559391
 20
1525.922696
 30
0.0
 10
892.559391
 20
1523.558662
 30
0.0
 10
890.641155
 20
1521.642208
 30
0.0
 10
888.274923
 20
1521.642208
 30
0.0
  0
SPLINE
  5
1d1
100
AcDbEntity
  8
Layer_1
 62
7
100
AcDbSpline
 70
8
 71
3
 72
8
 73
4
 74
0
 40
0
 40
0
 40
0
 40
0
 40
1
 40
1
 40
1
 40
1
 10
888.274923
 20
1521.642208
 30
0.0
 10
885.908690
 20
1521.642208
 30
0.0
 10
883.990455
 20
1523.558662
 30
0.0
 10
883.990455
 20
1525.922696
 30
0.0
  0
SPLINE
  5
1d2
100
AcDbEntity
  8
Layer_1
 62
7
100
AcDbSpline
 70
8
 71
3
 72
8
 73
4
 74
0
 40
0
 40
0
 40
0
 40
0
 40
1
 40
1
 40
1
 40
1
 10
883.990455
 20
1525.922696
 30
0.0
 10
883.990455
 20
1528.286731
 30
0.0
 10
885.908690
 20
1530.203184
 30
0.0
 10
888.274923
 20
1530.203184
 30
0.0
  0
SPLINE
  5
1d3
100
AcDbEntity
  8
Layer_1
 62
7
100
AcDbSpline
 70
8
 71
3
 72
8
 73
4
 74
0
 40
0
 40
0
 40
0
 40
0
 40
1
 40
1
 40
1
 40
1
 10
888.274923
 20
1530.203184
 30
0.0
 10
890.641155
 20
1530.203184
 30
0.0
 10
892.559391
 20
1528.286731
 30
0.0
 10
892.559391
 20
1525.922696
 30
0.0
  0
LWPOLYLINE
  5
1d4
100
AcDbEntity
  8
Layer_1
 62
7
100
AcDbPolyline
 90
2
 70
0
 10
998.625040
 20
1515.572664
 30
0.0
 10
998.625040
 20
1515.572584
 30
0.0
  0
LWPOLYLINE
  5
1d5
100
AcDbEntity
  8
Layer_1
 62
7
100
AcDbPolyline
 90
2
 70
0
 10
892.559391
 20
1525.922696
 30
0.0
 10
892.559391
 20
1525.922696
 30
0.0
  0
SPLINE
  5
1d6
100
AcDbEntity
  8
Layer_1
 62
7
100
AcDbSpline
 70
8
 71
3
 72
8
 73
4
 74
0
 40
0
 40
0
 40
0
 40
0
 40
1
 40
1
 40
1
 40
1
 10
1611.064480
 20
1807.637845
 30
0.0
 10
1539.632880
 20
1794.384245
 30
0.0
 10
1558.308640
 20
1797.483845
 30
0.0
 10
1498.489440
 20
1800.487765
 30
0.0
  0
SPLINE
  5
1d7
100
AcDbEntity
  8
Layer_1
 62
7
100
AcDbSpline
 70
8
 71
3
 72
8
 73
4
 74
0
 40
0
 40
0
 40
0
 40
0
 40
1
 40
1
 40
1
 40
1
 10
1498.489440
 20
1800.487765
 30
0.0
 10
1491.748320
 20
1800.826245
 30
0.0
 10
1434.658320
 20
1810.788165
 30
0.0
 10
1428.064480
 20
1811.412805
 30
0.0
  0
SPLINE
  5
1d8
100
AcDbEntity
  8
Layer_1
 62
7
100
AcDbSpline
 70
8
 71
3
 72
8
 73
4
 74
0
 40
0
 40
0
 40
0
 40
0
 40
1
 40
1
 40
1
 40
1
 10
1428.064480
 20
1811.412805
 30
0.0
 10
1402.054720
 20
1813.876645
 30
0.0
 10
1352.816240
 20
1812.031445
 30
0.0
 10
1322.514480
 20
1812.887765
 30
0.0
  0
SPLINE
  5
1d9
100
AcDbEntity
  8
Layer_1
 62
7
100
AcDbSpline
 70
8
 71
3
 72
8
 73
4
 74
0
 40
0
 40
0
 40
0
 40
0
 40
1
 40
1
 40
1
 40
1
 10
1322.514480
 20
1812.887765
 30
0.0
 10
1322.118880
 20
1813.057285
 30
0.0
 10
1321.565440
 20
1813.112805
 30
0.0
 10
1320.989440
 20
1813.112805
 30
0.0
  0
SPLINE
  5
1da
100
AcDbEntity
  8
Layer_1
 62
7
100
AcDbSpline
 70
8
 71
3
 72
8
 73
4
 74
0
 40
0
 40
0
 40
0
 40
0
 40
1
 40
1
 40
1
 40
1
 10
1320.989440
 20
1813.112805
 30
0.0
 10
1315.245680
 20
1813.112805
 30
0.0
 10
1310.587040
 20
1808.462085
 30
0.0
 10
1310.589440
 20
1803.112805
 30
0.0
  0
SPLINE
  5
1db
100
AcDbEntity
  8
Layer_1
 62
7
100
AcDbSpline
 70
8
 71
3
 72
8
 73
4
 74
0
 40
0
 40
0
 40
0
 40
0
 40
1
 40
1
 40
1
 40
1
 10
1310.589440
 20
1803.112805
 30
0.0
 10
1315.904560
 20
1718.834805
 30
0.0
 10
1320.100880
 20
1632.162008
 30
0.0
 10
1310.589440
 20
1520.737848
 30
0.0
  0
SPLINE
  5
1dc
100
AcDbEntity
  8
Layer_1
 62
7
100
AcDbSpline
 70
8
 71
3
 72
8
 73
4
 74
0
 40
0
 40
0
 40
0
 40
0
 40
1
 40
1
 40
1
 40
1
 10
1310.589440
 20
1520.737848
 30
0.0
 10
1310.589520
 20
1515.947928
 30
0.0
 10
1313.739760
 20
1511.952808
 30
0.0
 10
1317.889440
 20
1510.637848
 30
0.0
  0
SPLINE
  5
1dd
100
AcDbEntity
  8
Layer_1
 62
7
100
AcDbSpline
 70
8
 71
3
 72
8
 73
4
 74
0
 40
0
 40
0
 40
0
 40
0
 40
1
 40
1
 40
1
 40
1
 10
1317.889440
 20
1510.637848
 30
0.0
 10
1407.025520
 20
1490.406648
 30
0.0
 10
1509.046800
 20
1492.516728
 30
0.0
 10
1621.164480
 20
1512.262808
 30
0.0
  0
LWPOLYLINE
  5
1de
100
AcDbEntity
  8
Layer_1
 62
7
100
AcDbPolyline
 90
6
 70
0
 10
1894.669120
 20
1944.962888
 30
0.0
 10
1821.289439
 20
1866.487768
 30
0.0
 10
1662.164480
 20
1870.262808
 30
0.0
 10
1629.889440
 20
1807.762805
 30
0.0
 10
1615.089440
 20
1815.462805
 30
0.0
 10
1611.064480
 20
1807.637845
 30
0.0
  0
SPLINE
  5
1df
100
AcDbEntity
  8
Layer_1
 62
7
100
AcDbSpline
 70
8
 71
3
 72
8
 73
4
 74
0
 40
0
 40
0
 40
0
 40
0
 40
1
 40
1
 40
1
 40
1
 10
1791.789439
 20
1363.837848
 30
0.0
 10
1870.064880
 20
1363.837848
 30
0.0
 10
1922.214080
 20
1355.362808
 30
0.0
 10
2000.489440
 20
1355.362808
 30
0.0
  0
SPLINE
  5
1e0
100
AcDbEntity
  8
Layer_1
 62
7
100
AcDbSpline
 70
8
 71
3
 72
8
 73
4
 74
0
 40
0
 40
0
 40
0
 40
0
 40
1
 40
1
 40
1
 40
1
 10
2000.489440
 20
1355.362808
 30
0.0
 10
2003.166880
 20
1350.859128
 30
0.0
 10
2009.825120
 20
1347.153528
 30
0.0
 10
2025.614480
 20
1350.012808
 30
0.0
  0
SPLINE
  5
1e1
100
AcDbEntity
  8
Layer_1
 62
7
100
AcDbSpline
 70
8
 71
3
 72
8
 73
4
 74
0
 40
0
 40
0
 40
0
 40
0
 40
1
 40
1
 40
1
 40
1
 10
2025.614480
 20
1350.012808
 30
0.0
 10
2057.688560
 20
1355.820968
 30
0.0
 10
2041.630320
 20
1354.254648
 30
0.0
 10
2079.364480
 20
1360.062808
 30
0.0
  0
SPLINE
  5
1e2
100
AcDbEntity
  8
Layer_1
 62
7
100
AcDbSpline
 70
8
 71
3
 72
8
 73
4
 74
0
 40
0
 40
0
 40
0
 40
0
 40
1
 40
1
 40
1
 40
1
 10
2079.364480
 20
1360.062808
 30
0.0
 10
2117.098560
 20
1365.870968
 30
0.0
 10
2205.789440
 20
1419.112808
 30
0.0
 10
2205.789440
 20
1419.112808
 30
0.0
  0
LWPOLYLINE
  5
1e3
100
AcDbEntity
  8
Layer_1
 62
7
100
AcDbPolyline
 90
6
 70
0
 10
1621.164480
 20
1512.262808
 30
0.0
 10
1624.389440
 20
1494.837848
 30
0.0
 10
1651.664480
 20
1494.837848
 30
0.0
 10
1654.864480
 20
1512.262808
 30
0.0
 10
1686.939440
 20
1540.112808
 30
0.0
 10
1791.789439
 20
1363.837848
 30
0.0
  0
SPLINE
  5
1e4
100
AcDbEntity
  8
Layer_1
 62
7
100
AcDbSpline
 70
8
 71
3
 72
8
 73
4
 74
0
 40
0
 40
0
 40
0
 40
0
 40
1
 40
1
 40
1
 40
1
 10
2222.764480
 20
1445.262808
 30
0.0
 10
2222.764480
 20
1445.262808
 30
0.0
 10
2237.852480
 20
1470.424648
 30
0.0
 10
2253.889440
 20
1444.287768
 30
0.0
  0
SPLINE
  5
1e5
100
AcDbEntity
  8
Layer_1
 62
7
100
AcDbSpline
 70
8
 71
3
 72
8
 73
4
 74
0
 40
0
 40
0
 40
0
 40
0
 40
1
 40
1
 40
1
 40
1
 10
2253.889440
 20
1444.287768
 30
0.0
 10
2269.926400
 20
1418.151048
 30
0.0
 10
2272.764480
 20
1391.037848
 30
0.0
 10
2272.764480
 20
1391.037848
 30
0.0
  0
LWPOLYLINE
  5
1e6
100
AcDbEntity
  8
Layer_1
 62
7
100
AcDbPolyline
 90
2
 70
0
 10
2205.789440
 20
1419.112808
 30
0.0
 10
2222.764480
 20
1445.262808
 30
0.0
  0
SPLINE
  5
1e7
100
AcDbEntity
  8
Layer_1
 62
7
100
AcDbSpline
 70
8
 71
3
 72
8
 73
4
 74
0
 40
0
 40
0
 40
0
 40
0
 40
1
 40
1
 40
1
 40
1
 10
2423.064480
 20
1385.587768
 30
0.0
 10
2467.089920
 20
1408.176248
 30
0.0
 10
2465.088000
 20
1408.194248
 30
0.0
 10
2496.439520
 20
1458.162808
 30
0.0
  0
SPLINE
  5
1e8
100
AcDbEntity
  8
Layer_1
 62
7
100
AcDbSpline
 70
8
 71
3
 72
8
 73
4
 74
0
 40
0
 40
0
 40
0
 40
0
 40
1
 40
1
 40
1
 40
1
 10
2496.439520
 20
1458.162808
 30
0.0
 10
2527.790960
 20
1508.131288
 30
0.0
 10
2557.139520
 20
1515.412808
 30
0.0
 10
2557.139520
 20
1515.412808
 30
0.0
  0
LWPOLYLINE
  5
1e9
100
AcDbEntity
  8
Layer_1
 62
7
100
AcDbPolyline
 90
5
 70
0
 10
2272.764480
 20
1391.037848
 30
0.0
 10
2272.764480
 20
1367.812808
 30
0.0
 10
2353.814480
 20
1367.812808
 30
0.0
 10
2369.839520
 20
1384.262808
 30
0.0
 10
2423.064480
 20
1385.587768
 30
0.0
  0
SPLINE
  5
1ea
100
AcDbEntity
  8
Layer_1
 62
7
100
AcDbSpline
 70
8
 71
3
 72
8
 73
4
 74
0
 40
0
 40
0
 40
0
 40
0
 40
1
 40
1
 40
1
 40
1
 10
2557.139520
 20
1574.437848
 30
0.0
 10
2537.314560
 20
1573.075368
 30
0.0
 10
2521.665920
 20
1588.870808
 30
0.0
 10
2505.764480
 20
1603.612808
 30
0.0
  0
LWPOLYLINE
  5
1eb
100
AcDbEntity
  8
Layer_1
 62
7
100
AcDbPolyline
 90
2
 70
0
 10
2557.139520
 20
1515.412808
 30
0.0
 10
2557.139520
 20
1574.437848
 30
0.0
  0
SPLINE
  5
1ec
100
AcDbEntity
  8
Layer_1
 62
7
100
AcDbSpline
 70
8
 71
3
 72
8
 73
4
 74
0
 40
0
 40
0
 40
0
 40
0
 40
1
 40
1
 40
1
 40
1
 10
2183.139520
 20
1557.537848
 30
0.0
 10
2183.139520
 20
1557.537848
 30
0.0
 10
2204.848960
 20
1512.043128
 30
0.0
 10
2152.964480
 20
1502.362808
 30
0.0
  0
SPLINE
  5
1ed
100
AcDbEntity
  8
Layer_1
 62
7
100
AcDbSpline
 70
8
 71
3
 72
8
 73
4
 74
0
 40
0
 40
0
 40
0
 40
0
 40
1
 40
1
 40
1
 40
1
 10
2152.964480
 20
1502.362808
 30
0.0
 10
2152.964480
 20
1502.362808
 30
0.0
 10
2125.554800
 20
1492.983208
 30
0.0
 10
2102.914480
 20
1478.462808
 30
0.0
  0
SPLINE
  5
1ee
100
AcDbEntity
  8
Layer_1
 62
7
100
AcDbSpline
 70
8
 71
3
 72
8
 73
4
 74
0
 40
0
 40
0
 40
0
 40
0
 40
1
 40
1
 40
1
 40
1
 10
2102.914480
 20
1478.462808
 30
0.0
 10
2102.914480
 20
1478.462808
 30
0.0
 10
2077.497440
 20
1461.133688
 30
0.0
 10
2021.839520
 20
1464.037848
 30
0.0
  0
SPLINE
  5
1ef
100
AcDbEntity
  8
Layer_1
 62
7
100
AcDbSpline
 70
8
 71
3
 72
8
 73
4
 74
0
 40
0
 40
0
 40
0
 40
0
 40
1
 40
1
 40
1
 40
1
 10
2021.839520
 20
1464.037848
 30
0.0
 10
2021.839520
 20
1464.037848
 30
0.0
 10
2009.122640
 20
1466.698088
 30
0.0
 10
2002.689440
 20
1455.112808
 30
0.0
  0
LWPOLYLINE
  5
1f0
100
AcDbEntity
  8
Layer_1
 62
7
100
AcDbPolyline
 90
5
 70
0
 10
2505.764480
 20
1603.612808
 30
0.0
 10
2505.764480
 20
1622.462808
 30
0.0
 10
2168.914480
 20
1622.462808
 30
0.0
 10
2168.814480
 20
1582.987768
 30
0.0
 10
2183.139520
 20
1557.537848
 30
0.0
  0
SPLINE
  5
1f1
100
AcDbEntity
  8
Layer_1
 62
7
100
AcDbSpline
 70
8
 71
3
 72
8
 73
4
 74
0
 40
0
 40
0
 40
0
 40
0
 40
1
 40
1
 40
1
 40
1
 10
2516.064480
 20
1788.462805
 30
0.0
 10
2506.878960
 20
1832.373368
 30
0.0
 10
2488.789440
 20
1851.762808
 30
0.0
 10
2488.789440
 20
1851.762808
 30
0.0
  0
LWPOLYLINE
  5
1f2
100
AcDbEntity
  8
Layer_1
 62
7
100
AcDbPolyline
 90
5
 70
0
 10
2002.689440
 20
1455.112808
 30
0.0
 10
1848.089439
 20
1461.912808
 30
0.0
 10
1792.014479
 20
1558.487768
 30
0.0
 10
1792.014479
 20
1788.462805
 30
0.0
 10
2516.064480
 20
1788.462805
 30
0.0
  0
LWPOLYLINE
  5
1f3
100
AcDbEntity
  8
Layer_1
 62
7
100
AcDbPolyline
 90
9
 70
0
 10
2488.789440
 20
1851.762808
 30
0.0
 10
2355.489440
 20
1854.662808
 30
0.0
 10
2300.214480
 20
1944.962808
 30
0.0
 10
2288.211600
 20
1964.562888
 30
0.0
 10
2228.285520
 20
1964.562888
 30
0.0
 10
2228.285520
 20
1944.962888
 30
0.0
 10
1986.864480
 20
1944.962808
 30
0.0
 10
1986.864480
 20
1944.962888
 30
0.0
 10
1894.669120
 20
1944.962888
 30
0.0
  0
SPLINE
  5
1f4
100
AcDbEntity
  8
Layer_1
 62
7
100
AcDbSpline
 70
8
 71
3
 72
8
 73
4
 74
0
 40
0
 40
0
 40
0
 40
0
 40
1
 40
1
 40
1
 40
1
 10
2309.164480
 20
1554.562808
 30
0.0
 10
2336.868560
 20
1554.562808
 30
0.0
 10
2359.339520
 20
1538.366888
 30
0.0
 10
2359.339520
 20
1518.387768
 30
0.0
  0
LWPOLYLINE
  5
1f5
100
AcDbEntity
  8
Layer_1
 62
7
100
AcDbPolyline
 90
7
 70
0
 10
1955.739520
 20
1902.162808
 30
0.0
 10
2232.464480
 20
1902.162808
 30
0.0
 10
2266.339520
 20
1856.587768
 30
0.0
 10
2243.289440
 20
1816.637848
 30
0.0
 10
1945.214480
 20
1816.637848
 30
0.0
 10
1917.764480
 20
1864.187768
 30
0.0
 10
1955.739520
 20
1902.162808
 30
0.0
  0
SPLINE
  5
1f6
100
AcDbEntity
  8
Layer_1
 62
7
100
AcDbSpline
 70
8
 71
3
 72
8
 73
4
 74
0
 40
0
 40
0
 40
0
 40
0
 40
1
 40
1
 40
1
 40
1
 10
2359.339520
 20
1518.338168
 30
0.0
 10
2384.597760
 20
1516.918568
 30
0.0
 10
2404.664480
 20
1493.192968
 30
0.0
 10
2404.664480
 20
1464.138168
 30
0.0
  0
SPLINE
  5
1f7
100
AcDbEntity
  8
Layer_1
 62
7
100
AcDbSpline
 70
8
 71
3
 72
8
 73
4
 74
0
 40
0
 40
0
 40
0
 40
0
 40
1
 40
1
 40
1
 40
1
 10
2404.664480
 20
1464.138168
 30
0.0
 10
2404.664480
 20
1434.169928
 30
0.0
 10
2383.286720
 20
1409.863128
 30
0.0
 10
2356.914480
 20
1409.863128
 30
0.0
  0
SPLINE
  5
1f8
100
AcDbEntity
  8
Layer_1
 62
7
100
AcDbSpline
 70
8
 71
3
 72
8
 73
4
 74
0
 40
0
 40
0
 40
0
 40
0
 40
1
 40
1
 40
1
 40
1
 10
2356.914480
 20
1409.863128
 30
0.0
 10
2330.542320
 20
1409.863128
 30
0.0
 10
2309.164480
 20
1434.169928
 30
0.0
 10
2309.164480
 20
1464.138168
 30
0.0
  0
SPLINE
  5
1f9
100
AcDbEntity
  8
Layer_1
 62
7
100
AcDbSpline
 70
8
 71
3
 72
8
 73
4
 74
0
 40
0
 40
0
 40
0
 40
0
 40
1
 40
1
 40
1
 40
1
 10
2309.164480
 20
1464.138168
 30
0.0
 10
2309.164480
 20
1470.504408
 30
0.0
 10
2310.142080
 20
1476.612488
 30
0.0
 10
2311.914480
 20
1482.288088
 30
0.0
  0
SPLINE
  5
1fa
100
AcDbEntity
  8
Layer_1
 62
7
100
AcDbSpline
 70
8
 71
3
 72
8
 73
4
 74
0
 40
0
 40
0
 40
0
 40
0
 40
1
 40
1
 40
1
 40
1
 10
2311.914480
 20
1482.288088
 30
0.0
 10
2311.009440
 20
1482.252888
 30
0.0
 10
2310.081600
 20
1482.212888
 30
0.0
 10
2309.164480
 20
1482.212888
 30
0.0
  0
SPLINE
  5
1fb
100
AcDbEntity
  8
Layer_1
 62
7
100
AcDbSpline
 70
8
 71
3
 72
8
 73
4
 74
0
 40
0
 40
0
 40
0
 40
0
 40
1
 40
1
 40
1
 40
1
 10
2309.164480
 20
1482.212888
 30
0.0
 10
2281.460320
 20
1482.212888
 30
0.0
 10
2259.014480
 20
1498.408888
 30
0.0
 10
2259.014480
 20
1518.387848
 30
0.0
  0
SPLINE
  5
1fc
100
AcDbEntity
  8
Layer_1
 62
7
100
AcDbSpline
 70
8
 71
3
 72
8
 73
4
 74
0
 40
0
 40
0
 40
0
 40
0
 40
1
 40
1
 40
1
 40
1
 10
2259.014480
 20
1518.387848
 30
0.0
 10
2259.014480
 20
1538.366888
 30
0.0
 10
2281.460320
 20
1554.562968
 30
0.0
 10
2309.164480
 20
1554.562888
 30
0.0
  0
LWPOLYLINE
  5
1fd
100
AcDbEntity
  8
Layer_1
 62
7
100
AcDbPolyline
 90
2
 70
0
 10
2359.339520
 20
1518.387768
 30
0.0
 10
2359.339520
 20
1518.338168
 30
0.0
  0
SPLINE
  5
1fe
100
AcDbEntity
  8
Layer_1
 62
7
100
AcDbSpline
 70
8
 71
3
 72
8
 73
4
 74
0
 40
0
 40
0
 40
0
 40
0
 40
1
 40
1
 40
1
 40
1
 10
2203.086351
 20
1564.912896
 30
0.0
 10
2203.086351
 20
1562.548862
 30
0.0
 10
2201.168115
 20
1560.632408
 30
0.0
 10
2198.801883
 20
1560.632408
 30
0.0
  0
SPLINE
  5
1ff
100
AcDbEntity
  8
Layer_1
 62
7
100
AcDbSpline
 70
8
 71
3
 72
8
 73
4
 74
0
 40
0
 40
0
 40
0
 40
0
 40
1
 40
1
 40
1
 40
1
 10
2198.801883
 20
1560.632408
 30
0.0
 10
2196.435650
 20
1560.632408
 30
0.0
 10
2194.517415
 20
1562.548862
 30
0.0
 10
2194.517415
 20
1564.912896
 30
0.0
  0
SPLINE
  5
200
100
AcDbEntity
  8
Layer_1
 62
7
100
AcDbSpline
 70
8
 71
3
 72
8
 73
4
 74
0
 40
0
 40
0
 40
0
 40
0
 40
1
 40
1
 40
1
 40
1
 10
2194.517415
 20
1564.912896
 30
0.0
 10
2194.517415
 20
1567.276931
 30
0.0
 10
2196.435650
 20
1569.193384
 30
0.0
 10
2198.801883
 20
1569.193384
 30
0.0
  0
SPLINE
  5
201
100
AcDbEntity
  8
Layer_1
 62
7
100
AcDbSpline
 70
8
 71
3
 72
8
 73
4
 74
0
 40
0
 40
0
 40
0
 40
0
 40
1
 40
1
 40
1
 40
1
 10
2198.801883
 20
1569.193384
 30
0.0
 10
2201.168115
 20
1569.193384
 30
0.0
 10
2203.086351
 20
1567.276931
 30
0.0
 10
2203.086351
 20
1564.912896
 30
0.0
  0
LWPOLYLINE
  5
202
100
AcDbEntity
  8
Layer_1
 62
7
100
AcDbPolyline
 90
2
 70
0
 10
2309.164480
 20
1554.562888
 30
0.0
 10
2309.164480
 20
1554.562808
 30
0.0
  0
SPLINE
  5
203
100
AcDbEntity
  8
Layer_1
 62
7
100
AcDbSpline
 70
8
 71
3
 72
8
 73
4
 74
0
 40
0
 40
0
 40
0
 40
0
 40
1
 40
1
 40
1
 40
1
 10
1934.591024
 20
1652.726024
 30
0.0
 10
1934.591024
 20
1652.726024
 30
0.0
 10
1949.012864
 20
1575.471224
 30
0.0
 10
1947.048624
 20
1570.252104
 30
0.0
  0
SPLINE
  5
204
100
AcDbEntity
  8
Layer_1
 62
7
100
AcDbSpline
 70
8
 71
3
 72
8
 73
4
 74
0
 40
0
 40
0
 40
0
 40
0
 40
1
 40
1
 40
1
 40
1
 10
1947.048624
 20
1570.252104
 30
0.0
 10
1944.709184
 20
1564.036184
 30
0.0
 10
1925.427024
 20
1546.630584
 30
0.0
 10
1925.427024
 20
1546.630584
 30
0.0
  0
SPLINE
  5
205
100
AcDbEntity
  8
Layer_1
 62
7
100
AcDbSpline
 70
8
 71
3
 72
8
 73
4
 74
0
 40
0
 40
0
 40
0
 40
0
 40
1
 40
1
 40
1
 40
1
 10
1925.427024
 20
1546.630584
 30
0.0
 10
1925.427024
 20
1546.630584
 30
0.0
 10
1919.657504
 20
1542.092504
 30
0.0
 10
1914.891184
 20
1542.034424
 30
0.0
  0
SPLINE
  5
206
100
AcDbEntity
  8
Layer_1
 62
7
100
AcDbSpline
 70
8
 71
3
 72
8
 73
4
 74
0
 40
0
 40
0
 40
0
 40
0
 40
1
 40
1
 40
1
 40
1
 10
1914.891184
 20
1542.034424
 30
0.0
 10
1909.710784
 20
1541.971224
 30
0.0
 10
1904.060944
 20
1547.237944
 30
0.0
 10
1904.060944
 20
1547.237944
 30
0.0
  0
LWPOLYLINE
  5
207
100
AcDbEntity
  8
Layer_1
 62
7
100
AcDbPolyline
 90
2
 70
0
 10
2203.086351
 20
1564.912896
 30
0.0
 10
2203.086351
 20
1564.912896
 30
0.0
  0
SPLINE
  5
208
100
AcDbEntity
  8
Layer_1
 62
7
100
AcDbSpline
 70
8
 71
3
 72
8
 73
4
 74
0
 40
0
 40
0
 40
0
 40
0
 40
1
 40
1
 40
1
 40
1
 10
1822.914464
 20
1623.532744
 30
0.0
 10
1820.233664
 20
1626.504664
 30
0.0
 10
1818.588304
 20
1630.473144
 30
0.0
 10
1818.588304
 20
1634.825944
 30
0.0
  0
LWPOLYLINE
  5
209
100
AcDbEntity
  8
Layer_1
 62
7
100
AcDbPolyline
 90
2
 70
0
 10
1904.060944
 20
1547.237944
 30
0.0
 10
1822.914464
 20
1623.532744
 30
0.0
  0
SPLINE
  5
20a
100
AcDbEntity
  8
Layer_1
 62
7
100
AcDbSpline
 70
8
 71
3
 72
8
 73
4
 74
0
 40
0
 40
0
 40
0
 40
0
 40
1
 40
1
 40
1
 40
1
 10
1839.775455
 20
1634.825920
 30
0.0
 10
1839.775455
 20
1632.461886
 30
0.0
 10
1837.857219
 20
1630.545432
 30
0.0
 10
1835.490987
 20
1630.545432
 30
0.0
  0
SPLINE
  5
20b
100
AcDbEntity
  8
Layer_1
 62
7
100
AcDbSpline
 70
8
 71
3
 72
8
 73
4
 74
0
 40
0
 40
0
 40
0
 40
0
 40
1
 40
1
 40
1
 40
1
 10
1835.490987
 20
1630.545432
 30
0.0
 10
1833.124754
 20
1630.545432
 30
0.0
 10
1831.206519
 20
1632.461886
 30
0.0
 10
1831.206519
 20
1634.825920
 30
0.0
  0
SPLINE
  5
20c
100
AcDbEntity
  8
Layer_1
 62
7
100
AcDbSpline
 70
8
 71
3
 72
8
 73
4
 74
0
 40
0
 40
0
 40
0
 40
0
 40
1
 40
1
 40
1
 40
1
 10
1831.206519
 20
1634.825920
 30
0.0
 10
1831.206519
 20
1637.189955
 30
0.0
 10
1833.124754
 20
1639.106408
 30
0.0
 10
1835.490987
 20
1639.106408
 30
0.0
  0
SPLINE
  5
20d
100
AcDbEntity
  8
Layer_1
 62
7
100
AcDbSpline
 70
8
 71
3
 72
8
 73
4
 74
0
 40
0
 40
0
 40
0
 40
0
 40
1
 40
1
 40
1
 40
1
 10
1835.490987
 20
1639.106408
 30
0.0
 10
1837.857219
 20
1639.106408
 30
0.0
 10
1839.775455
 20
1637.189955
 30
0.0
 10
1839.775455
 20
1634.825920
 30
0.0
  0
LWPOLYLINE
  5
20e
100
AcDbEntity
  8
Layer_1
 62
7
100
AcDbPolyline
 90
5
 70
0
 10
1818.588304
 20
1634.825944
 30
0.0
 10
1818.756464
 20
1758.902424
 30
0.0
 10
1853.039984
 20
1758.902424
 30
0.0
 10
1852.757104
 20
1651.579624
 30
0.0
 10
1934.591024
 20
1652.726024
 30
0.0
  0
LWPOLYLINE
  5
20f
100
AcDbEntity
  8
Layer_1
 62
7
100
AcDbPolyline
 90
2
 70
0
 10
1839.775455
 20
1634.825920
 30
0.0
 10
1839.775455
 20
1634.825920
 30
0.0
  0
LWPOLYLINE
  5
210
100
AcDbEntity
  8
Layer_1
 62
7
100
AcDbPolyline
 90
29
 70
0
 10
2005.783864
 20
1693.587463
 30
0.0
 10
2005.783864
 20
1675.635839
 30
0.0
 10
2021.971704
 20
1675.635839
 30
0.0
 10
2021.971704
 20
1657.573359
 30
0.0
 10
2021.971704
 20
1657.573359
 30
0.0
 10
2021.971704
 20
1608.690480
 30
0.0
 10
2021.971704
 20
1608.690480
 30
0.0
 10
2021.971704
 20
1590.629600
 30
0.0
 10
2005.783864
 20
1590.629600
 30
0.0
 10
2005.783864
 20
1572.676480
 30
0.0
 10
2025.337064
 20
1572.676480
 30
0.0
 10
2074.086984
 20
1572.676480
 30
0.0
 10
2074.086984
 20
1572.684480
 30
0.0
 10
2092.080744
 20
1572.684480
 30
0.0
 10
2092.080744
 20
1590.637600
 30
0.0
 10
2075.881704
 20
1590.637600
 30
0.0
 10
2075.881704
 20
1608.690720
 30
0.0
 10
2075.881704
 20
1608.690720
 30
0.0
 10
2075.881704
 20
1657.573599
 30
0.0
 10
2075.881704
 20
1657.573599
 30
0.0
 10
2075.881704
 20
1675.628239
 30
0.0
 10
2092.080744
 20
1675.628239
 30
0.0
 10
2092.080744
 20
1693.579863
 30
0.0
 10
2074.086984
 20
1693.579863
 30
0.0
 10
2074.086984
 20
1693.587863
 30
0.0
 10
2025.337064
 20
1693.587863
 30
0.0
 10
2023.737064
 20
1693.587863
 30
0.0
 10
2005.783864
 20
1693.587863
 30
0.0
 10
2005.783864
 20
1693.587463
 30
0.0
  0
ENDSEC
  0
SECTION
  2
OBJECTS
  0
DICTIONARY
  5
C
330
0
100
AcDbDictionary
  3
ACAD_GROUP
350
D
  3
ACAD_MLINESTYLE
350
17
  0
DICTIONARY
  5
D
330
C
100
AcDbDictionary
  0
DICTIONARY
  5
1A
330
C
100
AcDbDictionary
  0
DICTIONARY
  5
17
330
C
100
AcDbDictionary
  3
STANDARD
350
18
  0
DICTIONARY
  5
19
330
C
100
AcDbDictionary
  0
ENDSEC
  0
EOF
